999
"DXF R12 Output" (www.mydxf.blogspot.com)
 0 
SECTION
 2 
HEADER
 9 
$ACADVER
 1 
AC1009
 9 
$EXTMIN
 10 
 0 
 20 
 0 
 9 
$EXTMAX
 10 
 8.5 
 20 
 11 
 0 
ENDSEC
 0 
SECTION
 2 
ENTITIES
0
LINE
8
Layer 1
10
0.846666
20
488.527000
11
-0.846666
21
486.833000
0
LINE
8
Layer 1
10
0.000000
20
489.091000
11
0.000000
21
486.269000
0
LINE
8
Layer 1
10
2.257780
20
486.551000
11
1.128890
21
485.422110
0
LINE
8
Layer 1
10
1.693330
20
487.116000
11
0.564440
21
485.987110
0
LINE
8
Layer 1
10
1.128890
20
487.680000
11
0.000000
21
486.551110
0
LINE
8
Default
10
28.353200
20
397.176000
11
28.353200
21
366.766000
0
LINE
8
Default
10
12.427100
20
397.176000
11
28.353200
21
397.176000
0
LINE
8
Default
10
12.427100
20
229.952000
11
12.427100
21
397.176000
0
LINE
8
Default
10
28.353200
20
229.952000
11
12.427100
21
229.952000
0
LINE
8
Default
10
28.353200
20
268.325700
11
28.353200
21
229.952000
0
LINE
8
Default
10
29.540250
20
265.810800
11
28.353200
21
268.325680
0
LINE
8
Default
10
30.780640
20
263.321320
11
29.540250
21
265.810800
0
LINE
8
Default
10
31.868070
20
261.240780
11
30.780630
21
263.321320
0
LINE
8
Default
10
32.992290
20
259.178580
11
31.868060
21
261.240780
0
LINE
8
Default
10
35.347580
20
255.111480
11
32.992290
21
259.178580
0
LINE
8
Default
10
37.839470
20
251.124250
11
35.347580
21
255.111480
0
LINE
8
Default
10
40.460910
20
247.220840
11
37.839470
21
251.124250
0
LINE
8
Default
10
43.204840
20
243.405480
11
40.460910
21
247.220840
0
LINE
8
Default
10
46.065400
20
239.678460
11
43.204840
21
243.405480
0
LINE
8
Default
10
49.037340
20
236.040900
11
46.065400
21
239.678460
0
LINE
8
Default
10
52.115420
20
232.492810
11
49.037340
21
236.040900
0
LINE
8
Default
10
55.294400
20
229.034460
11
52.115420
21
232.492810
0
LINE
8
Default
10
58.569030
20
225.666140
11
55.294400
21
229.034460
0
LINE
8
Default
10
61.934080
20
222.388410
11
58.569030
21
225.666140
0
LINE
8
Default
10
65.384300
20
219.201560
11
61.934080
21
222.388410
0
LINE
8
Default
10
68.915360
20
216.105300
11
65.384300
21
219.201560
0
LINE
8
Default
10
72.523670
20
213.098790
11
68.915360
21
216.105300
0
LINE
8
Default
10
76.205090
20
210.181460
11
72.523660
21
213.098790
0
LINE
8
Default
10
79.955510
20
207.353310
11
76.205090
21
210.181460
0
LINE
8
Default
10
83.770800
20
204.613790
11
79.955510
21
207.353310
0
LINE
8
Default
10
87.646820
20
201.962880
11
83.770790
21
204.613790
0
LINE
8
Default
10
91.579450
20
199.400020
11
87.646810
21
201.962880
0
LINE
8
Default
10
95.564570
20
196.924940
11
91.579440
21
199.400030
0
LINE
8
Default
10
99.601080
20
194.535650
11
95.564570
21
196.924940
0
LINE
8
Default
10
103.688710
20
192.230180
11
99.601080
21
194.535650
0
LINE
8
Default
10
107.824600
20
190.007400
11
103.688710
21
192.230180
0
LINE
8
Default
10
112.005870
20
187.867590
11
107.824600
21
190.007400
0
LINE
8
Default
10
116.229660
20
185.809910
11
112.005870
21
187.867590
0
LINE
8
Default
10
120.493100
20
183.834070
11
116.229660
21
185.809910
0
LINE
8
Default
10
124.793320
20
181.939520
11
120.493100
21
183.834080
0
LINE
8
Default
10
129.127460
20
180.125970
11
124.793320
21
181.939530
0
LINE
8
Default
10
133.492930
20
178.392850
11
129.127460
21
180.125980
0
LINE
8
Default
10
137.887640
20
176.739030
11
133.492920
21
178.392850
0
LINE
8
Default
10
142.309460
20
175.164510
11
137.887630
21
176.739030
0
LINE
8
Default
10
146.756270
20
173.668170
11
142.309460
21
175.164510
0
LINE
8
Default
10
155.716360
20
170.908880
11
146.756320
21
173.668160
0
LINE
8
Default
10
164.750720
20
168.456370
11
155.716330
21
170.908880
0
LINE
8
Default
10
173.849130
20
166.304150
11
164.750750
21
168.456370
0
LINE
8
Default
10
183.009750
20
164.446560
11
173.849130
21
166.304150
0
LINE
8
Default
10
192.228430
20
162.879950
11
183.009710
21
164.446560
0
LINE
8
Default
10
201.501110
20
161.600920
11
192.228440
21
162.879950
0
LINE
8
Default
10
210.809340
20
160.608060
11
201.501140
21
161.600917
0
LINE
8
Default
10
220.134240
20
159.901377
11
210.809330
21
160.608061
0
LINE
8
Default
10
229.471230
20
159.478611
11
220.134250
21
159.901380
0
LINE
8
Default
10
238.815550
20
159.338629
11
229.471240
21
159.478611
0
LINE
8
Default
10
248.159840
20
159.478611
11
238.815550
21
159.337500
0
LINE
8
Default
10
257.496750
20
159.902226
11
248.159860
21
159.478611
0
LINE
8
Default
10
266.821560
20
160.610041
11
257.496750
21
159.902228
0
LINE
8
Default
10
276.129750
20
161.604028
11
266.821560
21
160.610042
0
LINE
8
Default
10
285.402360
20
162.884182
11
276.129750
21
161.604022
0
LINE
8
Default
10
294.620850
20
164.451642
11
285.402380
21
162.884182
0
LINE
8
Default
10
303.781180
20
166.310362
11
294.620820
21
164.451652
0
LINE
8
Default
10
312.879320
20
168.463722
11
303.781130
21
166.310372
0
LINE
8
Default
10
321.913530
20
170.917362
11
312.879350
21
168.463722
0
LINE
8
Default
10
330.873150
20
173.677772
11
321.913500
21
170.917362
0
LINE
8
Default
10
335.319700
20
175.174682
11
330.873120
21
173.677772
0
LINE
8
Default
10
339.741300
20
176.749762
11
335.319700
21
175.174682
0
LINE
8
Default
10
344.135810
20
178.403862
11
339.741300
21
176.749762
0
LINE
8
Default
10
348.501080
20
180.137842
11
344.135810
21
178.403872
0
LINE
8
Default
10
352.835020
20
181.951962
11
348.501080
21
180.137842
0
LINE
8
Default
10
357.135010
20
183.847082
11
352.835020
21
181.951962
0
LINE
8
Default
10
361.398230
20
185.823482
11
357.135010
21
183.847082
0
LINE
8
Default
10
365.621740
20
187.881732
11
361.398230
21
185.823482
0
LINE
8
Default
10
369.802720
20
190.022382
11
365.621740
21
187.881732
0
LINE
8
Default
10
373.938290
20
192.245452
11
369.802720
21
190.022392
0
LINE
8
Default
10
378.025600
20
194.552052
11
373.938290
21
192.245452
0
LINE
8
Default
10
382.061710
20
196.941912
11
378.025600
21
194.552052
0
LINE
8
Default
10
386.046430
20
199.417562
11
382.061710
21
196.941912
0
LINE
8
Default
10
389.978600
20
201.980982
11
386.046430
21
199.417562
0
LINE
8
Default
10
393.854130
20
204.632462
11
389.978600
21
201.980982
0
LINE
8
Default
10
397.668870
20
207.372542
11
393.854130
21
204.632462
0
LINE
8
Default
10
401.418750
20
210.201262
11
397.668870
21
207.372552
0
LINE
8
Default
10
405.099610
20
213.119152
11
401.418760
21
210.201262
0
LINE
8
Default
10
408.707340
20
216.126512
11
405.099610
21
213.119152
0
LINE
8
Default
10
412.237790
20
219.223332
11
408.707330
21
216.126512
0
LINE
8
Default
10
415.687410
20
222.410752
11
412.237780
21
219.223332
0
LINE
8
Default
10
419.051830
20
225.689042
11
415.687410
21
222.410752
0
LINE
8
Default
10
422.325810
20
229.058212
11
419.051840
21
225.689042
0
LINE
8
Default
10
425.504110
20
232.517122
11
422.325810
21
229.058212
0
LINE
8
Default
10
428.581460
20
236.066062
11
425.504110
21
232.517122
0
LINE
8
Default
10
431.552640
20
239.704472
11
428.581460
21
236.066062
0
LINE
8
Default
10
434.412360
20
243.431772
11
431.552630
21
239.704462
0
LINE
8
Default
10
437.155410
20
247.247972
11
434.412350
21
243.431762
0
LINE
8
Default
10
439.775920
20
251.151942
11
437.155400
21
247.247962
0
LINE
8
Default
10
442.266810
20
255.139732
11
439.775920
21
251.151932
0
LINE
8
Default
10
444.621050
20
259.207672
11
442.266810
21
255.139722
0
LINE
8
Default
10
445.744740
20
261.269862
11
444.621040
21
259.207662
0
LINE
8
Default
10
446.831630
20
263.350682
11
445.744740
21
261.269862
0
LINE
8
Default
10
447.881100
20
265.449852
11
446.831630
21
263.350682
0
LINE
8
Default
10
448.892730
20
267.566792
11
447.881110
21
265.449842
0
LINE
8
Default
10
449.865890
20
269.702082
11
448.892732
21
267.566792
0
LINE
8
Default
10
450.799902
20
271.855152
11
449.865888
21
269.702082
0
LINE
8
Default
10
451.694178
20
274.025722
11
450.799901
21
271.855152
0
LINE
8
Default
10
452.548101
20
276.213782
11
451.694182
21
274.025722
0
LINE
8
Default
10
453.361042
20
278.419352
11
452.548102
21
276.213792
0
LINE
8
Default
10
454.132322
20
280.641852
11
453.361037
21
278.419352
0
LINE
8
Default
10
454.860677
20
282.879022
11
454.132318
21
280.641852
0
LINE
8
Default
10
455.544898
20
285.128332
11
454.860679
21
282.879022
0
LINE
8
Default
10
456.184529
20
287.389772
11
455.544901
21
285.128332
0
LINE
8
Default
10
456.779171
20
289.662232
11
456.184529
21
287.389782
0
LINE
8
Default
10
457.328349
20
291.945692
11
456.779173
21
289.662232
0
LINE
8
Default
10
457.831663
20
294.239312
11
457.328348
21
291.945692
0
LINE
8
Default
10
458.288637
20
296.543092
11
457.831663
21
294.239312
0
LINE
8
Default
10
458.698847
20
298.856182
11
458.288637
21
296.543092
0
LINE
8
Default
10
459.061671
20
301.175762
11
458.698846
21
298.856182
0
LINE
8
Default
10
459.376659
20
303.499862
11
459.061671
21
301.175762
0
LINE
8
Default
10
459.643585
20
305.828752
11
459.376659
21
303.499852
0
LINE
8
Default
10
459.862363
20
308.162442
11
459.643585
21
305.828752
0
LINE
8
Default
10
460.032741
20
310.501502
11
459.862364
21
308.162442
0
LINE
8
Default
10
460.154605
20
312.846202
11
460.032742
21
310.501502
0
LINE
8
Default
10
460.227786
20
315.196552
11
460.154606
21
312.846212
0
LINE
8
Default
10
460.252085
20
317.553112
11
460.227814
21
315.196562
0
LINE
8
Default
10
460.227814
20
319.909672
11
460.252368
21
317.553122
0
LINE
8
Default
10
460.154267
20
322.260302
11
460.227814
21
319.909672
0
LINE
8
Default
10
460.032037
20
324.604722
11
460.154267
21
322.260302
0
LINE
8
Default
10
459.861264
20
326.943772
11
460.032037
21
324.604712
0
LINE
8
Default
10
459.642119
20
329.277462
11
459.861264
21
326.943772
0
LINE
8
Default
10
459.374798
20
331.606362
11
459.642119
21
329.277462
0
LINE
8
Default
10
459.059472
20
333.930452
11
459.374799
21
331.606352
0
LINE
8
Default
10
458.696281
20
336.250032
11
459.059472
21
333.930452
0
LINE
8
Default
10
458.285704
20
338.562842
11
458.696281
21
336.250032
0
LINE
8
Default
10
457.828392
20
340.866622
11
458.285705
21
338.562842
0
LINE
8
Default
10
457.324739
20
343.160242
11
457.828392
21
340.866622
0
LINE
8
Default
10
456.775192
20
345.443412
11
457.324735
21
343.160232
0
LINE
8
Default
10
456.180215
20
347.715862
11
456.775195
21
345.443412
0
LINE
8
Default
10
455.540245
20
349.977022
11
456.180212
21
347.715862
0
LINE
8
Default
10
454.855692
20
352.226612
11
455.540250
21
349.977022
0
LINE
8
Default
10
454.127020
20
354.463502
11
454.855689
21
352.226612
0
LINE
8
Default
10
453.355399
20
356.686002
11
454.127022
21
354.463502
0
LINE
8
Default
10
452.542172
20
358.891282
11
453.355395
21
356.686002
0
LINE
8
Default
10
451.687945
20
361.079072
11
452.542175
21
358.891292
0
LINE
8
Default
10
450.793355
20
363.249642
11
451.687942
21
361.079072
0
LINE
8
Default
10
449.859002
20
365.402712
11
450.793354
21
363.249642
0
LINE
8
Default
10
448.885564
20
367.537722
11
449.859004
21
365.402712
0
LINE
8
Default
10
447.873654
20
369.654672
11
448.885564
21
367.537722
0
LINE
8
Default
10
446.823874
20
371.753552
11
447.873654
21
369.654662
0
LINE
8
Default
10
445.736694
20
373.834372
11
446.823874
21
371.753552
0
LINE
8
Default
10
444.612724
20
375.896572
11
445.736704
21
373.834372
0
LINE
8
Default
10
442.257924
20
379.963952
11
444.612724
21
375.896572
0
LINE
8
Default
10
439.766494
20
383.951752
11
442.257924
21
379.963952
0
LINE
8
Default
10
437.145504
20
387.855442
11
439.766504
21
383.951752
0
LINE
8
Default
10
434.402004
20
391.671092
11
437.145514
21
387.855452
0
LINE
8
Default
10
431.541854
20
395.398122
11
434.402004
21
391.671102
0
LINE
8
Default
10
428.570284
20
399.036252
11
431.541854
21
395.398132
0
LINE
8
Default
10
425.492564
20
402.584632
11
428.570284
21
399.036252
0
LINE
8
Default
10
422.313934
20
406.043542
11
425.492574
21
402.584632
0
LINE
8
Default
10
419.039624
20
409.411862
11
422.313934
21
406.043542
0
LINE
8
Default
10
415.674864
20
412.689872
11
419.039624
21
409.411862
0
LINE
8
Default
10
412.224954
20
415.877002
11
415.674864
21
412.689872
0
LINE
8
Default
10
408.694184
20
418.973832
11
412.224954
21
415.877012
0
LINE
8
Default
10
405.086144
20
421.980632
11
408.694184
21
418.973842
0
LINE
8
Default
10
401.404984
20
424.898242
11
405.086144
21
421.980632
0
LINE
8
Default
10
397.654844
20
427.726672
11
401.404984
21
424.898242
0
LINE
8
Default
10
393.839794
20
430.466482
11
397.654844
21
427.726672
0
LINE
8
Default
10
389.964014
20
433.117672
11
393.839794
21
430.466482
0
LINE
8
Default
10
386.031584
20
435.680812
11
389.964004
21
433.117672
0
LINE
8
Default
10
382.046664
20
438.156182
11
386.031584
21
435.680812
0
LINE
8
Default
10
378.010354
20
440.545752
11
382.046664
21
438.156182
0
LINE
8
Default
10
373.922964
20
442.851792
11
378.010354
21
440.545752
0
LINE
8
Default
10
369.787284
20
445.074572
11
373.922964
21
442.851792
0
LINE
8
Default
10
365.606244
20
447.214662
11
369.787274
21
445.074572
0
LINE
8
Default
10
361.382644
20
449.272712
11
365.606234
21
447.214662
0
LINE
8
Default
10
357.119394
20
451.248852
11
361.382644
21
449.272702
0
LINE
8
Default
10
352.819324
20
453.143632
11
357.119404
21
451.248852
0
LINE
8
Default
10
348.485334
20
454.957442
11
352.819334
21
453.143632
0
LINE
8
Default
10
344.119954
20
456.690992
11
348.485334
21
454.957442
0
LINE
8
Default
10
339.725364
20
458.344892
11
344.119954
21
456.690982
0
LINE
8
Default
10
335.303654
20
459.919802
11
339.725364
21
458.344892
0
LINE
8
Default
10
330.856934
20
461.416252
11
335.303654
21
459.919802
0
LINE
8
Default
10
321.897054
20
464.176132
11
330.856894
21
461.416252
0
LINE
8
Default
10
312.862794
20
466.629202
11
321.897054
21
464.176132
0
LINE
8
Default
10
303.764454
20
468.781962
11
312.862754
21
466.629202
0
LINE
8
Default
10
294.603954
20
470.640142
11
303.764424
21
468.781962
0
LINE
8
Default
10
285.385324
20
472.207232
11
294.603904
21
470.640142
0
LINE
8
Default
10
276.112704
20
473.486802
11
285.385344
21
472.207232
0
LINE
8
Default
10
266.804544
20
474.480162
11
276.112704
21
473.486797
0
LINE
8
Default
10
257.479704
20
475.187497
11
266.804544
21
474.480164
0
LINE
8
Default
10
248.142844
20
475.610574
11
257.479734
21
475.187495
0
LINE
8
Default
10
238.798534
20
475.751205
11
248.142874
21
475.610574
0
LINE
8
Default
10
229.453974
20
475.610574
11
238.798574
21
475.751205
0
LINE
8
Default
10
220.116774
20
475.187467
11
229.453944
21
475.610574
0
LINE
8
Default
10
210.791644
20
474.480074
11
220.116724
21
475.187463
0
LINE
8
Default
10
201.483224
20
473.486683
11
210.791644
21
474.480076
0
LINE
8
Default
10
192.210344
20
472.207036
11
201.483224
21
473.486686
0
LINE
8
Default
10
182.991524
20
470.639826
11
192.210364
21
472.207036
0
LINE
8
Default
10
173.830764
20
468.781536
11
182.991474
21
470.639826
0
LINE
8
Default
10
164.732274
20
466.628716
11
173.830784
21
468.781536
0
LINE
8
Default
10
155.697784
20
464.175536
11
164.732274
21
466.628726
0
LINE
8
Default
10
146.737774
20
461.415496
11
155.697824
21
464.175546
0
LINE
8
Default
10
142.291024
20
459.918956
11
146.737814
21
461.415496
0
LINE
8
Default
10
137.869204
20
458.343966
11
142.291014
21
459.918966
0
LINE
8
Default
10
133.474504
20
456.689956
11
137.869204
21
458.343976
0
LINE
8
Default
10
129.109034
20
454.956326
11
133.474504
21
456.689956
0
LINE
8
Default
10
124.774894
20
453.142366
11
129.109044
21
454.956316
0
LINE
8
Default
10
120.474654
20
451.247466
11
124.774894
21
453.142356
0
LINE
8
Default
10
116.211184
20
449.271146
11
120.474654
21
451.247466
0
LINE
8
Default
10
111.987384
20
447.212966
11
116.211194
21
449.271156
0
LINE
8
Default
10
107.806114
20
445.072596
11
111.987384
21
447.212966
0
LINE
8
Default
10
103.670254
20
442.849536
11
107.806114
21
445.072596
0
LINE
8
Default
10
99.582694
20
440.543216
11
103.670264
21
442.849536
0
LINE
8
Default
10
95.546304
20
438.153646
11
99.582704
21
440.543216
0
LINE
8
Default
10
91.561354
20
435.678276
11
95.546314
21
438.153646
0
LINE
8
Default
10
87.628934
20
433.114856
11
91.561354
21
435.678276
0
LINE
8
Default
10
83.753164
20
430.463376
11
87.628934
21
433.114856
0
LINE
8
Default
10
79.938174
20
427.723566
11
83.753174
21
430.463376
0
LINE
8
Default
10
76.188064
20
424.895136
11
79.938184
21
427.723566
0
LINE
8
Default
10
72.506964
20
421.977526
11
76.188074
21
424.895136
0
LINE
8
Default
10
68.898974
20
418.970446
11
72.506964
21
421.977526
0
LINE
8
Default
10
65.368214
20
415.873626
11
68.898974
21
418.970446
0
LINE
8
Default
10
61.918294
20
412.686206
11
65.368214
21
415.873626
0
LINE
8
Default
10
58.553554
20
409.407916
11
61.918294
21
412.686206
0
LINE
8
Default
10
55.279264
20
406.039316
11
58.553564
21
409.407916
0
LINE
8
Default
10
52.100654
20
402.580406
11
55.279264
21
406.039316
0
LINE
8
Default
10
49.022964
20
399.031746
11
52.100644
21
402.580406
0
LINE
8
Default
10
46.051454
20
395.393336
11
49.022964
21
399.031746
0
LINE
8
Default
10
43.191364
20
391.666036
11
46.051454
21
395.393346
0
LINE
8
Default
10
40.447944
20
387.850116
11
43.191364
21
391.666036
0
LINE
8
Default
10
37.827064
20
383.946136
11
40.447944
21
387.850116
0
LINE
8
Default
10
35.335794
20
379.958346
11
37.827064
21
383.946146
0
LINE
8
Default
10
32.981164
20
375.890966
11
35.335794
21
379.958346
0
LINE
8
Default
10
31.857284
20
373.828486
11
32.981164
21
375.890966
0
LINE
8
Default
10
30.770204
20
371.747666
11
31.857284
21
373.828486
0
LINE
8
Default
10
29.535454
20
369.268626
11
30.770204
21
371.747666
0
LINE
8
Default
10
28.353574
20
366.764476
11
29.535454
21
369.268636
 0 
ENDSEC
 0 
EOF