<?xml version="1.0" encoding="UTF-8" standalone="no"?>
<svg
   xmlns:dc="http://purl.org/dc/elements/1.1/"
   xmlns:cc="http://creativecommons.org/ns#"
   xmlns:rdf="http://www.w3.org/1999/02/22-rdf-syntax-ns#"
   xmlns:svg="http://www.w3.org/2000/svg"
   xmlns="http://www.w3.org/2000/svg"
   xmlns:sodipodi="http://sodipodi.sourceforge.net/DTD/sodipodi-0.dtd"
   xmlns:inkscape="http://www.inkscape.org/namespaces/inkscape"
   viewBox="0 0 2304 1728"
   width="24in"
   height="18in"
   version="1.1"
   id="svg2229"
   sodipodi:docname="set1.svg"
   inkscape:version="1.0.2-2 (e86c870879, 2021-01-15)">
  <metadata
     id="metadata2233">
    <rdf:RDF>
      <cc:Work
         rdf:about="">
        <dc:format>image/svg+xml</dc:format>
        <dc:type
           rdf:resource="http://purl.org/dc/dcmitype/StillImage" />
        <dc:title></dc:title>
      </cc:Work>
    </rdf:RDF>
  </metadata>
  <sodipodi:namedview
     pagecolor="#ffffff"
     bordercolor="#666666"
     borderopacity="1"
     objecttolerance="10"
     gridtolerance="10"
     guidetolerance="10"
     inkscape:pageopacity="0"
     inkscape:pageshadow="2"
     inkscape:window-width="1600"
     inkscape:window-height="996"
     id="namedview2231"
     showgrid="false"
     units="in"
     inkscape:zoom="0.19531952"
     inkscape:cx="1460.7024"
     inkscape:cy="1951.5872"
     inkscape:window-x="-8"
     inkscape:window-y="-8"
     inkscape:window-maximized="1"
     inkscape:current-layer="g2225" />
  <defs
     id="defs1763">
    <marker
       id="DistanceX"
       orient="auto"
       refX="0"
       refY="0"
       style="overflow:visible">
      <path
         d="M 3,-3 -3,3 M 0,-5 V 5"
         style="stroke:#000000;stroke-width:0.5"
         id="path1750" />
    </marker>
    <pattern
       id="Hatch"
       patternUnits="userSpaceOnUse"
       width="8"
       height="8"
       x="0"
       y="0">
      <path
         d="M8 4 l-4,4"
         stroke="#000000"
         stroke-width="0.25"
         linecap="square"
         id="path1753" />
      <path
         d="M6 2 l-4,4"
         stroke="#000000"
         stroke-width="0.25"
         linecap="square"
         id="path1755" />
      <path
         d="M4 0 l-4,4"
         stroke="#000000"
         stroke-width="0.25"
         linecap="square"
         id="path1757" />
    </pattern>
    <symbol
       id="*Model_Space" />
    <symbol
       id="*Paper_Space" />
    <symbol
       id="*Paper_Space0" />
  </defs>
  <g
     inkscape:groupmode="layer"
     inkscape:label="0"
     id="g1765" />
  <g
     inkscape:groupmode="layer"
     inkscape:label="Default"
     id="g2225">
    <path
       id="path2223"
       style="fill:none;stroke:#4c0000;stroke-width:0.133333;stroke-miterlimit:4;stroke-dasharray:none"
       d="m 100.46401,320.68334 v 107.753 M 44.032935,320.68334 H 100.46401 M 44.032935,913.20933 V 320.68334 M 100.46401,913.20933 H 44.032935 m 56.431075,-135.97 v 135.97 m 4.2061,-127.059 -4.2061,-8.911 m 8.60117,17.732 -4.39507,-8.821 m 8.24819,16.193 -3.85312,-7.372 m 7.8366,14.679 -3.98348,-7.307 m 12.32901,21.718 -8.34553,-14.411 m 17.17506,28.539 -8.82953,-14.128 m 18.11812,27.959 -9.28859,-13.831 m 19.01118,27.35 -9.72259,-13.519 m 19.85843,26.725 -10.13584,-13.206 m 20.66634,26.095 -10.5305,-12.889 m 21.43709,25.461 -10.90659,-12.572 m 22.1707,24.826 -11.26411,-12.254 m 22.86715,24.189 -11.60304,-11.935 m 23.52646,23.549 -11.92342,-11.614 m 24.14862,22.906 -12.2252,-11.292 m 24.73684,22.263 -12.51164,-10.971 m 25.29699,21.624 -12.78535,-10.653 m 25.82978,20.99 -13.04443,-10.337 m 26.33333,20.358 -13.2889,-10.021 m 26.80764,19.72797 -13.51874,-9.70697 m 27.2527,19.09997 -13.73396,-9.393 m 27.66851,18.474 -13.93455,-9.081 m 28.05509,17.851 -14.12054,-8.77 m 28.42314,17.236 -14.3026,-8.466 m 28.78634,16.635 -14.48374,-8.169 m 29.13847,16.045 -14.65473,-7.876 m 29.47027,15.458 -14.81554,-7.582 m 29.78174,14.873 -14.9662,-7.291 m 30.07289,14.292 -15.10669,-7.001 m 30.3437,13.714 -15.23701,-6.713 m 30.5942,13.139 -15.35719,-6.426 m 30.8254,12.567 -15.46821,-6.141 m 31.04005,12.001 -15.57184,-5.86 m 31.23975,11.439 -15.66791,-5.579 m 31.42435,10.881 -15.75644,-5.302 m 47.50465,15.079 -31.74821,-9.777 m 63.75986,18.467 -32.01165,-8.69 m 64.25002,16.316 -32.23837,-7.626 m 64.69728,14.208 -32.45891,-6.582 m 65.12368,12.133 -32.66477,-5.551 m 65.52073,10.083 -32.85596,-4.532 m 65.83778,8.05 -32.98182,-3.518 m 66.02287,6.022 -33.04105,-2.504 m 66.12485,4.002 -33.0838,-1.498 m 66.1936,1.994 -33.1098,-0.496 m 66.2195,0 -33.1097,0.5 m 66.1932,-2.001 -33.0835,1.501 m 66.1242,-4.009 -33.0407,2.508 m 66.0225,-6.03 -32.9818,3.522 m 65.83753,-8.058 -32.85573,4.536 m 65.51963,-10.09 -32.6639,5.554 m 65.1219,-12.14 -32.458,6.586 m 64.6957,-14.216 -32.2377,7.63 m 64.2486,-16.324 -32.0109,8.694 m 63.7577,-18.475 -31.7468,9.781 m 47.5024,-15.085 -15.7556,5.304 m 31.4227,-10.885 -15.6671,5.581 m 31.2382,-11.442 -15.5711,5.861 m 31.0386,-12.005 -15.4675,6.144 m 30.824,-12.572 -15.3565,6.428 m 30.5927,-13.143 -15.2362,6.715 m 30.3421,-13.718 -15.1059,7.003 m 30.0711,-14.296 -14.9652,7.293 m 29.7797,-14.878 -14.8145,7.585 m 29.4681,-15.462 -14.6536,7.877 m 29.1362,-16.05 -14.4826,8.173 m 28.7838,-16.641 -14.3012,8.468 m 28.4203,-17.24 -14.1191,8.772 m 28.052,-17.855 -13.9329,9.083 m 27.6651,-18.478 -13.7322,9.395 m 27.249,-19.10397 -13.5168,9.70897 m 26.8038,-19.73197 -13.287,10.023 m 26.3294,-20.362 -13.0424,10.339 m 25.8257,-20.995 -12.7833,10.656 m 25.2928,-21.629 -12.5095,10.973 m 24.7326,-22.267 -12.2231,11.294 m 24.1443,-22.91 -11.9212,11.616 m 23.5219,-23.554 -11.6007,11.938 m 22.8624,-24.194 -11.2617,12.256 m 22.1657,-24.831 -10.904,12.575 m 21.4318,-25.467 -10.5278,12.892 m 20.6607,-26.099 -10.1329,13.207 m 19.8524,-26.729 -9.7195,13.522 m 19.0048,-27.355 -9.2853,13.833 m 18.1113,-27.963 -8.826,14.13 m 17.1678,-28.544 -8.3418,14.414 m 12.3234,-21.721 -3.9816,7.307 m 7.8328,-14.68 -3.8512,7.373 m 7.5698,-14.811 -3.7186,7.438 m 7.3031,-14.939 -3.5845,7.501 m 7.0327,-15.067 -3.4482,7.566 m 6.7577,-15.195 -3.3095,7.629 m 6.4782,-15.32 -3.1687,7.691 m 6.1944,-15.44399 -3.0257,7.75299 m 5.9062,-15.56799 -2.8805,7.815 m 5.6134,-15.69 -2.7329,7.875 m 5.3137,-15.802 -2.5808,7.927 m 5.0052,-15.897 -2.4244,7.97 m 4.6908,-15.983 -2.2664,8.013 m 4.3734,-16.065 -2.107,8.052 m 4.0529,-16.143 -1.9459,8.091 m 3.7293,-16.218 -1.7834,8.127 m 3.4026,-16.29 -1.6192,8.163 m 3.0727,-16.359 -1.4535,8.196 m 2.7391,-16.415 -1.2856,8.219 m 2.4017,-16.454 -1.1161,8.235 m 2.0619,-16.487 -0.9458,8.252 m 1.721,-16.521 -0.7752,8.269 m 1.3789,-16.557 -0.6037,8.288 m 1.0355,-16.596 -0.4318,8.308 m 0.6911,-16.636 -0.2593,8.328 m 0.3454,-16.678 -0.086,8.35 m 0,-16.7 0.087,8.35 m -0.3476,-16.679 0.2606,8.329 m -0.6937,-16.636 0.4331,8.307 m -1.0382,-16.595 0.6051,8.288 m -1.3816,-16.557 0.7765,8.269 m -1.7237,-16.521 0.9472,8.252 m -2.0645,-16.487 1.1173,8.235 m -2.4042,-16.454 1.2869,8.219 m -2.7417,-16.414 1.4548,8.195 m -3.0752,-16.358 1.6204,8.163 m -3.405,-16.29 1.7846,8.127 m -3.7318,-16.217 1.9472,8.09 m -4.0554,-16.142 2.1082,8.052 m -4.3758,-16.064 2.2676,8.012 m -4.6932,-15.983 2.4256,7.971 m -5.0075,-15.897 2.5819,7.926 m -5.316,-15.801 2.7341,7.875 m -5.6156,-15.689 2.8815,7.814 m -5.9083,-15.566 3.0268,7.752 m -6.1966,-15.443 3.1698,7.691 m -6.4805,-15.32 3.3107,7.629 m -6.7599,-15.194 3.4492,7.565 m -7.0347,-15.066 3.5855,7.501 m -7.3052,-14.938 3.7197,7.437 m -7.5719,-14.81 3.8522,7.373 m -7.8348,-14.68 3.9826,7.307 m -12.3264,-21.719 8.3438,14.412 m -17.1717,-28.542 8.8279,14.13 m -18.1149,-27.962 9.287,13.832 m -19.0081,-27.352 9.7211,13.52 m -19.8555,-26.726 10.1344,13.206 m -20.6636,-26.097 10.5292,12.891 m -21.4345,-25.464 10.9053,12.573 m -22.1682,-24.829 11.2629,12.256 m -22.8648,-24.191 11.6019,11.935 m -23.5243,-23.55 11.9224,11.615 m -24.1465,-22.908 12.2241,11.293 m -24.7347,-22.266 12.5106,10.973 m -25.295,-21.627 12.7844,10.654 m -25.8279,-20.992 13.0435,10.338 m -26.3314,-20.36 13.2879,10.022 m -26.8058,-19.73 13.5179,9.708 m -27.251,-19.102 13.7331,9.394 m -27.6669,-18.476 13.9338,9.082 m -28.0536,-17.853 14.1198,8.771 m -28.4217,-17.238 14.3019,8.467 m -28.7848,-16.638 14.4829,8.171 m -29.1369,-16.047 14.654,7.876 m -29.4687,-15.459 14.8147,7.583 m -29.7802,-14.8753 14.9655,7.2923 m -30.0715,-14.2944 15.106,7.0021 m -30.3425,-13.7159 15.2365,6.7138 m -30.5932,-13.1407 15.3567,6.4269 m -30.8246,-12.5694 15.4679,6.1425 m -31.0393,-12.0028 15.5714,5.8603 m -31.2389,-11.440697 15.6675,5.580397 m -31.4236,-10.882797 15.7561,5.3024 m -47.5036,-15.0815 31.7475,9.7791 m -63.7587,-18.4711 32.0112,8.692 m -64.2493,-16.3199 32.2381,7.6279 m -64.6965,-14.212 32.4584,6.5841 m -65.1227,-12.1368 32.6643,5.5527 m -65.52013,-10.0866 32.85583,4.5339 m -65.83753,-8.0537 32.9817,3.5198 m -66.0225,-6.0261 33.0408,2.5063 m -66.1243,-4.0054 33.0835,1.4991 m -66.1934,-1.9974 33.1099,0.4983 m -66.2207,0 33.1108,-0.4983 m -66.1953,1.9975 33.0845,-1.4992 m -66.12615,4.0057 33.04165,-2.5065 m -66.02425,6.0264 32.9826,-3.5199 m -65.83928,8.0541 32.85668,-4.5342 m -65.52188,10.0873 32.6652,-5.5531 m -65.12445,12.1376 32.45925,-6.5845 m -64.69809,14.2126 32.23884,-7.6281 m -64.25085,16.3205 32.01201,-8.6924 m -63.76024,18.4721 31.74823,-9.7797 m -47.5046,15.0824 15.75637,-5.3027 m -31.42422,10.883397 15.66785,-5.580697 m -31.23963,11.441397 15.57178,-5.8607 m -31.03998,12.0035 15.4682,-6.1428 m -30.82543,12.5702 15.35723,-6.4274 m -30.59433,13.1416 15.2371,-6.7142 m -30.34388,13.7169 15.10678,-7.0027 m -30.07304,14.2955 14.96626,-7.2928 m -29.7818,14.8768 14.81554,-7.584 m -29.47016,15.461 14.65462,-7.877 m -29.13813,16.049 14.48351,-8.172 m -28.78571,16.639 14.3022,-8.467 m -28.42214,17.238 14.11994,-8.771 m -28.05372,17.854 13.93378,-9.083 m -27.66682,18.478 13.73304,-9.395 m -27.25076,19.103 13.51772,-9.708 m -26.80554,19.73 13.28782,-10.022 m -26.33113,20.36 13.04331,-10.338 m -25.82755,20.993 12.78424,-10.655 m -25.29482,21.628 12.51058,-10.973 m -24.73472,22.267 12.22414,-11.294 m -24.14644,22.91 11.9223,-11.616 m -23.52415,23.552 11.60185,-11.936 m -22.86466,24.192 11.26281,-12.256 m -22.168,24.83 10.90519,-12.574 m -21.43417,25.466 10.52898,-12.892 m -20.66316,26.099 10.13418,-13.207 m -19.85497,26.728 9.72079,-13.521 m -19.00737,27.354 9.28658,-13.833 m -18.11392,27.963 8.82734,-14.13 m -17.17053,28.542 8.34319,-14.412 m -12.32544,21.72 3.98225,-7.308 m -7.83412,14.681 3.85187,-7.373 m -8.22698,16.157 4.37511,-8.784 m -8.56286,17.657 4.18775,-8.873" />
  </g>
  <desc
     id="desc2227">set1.dxf - scale = 1.000000, origin = (0.000000, 0.000000), method = manual</desc>
</svg>
