<?xml version="1.0" encoding="UTF-8" standalone="no"?>
<svg
   xmlns:dc="http://purl.org/dc/elements/1.1/"
   xmlns:cc="http://creativecommons.org/ns#"
   xmlns:rdf="http://www.w3.org/1999/02/22-rdf-syntax-ns#"
   xmlns:svg="http://www.w3.org/2000/svg"
   xmlns="http://www.w3.org/2000/svg"
   xmlns:sodipodi="http://sodipodi.sourceforge.net/DTD/sodipodi-0.dtd"
   xmlns:inkscape="http://www.inkscape.org/namespaces/inkscape"
   viewBox="0 0 2304 1728.0001"
   width="24in"
   height="18in"
   version="1.1"
   id="svg1735"
   sodipodi:docname="set2.svg"
   inkscape:version="1.0.2-2 (e86c870879, 2021-01-15)">
  <metadata
     id="metadata1739">
    <rdf:RDF>
      <cc:Work
         rdf:about="">
        <dc:format>image/svg+xml</dc:format>
        <dc:type
           rdf:resource="http://purl.org/dc/dcmitype/StillImage" />
        <dc:title></dc:title>
      </cc:Work>
    </rdf:RDF>
  </metadata>
  <sodipodi:namedview
     pagecolor="#ffffff"
     bordercolor="#666666"
     borderopacity="1"
     objecttolerance="10"
     gridtolerance="10"
     guidetolerance="10"
     inkscape:pageopacity="0"
     inkscape:pageshadow="2"
     inkscape:window-width="1600"
     inkscape:window-height="996"
     id="namedview1737"
     showgrid="false"
     inkscape:zoom="0.43525182"
     inkscape:cx="849.15475"
     inkscape:cy="568.73496"
     inkscape:window-x="-8"
     inkscape:window-y="-8"
     inkscape:window-maximized="1"
     inkscape:current-layer="g1731"
     units="in"
     inkscape:document-units="mm" />
  <defs
     id="defs843">
    <marker
       id="DistanceX"
       orient="auto"
       refX="0"
       refY="0"
       style="overflow:visible">
      <path
         d="M 3,-3 -3,3 M 0,-5 V 5"
         style="stroke:#000000;stroke-width:0.5"
         id="path830" />
    </marker>
    <pattern
       id="Hatch"
       patternUnits="userSpaceOnUse"
       width="8"
       height="8"
       x="0"
       y="0">
      <path
         d="M8 4 l-4,4"
         stroke="#000000"
         stroke-width="0.25"
         linecap="square"
         id="path833" />
      <path
         d="M6 2 l-4,4"
         stroke="#000000"
         stroke-width="0.25"
         linecap="square"
         id="path835" />
      <path
         d="M4 0 l-4,4"
         stroke="#000000"
         stroke-width="0.25"
         linecap="square"
         id="path837" />
    </pattern>
    <symbol
       id="*Model_Space" />
    <symbol
       id="*Paper_Space" />
    <symbol
       id="*Paper_Space0" />
  </defs>
  <g
     inkscape:groupmode="layer"
     inkscape:label="0"
     id="g845" />
  <g
     inkscape:groupmode="layer"
     inkscape:label="Default"
     id="g1731">
    <path
       id="path1283"
       style="fill:none;stroke:#4c0000;stroke-width:0.13333333;stroke-miterlimit:4;stroke-dasharray:none;stroke-opacity:1"
       d="m 1536.7194,1038.5346 h 149.92 m -149.92,56.431 v -56.431 m 592.5261,56.431 h -592.5261 m 592.5261,-56.431 v 56.431 m -176.0419,-56.431 h 176.0419 m -168.561,-4.7572 -7.4809,4.7572 m 14.8181,-9.7313 -7.3372,4.9741 m 15.3644,-10.7791 -8.0272,5.805 m 15.8667,-11.8555 -7.8395,6.0505 m 15.4908,-12.3354 -7.6513,6.2849 m 15.1135,-12.793 -7.4622,6.5081 m 14.7348,-13.22829 -7.2726,6.72019 m 14.3546,-13.64119 -7.082,6.921 m 13.9729,-14.0317 -6.8909,7.1107 m 13.5899,-14.3999 -6.699,7.2892 m 13.2071,-14.7481 -6.5081,7.4589 m 12.8273,-15.0799 -6.3192,7.621 m 12.4502,-15.3955 -6.131,7.7745 m 12.0743,-15.6937 -5.9433,7.9192 m 11.6996,-15.97411 -5.7563,8.05491 m 11.3263,-16.23691 -5.57,8.182 m 10.9542,-16.4821 -5.3842,8.3001 m 10.5834,-16.7095 -5.1992,8.4094 m 10.2154,-16.9206 -5.0162,8.5112 m 9.8525,-17.1204 -4.8363,8.6092 m 9.4952,-17.3134 -4.6589,8.7042 m 9.1428,-17.5005 -4.4839,8.7963 m 8.7952,-17.6816 -4.3113,8.8853 m 8.4525,-17.8568 -4.1412,8.9715 m 8.1147,-18.026 -3.9735,9.0545 m 7.7817,-18.1892 -3.8082,9.1347 m 7.4495,-18.3376 -3.6413,9.2029 m 7.1139,-18.4623 -3.4726,9.2594 m 6.7782,-18.5723 -3.3056,9.3129 m 6.4458,-18.6764 -3.1402,9.3635 m 8.9318,-28.2308 -5.7916,18.8673 m 10.9427,-37.9024 -5.1511,19.0351 m 9.6749,-38.2147 -4.5238,19.1796 m 8.4286,-38.49 -3.9048,19.3104 m 7.198,-38.7426 -3.2932,19.4322 m 5.982,-38.9773 -2.6888,19.5451 m 4.7761,-39.1647 -2.0873,19.6196 m 3.5736,-39.2745 -1.4863,19.6549 m 2.3754,-39.3349 -0.8891,19.68 m 1.1847,-39.3749 -0.2956,19.6949 m 0,-39.3897 0.2956,19.6948 m -1.1846,-39.3748 0.889,19.68 m -2.3754,-39.3349 1.4864,19.6549 m -3.5737,-39.2745 2.0873,19.6196 m -4.776,-39.1648 2.6887,19.5452 m -5.9819,-38.9774 3.2932,19.4322 m -7.1981,-38.7427 3.9049,19.3105 m -8.4286,-38.49 4.5237,19.1795 m -9.6748,-38.2146 5.1511,19.0351 m -10.9426,-37.9024 5.7915,18.8673 m -8.9318,-28.2308 3.1403,9.3635 m -6.4458,-18.6764 3.3055,9.3129 m -6.7781,-18.5723 3.4726,9.2594 m -7.114,-18.4623 3.6414,9.2029 m -7.4496,-18.3376 3.8082,9.1347 m -7.7816,-18.1893 3.9734,9.0546 m -8.1146,-18.0261 4.1412,8.9715 m -8.4525,-17.8568 4.3113,8.8853 m -8.7952,-17.6816 4.4839,8.7963 m -9.1428,-17.5005 4.6589,8.7042 m -9.4953,-17.3134 4.8364,8.6092 m -9.8525,-17.1204 5.0161,8.5112 m -10.2154,-16.9207 5.1993,8.4095 m -10.5835,-16.7096 5.3842,8.3001 m -10.9542,-16.4821 5.57,8.182 m -11.3263,-16.2369 5.7563,8.0549 m -11.6996,-15.974 5.9433,7.9191 m -12.0742,-15.6936 6.1309,7.7745 m -12.4501,-15.3956 6.3192,7.6211 m -12.8273,-15.0799 6.5081,7.4588 m -13.2071,-14.748 6.699,7.2892 m -13.5899,-14.4 6.8909,7.1108 m -13.9729,-14.0318 7.082,6.921 m -14.3546,-13.6412 7.2726,6.7202 m -14.7348,-13.2283 7.4622,6.5081 m -15.1135,-12.793 7.6513,6.2849 m -15.4909,-12.3355 7.8396,6.0506 m -15.8667,-11.8555 8.0271,5.8049 m -16.2401,-11.3521 8.213,5.5472 m -16.6046,-10.8217 8.3916,5.2745 m -16.9527,-10.2611 8.5611,4.9866 m -12.9024,-7.3673 4.3413,2.3807 m -8.7215,-4.6837 4.3802,2.303 m -8.7991,-4.527 4.4189,2.224 m -8.8764,-4.3682 4.4575,2.1442 m -8.9533,-4.207 4.4958,2.0628 m -9.0295,-4.043 4.5337,1.9802 m -9.1048,-3.8764 4.5711,1.8962 m -9.1794,-3.7071 4.6083,1.8109 m -9.2532,-3.535 4.6449,1.7241 m -9.326,-3.3602 4.6811,1.6361 m -9.3952,-3.1815 4.7141,1.5454 m -9.4566,-2.9978 4.7425,1.4524 m -9.511,-2.8106 4.7685,1.3582 m -9.5609,-2.621 4.7924,1.2628 m -9.6064,-2.429 4.814,1.1662 m -9.6473,-2.2347 4.8333,1.0685 m -9.6836,-2.0381 4.8503,0.9696 m -9.7154,-1.8392 4.8651,0.8696 m -9.7446,-1.6386 4.8795,0.769 m -9.7742,-1.4374 4.8947,0.6684 m -9.8038,-1.2356 4.9091,0.5672 m -9.832,-1.0326 4.9229,0.4654 m -9.8589,-0.8285 4.936,0.3631 m -9.8844,-0.6231 4.9484,0.26 m -9.9084,-0.4165 4.96,0.1565 m -9.9311,-0.2088 4.9711,0.052 m -9.9422,3e-4 4.9711,-0.052 m -9.9311,0.2085 4.96,-0.1565 m -9.9084,0.4165 4.9484,-0.26 m -9.8844,0.6231 4.936,-0.3631 m -9.8589,0.8285 4.9229,-0.4654 m -9.832,1.0326 4.9091,-0.5672 m -9.8037,1.2356 4.8946,-0.6684 m -9.7741,1.4374 4.8795,-0.769 m -9.7446,1.6385 4.8651,-0.8695 m -9.7154,1.8391 4.8503,-0.9696 m -9.6836,2.0381 4.8333,-1.0685 m -9.6472,2.2348 4.8139,-1.1663 m -9.6063,2.4291 4.7924,-1.2628 m -9.561,2.6209 4.7686,-1.3581 m -9.511,2.8105 4.7424,-1.4524 m -9.4565,2.9979 4.7141,-1.5455 m -9.3953,3.1815 4.6812,-1.636 m -9.3261,3.3602 4.6449,-1.7242 m -9.2531,3.535 4.6082,-1.8108 m -9.1794,3.707 4.5712,-1.8962 m -9.1049,3.8764 4.5337,-1.9802 m -9.0295,4.043 4.4958,-2.0628 m -8.9533,4.207 4.4575,-2.1442 m -8.8763,4.3682 4.4188,-2.224 m -8.799,4.527 4.3802,-2.303 m -8.7215,4.6837 4.3413,-2.3807 m -12.9024,7.3673 8.5611,-4.9866 m -16.9527,10.2611 8.3916,-5.2745 m -16.6046,10.8216 8.213,-5.5471 m -16.2402,11.3521 8.0272,-5.805 m -15.8667,11.8555 7.8395,-6.0505 m -15.4908,12.3354 7.6513,-6.2849 m -15.1136,12.793 7.4623,-6.5081 m -14.7348,13.2283 7.2725,-6.7202 m -14.3545,13.6412 7.082,-6.921 m -13.9729,14.0317 6.8909,-7.1107 m -13.5899,14.4 6.699,-7.2893 m -13.2072,14.7481 6.5082,-7.4588 m -12.8274,15.0799 6.3192,-7.6211 m -12.4501,15.3956 6.1309,-7.7745 m -12.0742,15.6937 5.9433,-7.9192 m -11.6997,15.9741 5.7564,-8.0549 m -11.3263,16.2369 5.5699,-8.182 m -10.9542,16.4821 5.3843,-8.3001 m -10.5835,16.7096 5.1992,-8.4095 m -10.2154,16.9207 5.0162,-8.5112 m -9.8525,17.1204 4.8363,-8.6092 m -9.4952,17.3134 4.6589,-8.7042 m -9.1428,17.5005 4.4839,-8.7963 m -8.7952,17.6816 4.3113,-8.8853 m -8.4525,17.8567 4.1412,-8.9714 m -8.1147,18.026 3.9735,-9.0546 m -7.7816,18.1893 3.8081,-9.1347 m -7.4495,18.3376 3.6414,-9.2029 m -7.114,18.4623 3.4726,-9.2594 m -6.7782,18.5723 3.3056,-9.3129 m -6.4458,18.6764 3.1402,-9.3635 m -8.9318,28.2308 5.7916,-18.8673 m -10.9427,37.9024 5.1511,-19.0351 m -9.6748,38.2147 4.5237,-19.1796 m -8.4286,38.49 3.9049,-19.3104 m -7.1981,38.7426 3.2932,-19.4322 m -5.9819,38.9773 2.6887,-19.5451 m -4.776,39.1648 2.0873,-19.6197 m -3.5737,39.2746 1.4864,-19.6549 m -2.3755,39.3349 0.8891,-19.68 m -1.1846,39.3748 0.2955,-19.6948 m 0,39.3897 -0.2955,-19.6949 m 1.1846,39.3748 -0.8891,-19.6799 m 2.3755,39.3348 -1.4864,-19.6549 m 3.5736,39.2746 -2.0872,-19.6197 m 4.776,39.1648 -2.6888,-19.5451 m 5.982,38.9773 -3.2932,-19.4322 m 7.1981,38.7426 -3.9049,-19.3104 m 8.4286,38.49 -4.5237,-19.1796 m 9.6748,38.2146 -5.1511,-19.035 m 10.9427,37.9023 -5.7916,-18.8673 m 8.9318,28.2309 -3.1402,-9.3636 m 6.4458,18.6765 -3.3056,-9.3129 m 6.7782,18.5722 -3.4726,-9.2593 m 7.1139,18.4623 -3.6413,-9.203 m 7.4495,18.3377 -3.8082,-9.1347 m 7.7817,18.1893 -3.9735,-9.0546 m 8.1146,18.026 -4.1411,-8.9714 m 8.4525,17.8567 -4.3114,-8.8853 m 8.7953,17.6816 -4.4839,-8.7963 m 9.1428,17.5006 -4.6589,-8.7043 m 9.4952,17.3135 -4.8363,-8.6092 m 9.8525,17.1204 -5.0162,-8.5112 m 10.2154,16.9207 -5.1992,-8.4095 m 10.5835,16.7096 -5.3843,-8.3001 m 10.9542,16.482 -5.5699,-8.1819 m 11.3262,16.23681 -5.7563,-8.05491 m 11.6996,15.97411 -5.9433,-7.9192 m 12.0743,15.6937 -6.131,-7.7745 m 12.4502,15.3956 -6.3192,-7.6211 m 12.8273,15.0799 -6.5081,-7.4588 m 13.2071,14.748 -6.699,-7.2892 m 13.5899,14.3999 -6.8909,-7.1107 m 13.973,14.0318 -7.0821,-6.9211 m 14.3546,13.64119 -7.2725,-6.72009 m 14.7347,13.22819 -7.4622,-6.5081 m 15.1135,12.7931 -7.6513,-6.285 m 15.4909,12.3355 -7.8396,-6.0505 m 15.8667,11.8555 -8.0271,-5.805 m 15.3643,10.779 -7.3372,-4.974 m 14.8182,9.7313 -7.481,-4.7573" />
    <path
       id="path1729"
       style="fill:none;stroke:#4c0000;stroke-width:0.13333333;stroke-miterlimit:4;stroke-dasharray:none;stroke-opacity:1"
       d="m 158.92704,254.7379 v 127.7197 m -56.4311,-127.7197 h 56.4311 M 102.49594,847.264 V 254.7379 m 56.4311,592.5261 h -56.4311 m 56.4311,-153.8417 V 847.264 m 6.016,-142.7576 -6.016,-11.0841 m 12.3958,21.9733 -6.3798,-10.8892 m 13.1064,21.5732 -6.7266,-10.684 m 13.7827,21.1523 -7.0561,-10.4683 m 14.8193,21.2431 -7.7632,-10.7748 m 15.8559,21.2985 -8.0927,-10.5237 m 16.5,20.7954 -8.4073,-10.2717 m 17.1143,20.2903 -8.707,-10.0186 m 17.6988,19.7832 -8.9918,-9.7646 m 18.2537,19.2742 -9.2619,-9.5096 m 18.7788,18.7633 -9.5169,-9.2537 m 19.2741,18.2503 -9.7572,-8.9966 m 19.7424,17.7374 -9.9852,-8.7408 m 20.1885,17.2283 -10.2033,-8.4875 m 20.6129,16.7224 -10.4096,-8.2349 m 21.0137,16.2181 -10.6041,-7.9832 m 21.3911,15.7156 -10.787,-7.7324 m 21.7452,15.2149 -10.9582,-7.4825 m 22.0757,14.716 -11.1175,-7.2335 m 22.3827,14.2188 -11.2652,-6.9853 m 22.6724,13.7272 -11.4072,-6.7419 m 22.9542,13.2459 -11.547,-6.504 m 23.2272,12.772 -11.6802,-6.268 m 23.4871,12.3022 -11.8069,-6.0342 m 23.7339,11.8363 -11.927,-5.8021 m 23.9675,11.3743 -12.0405,-5.5722 m 24.188,10.9165 -12.1475,-5.3443 m 24.3954,10.4626 -12.2479,-5.1183 m 24.583,10.0101 -12.3351,-4.8918 m 24.746,9.5569 -12.4109,-4.6651 m 24.8938,9.1057 -12.4829,-4.4406 m 25.0339,8.6592 -12.551,-4.2186 m 37.8421,11.99901 -25.2911,-7.78041 m 50.8089,14.70091 -25.5178,-6.9205 m 51.2304,12.9981 -25.7126,-6.0776 m 51.6008,11.3237 -25.8882,-5.2461 m 51.9403,9.6704 -26.0521,-4.4243 m 52.2565,8.0367 -26.2044,-3.6124 m 52.509,6.4167 -26.3046,-2.8043 m 52.6565,4.8012 -26.3519,-1.9969 m 52.7377,3.1914 -26.3858,-1.1945 m 52.7922,1.5916 -26.4064,-0.3971 m 52.8128,0 -26.4064,0.3971 m 52.7922,-1.5915 -26.3858,1.1944 m 52.7377,-3.1913 -26.3519,1.9969 m 52.6565,-4.8012 -26.3046,2.8043 m 52.5091,-6.4167 -26.2045,3.6124 m 52.2566,-8.0367 -26.0521,4.4243 m 51.9403,-9.6703 -25.8882,5.246 m 51.6008,-11.3236 -25.7126,6.0776 m 51.2303,-12.998 -25.5177,6.9204 m 50.80886,-14.70091 -25.29116,7.78051 m 37.84216,-11.99901 -12.551,4.2185 m 25.0339,-8.6592 -12.4829,4.4407 m 24.8938,-9.1057 -12.4109,4.665 m 24.746,-9.5568 -12.3351,4.8918 m 24.5831,-10.0101 -12.248,5.1183 m 24.3955,-10.4626 -12.1475,5.3443 m 24.188,-10.9165 -12.0405,5.5722 m 23.9675,-11.3744 -11.927,5.8022 m 23.7339,-11.8363 -11.8069,6.0341 m 23.4872,-12.3021 -11.6803,6.268 m 23.2273,-12.772 -11.547,6.504 m 22.9542,-13.2459 -11.4072,6.7419 m 22.6725,-13.7272 -11.2653,6.9853 m 22.3828,-14.2188 -11.1175,7.2335 m 22.0756,-14.716 -10.9581,7.4825 m 21.7451,-15.2149 -10.787,7.7324 m 21.3912,-15.7156 -10.6042,7.9832 m 21.0137,-16.218 -10.4095,8.2348 m 20.6128,-16.7222 -10.2033,8.4874 m 20.1885,-17.2283 -9.9852,8.7409 m 19.7424,-17.7375 -9.7572,8.9966 m 19.2742,-18.2502 -9.517,9.2536 m 18.7788,-18.7632 -9.2618,9.5096 m 18.2537,-19.2742 -8.9919,9.7646 m 17.699,-19.7833 -8.7071,10.0187 m 17.1144,-20.2903 -8.4073,10.2716 m 16.4999,-20.7954 -8.0926,10.5238 m 15.8558,-21.2986 -7.7632,10.7748 m 15.1804,-21.798 -7.4172,11.0232 m 14.4684,-22.2847 -7.0512,11.2615 m 13.7164,-22.7492 -6.6652,11.4877 m 9.8467,-17.3125 -3.1815,5.8248 m 6.2591,-11.7016 -3.0776,5.8768 m 6.0493,-11.8052 -2.9717,5.9284 m 5.8364,-11.9083 -2.8647,5.9799 m 5.6206,-12.0109 -2.7559,6.031 m 5.4012,-12.1126 -2.6453,6.0816 m 5.1781,-12.2131 -2.5328,6.1315 m 4.9515,-12.3125 -2.4187,6.181 m 4.7213,-12.411 -2.3026,6.23 m 4.4874,-12.5083 -2.1848,6.2783 m 4.2481,-12.5985 -2.0633,6.3202 m 4.0017,-12.6751 -1.9384,6.3549 m 3.7506,-12.7434 -1.8122,6.3885 m 3.497,-12.809 -1.6848,6.4205 m 3.2409,-12.8718 -1.5561,6.4513 m 2.9823,-12.9321 -1.4262,6.4808 m 2.7212,-12.9895 -1.295,6.5087 m 2.4577,-13.0442 -1.1627,6.5355 m 2.191,-13.0899 -1.0283,6.5544 m 1.9212,-13.1214 -0.8929,6.567 m 1.6497,-13.1473 -0.7568,6.5803 m 1.3771,-13.1748 -0.6203,6.5945 m 1.1036,-13.204 -0.4833,6.6095 m 0.8291,-13.2347 -0.3458,6.6252 m 0.5536,-13.2671 -0.2078,6.6419 m 0.2772,-13.3011 -0.069,6.6592 m -4e-4,-13.3185 0.069,6.6593 m -0.2768,-13.3011 0.2078,6.6418 m -0.5536,-13.2671 0.3458,6.6253 m -0.8291,-13.2347 0.4833,6.6094 m -1.1036,-13.2039 0.6203,6.5945 m -1.3771,-13.1748 0.7568,6.5803 m -1.6496,-13.1473 0.8928,6.567 m -1.9212,-13.1214 1.0284,6.5544 m -2.191,-13.0899 1.1626,6.5355 m -2.4576,-13.0443 1.295,6.5088 m -2.7212,-12.9895 1.4262,6.4807 m -2.9823,-12.932 1.5561,6.4513 m -3.2409,-12.8718 1.6848,6.4205 m -3.497,-12.809 1.8122,6.3885 m -3.7505,-12.7435 1.9383,6.355 m -4.0016,-12.6751 2.0633,6.3201 m -4.2482,-12.5985 2.1849,6.2784 m -4.4875,-12.5083 2.3026,6.2299 m -4.7212,-12.4109 2.4186,6.181 m -4.9514,-12.3126 2.5328,6.1316 m -5.1781,-12.2131 2.6453,6.0815 m -5.4012,-12.1125 2.7559,6.031 m -5.6206,-12.011 2.8647,5.98 m -5.8364,-11.9083 2.9717,5.9283 m -6.0492,-11.8051 3.0775,5.8768 m -6.2591,-11.7017 3.1816,5.8249 m -9.8467,-17.3125 6.6651,11.4876 m -13.7163,-22.7491 7.0512,11.2615 m -14.4683,-22.2847 7.4171,11.0232 m -15.1803,-21.7981 7.7632,10.7749 m -15.8559,-21.2986 8.0927,10.5237 m -16.5,-20.7954 8.4073,10.2717 m -17.1143,-20.2903 8.707,10.0186 m -17.6989,-19.7832 8.9919,9.7646 m -18.2537,-19.2742 9.2618,9.5096 m -18.7788,-18.7632 9.517,9.2536 m -19.2741,-18.2503 9.7571,8.9967 m -19.7424,-17.7375 9.9853,8.7408 m -20.1886,-17.2283 10.2033,8.4875 m -20.6129,-16.7224 10.4096,8.2349 m -21.0137,-16.2181 10.6041,7.9832 m -21.3912,-15.7157 10.7871,7.7325 m -21.7452,-15.215 10.9581,7.4825 m -22.0757,-14.716 11.1176,7.2335 m -22.3828,-14.2188 11.2652,6.9853 m -22.6724,-13.7272 11.4072,6.7419 m -22.9542,-13.2459 11.547,6.504 m -23.2273,-12.772 11.6803,6.268 m -23.4871,-12.3021 11.8068,6.0341 m -23.7338,-11.8363 11.927,5.8022 m -23.9675,-11.3744 12.0405,5.5722 m -24.188,-10.9165 12.1475,5.3443 m -24.3955,-10.4626 12.248,5.1183 m -24.5831,-10.0101 12.3351,4.8918 m -24.746,-9.5568 12.4109,4.665 m -24.8938,-9.1057 12.4829,4.4407 m -25.0339,-8.6593 12.551,4.2186 m -37.84206,-11.999 25.29106,7.7804 m -50.80896,-14.7008 25.5179,6.9204 m -51.2305,-12.9981 25.7126,6.0777 m -51.6007,-11.3237 25.8881,5.246 m -51.9402,-9.6703 26.0521,4.4243 m -52.2565,-8.036704 26.2044,3.612404 m -52.5091,-6.416704 26.3047,2.8043 m -52.6566,-4.8012 26.3519,1.9969 m -52.7377,-3.1914 26.3858,1.1945 m -52.7922,-1.5915 26.4064,0.397 m -52.8128,0 26.4064,-0.397 m -52.7922,1.5915 26.3858,-1.1945 m -52.7376,3.1914 26.3518,-1.9969 m -52.6565,4.8012 26.3047,-2.8043 m -52.5091,6.416704 26.2044,-3.612404 m -52.2565,8.036704 26.0521,-4.4243 m -51.9403,9.6703 25.8882,-5.246 m -51.6008,11.3236 25.7126,-6.0776 m -51.2303,12.9981 25.5177,-6.9205 m -50.8089,14.7009 25.2912,-7.7804 m -37.8422,11.999 12.551,-4.2186 m -25.0339,8.6592 12.4829,-4.4406 m -24.8938,9.1057 12.4109,-4.6651 m -24.746,9.5569 12.3351,-4.8918 m -24.583,10.0101 12.2479,-5.1183 m -24.3954,10.4625 12.1475,-5.3442 m -24.1881,10.9164 12.0406,-5.5722 m -23.9675,11.3744 11.9269,-5.8022 m -23.7338,11.8363 11.8069,-6.0341 m -23.4872,12.3022 11.6803,-6.2681 m -23.2273,12.772 11.547,-6.5039 m -22.9542,13.2459 11.4072,-6.742 m -22.6724,13.7273 11.2652,-6.9853 m -22.3828,14.2188 11.1176,-7.2335 m -22.0757,14.716 10.9581,-7.4825 m -21.7451,15.2149 10.787,-7.7324 m -21.3912,15.7156 10.6042,-7.9832 m -21.0138,16.2181 10.4096,-8.2349 m -20.6128,16.7223 10.2032,-8.4874 m -20.1885,17.2282 9.9853,-8.7408 m -19.7424,17.7374 9.7571,-8.9966 m -19.2741,18.2503 9.517,-9.2537 m -18.7788,18.7633 9.2618,-9.5096 m -18.2537,19.2742 8.9919,-9.7646 m -17.6989,19.7832 8.707,-10.0186 m -17.1143,20.2902 8.4073,-10.2716 m -16.5,20.7954 8.0927,-10.5238 m -15.8559,21.2986 7.7632,-10.7748 m -14.8193,21.2431 7.0561,-10.4683 m -13.7828,21.1524 6.7267,-10.6841 m -13.1066,21.5734 6.3799,-10.8893 m -12.3959,21.9734 6.016,-11.0841" />
  </g>
  <desc
     id="desc1733">set2.dxf - scale = 1.000000, origin = (0.000000, 0.000000), method = manual</desc>
</svg>
