999
"DXF R12 Output" (www.mydxf.blogspot.com)
 0 
SECTION
 2 
HEADER
 9 
$ACADVER
 1 
AC1009
 9 
$EXTMIN
 10 
 0 
 20 
 0 
 9 
$EXTMAX
 10 
 8.5 
 20 
 11 
 0 
ENDSEC
 0 
SECTION
 2 
ENTITIES
0
LINE
8
Layer 1
10
0.846666
20
488.527000
11
-0.846666
21
486.833000
0
LINE
8
Layer 1
10
0.000000
20
489.091000
11
0.000000
21
486.269000
0
LINE
8
Layer 1
10
2.257780
20
486.551000
11
1.128890
21
485.422110
0
LINE
8
Layer 1
10
1.693330
20
487.116000
11
0.564440
21
485.987110
0
LINE
8
Layer 1
10
1.128890
20
487.680000
11
0.000000
21
486.551110
0
LINE
8
Default
10
31.988800
20
410.286000
11
31.988800
21
377.060000
0
LINE
8
Default
10
16.062700
20
410.286000
11
31.988800
21
410.286000
0
LINE
8
Default
10
16.062700
20
243.062000
11
16.062700
21
410.286000
0
LINE
8
Default
10
31.988800
20
243.062000
11
16.062700
21
243.062000
0
LINE
8
Default
10
31.988800
20
283.660000
11
31.988800
21
243.062000
0
LINE
8
Default
10
32.995490
20
281.646300
11
31.988800
21
283.660240
0
LINE
8
Default
10
33.973440
20
279.776580
11
32.995490
21
281.646300
0
LINE
8
Default
10
34.984470
20
277.923230
11
33.973440
21
279.776580
0
LINE
8
Default
10
37.102600
20
274.268170
11
34.984470
21
277.923230
0
LINE
8
Default
10
39.343530
20
270.685080
11
37.102600
21
274.268170
0
LINE
8
Default
10
41.700910
20
267.177350
11
39.343530
21
270.685080
0
LINE
8
Default
10
44.168400
20
263.748920
11
41.700920
21
267.177350
0
LINE
8
Default
10
46.740720
20
260.400070
11
44.168410
21
263.748920
0
LINE
8
Default
10
49.413150
20
257.131380
11
46.740720
21
260.400080
0
LINE
8
Default
10
52.180960
20
253.943120
11
49.413150
21
257.131380
0
LINE
8
Default
10
55.039440
20
250.835570
11
52.180960
21
253.943120
0
LINE
8
Default
10
57.983860
20
247.809310
11
55.039440
21
250.835580
0
LINE
8
Default
10
61.009510
20
244.864330
11
57.983860
21
247.809320
0
LINE
8
Default
10
64.111660
20
242.001190
11
61.009510
21
244.864330
0
LINE
8
Default
10
67.286420
20
239.219330
11
64.111670
21
242.001190
0
LINE
8
Default
10
70.530560
20
236.517900
11
67.286430
21
239.219330
0
LINE
8
Default
10
73.840380
20
233.897190
11
70.530570
21
236.517900
0
LINE
8
Default
10
77.212160
20
231.356340
11
73.840380
21
233.897180
0
LINE
8
Default
10
80.642190
20
228.895080
11
77.212150
21
231.356340
0
LINE
8
Default
10
84.126780
20
226.513690
11
80.642190
21
228.895080
0
LINE
8
Default
10
87.662220
20
224.211320
11
84.126780
21
226.513690
0
LINE
8
Default
10
91.244790
20
221.987700
11
87.662220
21
224.211330
0
LINE
8
Default
10
94.873510
20
219.841400
11
91.244790
21
221.987700
0
LINE
8
Default
10
98.548120
20
217.769890
11
94.873500
21
219.841400
0
LINE
8
Default
10
102.266050
20
215.773450
11
98.548110
21
217.769890
0
LINE
8
Default
10
106.024720
20
213.851240
11
102.266050
21
215.773450
0
LINE
8
Default
10
109.821560
20
212.002680
11
106.024720
21
213.851230
0
LINE
8
Default
10
113.653970
20
210.227780
11
109.821560
21
212.002670
0
LINE
8
Default
10
117.519390
20
208.525980
11
113.653970
21
210.227780
0
LINE
8
Default
10
121.415220
20
206.897000
11
117.519380
21
208.525990
0
LINE
8
Default
10
125.337880
20
205.340550
11
121.415220
21
206.897000
0
LINE
8
Default
10
129.284680
20
203.856060
11
125.337880
21
205.340550
0
LINE
8
Default
10
133.254380
20
202.443260
11
129.284670
21
203.856060
0
LINE
8
Default
10
137.245790
20
201.100730
11
133.254380
21
202.443260
0
LINE
8
Default
10
145.288880
20
198.625080
11
137.245820
21
201.100730
0
LINE
8
Default
10
153.404120
20
196.423180
11
145.288870
21
198.625080
0
LINE
8
Default
10
161.581370
20
194.489120
11
153.404090
21
196.423190
0
LINE
8
Default
10
169.814490
20
192.819780
11
161.581340
21
194.489120
0
LINE
8
Default
10
178.099840
20
191.412050
11
169.814500
21
192.819770
0
LINE
8
Default
10
186.433700
20
190.262560
11
178.099860
21
191.412050
0
LINE
8
Default
10
194.799460
20
189.370170
11
186.433700
21
190.262556
0
LINE
8
Default
10
203.180200
20
188.734886
11
194.799440
21
189.370168
0
LINE
8
Default
10
211.571740
20
188.354738
11
203.180160
21
188.734891
0
LINE
8
Default
10
219.969960
20
188.228303
11
211.571750
21
188.354738
0
LINE
8
Default
10
228.368150
20
188.354738
11
219.969940
21
188.228303
0
LINE
8
Default
10
236.759740
20
188.734891
11
228.368170
21
188.354738
0
LINE
8
Default
10
245.140470
20
189.370168
11
236.759690
21
188.734886
0
LINE
8
Default
10
253.506190
20
190.262556
11
245.140420
21
189.370170
0
LINE
8
Default
10
261.840020
20
191.412050
11
253.506180
21
190.262560
0
LINE
8
Default
10
270.125380
20
192.819770
11
261.840050
21
191.412050
0
LINE
8
Default
10
278.358550
20
194.489120
11
270.125370
21
192.819780
0
LINE
8
Default
10
286.535770
20
196.422910
11
278.358500
21
194.489120
0
LINE
8
Default
10
294.651000
20
198.625080
11
286.535760
21
196.422900
0
LINE
8
Default
10
302.694060
20
201.100730
11
294.650990
21
198.625080
0
LINE
8
Default
10
306.685490
20
202.442980
11
302.694080
21
201.100730
0
LINE
8
Default
10
310.655200
20
203.856060
11
306.685490
21
202.442970
0
LINE
8
Default
10
314.601990
20
205.340540
11
310.655200
21
203.856050
0
LINE
8
Default
10
318.524650
20
206.896990
11
314.601990
21
205.340540
0
LINE
8
Default
10
322.420500
20
208.525980
11
318.524650
21
206.896990
0
LINE
8
Default
10
326.285920
20
210.227770
11
322.420490
21
208.525970
0
LINE
8
Default
10
330.118350
20
212.002660
11
326.285920
21
210.227770
0
LINE
8
Default
10
333.915200
20
213.850940
11
330.118350
21
212.002670
0
LINE
8
Default
10
337.673880
20
215.773160
11
333.915190
21
213.850950
0
LINE
8
Default
10
341.391820
20
217.769880
11
337.673880
21
215.773160
0
LINE
8
Default
10
345.066430
20
219.841110
11
341.391810
21
217.769880
0
LINE
8
Default
10
348.695150
20
221.987690
11
345.066420
21
219.841110
0
LINE
8
Default
10
352.277730
20
224.211040
11
348.695150
21
221.987700
0
LINE
8
Default
10
355.813180
20
226.513410
11
352.277730
21
224.211040
0
LINE
8
Default
10
359.297750
20
228.895080
11
355.813180
21
226.513410
0
LINE
8
Default
10
362.727790
20
231.356060
11
359.297750
21
228.895080
0
LINE
8
Default
10
366.099550
20
233.896900
11
362.727790
21
231.356060
0
LINE
8
Default
10
369.409370
20
236.517900
11
366.099560
21
233.896900
0
LINE
8
Default
10
372.653520
20
239.219040
11
369.409380
21
236.517890
0
LINE
8
Default
10
375.828270
20
242.000900
11
372.653530
21
239.219040
0
LINE
8
Default
10
378.930430
20
244.864330
11
375.828270
21
242.000910
0
LINE
8
Default
10
381.956100
20
247.809320
11
378.930430
21
244.864330
0
LINE
8
Default
10
384.900530
20
250.835580
11
381.956110
21
247.809310
0
LINE
8
Default
10
387.759020
20
253.943120
11
384.900530
21
250.835570
0
LINE
8
Default
10
390.526820
20
257.131100
11
387.759010
21
253.943120
0
LINE
8
Default
10
393.199260
20
260.399790
11
390.526820
21
257.131090
0
LINE
8
Default
10
395.771580
20
263.748630
11
393.199270
21
260.399780
0
LINE
8
Default
10
398.239080
20
267.177340
11
395.771580
21
263.748620
0
LINE
8
Default
10
400.596480
20
270.684780
11
398.239080
21
267.177330
0
LINE
8
Default
10
402.837410
20
274.268150
11
400.596480
21
270.684780
0
LINE
8
Default
10
404.955540
20
277.923210
11
402.837410
21
274.268150
0
LINE
8
Default
10
405.966570
20
279.776560
11
404.955540
21
277.923210
0
LINE
8
Default
10
406.944530
20
281.646280
11
405.966574
21
279.776560
0
LINE
8
Default
10
407.888844
20
283.532370
11
406.944529
21
281.646280
0
LINE
8
Default
10
408.799119
20
285.434830
11
407.888840
21
283.532370
0
LINE
8
Default
10
409.674800
20
287.353660
11
408.799122
21
285.434830
0
LINE
8
Default
10
410.515312
20
289.288570
11
409.674798
21
287.353660
0
LINE
8
Default
10
411.320098
20
291.239010
11
410.515314
21
289.288570
0
LINE
8
Default
10
412.088564
20
293.205530
11
411.320102
21
291.239010
0
LINE
8
Default
10
412.820142
20
295.187580
11
412.088566
21
293.205530
0
LINE
8
Default
10
413.514296
20
297.184860
11
412.820143
21
295.187570
0
LINE
8
Default
10
414.169813
20
299.195400
11
413.514296
21
297.184850
0
LINE
8
Default
10
414.785626
20
301.216960
11
414.169818
21
299.195400
0
LINE
8
Default
10
415.361358
20
303.249240
11
414.785625
21
301.216960
0
LINE
8
Default
10
415.896595
20
305.291680
11
415.361361
21
303.249240
0
LINE
8
Default
10
416.390961
20
307.343720
11
415.896593
21
305.291680
0
LINE
8
Default
10
416.844012
20
309.405350
11
416.390961
21
307.343720
0
LINE
8
Default
10
417.255407
20
311.475730
11
416.844012
21
309.405350
0
LINE
8
Default
10
417.624751
20
313.554580
11
417.255407
21
311.475730
0
LINE
8
Default
10
417.951423
20
315.639630
11
417.624751
21
313.554570
0
LINE
8
Default
10
418.235028
20
317.728630
11
417.951423
21
315.639620
0
LINE
8
Default
10
418.475425
20
319.821590
11
418.235028
21
317.728630
0
LINE
8
Default
10
418.672472
20
321.919340
11
418.475425
21
319.821580
0
LINE
8
Default
10
418.826001
20
324.021610
11
418.672472
21
321.919340
0
LINE
8
Default
10
418.935842
20
326.128960
11
418.826001
21
324.021610
0
LINE
8
Default
10
419.001854
20
328.241680
11
418.935842
21
326.128970
0
LINE
8
Default
10
419.023896
20
330.359760
11
419.001882
21
328.241680
0
LINE
8
Default
10
419.001882
20
332.478110
11
419.023896
21
330.359750
0
LINE
8
Default
10
418.935842
20
334.590540
11
419.001882
21
332.478110
0
LINE
8
Default
10
418.826001
20
336.698180
11
418.935842
21
334.590550
0
LINE
8
Default
10
418.672501
20
338.800460
11
418.826002
21
336.698190
0
LINE
8
Default
10
418.475454
20
340.898220
11
418.672501
21
338.800460
0
LINE
8
Default
10
418.235057
20
342.991170
11
418.475454
21
340.898210
0
LINE
8
Default
10
417.951452
20
345.080180
11
418.235057
21
342.991170
0
LINE
8
Default
10
417.624752
20
347.164950
11
417.951452
21
345.080180
0
LINE
8
Default
10
417.255436
20
349.243800
11
417.624752
21
347.164950
0
LINE
8
Default
10
416.844041
20
351.314460
11
417.255436
21
349.243800
0
LINE
8
Default
10
416.390990
20
353.375810
11
416.844041
21
351.314460
0
LINE
8
Default
10
415.896650
20
355.428130
11
416.390990
21
353.375810
0
LINE
8
Default
10
415.361420
20
357.470570
11
415.896654
21
355.428130
0
LINE
8
Default
10
414.785684
20
359.502850
11
415.361417
21
357.470570
0
LINE
8
Default
10
414.169877
20
361.524410
11
414.785685
21
359.502850
0
LINE
8
Default
10
413.514355
20
363.534960
11
414.169872
21
361.524410
0
LINE
8
Default
10
412.820202
20
365.532240
11
413.514355
21
363.534950
0
LINE
8
Default
10
412.088595
20
367.514280
11
412.820199
21
365.532230
0
LINE
8
Default
10
411.320159
20
369.480520
11
412.088593
21
367.514280
0
LINE
8
Default
10
410.515373
20
371.431240
11
411.320157
21
369.480520
0
LINE
8
Default
10
409.674887
20
373.366150
11
410.515372
21
371.431240
0
LINE
8
Default
10
408.799212
20
375.284700
11
409.674890
21
373.366150
0
LINE
8
Default
10
407.888930
20
377.187440
11
408.799209
21
375.284700
0
LINE
8
Default
10
406.944619
20
379.073530
11
407.888934
21
377.187440
0
LINE
8
Default
10
405.966664
20
380.943250
11
406.944620
21
379.073530
0
LINE
8
Default
10
404.955630
20
382.796600
11
405.966660
21
380.943250
0
LINE
8
Default
10
402.837500
20
386.451660
11
404.955630
21
382.796600
0
LINE
8
Default
10
400.596570
20
390.034750
11
402.837500
21
386.451660
0
LINE
8
Default
10
398.239200
20
393.542490
11
400.596570
21
390.034750
0
LINE
8
Default
10
395.771700
20
396.971200
11
398.239200
21
393.542480
0
LINE
8
Default
10
393.199390
20
400.319760
11
395.771700
21
396.971200
0
LINE
8
Default
10
390.526970
20
403.588460
11
393.199390
21
400.319760
0
LINE
8
Default
10
387.759170
20
406.776720
11
390.526980
21
403.588460
0
LINE
8
Default
10
384.900690
20
409.884270
11
387.759180
21
406.776720
0
LINE
8
Default
10
381.956270
20
412.910530
11
384.900690
21
409.884260
0
LINE
8
Default
10
378.930590
20
415.855510
11
381.956260
21
412.910520
0
LINE
8
Default
10
375.828460
20
418.718650
11
378.930590
21
415.855510
0
LINE
8
Default
10
372.653690
20
421.500800
11
375.828460
21
418.718660
0
LINE
8
Default
10
369.409550
20
424.201950
11
372.653690
21
421.500800
0
LINE
8
Default
10
366.099730
20
426.822940
11
369.409540
21
424.201940
0
LINE
8
Default
10
362.727930
20
429.363780
11
366.099720
21
426.822940
0
LINE
8
Default
10
359.297890
20
431.824760
11
362.727930
21
429.363780
0
LINE
8
Default
10
355.813290
20
434.206430
11
359.297890
21
431.824760
0
LINE
8
Default
10
352.277840
20
436.508800
11
355.813290
21
434.206430
0
LINE
8
Default
10
348.695260
20
438.732140
11
352.277840
21
436.508800
0
LINE
8
Default
10
345.066530
20
440.878730
11
348.695260
21
438.732150
0
LINE
8
Default
10
341.391920
20
442.949960
11
345.066540
21
440.878730
0
LINE
8
Default
10
337.673990
20
444.946680
11
341.391930
21
442.949960
0
LINE
8
Default
10
333.915330
20
446.868890
11
337.673990
21
444.946680
0
LINE
8
Default
10
330.118480
20
448.717170
11
333.915330
21
446.868900
0
LINE
8
Default
10
326.286080
20
450.492070
11
330.118490
21
448.717180
0
LINE
8
Default
10
322.420660
20
452.193870
11
326.286090
21
450.492070
0
LINE
8
Default
10
318.524820
20
453.822850
11
322.420670
21
452.193860
0
LINE
8
Default
10
314.602160
20
455.379300
11
318.524820
21
453.822850
0
LINE
8
Default
10
310.655370
20
456.863790
11
314.602160
21
455.379300
0
LINE
8
Default
10
306.685660
20
458.276870
11
310.655370
21
456.863780
0
LINE
8
Default
10
302.694250
20
459.619110
11
306.685660
21
458.276860
0
LINE
8
Default
10
294.651160
20
462.094760
11
302.694230
21
459.619110
0
LINE
8
Default
10
286.535930
20
464.296940
11
294.651200
21
462.094760
0
LINE
8
Default
10
278.358700
20
466.230720
11
286.535970
21
464.296930
0
LINE
8
Default
10
270.125570
20
467.900060
11
278.358720
21
466.230720
0
LINE
8
Default
10
261.840220
20
469.307790
11
270.125550
21
467.900070
0
LINE
8
Default
10
253.506350
20
470.457280
11
261.840190
21
469.307790
0
LINE
8
Default
10
245.140590
20
471.349670
11
253.506360
21
470.457284
0
LINE
8
Default
10
236.759860
20
471.984954
11
245.140640
21
471.349672
0
LINE
8
Default
10
228.368240
20
472.365102
11
236.759810
21
471.984949
0
LINE
8
Default
10
219.970010
20
472.491537
11
228.368220
21
472.365102
0
LINE
8
Default
10
211.571820
20
472.365102
11
219.970020
21
472.491537
0
LINE
8
Default
10
203.180220
20
471.984949
11
211.571790
21
472.365102
0
LINE
8
Default
10
194.799490
20
471.349672
11
203.180250
21
471.984954
0
LINE
8
Default
10
186.433750
20
470.457284
11
194.799510
21
471.349670
0
LINE
8
Default
10
178.099910
20
469.307790
11
186.433760
21
470.457280
0
LINE
8
Default
10
169.814560
20
467.900070
11
178.099910
21
469.307790
0
LINE
8
Default
10
161.581410
20
466.230720
11
169.814560
21
467.900060
0
LINE
8
Default
10
153.404160
20
464.296930
11
161.581430
21
466.230720
0
LINE
8
Default
10
145.288930
20
462.094760
11
153.404180
21
464.296940
0
LINE
8
Default
10
137.245880
20
459.619110
11
145.288930
21
462.094760
0
LINE
8
Default
10
133.254430
20
458.276860
11
137.245840
21
459.619110
0
LINE
8
Default
10
129.284720
20
456.863780
11
133.254430
21
458.276870
0
LINE
8
Default
10
125.337920
20
455.379580
11
129.284720
21
456.863790
0
LINE
8
Default
10
121.415260
20
453.822850
11
125.337930
21
455.379590
0
LINE
8
Default
10
117.519420
20
452.193870
11
121.415260
21
453.822860
0
LINE
8
Default
10
113.654000
20
450.492080
11
117.519420
21
452.193880
0
LINE
8
Default
10
109.821580
20
448.717190
11
113.654000
21
450.492080
0
LINE
8
Default
10
106.024740
20
446.868910
11
109.821580
21
448.717180
0
LINE
8
Default
10
102.266060
20
444.946690
11
106.024740
21
446.868900
0
LINE
8
Default
10
98.548120
20
442.949970
11
102.266060
21
444.946690
0
LINE
8
Default
10
94.873500
20
440.878740
11
98.548120
21
442.949970
0
LINE
8
Default
10
91.244770
20
438.732160
11
94.873490
21
440.878740
0
LINE
8
Default
10
87.662180
20
436.508810
11
91.244760
21
438.732150
0
LINE
8
Default
10
84.126740
20
434.206440
11
87.662180
21
436.508810
0
LINE
8
Default
10
80.642150
20
431.824770
11
84.126740
21
434.206440
0
LINE
8
Default
10
77.212110
20
429.363790
11
80.642150
21
431.824770
0
LINE
8
Default
10
73.840330
20
426.822950
11
77.212110
21
429.363790
0
LINE
8
Default
10
70.530520
20
424.201950
11
73.840330
21
426.822950
0
LINE
8
Default
10
67.286380
20
421.500810
11
70.530520
21
424.201960
0
LINE
8
Default
10
64.111630
20
418.718950
11
67.286390
21
421.500810
0
LINE
8
Default
10
61.009480
20
415.855520
11
64.111630
21
418.718940
0
LINE
8
Default
10
57.983830
20
412.910530
11
61.009480
21
415.855520
0
LINE
8
Default
10
55.039400
20
409.884270
11
57.983820
21
412.910540
0
LINE
8
Default
10
52.180910
20
406.776730
11
55.039390
21
409.884280
0
LINE
8
Default
10
49.413090
20
403.588750
11
52.180900
21
406.776730
0
LINE
8
Default
10
46.740660
20
400.320060
11
49.413090
21
403.588760
0
LINE
8
Default
10
44.168350
20
396.971220
11
46.740670
21
400.320070
0
LINE
8
Default
10
41.700870
20
393.542510
11
44.168360
21
396.971230
0
LINE
8
Default
10
39.343490
20
390.035060
11
41.700880
21
393.542520
0
LINE
8
Default
10
37.102560
20
386.451690
11
39.343490
21
390.035060
0
LINE
8
Default
10
34.984420
20
382.796630
11
37.102560
21
386.451690
0
LINE
8
Default
10
33.973390
20
380.943280
11
34.984420
21
382.796630
0
LINE
8
Default
10
32.995440
20
379.073560
11
33.973393
21
380.943280
0
LINE
8
Default
10
31.988693
20
377.059910
11
32.995433
21
379.073560
0
LINE
8
Default
10
442.531433
20
268.614560
11
492.378000
21
268.614000
0
LINE
8
Default
10
442.531500
20
252.687900
11
442.532000
21
268.614000
0
LINE
8
Default
10
609.756000
20
252.687900
11
442.532000
21
252.688000
0
LINE
8
Default
10
609.756000
20
268.614100
11
609.756000
21
252.688000
0
LINE
8
Default
10
552.537300
20
268.614100
11
609.756000
21
268.614000
0
LINE
8
Default
10
553.651800
20
269.514288
11
552.537330
21
268.614000
0
LINE
8
Default
10
554.744980
20
270.439980
11
553.651790
21
269.514292
0
LINE
8
Default
10
555.816860
20
271.390502
11
554.744980
21
270.439978
0
LINE
8
Default
10
556.867320
20
272.364728
11
555.816860
21
271.390498
0
LINE
8
Default
10
557.896300
20
273.361258
11
556.867320
21
272.364732
0
LINE
8
Default
10
558.903750
20
274.379802
11
557.896300
21
273.361262
0
LINE
8
Default
10
559.889580
20
275.418942
11
558.903750
21
274.379802
0
LINE
8
Default
10
560.853760
20
276.477562
11
559.889577
21
275.418952
0
LINE
8
Default
10
562.062517
20
277.866942
11
560.853757
21
276.477562
0
LINE
8
Default
10
563.234807
20
279.284822
11
562.062517
21
277.866942
0
LINE
8
Default
10
564.371177
20
280.729522
11
563.234807
21
279.284832
0
LINE
8
Default
10
565.472237
20
282.200472
11
564.371177
21
280.729532
0
LINE
8
Default
10
566.538587
20
283.696532
11
565.472237
21
282.200472
0
LINE
8
Default
10
567.570837
20
285.216862
11
566.538577
21
283.696532
0
LINE
8
Default
10
568.569557
20
286.760612
11
567.570830
21
285.216862
0
LINE
8
Default
10
569.535350
20
288.326382
11
568.569558
21
286.760612
0
LINE
8
Default
10
570.468038
20
289.912472
11
569.535351
21
288.326382
0
LINE
8
Default
10
571.367281
20
291.516902
11
570.468037
21
289.912472
0
LINE
8
Default
10
572.233557
20
293.138552
11
571.367277
21
291.516902
0
LINE
8
Default
10
573.067297
20
294.777692
11
572.233557
21
293.138542
0
LINE
8
Default
10
573.868947
20
296.433202
11
573.067295
21
294.777692
0
LINE
8
Default
10
574.638965
20
298.104812
11
573.868950
21
296.433212
0
LINE
8
Default
10
575.377790
20
299.791652
11
574.638961
21
298.104812
0
LINE
8
Default
10
576.085861
20
301.493452
11
575.377794
21
299.791652
0
LINE
8
Default
10
576.762944
20
303.207952
11
576.085865
21
301.493452
0
LINE
8
Default
10
577.408665
20
304.932892
11
576.762941
21
303.207952
0
LINE
8
Default
10
578.607351
20
308.412122
11
577.408671
21
304.932892
0
LINE
8
Default
10
579.684421
20
311.926922
11
578.607351
21
308.412132
0
LINE
8
Default
10
580.642451
20
315.472482
11
579.684420
21
311.926932
0
LINE
8
Default
10
581.484430
20
319.047962
11
580.642449
21
315.472492
0
LINE
8
Default
10
582.212109
20
322.651942
11
581.484428
21
319.047972
0
LINE
8
Default
10
582.826138
20
326.279632
11
582.212108
21
322.651952
0
LINE
8
Default
10
583.327108
20
329.925662
11
582.826136
21
326.279632
0
LINE
8
Default
10
583.715643
20
333.585512
11
583.327108
21
329.925662
0
LINE
8
Default
10
583.992418
20
337.253552
11
583.715643
21
333.585512
0
LINE
8
Default
10
584.157998
20
340.925542
11
583.992418
21
337.253552
0
LINE
8
Default
10
584.213059
20
344.595842
11
584.157998
21
340.925542
0
LINE
8
Default
10
584.157969
20
348.265852
11
584.213059
21
344.595842
0
LINE
8
Default
10
583.992390
20
351.937852
11
584.157970
21
348.265862
0
LINE
8
Default
10
583.715615
20
355.605892
11
583.992390
21
351.937852
0
LINE
8
Default
10
583.327052
20
359.265742
11
583.715615
21
355.605892
0
LINE
8
Default
10
582.826079
20
362.911772
11
583.327051
21
359.265742
0
LINE
8
Default
10
582.212051
20
366.539452
11
582.826081
21
362.911772
0
LINE
8
Default
10
581.484371
20
370.143432
11
582.212052
21
366.539462
0
LINE
8
Default
10
580.642362
20
373.718912
11
581.484371
21
370.143442
0
LINE
8
Default
10
579.684331
20
377.264472
11
580.642362
21
373.718922
0
LINE
8
Default
10
578.607262
20
380.778992
11
579.684332
21
377.264482
0
LINE
8
Default
10
577.408582
20
384.258222
11
578.607262
21
380.778992
0
LINE
8
Default
10
576.762852
20
385.983162
11
577.408576
21
384.258222
0
LINE
8
Default
10
576.085776
20
387.697662
11
576.762855
21
385.983162
0
LINE
8
Default
10
575.377685
20
389.399742
11
576.085780
21
387.697662
0
LINE
8
Default
10
574.638860
20
391.086582
11
575.377689
21
389.399742
0
LINE
8
Default
10
573.868849
20
392.758182
11
574.638864
21
391.086582
0
LINE
8
Default
10
573.067174
20
394.413702
11
573.868854
21
392.758192
0
LINE
8
Default
10
572.233434
20
396.052572
11
573.067174
21
394.413712
0
LINE
8
Default
10
571.367154
20
397.674502
11
572.233434
21
396.052572
0
LINE
8
Default
10
570.467914
20
399.278652
11
571.367158
21
397.674502
0
LINE
8
Default
10
569.535228
20
400.864742
11
570.467915
21
399.278652
0
LINE
8
Default
10
568.569405
20
402.430792
11
569.535225
21
400.864742
0
LINE
8
Default
10
567.570675
20
403.974262
11
568.569402
21
402.430792
0
LINE
8
Default
10
566.538422
20
405.494872
11
567.570682
21
403.974262
0
LINE
8
Default
10
565.472082
20
406.990932
11
566.538432
21
405.494872
0
LINE
8
Default
10
564.370992
20
408.461872
11
565.472082
21
406.990932
0
LINE
8
Default
10
563.234622
20
409.906572
11
564.370992
21
408.461882
0
LINE
8
Default
10
562.062332
20
411.324182
11
563.234622
21
409.906582
0
LINE
8
Default
10
560.853542
20
412.713842
11
562.062332
21
411.324182
0
LINE
8
Default
10
559.608332
20
414.073022
11
560.853552
21
412.713842
0
LINE
8
Default
10
558.327212
20
415.399462
11
559.608332
21
414.073022
0
LINE
8
Default
10
557.010362
20
416.690352
11
558.327212
21
415.399472
0
LINE
8
Default
10
555.657902
20
417.944272
11
557.010362
21
416.690362
0
LINE
8
Default
10
554.269982
20
419.158672
11
555.657892
21
417.944272
0
LINE
8
Default
10
552.846732
20
420.331302
11
554.269982
21
419.158672
0
LINE
8
Default
10
551.388352
20
421.460472
11
552.846732
21
420.331302
0
LINE
8
Default
10
549.894942
20
422.543642
11
551.388352
21
421.460472
0
LINE
8
Default
10
548.366802
20
423.578552
11
549.894952
21
422.543642
0
LINE
8
Default
10
546.805862
20
424.562372
11
548.366802
21
423.578546
0
LINE
8
Default
10
545.214892
20
425.491726
11
546.805862
21
424.562369
0
LINE
8
Default
10
544.409002
20
425.934819
11
545.214887
21
425.491730
0
LINE
8
Default
10
543.596627
20
426.363232
11
544.409003
21
425.934819
0
LINE
8
Default
10
542.777843
20
426.776687
11
543.596625
21
426.363232
0
LINE
8
Default
10
541.952565
20
427.174902
11
542.777839
21
426.776687
0
LINE
8
Default
10
541.120889
20
427.557877
11
541.952569
21
427.174902
0
LINE
8
Default
10
540.282859
20
427.925048
11
541.120889
21
427.557877
0
LINE
8
Default
10
539.438619
20
428.276696
11
540.282858
21
427.925047
0
LINE
8
Default
10
538.588258
20
428.612258
11
539.438621
21
428.276696
0
LINE
8
Default
10
537.731851
20
428.931451
11
538.588254
21
428.612258
0
LINE
8
Default
10
536.869494
20
429.234275
11
537.731852
21
428.931451
0
LINE
8
Default
10
536.001722
20
429.520166
11
536.869498
21
429.234275
0
LINE
8
Default
10
535.129038
20
429.788841
11
536.001725
21
429.520166
0
LINE
8
Default
10
534.251555
20
430.040301
11
535.129040
21
429.788841
0
LINE
8
Default
10
533.369410
20
430.274263
11
534.251551
21
430.040301
0
LINE
8
Default
10
532.482671
20
430.490445
11
533.369413
21
430.274263
0
LINE
8
Default
10
531.591473
20
430.688565
11
532.482674
21
430.490445
0
LINE
8
Default
10
530.695924
20
430.868905
11
531.591471
21
430.688565
0
LINE
8
Default
10
529.796111
20
431.030900
11
530.695919
21
430.868905
0
LINE
8
Default
10
528.892179
20
431.174551
11
529.796108
21
431.030900
0
LINE
8
Default
10
527.984218
20
431.299293
11
528.892183
21
431.174551
0
LINE
8
Default
10
527.072303
20
431.405691
11
527.984219
21
431.299293
0
LINE
8
Default
10
526.156609
20
431.492897
11
527.072307
21
431.405690
0
LINE
8
Default
10
525.237187
20
431.561194
11
526.156610
21
431.492897
0
LINE
8
Default
10
524.314180
20
431.610301
11
525.237187
21
431.561194
0
LINE
8
Default
10
523.387677
20
431.639652
11
524.314184
21
431.610301
0
LINE
8
Default
10
522.457784
20
431.649530
11
523.387677
21
431.641063
0
LINE
8
Default
10
521.527887
20
431.639652
11
522.457780
21
431.648118
0
LINE
8
Default
10
520.601380
20
431.610018
11
521.527887
21
431.639652
0
LINE
8
Default
10
519.678377
20
431.561194
11
520.601384
21
431.610018
0
LINE
8
Default
10
518.758984
20
431.492896
11
519.678379
21
431.561194
0
LINE
8
Default
10
517.843259
20
431.405690
11
518.758985
21
431.492897
0
LINE
8
Default
10
516.931375
20
431.299293
11
517.843263
21
431.405691
0
LINE
8
Default
10
516.023413
20
431.174269
11
516.931378
21
431.299293
0
LINE
8
Default
10
515.119488
20
431.030900
11
516.023417
21
431.174269
0
LINE
8
Default
10
514.219677
20
430.868905
11
515.119485
21
431.030900
0
LINE
8
Default
10
513.324125
20
430.688565
11
514.219672
21
430.868905
0
LINE
8
Default
10
512.432922
20
430.490163
11
513.324123
21
430.688565
0
LINE
8
Default
10
511.546213
20
430.273981
11
512.432926
21
430.490163
0
LINE
8
Default
10
510.664076
20
430.040301
11
511.546217
21
430.273981
0
LINE
8
Default
10
509.786587
20
429.788841
11
510.664072
21
430.040301
0
LINE
8
Default
10
508.913902
20
429.520166
11
509.786589
21
429.788841
0
LINE
8
Default
10
508.046129
20
429.233993
11
508.913905
21
429.520166
0
LINE
8
Default
10
507.183775
20
428.931451
11
508.046133
21
429.233993
0
LINE
8
Default
10
506.327373
20
428.611976
11
507.183776
21
428.931451
0
LINE
8
Default
10
505.477006
20
428.276696
11
506.327369
21
428.611976
0
LINE
8
Default
10
504.632799
20
427.925048
11
505.477010
21
428.276697
0
LINE
8
Default
10
503.794770
20
427.557595
11
504.632800
21
427.925048
0
LINE
8
Default
10
502.963090
20
427.174902
11
503.794770
21
427.557595
0
LINE
8
Default
10
502.137820
20
426.776405
11
502.963094
21
427.174902
0
LINE
8
Default
10
501.319034
20
426.363232
11
502.137816
21
426.776405
0
LINE
8
Default
10
500.506656
20
425.934819
11
501.319032
21
426.363232
0
LINE
8
Default
10
499.700772
20
425.491448
11
500.506657
21
425.934819
0
LINE
8
Default
10
498.109827
20
424.562369
11
499.700767
21
425.491444
0
LINE
8
Default
10
496.548887
20
423.578544
11
498.109827
21
424.562370
0
LINE
8
Default
10
495.020737
20
422.543350
11
496.548887
21
423.578540
0
LINE
8
Default
10
493.527337
20
421.460180
11
495.020747
21
422.543350
0
LINE
8
Default
10
492.068987
20
420.331290
11
493.527337
21
421.460180
0
LINE
8
Default
10
490.645767
20
419.158380
11
492.068987
21
420.331290
0
LINE
8
Default
10
489.257857
20
417.943970
11
490.645767
21
419.158370
0
LINE
8
Default
10
487.905387
20
416.690340
11
489.257847
21
417.943970
0
LINE
8
Default
10
486.588537
20
415.399170
11
487.905387
21
416.690340
0
LINE
8
Default
10
485.307417
20
414.073010
11
486.588537
21
415.399170
0
LINE
8
Default
10
484.062227
20
412.713550
11
485.307417
21
414.073010
0
LINE
8
Default
10
482.853437
20
411.324170
11
484.062227
21
412.713550
0
LINE
8
Default
10
481.681177
20
409.906290
11
482.853447
21
411.324170
0
LINE
8
Default
10
480.544787
20
408.461590
11
481.681187
21
409.906280
0
LINE
8
Default
10
479.443727
20
406.990640
11
480.544787
21
408.461580
0
LINE
8
Default
10
478.377377
20
405.494580
11
479.443727
21
406.990640
0
LINE
8
Default
10
477.345127
20
403.974250
11
478.377387
21
405.494580
0
LINE
8
Default
10
476.346407
20
402.430500
11
477.345134
21
403.974250
0
LINE
8
Default
10
475.380614
20
400.864730
11
476.346406
21
402.430500
0
LINE
8
Default
10
474.447926
20
399.278640
11
475.380613
21
400.864730
0
LINE
8
Default
10
473.548683
20
397.674210
11
474.447927
21
399.278640
0
LINE
8
Default
10
472.682407
20
396.052560
11
473.548687
21
397.674210
0
LINE
8
Default
10
471.848667
20
394.413420
11
472.682407
21
396.052570
0
LINE
8
Default
10
471.047017
20
392.757910
11
471.848669
21
394.413420
0
LINE
8
Default
10
470.276999
20
391.086300
11
471.047014
21
392.757900
0
LINE
8
Default
10
469.538174
20
389.399460
11
470.277003
21
391.086300
0
LINE
8
Default
10
468.830083
20
387.697660
11
469.538178
21
389.399460
0
LINE
8
Default
10
468.153008
20
385.983160
11
468.830087
21
387.697660
0
LINE
8
Default
10
467.507287
20
384.258220
11
468.153011
21
385.983160
0
LINE
8
Default
10
466.308631
20
380.778990
11
467.507281
21
384.258220
0
LINE
8
Default
10
465.231531
20
377.264190
11
466.308631
21
380.778980
0
LINE
8
Default
10
464.273501
20
373.718630
11
465.231532
21
377.264180
0
LINE
8
Default
10
463.431522
20
370.143150
11
464.273503
21
373.718620
0
LINE
8
Default
10
462.703843
20
366.539170
11
463.431524
21
370.143140
0
LINE
8
Default
10
462.089814
20
362.911480
11
462.703844
21
366.539160
0
LINE
8
Default
10
461.588844
20
359.265450
11
462.089816
21
362.911480
0
LINE
8
Default
10
461.200280
20
355.605880
11
461.588843
21
359.265450
0
LINE
8
Default
10
460.923533
20
351.937560
11
461.200280
21
355.605880
0
LINE
8
Default
10
460.757925
20
348.265850
11
460.923533
21
351.937560
0
LINE
8
Default
10
460.702864
20
344.595550
11
460.757925
21
348.265850
0
LINE
8
Default
10
460.757925
20
340.925260
11
460.702864
21
344.595560
0
LINE
8
Default
10
460.923533
20
337.253550
11
460.757925
21
340.925260
0
LINE
8
Default
10
461.200308
20
333.585230
11
460.923533
21
337.253550
0
LINE
8
Default
10
461.588843
20
329.925660
11
461.200308
21
333.585230
0
LINE
8
Default
10
462.089844
20
326.279350
11
461.588844
21
329.925660
0
LINE
8
Default
10
462.703844
20
322.651670
11
462.089842
21
326.279350
0
LINE
8
Default
10
463.431552
20
319.047690
11
462.703843
21
322.651660
0
LINE
8
Default
10
464.273533
20
315.472210
11
463.431552
21
319.047680
0
LINE
8
Default
10
465.231562
20
311.926650
11
464.273531
21
315.472200
0
LINE
8
Default
10
466.308661
20
308.412130
11
465.231561
21
311.926640
0
LINE
8
Default
10
467.507341
20
304.932900
11
466.308661
21
308.412130
0
LINE
8
Default
10
468.153071
20
303.207670
11
467.507347
21
304.932890
0
LINE
8
Default
10
468.830147
20
301.493170
11
468.153068
21
303.207670
0
LINE
8
Default
10
469.538238
20
299.791370
11
468.830143
21
301.493170
0
LINE
8
Default
10
470.277063
20
298.104530
11
469.538234
21
299.791370
0
LINE
8
Default
10
471.047074
20
296.432930
11
470.277059
21
298.104530
0
LINE
8
Default
10
471.848729
20
294.777410
11
471.047077
21
296.432920
0
LINE
8
Default
10
472.682497
20
293.138540
11
471.848729
21
294.777400
0
LINE
8
Default
10
473.548779
20
291.516610
11
472.682499
21
293.138540
0
LINE
8
Default
10
474.448019
20
289.912180
11
473.548775
21
291.516610
0
LINE
8
Default
10
475.380705
20
288.326090
11
474.448018
21
289.912180
0
LINE
8
Default
10
476.346528
20
286.760320
11
475.380708
21
288.326090
0
LINE
8
Default
10
477.345258
20
285.216570
11
476.346531
21
286.760320
0
LINE
8
Default
10
478.377511
20
283.696240
11
477.345251
21
285.216570
0
LINE
8
Default
10
479.443881
20
282.200180
11
478.377501
21
283.696240
0
LINE
8
Default
10
480.544941
20
280.729240
11
479.443881
21
282.200180
0
LINE
8
Default
10
481.681341
20
279.284540
11
480.544941
21
280.729230
0
LINE
8
Default
10
482.853601
20
277.866930
11
481.681331
21
279.284530
0
LINE
8
Default
10
484.062381
20
276.477270
11
482.853591
21
277.866930
0
LINE
8
Default
10
485.026501
20
275.418650
11
484.062374
21
276.477260
0
LINE
8
Default
10
486.012334
20
274.379500
11
485.026504
21
275.418640
0
LINE
8
Default
10
487.019754
20
273.361240
11
486.012334
21
274.379500
0
LINE
8
Default
10
488.048704
20
272.364430
11
487.019754
21
273.361238
0
LINE
8
Default
10
489.099134
20
271.390478
11
488.048704
21
272.364426
0
LINE
8
Default
10
490.170984
20
270.439956
11
489.099134
21
271.390480
0
LINE
8
Default
10
491.264144
20
269.514270
11
490.170984
21
270.439958
0
LINE
8
Default
10
492.378584
20
268.613978
11
491.264144
21
269.514266
 0 
ENDSEC
 0 
EOF