<?xml version="1.0" encoding="UTF-8" standalone="no"?>
<svg
   xmlns:dc="http://purl.org/dc/elements/1.1/"
   xmlns:cc="http://creativecommons.org/ns#"
   xmlns:rdf="http://www.w3.org/1999/02/22-rdf-syntax-ns#"
   xmlns:svg="http://www.w3.org/2000/svg"
   xmlns="http://www.w3.org/2000/svg"
   xmlns:sodipodi="http://sodipodi.sourceforge.net/DTD/sodipodi-0.dtd"
   xmlns:inkscape="http://www.inkscape.org/namespaces/inkscape"
   viewBox="0 0 2304 1728.0001"
   width="24in"
   height="18in"
   version="1.1"
   id="svg3700"
   sodipodi:docname="set3.svg"
   inkscape:version="1.0.2-2 (e86c870879, 2021-01-15)">
  <metadata
     id="metadata3704">
    <rdf:RDF>
      <cc:Work
         rdf:about="">
        <dc:format>image/svg+xml</dc:format>
        <dc:type
           rdf:resource="http://purl.org/dc/dcmitype/StillImage" />
        <dc:title></dc:title>
      </cc:Work>
    </rdf:RDF>
  </metadata>
  <sodipodi:namedview
     pagecolor="#ffffff"
     bordercolor="#666666"
     borderopacity="1"
     objecttolerance="10"
     gridtolerance="10"
     guidetolerance="10"
     inkscape:pageopacity="0"
     inkscape:pageshadow="2"
     inkscape:window-width="1600"
     inkscape:window-height="996"
     id="namedview3702"
     showgrid="false"
     units="in"
     inkscape:zoom="0.39063904"
     inkscape:cx="1281.2894"
     inkscape:cy="1329.1227"
     inkscape:window-x="-8"
     inkscape:window-y="-8"
     inkscape:window-maximized="1"
     inkscape:current-layer="g3696" />
  <defs
     id="defs2816">
    <marker
       id="DistanceX"
       orient="auto"
       refX="0"
       refY="0"
       style="overflow:visible">
      <path
         d="M 3,-3 -3,3 M 0,-5 V 5"
         style="stroke:#000000;stroke-width:0.5"
         id="path2803" />
    </marker>
    <pattern
       id="Hatch"
       patternUnits="userSpaceOnUse"
       width="8"
       height="8"
       x="0"
       y="0">
      <path
         d="M8 4 l-4,4"
         stroke="#000000"
         stroke-width="0.25"
         linecap="square"
         id="path2806" />
      <path
         d="M6 2 l-4,4"
         stroke="#000000"
         stroke-width="0.25"
         linecap="square"
         id="path2808" />
      <path
         d="M4 0 l-4,4"
         stroke="#000000"
         stroke-width="0.25"
         linecap="square"
         id="path2810" />
    </pattern>
    <symbol
       id="*Model_Space" />
    <symbol
       id="*Paper_Space" />
    <symbol
       id="*Paper_Space0" />
  </defs>
  <g
     inkscape:groupmode="layer"
     inkscape:label="0"
     id="g2818" />
  <g
     inkscape:groupmode="layer"
     inkscape:label="Default"
     id="g3696">
    <path
       id="path3694"
       style="fill:none;stroke:#4c0000;stroke-width:0.13333333;stroke-miterlimit:4;stroke-dasharray:none"
       d="m 113.34621,274.23204 v 117.73 m -56.431058,-117.73 H 113.34621 M 56.915152,866.75801 V 274.23204 M 113.34621,866.75801 H 56.915152 M 113.34621,722.90604 v 143.85197 m 3.56703,-136.71597 -3.56703,-7.136 m 7.03221,13.761 -3.46518,-6.625 m 7.04757,13.192 -3.58239,-6.567 m 11.08757,19.518 -7.50518,-12.951 m 15.44549,25.647 -7.94031,-12.696 m 16.29325,25.12497 -8.35294,-12.42897 m 17.096,24.57697 -8.74306,-12.148 m 17.85756,24.014 -9.1145,-11.866 m 18.58373,23.448 -9.46923,-11.582 m 19.27645,22.879 -9.80722,-11.297 m 19.9357,22.308 -10.12848,-11.011 m 20.56149,21.734 -10.43301,-10.723 m 21.15381,21.158 -10.7208,-10.435 m 21.71268,20.58 -10.99188,-10.145 m 22.24102,20.002 -11.24914,-9.857 m 22.74411,19.429 -11.49497,-9.572 m 23.22266,18.858 -11.72769,-9.286 m 23.67494,18.289 -11.94725,-9.003 m 24.10093,17.724 -12.15368,-8.721 m 24.50067,17.159 -12.34699,-8.438 m 24.87414,16.596 -12.52715,-8.158 m 25.22132,16.037 -12.69417,-7.879 m 25.55184,15.484 -12.85767,-7.605 m 25.87797,14.945 -13.0203,-7.34 m 26.1941,14.414 -13.1738,-7.074 m 26.49194,13.885 -13.31814,-6.811 m 26.77151,13.361 -13.45337,-6.55 m 27.0328,12.839 -13.57943,-6.289 m 27.2758,12.319 -13.69637,-6.03 m 27.50053,11.802 -13.80416,-5.772 m 27.70336,11.28699 -13.8992,-5.51499 m 27.88392,10.77499 -13.98472,-5.26 m 28.05063,10.266 -14.06591,-5.006 m 28.20872,9.763 -14.14281,-4.757 m 42.64185,13.529 -28.49904,-8.772 m 57.2539,16.574 -28.75486,-7.802 m 57.72948,14.655 -28.97462,-6.853 m 58.14721,12.768 -29.17259,-5.915 m 58.53011,10.903 -29.35752,-4.988 m 58.8869,9.061 -29.52938,-4.073 m 59.17187,7.235 -29.64249,-3.162 m 59.33811,5.413 -29.69562,-2.251 m 59.42958,3.598 -29.73396,-1.347 m 59.49141,1.795 -29.75745,-0.448 m 59.5149,0 -29.75745,0.448 m 59.49138,-1.795 -29.73393,1.347 m 59.42963,-3.598 -29.6957,2.251 m 59.3382,-5.413 -29.6425,3.162 m 59.17186,-7.235 -29.52936,4.073 m 58.88686,-9.061 -29.3575,4.988 m 58.5302,-10.903 -29.1727,5.915 m 58.14729,-12.767 -28.97459,6.852 m 57.72939,-14.655 -28.7548,7.803 m 57.2539,-16.575 -28.4991,8.772 m 42.6419,-13.528 -14.1428,4.756 m 28.2087,-9.763 -14.0659,5.007 m 28.0506,-10.267 -13.9847,5.26 m 27.8839,-10.77499 -13.8992,5.51499 m 27.7034,-11.28699 -13.8042,5.772 m 27.5006,-11.802 -13.6964,6.03 m 27.2759,-12.319 -13.5795,6.289 m 27.0329,-12.838 -13.4534,6.549 m 26.7716,-13.36 -13.3182,6.811 m 26.492,-13.886 -13.1738,7.075 m 26.1941,-14.414 -13.0203,7.339 m 25.878,-14.945 -12.8577,7.606 m 25.5519,-15.484 -12.6942,7.878 m 25.2214,-16.036 -12.5272,8.158 m 24.8741,-16.597 -12.3469,8.439 m 24.5006,-17.159 -12.1537,8.72 m 24.1009,-17.723 -11.9472,9.003 m 23.6749,-18.29 -11.7277,9.287 m 23.2227,-18.858 -11.495,9.571 m 22.7441,-19.428 -11.2491,9.857 m 22.241,-20.003 -10.9919,10.146 m 21.7128,-20.581 -10.7209,10.435 m 21.1539,-21.158 -10.433,10.723 m 20.5615,-21.734 -10.1285,11.011 m 19.9357,-22.307 -9.8072,11.296 m 19.2765,-22.878 -9.4693,11.582 m 18.5838,-23.448 -9.1145,11.866 m 17.8576,-24.015 -8.7431,12.149 m 17.0961,-24.57697 -8.353,12.42797 m 16.2933,-25.12497 -7.9403,12.697 m 15.4455,-25.648 -7.5052,12.951 m 11.0876,-19.518 -3.5824,6.567 m 7.0476,-13.192 -3.4652,6.625 m 6.8112,-13.308 -3.346,6.683 m 6.5714,-13.424 -3.2254,6.741 m 6.3282,-13.54 -3.1028,6.799 m 6.081,-13.655 -2.9782,6.856 m 5.8298,-13.767 -2.8516,6.911 m 5.5745,-13.879 -2.7229,6.968 m 5.3151,-13.991 -2.5922,7.023 m 5.0518,-14.1 -2.4596,7.077 m 4.7823,-14.201 -2.3227,7.124 m 4.5047,-14.287 -2.182,7.163 m 4.222,-14.364 -2.04,7.201 m 3.9365,-14.438 -1.8965,7.237 m 3.6482,-14.508 -1.7517,7.271 m 3.357,-14.576 -1.6053,7.305 m 3.063,-14.641 -1.4577,7.336 m 2.7664,-14.702 -1.3087,7.366 m 2.4662,-14.754 -1.1575,7.388 m 2.1624,-14.79 -1.0049,7.402 m 1.8567,-14.818 -0.8518,7.416 m 1.55,-14.849 -0.6982,7.433 m 1.2422,-14.882 -0.544,7.449 m 0.9332,-14.916 -0.3892,7.467 m 0.6231,-14.953 -0.2339,7.486 m 0.312,-14.991 -0.078,7.505 m 0,-15.011 0.078,7.506 m -0.312,-14.991 0.234,7.485 m -0.6232,-14.953 0.3892,7.468 m -0.9331,-14.917 0.5439,7.449 m -1.2421,-14.882 0.6982,7.433 m -1.55,-14.849 0.8518,7.416 m -1.8567,-14.818 1.0049,7.402 m -2.1625,-14.789 1.1576,7.387 m -2.4662,-14.753 1.3086,7.366 m -2.7663,-14.703 1.4577,7.337 m -3.063,-14.641 1.6053,7.304 m -3.3569,-14.576 1.7516,7.272 m -3.6481,-14.509 1.8965,7.237 m -3.9365,-14.438 2.04,7.201 m -4.222,-14.364 2.182,7.163 m -4.5047,-14.287 2.3227,7.124 m -4.7823,-14.201 2.4596,7.077 m -5.0519,-14.1 2.5923,7.023 m -5.3151,-13.99 2.7228,6.967 m -5.5744,-13.879 2.8516,6.912 m -5.8297,-13.768 2.9781,6.856 m -6.0809,-13.654 3.1028,6.798 m -6.3282,-13.54 3.2254,6.742 m -6.5714,-13.425 3.346,6.683 m -6.8112,-13.308 3.4652,6.625 m -7.0476,-13.192 3.5824,6.567 m -11.0876,-19.518 7.5052,12.951 m -15.4455,-25.647 7.9403,12.696 m -16.2932,-25.125 8.3529,12.429 m -17.096,-24.578 8.7431,12.149 m -17.8576,-24.014 9.1145,11.865 m -18.5837,-23.447 9.4692,11.582 m -19.2764,-22.879 9.8072,11.297 m -19.9357,-22.308 10.1285,11.011 m -20.5615,-21.734 10.433,10.723 m -21.1539,-21.158 10.7209,10.435 m -21.7127,-20.58 10.9918,10.145 m -22.241,-20.003 11.2492,9.858 m -22.7442,-19.429 11.495,9.571 m -23.2227,-18.858 11.7277,9.287 m -23.675,-18.29 11.9473,9.003 m -24.101,-17.723 12.1537,8.72 m -24.5007,-17.159 12.347,8.439 m -24.8742,-16.597 12.5272,8.158 m -25.2214,-16.036 12.6942,7.878 m -25.5519,-15.484 12.8577,7.606 m -25.878,-14.945 13.0203,7.339 m -26.1941,-14.414 13.1738,7.075 m -26.4919,-13.886 13.3181,6.811 m -26.7715,-13.36 13.4534,6.549 m -27.0328,-12.838 13.5794,6.289 m -27.2758,-12.319 13.6964,6.03 m -27.5006,-11.802 13.8042,5.772 m -27.7034,-11.287 13.8992,5.515 m -27.8839,-10.775 13.9847,5.26 m -28.0506,-10.267 14.0659,5.007 m -28.2087,-9.762997 14.1428,4.755997 m -42.6419,-13.527997 28.4991,8.772 m -57.254,-16.575 28.7549,7.803 m -57.72949,-14.655 28.97459,6.852 m -58.14719,-12.767 29.1726,5.915 m -58.5301,-10.903 29.3575,4.988 m -58.88686,-9.061 29.52936,4.073 m -59.17186,-7.235 29.6425,3.162 m -59.3382,-5.413 29.6957,2.251 m -59.42965,-3.598 29.73395,1.347 m -59.49142,-1.795 29.75747,0.448 m -59.51491,0 29.75744,-0.448 m -59.49138,1.795 29.73394,-1.347 m -59.42957,3.598 29.69563,-2.251 m -59.33811,5.413 29.64248,-3.162 m -59.17188,7.235 29.5294,-4.073 m -58.88695,9.061 29.35755,-4.988 m -58.53015,10.903 29.1726,-5.915 m -58.14719,12.767 28.97459,-6.852 m -57.72942,14.655 28.75483,-7.803 m -57.25385,16.575 28.49902,-8.772 m -42.64182,13.527997 14.1428,-4.755997 m -28.20872,9.762997 14.06592,-5.007 m -28.05064,10.266 13.98472,-5.259 m -27.88394,10.775 13.89922,-5.516 m -27.70339,11.288 13.80417,-5.772 m -27.50055,11.802 13.69638,-6.03 m -27.27583,12.319 13.57945,-6.289 m -27.03283,12.838 13.45338,-6.549 m -26.77155,13.36 13.31817,-6.811 m -26.49198,13.886 13.17381,-7.075 m -26.19414,14.414 13.02033,-7.339 m -25.87802,14.945 12.85769,-7.606 m -25.55189,15.484 12.6942,-7.878 m -25.22135,16.036 12.52715,-8.158 m -24.87414,16.597 12.34699,-8.439 m -24.50068,17.159 12.15369,-8.72 m -24.10094,17.723 11.94725,-9.003 m -23.67493,18.29 11.72768,-9.287 m -23.22266,18.858 11.49498,-9.571 m -22.74413,19.428 11.24915,-9.857 m -22.24103,20.003 10.99188,-10.146 m -21.7127,20.581 10.72082,-10.435 m -21.15383,21.158 10.43301,-10.723 m -20.5615,21.734 10.12849,-11.011 m -19.93571,22.307 9.80722,-11.296 m -19.27646,22.878 9.46924,-11.582 m -18.58375,23.448 9.11451,-11.866 m -17.85758,24.015 8.74307,-12.149 m -17.09602,24.577 8.35295,-12.428 m -16.29327,25.125 7.94032,-12.697 m -15.44553,25.648 7.50521,-12.951 m -11.08761,19.518 3.5824,-6.567 m -7.04759,13.192 3.46519,-6.625 m -7.03239,13.76 3.5672,-7.135 m 1451.11329,391.391 h 176.6215 m -176.6215,56.43097 v -56.43097 m 592.5262,56.43097 h -592.5262 m 592.5262,-56.43097 v 56.43097 m -202.7435,-56.43097 h 202.7435 m -198.7946,-3.19 -3.9489,3.19 m 7.8224,-6.47 -3.8735,3.28 m 7.6715,-6.648 -3.798,3.368 m 7.5201,-6.82 -3.7221,3.452 m 7.3681,-6.983 -3.646,3.531 m 7.2157,-7.14 -3.5697,3.609 m 7.0628,-7.291 -3.4931,3.682 m 6.9095,-7.433 -3.4164,3.751 m 7.6994,-8.674 -4.283,4.923 m 8.4368,-9.947 -4.1538,5.024 m 8.1803,-10.143 -4.0265,5.119 m 7.9279,-10.331 -3.9014,5.212 m 7.6798,-10.513 -3.7784,5.301 m 7.436,-10.688 -3.6576,5.387 m 7.1964,-10.857 -3.5388,5.47 m 6.9609,-11.018 -3.4221,5.548 m 6.7269,-11.168 -3.3048,5.62 m 6.4911,-11.305 -3.1863,5.685 m 6.2558,-11.431 -3.0695,5.746 m 6.0237,-11.554 -2.9542,5.808 m 5.7947,-11.674 -2.8405,5.866 m 5.5689,-11.789 -2.7284,5.923 m 5.3463,-11.9 -2.6179,5.977 m 5.1268,-12.007 -2.5089,6.03 m 4.908,-12.105 -2.3991,6.075 m 4.6871,-12.187 -2.288,6.112 m 6.5353,-18.44 -4.2473,12.328 m 8.0637,-24.782 -3.8164,12.454 m 7.211,-25.017 -3.3946,12.563 m 6.378,-25.232 -2.9834,12.669 m 5.5618,-25.439 -2.5784,12.77 m 4.7541,-25.624 -2.1757,12.854 m 3.9508,-25.773 -1.7751,12.919 m 3.1518,-25.887 -1.3767,12.968 m 2.3574,-25.965 -0.9807,12.997 m 1.5674,-26.008 -0.5867,13.011 m 0.7818,-26.016 -0.1951,13.005 m -10e-5,-26.009 0.1952,13.004 m -0.7819,-26.015 0.5867,13.011 m -1.5674,-26.008 0.9807,12.997 m -2.3575,-25.965 1.3768,12.968 m -3.1519,-25.887 1.7751,12.919 m -3.9508,-25.773 2.1757,12.854 m -4.7541,-25.624 2.5784,12.77 m -5.5619,-25.439 2.9835,12.669 m -6.3781,-25.232 3.3946,12.563 m -7.211,-25.016 3.8164,12.453 m -8.0637,-24.781 4.2473,12.328 m -6.5353,-18.44 2.288,6.112 m -4.6871,-12.187 2.3991,6.075 m -4.9081,-12.106 2.509,6.031 m -5.1269,-12.008 2.6179,5.977 m -5.3463,-11.9 2.7284,5.923 m -5.569,-11.789 2.8406,5.866 m -5.7948,-11.673 2.9542,5.807 m -6.0237,-11.554 3.0695,5.747 m -6.2558,-11.431 3.1863,5.684 m -6.4911,-11.304 3.3048,5.62 m -6.727,-11.169 3.4222,5.549 m -6.961,-11.018 3.5388,5.469 m -7.1964,-10.857 3.6576,5.388 m -7.436,-10.689 3.7784,5.301 m -7.6799,-10.513 3.9015,5.212 m -7.928,-10.331 4.0265,5.119 m -8.1803,-10.142 4.1538,5.023 m -8.4369,-9.947 4.2831,4.924 m -8.6953,-9.74 4.4122,4.816 m -8.9516,-9.516 4.5394,4.7 m -9.2054,-9.274 4.666,4.574 m -9.4582,-9.017 4.7922,4.443 m -9.71,-8.746 4.9178,4.303 m -9.9608,-8.458 5.043,4.155 m -10.2105,-8.156 5.1675,4.001 m -10.4591,-7.839 5.2916,3.838 m -10.7063,-7.505 5.4147,3.667 m -10.9456,-7.153 5.5309,3.486 m -11.1682,-6.779 5.6373,3.293 m -8.4928,-4.863 2.8555,1.57 m -5.734,-3.088 2.8785,1.518 m -5.7797,-2.983 2.9012,1.465 m -5.8254,-2.876 2.9242,1.411 m -5.8711,-2.768 2.9469,1.357 m -5.9163,-2.658 2.9694,1.301 m -5.9608,-2.547 2.9914,1.246 m -6.0045,-2.435 3.0131,1.189 m -6.0476,-2.32 3.0345,1.131 m -6.0901,-2.204 3.0556,1.073 m -6.1304,-2.086 3.0748,1.013 m -6.167,-1.965 3.0922,0.952 m -6.2014,-1.843 3.1092,0.891 m -6.2349,-1.72 3.1257,0.829 m -6.2677,-1.595 3.142,0.766 m -6.2998,-1.468 3.1578,0.702 m -6.331,-1.341 3.1732,0.639 m -6.3615,-1.213 3.1883,0.574 m -6.3912,-1.083 3.2029,0.509 m -6.4201,-0.951 3.2172,0.442 m -6.4484,-0.819 3.2312,0.377 m -6.4758,-0.686 3.2446,0.309 m -6.5024,-0.551 3.2578,0.242 m -6.5283,-0.416 3.2705,0.174 m -6.5534,-0.278 3.2829,0.104 m -6.5778,-0.139 3.2949,0.03 m -6.5898,0.005 3.2949,-0.03 m -6.5778,0.135 3.2829,-0.105 m -6.5534,0.278 3.2705,-0.173 m -6.5282,0.415 3.2577,-0.242 m -6.5024,0.551 3.2447,-0.309 m -6.4758,0.686 3.2311,-0.377 m -6.4483,0.82 3.2172,-0.443 m -6.4201,0.951 3.2029,-0.508 m -6.3912,1.082 3.1883,-0.574 m -6.3615,1.213 3.1732,-0.639 m -6.331,1.342 3.1578,-0.703 m -6.2997,1.469 3.1419,-0.766 m -6.2676,1.594 3.1257,-0.828 m -6.2349,1.719 3.1092,-0.891 m -6.2014,1.843 3.0922,-0.952 m -6.167,1.966 3.0748,-1.014 m -6.1304,2.086 3.0556,-1.072 m -6.0901,2.204 3.0345,-1.132 m -6.0476,2.32 3.0131,-1.188 m -6.0044,2.434 2.9913,-1.246 m -5.9607,2.548 2.9694,-1.302 m -5.9163,2.658 2.9469,-1.356 m -5.8711,2.768 2.9242,-1.412 m -5.8254,2.876 2.9012,-1.464 m -5.7797,2.982 2.8785,-1.518 m -5.734,3.089 2.8555,-1.571 m -8.4927,4.863 5.6372,-3.292 m -11.1681,6.778 5.5309,-3.486 m -10.9456,7.154 5.4147,-3.668 m -10.7063,7.506 5.2916,-3.838 m -10.459,7.838 5.1674,-4 m -10.2103,8.156 5.0429,-4.156 m -9.9607,8.459 4.9178,-4.303 m -9.71,8.745 4.7922,-4.442 m -9.4582,9.017 4.666,-4.575 m -9.2054,9.274 4.5394,-4.699 m -8.9515,9.516 4.4121,-4.817 m -8.6952,9.74 4.2831,-4.923 m -8.4368,9.947 4.1537,-5.024 m -8.1803,10.143 4.0266,-5.119 m -7.928,10.331 3.9014,-5.212 m -7.6798,10.513 3.7784,-5.301 m -7.436,10.688 3.6576,-5.387 m -7.1964,10.857 3.5388,-5.47 m -6.9609,11.018 3.4221,-5.548 m -6.7269,11.168 3.3048,-5.62 m -6.4911,11.305 3.1863,-5.685 m -6.2558,11.431 3.0695,-5.746 m -6.0237,11.554 2.9542,-5.808 m -5.7947,11.674 2.8405,-5.866 m -5.5689,11.789 2.7284,-5.923 m -5.3463,11.9 2.6179,-5.977 m -5.1269,12.007 2.509,-6.03 m -4.9081,12.105 2.3991,-6.075 m -4.6871,12.187 2.288,-6.112 m -6.5352,18.44 4.2472,-12.328 m -8.0637,24.782 3.8165,-12.454 m -7.2111,25.017 3.3946,-12.563 m -6.378,25.232 2.9834,-12.669 m -5.5618,25.439 2.5784,-12.77 m -4.7541,25.624 2.1757,-12.854 m -3.9508,25.773 1.7751,-12.919 m -3.1519,25.886 1.3768,-12.967 m -2.3574,25.965 0.9806,-12.998 m -1.5674,26.008 0.5868,-13.01 m -0.7819,26.015 0.1951,-13.005 m 0,26.01 -0.1951,-13.005 m 0.7819,26.015 -0.5868,-13.01 m 1.5675,26.008 -0.9807,-12.998 m 2.3574,25.965 -1.3767,-12.967 m 3.1519,25.887 -1.7752,-12.92 m 3.9508,25.774 -2.1756,-12.854 m 4.7541,25.624 -2.5785,-12.77 m 5.5619,25.439 -2.9834,-12.669 m 6.378,25.232 -3.3946,-12.563 m 7.2111,25.016 -3.8165,-12.453 m 8.0638,24.781 -4.2473,-12.328 m 6.5353,18.441 -2.288,-6.113 m 4.6871,12.188 -2.3991,-6.075 m 4.9081,12.105 -2.509,-6.03 m 5.1269,12.007 -2.6179,-5.977 m 5.3463,11.9 -2.7284,-5.923 m 5.5689,11.789 -2.8405,-5.866 m 5.7948,11.673 -2.9543,-5.807 m 6.0238,11.554 -3.0695,-5.747 m 6.2558,11.432 -3.1863,-5.685 m 6.4911,11.305 -3.3048,-5.62 m 6.727,11.168 -3.4222,-5.548 m 6.961,11.018 -3.5388,-5.47 m 7.1964,10.857 -3.6576,-5.387 m 7.4361,10.688 -3.7785,-5.301 m 7.6799,10.513 -3.9014,-5.212 m 7.928,10.331 -4.0266,-5.119 m 8.1803,10.142 -4.1537,-5.023 m 8.4368,9.947 -4.2831,-4.924 m 7.6993,8.675 -3.4162,-3.751 m 6.9093,7.433 -3.4931,-3.682 m 7.0627,7.29 -3.5696,-3.608 m 7.2155,7.14 -3.6459,-3.532 m 7.3679,6.983 -3.722,-3.451 m 7.5199,6.819 -3.7979,-3.368 m 7.6713,6.648 -3.8734,-3.28 m 7.8222,6.47 -3.9488,-3.19" />
  </g>
  <desc
     id="desc3698">set3.dxf - scale = 1.000000, origin = (0.000000, 0.000000), method = manual</desc>
</svg>
