<?xml version="1.0" encoding="UTF-8" standalone="no"?>
<svg
   xmlns:dc="http://purl.org/dc/elements/1.1/"
   xmlns:cc="http://creativecommons.org/ns#"
   xmlns:rdf="http://www.w3.org/1999/02/22-rdf-syntax-ns#"
   xmlns:svg="http://www.w3.org/2000/svg"
   xmlns="http://www.w3.org/2000/svg"
   xmlns:sodipodi="http://sodipodi.sourceforge.net/DTD/sodipodi-0.dtd"
   xmlns:inkscape="http://www.inkscape.org/namespaces/inkscape"
   viewBox="0 0 2304 1728.0001"
   width="24in"
   height="18in"
   version="1.1"
   id="svg2511"
   sodipodi:docname="set4.svg"
   inkscape:version="1.0.2-2 (e86c870879, 2021-01-15)">
  <metadata
     id="metadata2515">
    <rdf:RDF>
      <cc:Work
         rdf:about="">
        <dc:format>image/svg+xml</dc:format>
        <dc:type
           rdf:resource="http://purl.org/dc/dcmitype/StillImage" />
        <dc:title></dc:title>
      </cc:Work>
    </rdf:RDF>
  </metadata>
  <sodipodi:namedview
     pagecolor="#ffffff"
     bordercolor="#666666"
     borderopacity="1"
     objecttolerance="10"
     gridtolerance="10"
     guidetolerance="10"
     inkscape:pageopacity="0"
     inkscape:pageshadow="2"
     inkscape:window-width="2400"
     inkscape:window-height="1494"
     id="namedview2513"
     showgrid="false"
     units="in"
     inkscape:zoom="0.56747336"
     inkscape:cx="1390.0465"
     inkscape:cy="825.09525"
     inkscape:window-x="-11"
     inkscape:window-y="-11"
     inkscape:window-maximized="1"
     inkscape:current-layer="g2507" />
  <defs
     id="defs843">
    <marker
       id="DistanceX"
       orient="auto"
       refX="0"
       refY="0"
       style="overflow:visible">
      <path
         d="M 3,-3 -3,3 M 0,-5 V 5"
         style="stroke:#000000;stroke-width:0.5"
         id="path830" />
    </marker>
    <pattern
       id="Hatch"
       patternUnits="userSpaceOnUse"
       width="8"
       height="8"
       x="0"
       y="0">
      <path
         d="M8 4 l-4,4"
         stroke="#000000"
         stroke-width="0.25"
         linecap="square"
         id="path833" />
      <path
         d="M6 2 l-4,4"
         stroke="#000000"
         stroke-width="0.25"
         linecap="square"
         id="path835" />
      <path
         d="M4 0 l-4,4"
         stroke="#000000"
         stroke-width="0.25"
         linecap="square"
         id="path837" />
    </pattern>
    <symbol
       id="*Model_Space" />
    <symbol
       id="*Paper_Space" />
    <symbol
       id="*Paper_Space0" />
  </defs>
  <g
     inkscape:groupmode="layer"
     inkscape:label="0"
     id="g845" />
  <g
     inkscape:groupmode="layer"
     inkscape:label="Default"
     id="g2507">
    <path
       id="path2505"
       style="fill:none;stroke:#4c0000;stroke-width:0.13333333;stroke-miterlimit:4;stroke-dasharray:none"
       d="m 173.52247,184.58989 v 138.39533 m -56.431,-138.39533 h 56.431 m -56.431,592.52616 V 184.58989 m 56.431,592.52616 h -56.431 m 56.431,-164.5173 v 164.5173 m 4.2226,-157.22584 -4.2226,-7.29146 m 8.6248,14.47945 -4.4022,-7.18799 m 8.9773,14.26845 -4.5751,-7.08046 m 9.3163,14.04933 -4.7412,-6.96887 m 11.5241,16.36958 -6.7829,-9.40071 m 13.8534,18.58213 -7.0705,-9.18142 m 14.4154,18.14271 -7.3449,-8.96129 m 14.9513,17.70159 -7.6064,-8.7403 m 15.4613,17.25875 -7.8549,-8.51845 m 15.9451,16.8142 -8.0902,-8.29575 m 16.4029,16.36794 -8.3127,-8.07219 m 16.8347,15.91998 -8.522,-7.84779 m 17.2428,15.47225 -8.7208,-7.62446 m 17.6317,15.02777 -8.9109,-7.40331 m 18.0016,14.58623 -9.0907,-7.18292 m 18.3511,14.14623 -9.2604,-6.96331 m 18.6801,13.70778 -9.4197,-6.74447 m 18.9886,13.27086 -9.5689,-6.52639 m 19.2767,12.83548 -9.7078,-6.30909 m 19.5442,12.40165 -9.8364,-6.09256 m 19.7966,11.97277 -9.9602,-5.88021 m 20.0422,11.55288 -10.082,-5.67267 m 20.2801,11.13955 -10.1981,-5.46688 m 20.5067,10.72969 -10.3086,-5.26281 m 20.7218,10.3233 -10.4132,-5.06049 m 20.9253,9.9204 -10.5121,-4.85991 m 21.1175,9.52098 -10.6054,-4.66107 m 21.2982,9.12502 -10.6928,-4.46395 m 21.4617,8.73038 -10.7689,-4.26643 m 21.6039,8.3351 -10.835,-4.06867 m 21.7327,7.94163 -10.8977,-3.87296 m 21.8548,7.55225 -10.9571,-3.67929 m 33.036,10.46503 -22.0789,-6.78574 m 44.355,12.82131 -22.2761,-6.03557 m 44.7218,11.33605 -22.4457,-5.30048 m 45.0446,9.87576 -22.5989,-4.57528 m 45.3407,8.43389 -22.7418,-3.85861 m 45.6162,7.00908 -22.8744,-3.15047 m 45.8362,5.59619 -22.9618,-2.44572 m 45.9647,4.18728 -23.0029,-1.74156 m 46.0354,2.78332 -23.0325,-1.04176 m 46.0828,1.38805 -23.0503,-0.34629 m 46.1005,2e-5 -23.0502,0.34627 m 46.0827,-1.38801 -23.0325,1.04174 m 46.0355,-2.78329 -23.003,1.74155 m 45.9648,-4.18725 -22.9618,2.4457 m 45.8362,-5.59615 -22.8744,3.15045 m 45.6162,-7.00905 -22.7418,3.8586 m 45.3407,-8.43386 -22.5989,4.57526 m 45.0446,-9.87572 -22.4457,5.30046 m 44.7218,-11.336 -22.2761,6.03554 m 44.355,-12.82126 -22.0789,6.78572 m 33.036,-10.465 -10.9571,3.67928 m 21.8548,-7.55224 -10.8977,3.87296 m 21.7327,-7.94162 -10.835,4.06866 m 21.6039,-8.33508 -10.7689,4.26642 m 21.4618,-8.73037 -10.6929,4.46395 m 21.2983,-9.12502 -10.6054,4.66107 m 21.1175,-9.52097 -10.5121,4.8599 m 20.9254,-9.9204 -10.4133,5.0605 m 20.72183,-10.32331 -10.30853,5.26281 m 20.50673,-10.72969 -10.1982,5.46688 m 20.2803,-11.13955 -10.0821,5.67267 m 20.0423,-11.55289 -9.9602,5.88022 m 19.7966,-11.97278 -9.8364,6.09256 m 19.5442,-12.40165 -9.7078,6.30909 m 19.2767,-12.83546 -9.5689,6.52637 m 18.9886,-13.27081 -9.4197,6.74444 m 18.68,-13.70772 -9.2603,6.96328 m 18.3511,-14.14618 -9.0908,7.1829 m 18.0016,-14.58619 -8.9108,7.40329 m 17.6317,-15.02775 -8.7209,7.62446 m 17.2429,-15.47224 -8.522,7.84778 m 16.8346,-15.91998 -8.3126,8.0722 m 16.4029,-16.36795 -8.0903,8.29575 m 15.9452,-16.8142 -7.8549,8.51845 m 15.4613,-17.25875 -7.6064,8.7403 m 14.9514,-17.70158 -7.345,8.96128 m 14.4154,-18.14271 -7.0704,9.18143 m 13.8534,-18.58213 -6.783,9.4007 m 13.264,-19.01849 -6.481,9.61779 m 12.6427,-19.44399 -6.1617,9.8262 m 11.9865,-19.85018 -5.8248,10.02398 m 8.6053,-15.10683 -2.7805,5.08285 m 5.4703,-10.21117 -2.6898,5.12832 m 5.2872,-10.30166 -2.5974,5.17334 m 5.1013,-10.39182 -2.5039,5.21848 m 4.9127,-10.48164 -2.4088,5.26316 m 4.721,-10.57051 -2.3122,5.30735 m 4.5263,-10.65844 -2.2141,5.35109 m 4.3283,-10.74543 -2.1142,5.39434 m 4.1271,-10.83146 -2.0129,5.43712 m 3.9229,-10.91656 -1.91,5.47944 m 3.7138,-10.9955 -1.8038,5.51606 m 3.4984,-11.06259 -1.6946,5.54653 m 3.279,-11.12234 -1.5844,5.57581 m 3.0574,-11.17974 -1.473,5.60393 m 2.8335,-11.23479 -1.3605,5.63086 m 2.6075,-11.28748 -1.247,5.65662 m 2.3793,-11.33782 -1.1323,5.6812 m 2.1488,-11.3858 -1.0165,5.7046 m 1.9157,-11.42577 -0.8992,5.72117 m 1.6799,-11.45331 -0.7807,5.73214 m 1.4425,-11.47598 -0.6618,5.74384 m 1.2042,-11.50008 -0.5424,5.75624 m 0.965,-11.5256 -0.4226,5.76936 m 0.725,-11.55255 -0.3024,5.78319 m 0.4841,-11.58092 -0.1817,5.79773 m 0.2424,-11.61072 -0.061,5.81299 m 3e-4,-11.62597 0.061,5.81298 m -0.2427,-11.61071 0.1817,5.79773 m -0.4841,-11.58092 0.3024,5.78319 m -0.725,-11.55255 0.4226,5.76936 m -0.965,-11.5256 0.5424,5.75624 m -1.2041,-11.50008 0.6617,5.74384 m -1.4424,-11.47598 0.7807,5.73214 m -1.6799,-11.45331 0.8992,5.72117 m -1.9158,-11.42577 1.0166,5.7046 m -2.1489,-11.38579 1.1323,5.68119 m -2.3792,-11.33781 1.2469,5.65662 m -2.6075,-11.28748 1.3606,5.63086 m -2.8335,-11.23478 1.4729,5.60392 m -3.0573,-11.17974 1.5844,5.57582 m -3.279,-11.12234 1.6946,5.54652 m -3.4984,-11.06259 1.8038,5.51607 m -3.7137,-10.99551 1.9099,5.47944 m -3.9228,-10.91657 2.0129,5.43713 m -4.1272,-10.83147 2.1143,5.39434 m -4.3283,-10.74542 2.214,5.35108 m -4.5262,-10.65843 2.3122,5.30735 m -4.7211,-10.57051 2.4089,5.26316 m -4.9128,-10.48164 2.5039,5.21848 m -5.1012,-10.39181 2.5973,5.17333 m -5.2871,-10.30165 2.6898,5.12832 m -5.4703,-10.21116 2.7805,5.08284 m -8.6053,-15.10682 5.8248,10.02398 m -11.9865,-19.85016 6.1617,9.82618 m -12.6427,-19.44398 6.481,9.6178 m -13.2639,-19.01852 6.7829,9.40072 m -13.8534,-18.58215 7.0705,9.18143 m -14.4154,-18.14272 7.3449,8.96129 m -14.9513,-17.70159 7.6064,8.7403 m -15.4613,-17.25875 7.8549,8.51845 m -15.9451,-16.8142 8.0902,8.29575 m -16.4029,-16.36795 8.3127,8.0722 m -16.8347,-15.91999 8.522,7.84779 m -17.2428,-15.47226 8.7208,7.62447 m -17.6317,-15.02779 8.9109,7.40332 m -18.0017,-14.58626 9.0908,7.18294 m -18.3512,-14.14626 9.2604,6.96332 m -18.6801,-13.7078 9.4197,6.74448 m -18.9886,-13.27089 9.5689,6.52641 m -19.2767,-12.83551 9.7078,6.3091 m -19.5443,-12.40166 9.8365,6.09256 m -19.7967,-11.97277 9.9602,5.88021 m -20.0422,-11.55288 10.082,5.67267 m -20.2801,-11.13954 10.1981,5.46687 m -20.50673,-10.72968 10.30863,5.26281 m -20.72183,-10.32331 10.4132,5.0605 m -20.9253,-9.9204 10.5121,4.8599 m -21.1175,-9.52096 10.6054,4.66106 m -21.2983,-9.12501 10.6929,4.46395 m -21.4617,-8.73037 10.7688,4.26642 m -21.6038,-8.33509 10.835,4.06867 m -21.7328,-7.94163 10.8978,3.87296 m -21.8549,-7.55225 10.9571,3.67929 m -33.036,-10.46503 22.0789,6.78574 m -44.355,-12.8213 22.2761,6.03556 m -44.7218,-11.336036 22.4457,5.300476 m -45.0446,-9.875747 22.5989,4.575271 m -45.3407,-8.43387 22.7418,3.858599 m -45.6162,-7.00906 22.8744,3.150461 m -45.8362,-5.596173 22.9618,2.445712 m -45.9648,-4.187271 23.003,1.741559 m -46.0355,-2.783308 23.0325,1.041749 m -46.0827,-1.388034 23.0502,0.346285 m -46.1004,-10e-7 23.0502,-0.346284 m -46.0827,1.388033 23.0325,-1.041749 m -46.0355,2.783305 23.003,-1.741556 m -45.9648,4.187265 22.9618,-2.445709 m -45.8361,5.596171 22.8743,-3.150462 m -45.6161,7.009065 22.7418,-3.858603 m -45.3408,8.433874 22.599,-4.575271 m -45.0447,9.875739 22.4457,-5.300468 m -44.7217,11.336008 22.276,-6.03554 m -44.3549,12.82127 22.0789,-6.78573 m -33.036,10.46501 10.9571,-3.67928 m -21.8548,7.55223 10.8977,-3.87295 m -21.7327,7.94162 10.835,-4.06867 m -21.6039,8.33509 10.7689,-4.26642 m -21.4618,8.73038 10.6929,-4.46396 m -21.2983,9.12502 10.6054,-4.66106 m -21.1175,9.52097 10.5121,-4.85991 m -20.9253,9.9204 10.4132,-5.06049 m -20.7218,10.32331 10.3086,-5.26282 m -20.5068,10.7297 10.1982,-5.46688 m -20.2802,11.13955 10.082,-5.67267 m -20.0422,11.55289 9.9602,-5.88022 m -19.7967,11.97278 9.8365,-6.09256 m -19.5442,12.40165 9.7077,-6.30909 m -19.2766,12.83548 9.5689,-6.52639 m -18.9887,13.27084 9.4198,-6.74445 m -18.6801,13.70775 9.2603,-6.9633 m -18.3511,14.14621 9.0908,-7.18291 m -18.0016,14.58621 8.9108,-7.4033 m -17.6317,15.02776 8.7209,-7.62446 m -17.2429,15.47225 8.522,-7.84779 m -16.8346,15.91998 8.3126,-8.07219 m -16.4029,16.36794 8.0903,-8.29575 m -15.9451,16.8142 7.8548,-8.51845 m -15.4613,17.25875 7.6065,-8.7403 m -14.9514,17.70159 7.3449,-8.96129 m -14.4154,18.14271 7.0705,-9.18142 m -13.8534,18.58212 6.7829,-9.4007 m -11.5241,16.3696 4.7412,-6.9689 m -9.3164,14.04941 4.5752,-7.08051 m -8.9774,14.26855 4.4022,-7.18804 m -8.6248,14.47955 4.2226,-7.29151 m 1300.92673,468.3366 h 162.5312 m -162.5312,56.43107 v -56.43107 m 592.5262,56.43107 h -592.5262 m 592.5262,-56.43107 v 56.43107 m -188.6532,-56.43107 h 188.6532 m -186.5147,-1.48308 -2.1385,1.48308 m 8.7909,-6.30667 -6.6524,4.82359 m 13.1493,-9.85087 -6.4969,5.02728 m 12.8375,-10.24884 -6.3406,5.22156 m 12.5243,-10.62799 -6.1837,5.40643 m 12.2098,-10.98835 -6.0261,5.58192 m 11.8939,-11.3299 -5.8678,5.74798 m 11.5768,-11.65263 -5.709,5.90465 m 11.2585,-11.95656 -5.5495,6.05191 m 10.9367,-12.23817 -5.3872,6.18626 m 10.6118,-12.49742 -5.2246,6.31116 m 10.2891,-12.74303 -5.0645,6.43187 m 9.9719,-12.98025 -4.9074,6.54838 m 9.6602,-13.20909 -4.7528,6.66071 m 9.3538,-13.42955 -4.601,6.76884 m 9.053,-13.64163 -4.452,6.87279 m 8.7576,-13.84532 -4.3056,6.97253 m 8.4638,-14.03481 -4.1582,7.06228 m 8.1673,-14.20548 -4.0091,7.1432 m 7.8711,-14.36494 -3.862,7.22174 m 7.579,-14.51961 -3.717,7.29787 m 7.291,-14.66948 -3.574,7.37161 m 7.0071,-14.81455 -3.4331,7.44294 m 6.7272,-14.95482 -3.2941,7.51188 m 6.4513,-15.0903 -3.1572,7.57842 m 6.1762,-15.21341 -3.019,7.63499 m 5.8982,-15.31658 -2.8792,7.68159 m 5.6201,-15.4074 -2.7409,7.72581 m 5.3447,-15.49345 -2.6038,7.76764 m 7.4065,-23.41884 -4.8027,15.6512 m 9.0748,-31.44105 -4.2721,15.78985 m 8.027,-31.71393 -3.7549,15.92408 m 7.0002,-31.97578 -3.2453,16.0517 m 5.9836,-32.20867 -2.7383,16.15697 m 4.9726,-32.39682 -2.2343,16.23985 m 3.9673,-32.54022 -1.733,16.30037 m 2.9674,-32.63889 -1.2344,16.33852 m 1.973,-32.69282 -0.7386,16.3543 m 0.9842,-32.702 -0.2456,16.3477 m 0,-32.6954 0.2456,16.3477 m -0.9842,-32.70198 0.7386,16.35428 m -1.973,-32.69278 1.2344,16.3385 m -2.9673,-32.63884 1.7329,16.30034 m -3.9672,-32.54017 2.2343,16.23983 m -4.9727,-32.39676 2.7384,16.15693 m -5.9836,-32.20861 3.2452,16.05168 m -7.0001,-31.97574 3.7549,15.92406 m -8.0269,-31.7139 4.272,15.78984 m -9.0747,-31.44104 4.8027,15.6512 m -7.4066,-23.41884 2.6039,7.76764 m -5.3447,-15.49346 2.7408,7.72582 m -5.62,-15.40743 2.8792,7.68161 m -5.8982,-15.31661 3.019,7.635 m -6.1762,-15.21343 3.1572,7.57843 m -6.4513,-15.09033 3.2941,7.5119 m -6.7271,-14.95486 3.433,7.44296 m -7.0071,-14.81459 3.5741,7.37163 m -7.2911,-14.66952 3.717,7.29789 m -7.579,-14.51965 3.862,7.22176 m -7.8711,-14.36498 4.0091,7.14322 m -8.1673,-14.20552 4.1582,7.0623 m -8.4638,-14.03485 4.3056,6.97255 m -8.7576,-13.84535 4.452,6.8728 m -9.053,-13.64165 4.601,6.76885 m -9.3538,-13.42957 4.7528,6.66072 m -9.6602,-13.20911 4.9074,6.54839 m -9.9719,-12.98026 5.0645,6.43187 m -10.289,-12.74304 5.2245,6.31117 m -10.6118,-12.49744 5.3873,6.18627 m -10.9367,-12.2382 5.5494,6.05193 m -11.2584,-11.9566 5.709,5.90467 m -11.5769,-11.65268 5.8679,5.74801 m -11.894,-11.32994 6.0261,5.58193 m -12.2098,-10.98839 6.1837,5.40646 m -12.5243,-10.62804 6.3406,5.22158 m -12.8375,-10.248874 6.4969,5.027294 m -13.1494,-9.850896 6.6525,4.823602 m -13.4594,-9.433459 6.8069,4.609857 m -13.7625,-8.993736 6.9556,4.383879 m -14.0523,-8.529106 7.0967,4.145227 m -10.6956,-6.124385 3.5989,1.979158 m -7.2302,-3.893899 3.6313,1.914741 m -7.2948,-3.763953 3.6635,1.849212 m -7.3591,-3.632079 3.6956,1.782867 m -7.4231,-3.49825 3.7275,1.715383 m -7.4866,-3.362144 3.7591,1.646761 m -7.5493,-3.223759 3.7902,1.576998 m -7.6113,-3.083096 3.8211,1.506098 m -7.6727,-2.940157 3.8516,1.434059 m -7.7334,-2.79494 3.8818,1.360881 m -7.791,-2.646446 3.9092,1.285565 m -7.8421,-2.49378 3.9329,1.208215 m -7.8875,-2.338101 3.9546,1.129886 m -7.929,-2.180462 3.9744,1.050576 m -7.9668,-2.02086 3.9924,0.970284 m -8.001,-1.859298 4.0086,0.889014 m -8.0313,-1.695776 4.0227,0.806762 m -8.0578,-1.530292 4.0351,0.72353 m -8.0823,-1.363442 4.0472,0.639912 m -8.107,-1.196137 4.0598,0.556225 m -8.1316,-1.028262 4.0718,0.472037 m -8.1552,-0.859379 4.0834,0.387342 m -8.1778,-0.689487 4.0944,0.302145 m -8.1991,-0.518588 4.1047,0.216443 m -8.2192,-0.346681 4.1145,0.130238 m -8.2382,-0.173766 4.1237,0.04353 m -8.2475,-1.3e-5 4.1238,-0.04352 m -8.2383,0.173746 4.1145,-0.130226 m -8.2192,0.346657 4.1047,-0.216431 m -8.199,0.518564 4.0943,-0.302133 m -8.1777,0.689463 4.0834,-0.38733 m -8.1553,0.859354 4.0719,-0.472024 m -8.1317,1.028238 4.0598,-0.556214 m -8.1069,1.196113 4.0471,-0.639899 m -8.0822,1.363416 4.0351,-0.723517 m -8.0579,1.530265 4.0228,-0.806748 m -8.0313,1.695749 4.0085,-0.889001 m -8.0009,1.859272 3.9924,-0.970271 m -7.9669,2.020833 3.9745,-1.050562 m -7.929,2.180434 3.9545,-1.129872 m -7.8874,2.338075 3.9329,-1.208203 m -7.8421,2.493755 3.9092,-1.285552 m -7.791,2.646422 3.8818,-1.36087 m -7.7335,2.794918 3.8517,-1.434048 m -7.6727,2.940136 3.821,-1.506088 m -7.6113,3.083078 3.7903,-1.57699 m -7.5493,3.223741 3.759,-1.646751 m -7.4865,3.362125 3.7275,-1.715374 m -7.4232,3.498233 3.6957,-1.782859 m -7.3591,3.632063 3.6634,-1.849204 m -7.2948,3.763937 3.6314,-1.914733 m -7.2303,3.893882 3.5989,-1.979149 m -10.6956,6.124359 7.0967,-4.14521 m -14.0523,8.529073 6.9556,-4.383863 m -13.7625,8.993704 6.8069,-4.609841 m -13.4594,9.433425 6.6525,-4.823584 m -13.1494,9.850856 6.4969,-5.027272 m -12.8375,10.248825 6.3406,-5.221553 m -12.5243,10.627993 6.1837,-5.40644 m -12.2098,10.98835 6.0261,-5.58191 m -11.894,11.32989 5.8679,-5.74798 m -11.5769,11.65263 5.709,-5.90465 m -11.2585,11.95656 5.5495,-6.05191 m -10.9367,12.23817 5.3872,-6.18626 m -10.6117,12.49741 5.2245,-6.31115 m -10.2891,12.74302 5.0646,-6.43187 m -9.9719,12.98025 4.9073,-6.54838 m -9.6602,13.20908 4.7529,-6.6607 m -9.3539,13.42954 4.601,-6.76884 m -9.053,13.64162 4.452,-6.87278 m -8.7576,13.84532 4.3056,-6.97254 m -8.4638,14.03481 4.1582,-7.06227 m -8.1673,14.20547 4.0091,-7.1432 m -7.8712,14.36494 3.8621,-7.22174 m -7.5791,14.51961 3.717,-7.29787 m -7.291,14.66947 3.574,-7.3716 m -7.007,14.81454 3.433,-7.44294 m -6.7271,14.95482 3.2941,-7.51188 m -6.4513,15.0903 3.1572,-7.57842 m -6.1763,15.21341 3.0191,-7.63499 m -5.8983,15.31658 2.8792,-7.68159 m -5.62,15.4074 2.7408,-7.72581 m -5.3447,15.49345 2.6039,-7.76764 m -7.4066,23.41884 4.8027,-15.6512 m -9.0748,31.44105 4.2721,-15.78985 m -8.027,31.71394 3.7549,-15.92409 m -7.0002,31.97585 3.2453,-16.05176 m -5.9837,32.2088 2.7384,-16.15704 m -4.9727,32.39698 2.2343,-16.23994 m -3.9673,32.5404 1.733,-16.30046 m -2.9674,32.63906 1.2344,-16.3386 m -1.973,32.69295 0.7386,-16.35435 m -0.9842,32.70207 0.2456,-16.34772 m 0,32.69544 -0.2456,-16.34772 m 0.9842,32.70205 -0.7386,-16.35433 m 1.973,32.6929 -1.2344,-16.33857 m 2.9674,32.639 -1.733,-16.30043 m 3.9673,32.54034 -2.2343,-16.23991 m 4.9727,32.39692 -2.7384,-16.15701 m 5.9836,32.20874 -3.2452,-16.05173 m 7.0001,31.97579 -3.7549,-15.92406 m 8.027,31.71389 -4.2721,-15.78983 m 9.0748,31.44102 -4.8027,-15.65119 m 7.4066,23.41883 -2.6039,-7.76764 m 5.3447,15.49345 -2.7408,-7.72581 m 5.62,15.40741 -2.8792,-7.6816 m 5.8983,15.3166 -3.0191,-7.635 m 6.1763,15.21342 -3.1572,-7.57842 m 6.4513,15.09031 -3.2941,-7.51189 m 6.7271,14.95484 -3.433,-7.44295 m 7.007,14.81457 -3.574,-7.37162 m 7.2911,14.66951 -3.7171,-7.29789 m 7.5791,14.51964 -3.862,-7.22175 m 7.8711,14.36497 -4.0091,-7.14322 m 8.1673,14.2055 -4.1582,-7.06228 m 8.4638,14.03483 -4.3056,-6.97255 m 8.7576,13.84534 -4.452,-6.87279 m 9.0531,13.64163 -4.6011,-6.76884 m 9.3539,13.42954 -4.7528,-6.6607 m 9.6601,13.20908 -4.9073,-6.54838 m 9.9719,12.98025 -5.0646,-6.43187 m 10.2891,12.74302 -5.2245,-6.31115 m 10.6118,12.49741 -5.3873,-6.18626 m 10.9367,12.23818 -5.5494,-6.05192 m 11.2584,11.95657 -5.709,-5.90465 m 11.5769,11.65264 -5.8679,-5.74799 m 11.894,11.32991 -6.0261,-5.58192 m 12.2098,10.98836 -6.1837,-5.40644 m 12.5243,10.628 -6.3406,-5.22156 m 12.8375,10.24883 -6.4969,-5.02727 m 13.1494,9.85086 -6.6525,-4.82359 m 8.7907,6.30649 -2.1382,-1.4829 M 218.78487,1002.5328 v 192.826 m -56.4311,-192.826 h 56.4311 m -56.4311,592.5262 v -592.5262 m 56.4311,592.5262 h -56.4311 m 56.4311,-218.9479 v 218.9479 m 2.6354,-216.2486 -2.6354,-2.6993 m 5.3299,5.3431 -2.6945,-2.6438 m 5.4466,5.2332 -2.7521,-2.5894 m 5.5603,5.1253 -2.8082,-2.5359 m 6.4709,5.6958 -3.6627,-3.1599 m 7.3978,6.2235 -3.7351,-3.0636 m 7.5397,6.0323 -3.8046,-2.9687 m 7.6757,5.8441 -3.8711,-2.8754 m 7.8055,5.6587 -3.9344,-2.7833 m 7.9293,5.4762 -3.9949,-2.6929 m 8.0472,5.2967 -4.0523,-2.6038 m 8.159,5.12 -4.1067,-2.5162 m 8.2664,4.9469 -4.1597,-2.4307 m 8.3713,4.7774 -4.2116,-2.3467 m 8.4728,4.6098 -4.2612,-2.2631 m 8.5696,4.443 -4.3084,-2.1799 m 8.6617,4.2771 -4.3533,-2.0972 m 8.749,4.1121 -4.3957,-2.0149 m 8.8314,3.9479 -4.4357,-1.933 m 8.9091,3.7846 -4.4734,-1.8516 m 8.9821,3.6223 -4.5087,-1.7707 m 9.0502,3.4608 -4.5415,-1.6901 m 13.7139,4.8305 -9.1724,-3.1404 m 18.4477,5.9639 -9.2753,-2.8235 m 18.6346,5.3336 -9.3593,-2.5101 m 18.7918,4.7124 -9.4325,-2.2023 m 18.9293,4.1017 -9.4968,-1.8994 m 19.0416,3.4989 -9.5448,-1.5995 m 19.1213,2.9017 -9.5765,-1.3022 m 19.1683,2.3102 -9.5918,-1.008 m 19.1827,1.7244 -9.5909,-0.7164 m 19.1645,1.1442 -9.5736,-0.4278 m 19.1136,0.5698 -9.54,-0.142 m 19.08,0 -9.54,0.142 m 19.1136,-0.5698 -9.5736,0.4278 m 19.1645,-1.1442 -9.5909,0.7164 m 19.1827,-1.7243 -9.5918,1.0079 m 19.1683,-2.3102 -9.5765,1.3023 m 19.1214,-2.9017 -9.5449,1.5994 m 19.0417,-3.4988 -9.4968,1.8994 m 18.9294,-4.1017 -9.4326,2.2023 m 18.7919,-4.7124 -9.3593,2.5101 m 18.6347,-5.3336 -9.2754,2.8235 m 18.4477,-5.9639 -9.1723,3.1404 m 13.7139,-4.8305 -4.5416,1.6901 m 9.0503,-3.4608 -4.5087,1.7707 m 8.9821,-3.6223 -4.4734,1.8516 m 8.9091,-3.7846 -4.4357,1.933 m 8.8314,-3.9479 -4.3957,2.0149 m 8.7489,-4.1121 -4.3532,2.0972 m 8.6617,-4.2771 -4.3085,2.1799 m 8.5697,-4.4429 -4.2612,2.263 m 8.4729,-4.6097 -4.2117,2.3467 m 8.3714,-4.7775 -4.1597,2.4308 m 8.2664,-4.947 -4.1067,2.5162 m 8.159,-5.12 -4.0523,2.6038 m 8.0472,-5.2967 -3.9949,2.6929 m 7.9293,-5.4762 -3.9344,2.7833 m 7.8055,-5.6587 -3.8711,2.8754 m 7.6757,-5.8441 -3.8046,2.9687 m 7.5397,-6.0323 -3.7351,3.0636 m 7.3978,-6.2235 -3.6627,3.1599 m 7.2431,-6.4116 -3.5804,3.2517 m 7.0685,-6.5912 -3.4881,3.3395 m 6.8806,-6.769 -3.3925,3.4295 m 6.6863,-6.9513 -3.2938,3.5218 m 6.4856,-7.138 -3.1918,3.6162 m 6.2783,-7.3292 -3.0865,3.713 m 6.0647,-7.5249 -2.9782,3.8119 m 5.8447,-7.7251 -2.8665,3.9132 m 5.6134,-7.9256 -2.7469,4.0124 m 5.3614,-8.1149 -2.6145,4.1025 m 5.0868,-8.2867 -2.4723,4.1842 m 3.652,-6.3043 -1.1797,2.1201 m 2.32,-4.2575 -1.1403,2.1374 m 2.2408,-4.2917 -1.1005,2.1543 m 2.1609,-4.3261 -1.0604,2.1718 m 2.0801,-4.3607 -1.0197,2.1889 m 1.9982,-4.3946 -0.9785,2.2057 m 1.915,-4.4281 -0.9365,2.2224 m 1.8306,-4.4612 -0.8941,2.2388 m 1.745,-4.4937 -0.8509,2.2549 m 1.658,-4.5257 -0.8071,2.2708 m 1.5695,-4.5562 -0.7624,2.2854 m 1.479,-4.5839 -0.7166,2.2985 m 1.3871,-4.6098 -0.6705,2.3113 m 1.2944,-4.6352 -0.6239,2.3239 m 1.2006,-4.6602 -0.5767,2.3363 m 1.1057,-4.6845 -0.529,2.3482 m 1.01,-4.7081 -0.481,2.3599 m 0.9134,-4.7313 -0.4324,2.3714 m 0.8157,-4.754 -0.3833,2.3826 m 0.7171,-4.776 -0.3338,2.3934 m 0.6176,-4.7974 -0.2838,2.404 m 0.517,-4.8183 -0.2332,2.4143 m 0.4154,-4.8386 -0.1822,2.4243 m 0.313,-4.8583 -0.1308,2.434 m 0.2096,-4.8775 -0.079,2.4435 m 0.1054,-4.8962 -0.026,2.4527 m -4e-4,-4.9053 0.026,2.4526 m -0.1048,-4.8961 0.079,2.4435 m -0.2098,-4.8776 0.1308,2.4341 m -0.313,-4.8584 0.1822,2.4243 m -0.4154,-4.8386 0.2332,2.4143 m -0.517,-4.8183 0.2838,2.404 m -0.6176,-4.7974 0.3338,2.3934 m -0.7171,-4.7759 0.3833,2.3825 m -0.8157,-4.7539 0.4324,2.3714 m -0.9133,-4.7313 0.4809,2.3599 m -1.01,-4.7082 0.5291,2.3483 m -1.1058,-4.6845 0.5767,2.3362 m -1.2005,-4.6601 0.6238,2.3239 m -1.2943,-4.6352 0.6705,2.3113 m -1.3872,-4.6098 0.7167,2.2985 m -1.479,-4.5838 0.7623,2.2853 m -1.5695,-4.5561 0.8072,2.2708 m -1.6581,-4.5258 0.8509,2.255 m -1.7449,-4.4937 0.894,2.2387 m -1.8306,-4.4611 0.9366,2.2224 m -1.915,-4.4282 0.9784,2.2058 m -1.9982,-4.3946 1.0198,2.1888 m -2.0802,-4.3606 1.0604,2.1718 m -2.1608,-4.3262 1.1004,2.1544 m -2.2407,-4.2917 1.1403,2.1373 m -2.32,-4.2574 1.1797,2.1201 m -3.652,-6.3043 2.4723,4.1842 m -5.0868,-8.2867 2.6145,4.1025 m -5.3613,-8.1149 2.7468,4.0124 m -5.6134,-7.9256 2.8666,3.9132 m -5.8447,-7.7251 2.9781,3.8119 m -6.0647,-7.5249 3.0866,3.713 m -6.2784,-7.3293 3.1918,3.6163 m -6.4855,-7.138 3.2937,3.5217 m -6.6862,-6.9512 3.3925,3.4295 m -6.8806,-6.769 3.4881,3.3395 m -7.0685,-6.5912 3.5804,3.2517 m -7.2431,-6.4116 3.6627,3.1599 m -7.3979,-6.2235 3.7352,3.0636 m -7.5397,-6.0324 3.8045,2.9688 m -7.6756,-5.8441 3.8711,2.8753 m -7.8055,-5.6587 3.9344,2.7834 m -7.9293,-5.4762 3.9949,2.6928 m -8.0472,-5.2967 4.0523,2.6039 m -8.159,-5.1201 4.1067,2.5162 m -8.2664,-4.9469 4.1597,2.4307 m -8.3713,-4.7774 4.2116,2.3467 m -8.4728,-4.6097 4.2612,2.263 m -8.5696,-4.4429 4.3084,2.1799 m -8.6617,-4.2771 4.3533,2.0972 m -8.749,-4.1121 4.3957,2.0149 m -8.8314,-3.9479 4.4357,1.933 m -8.9091,-3.7846 4.4734,1.8516 m -8.982,-3.6223 4.5086,1.7707 m -9.0502,-3.4608 4.5416,1.6901 m -13.7139,-4.8305 9.1723,3.1404 m -18.4477,-5.9639 9.2754,2.8235 m -18.6346,-5.3337 9.3592,2.5102 m -18.7918,-4.7124 9.4326,2.2022 m -18.9294,-4.1017 9.4968,1.8995 m -19.0417,-3.4989 9.5449,1.5994 m -19.1214,-2.9017 9.5765,1.3023 m -19.1684,-2.3102 9.5919,1.0079 m -19.1829,-1.7244 9.591,0.7165 m -19.1646,-1.1443 9.5736,0.4278 m -19.1136,-0.5697 9.54,0.1419 m -19.08,0 9.54,-0.1419 m -19.1136,0.5697 9.5736,-0.4278 m -19.1646,1.1443 9.591,-0.7165 m -19.1828,1.7244 9.5918,-1.0079 m -19.1684,2.3102 9.5766,-1.3023 m -19.1214,2.9017 9.5448,-1.5994 m -19.0417,3.4989 9.4969,-1.8995 m -18.9294,4.1018 9.4325,-2.2023 m -18.7919,4.7124 9.3594,-2.5101 m -18.6347,5.3336 9.2753,-2.8235 m -18.4476,5.9639 9.1723,-3.1404 m -13.7138,4.8305 4.5415,-1.6901 m -9.0502,3.4607 4.5087,-1.7706 m -8.982,3.6222 4.4733,-1.8516 m -8.909,3.7846 4.4357,-1.933 m -8.8314,3.9479 4.3957,-2.0149 m -8.7489,4.1121 4.3532,-2.0972 m -8.6616,4.2771 4.3084,-2.1799 m -8.5697,4.443 4.2613,-2.2631 m -8.4729,4.6097 4.2116,-2.3466 m -8.3713,4.7774 4.1597,-2.4308 m -8.2664,4.947 4.1067,-2.5162 m -8.159,5.12 4.0523,-2.6038 m -8.0472,5.2967 3.9949,-2.6929 m -7.9294,5.4762 3.9345,-2.7833 m -7.8055,5.6587 3.871,-2.8754 m -7.6756,5.8441 3.8046,-2.9687 m -7.5397,6.0323 3.7351,-3.0636 m -7.3978,6.2235 3.6627,-3.1599 m -6.4709,5.6958 2.8082,-2.5359 m -5.5604,5.1253 2.7522,-2.5894 m -5.4467,5.2332 2.6945,-2.6438 m -5.3299,5.3432 2.6354,-2.6994 m 481.2846,269.9676 h 212.6354 m -212.6354,56.431 v -56.431 m 592.52613,56.431 H 702.70487 m 592.52613,-56.431 v 56.431 m -238.7574,-56.431 h 238.7574 m -236.1729,-3.4773 -2.5845,3.4773 m 5.0545,-7.0294 -2.47,3.5521 m 4.8258,-7.17 -2.3558,3.6179 m 4.5978,-7.293 -2.242,3.6751 m 3.8063,-6.3874 -1.5643,2.7123 m 3.0745,-5.4578 -1.5102,2.7455 m 2.9666,-5.5226 -1.4564,2.7771 m 2.8592,-5.5844 -1.4028,2.8073 m 2.7524,-5.6431 -1.3496,2.8358 m 2.6462,-5.6987 -1.2966,2.8629 m 2.5406,-5.7513 -1.244,2.8884 m 2.4355,-5.8009 -1.1915,2.9125 m 2.3309,-5.8476 -1.1394,2.9351 m 2.2271,-5.8911 -1.0877,2.956 m 3.1086,-8.9251 -2.0209,5.9691 m 3.838,-12.0041 -1.8171,6.035 m 3.4326,-12.1238 -1.6155,6.0888 m 3.0329,-12.2243 -1.4174,6.1355 m 2.6399,-12.3118 -1.2225,6.1763 m 2.2517,-12.3829 -1.0292,6.2066 m 1.8672,-12.4329 -0.838,6.2263 m 1.4865,-12.4618 -0.6485,6.2355 m 1.1095,-12.4696 -0.461,6.2341 m 0.7362,-12.4564 -0.2752,6.2223 m 0.3666,-12.4222 -0.091,6.1999 m -3e-4,-12.3998 0.091,6.1999 m -0.3662,-12.4221 0.2752,6.2222 m -0.7361,-12.4564 0.4609,6.2342 m -1.1094,-12.4696 0.6485,6.2354 m -1.4865,-12.4617 0.838,6.2263 m -1.8672,-12.4329 1.0292,6.2066 m -2.2516,-12.3829 1.2224,6.1763 m -2.6398,-12.3118 1.4174,6.1355 m -3.0329,-12.2243 1.6155,6.0888 m -3.4325,-12.1238 1.817,6.035 m -3.8379,-12.0041 2.0209,5.9691 m -3.1085,-8.9251 1.0876,2.956 m -2.227,-5.8911 1.1394,2.9351 m -2.3309,-5.8475 1.1915,2.9124 m -2.4355,-5.8009 1.244,2.8885 m -2.5405,-5.7514 1.2965,2.8629 m -2.6461,-5.6987 1.3496,2.8358 m -2.7524,-5.643 1.4028,2.8072 m -2.8592,-5.5843 1.4564,2.7771 m -2.9665,-5.5226 1.5101,2.7455 m -3.0744,-5.4579 1.5643,2.7124 m -3.1859,-5.3944 1.6216,2.682 m -3.3036,-5.3349 1.682,2.6529 m -3.4245,-5.2735 1.7425,2.6206 m -3.5455,-5.2053 1.803,2.5847 m -3.6668,-5.1301 1.8638,2.5454 m -3.7884,-5.0483 1.9246,2.5029 m -3.9101,-4.9597 1.9855,2.4568 m -4.032,-4.8641 2.0465,2.4073 m -4.1542,-4.7618 2.1077,2.3545 m -4.2766,-4.6527 2.1689,2.2982 m -4.3991,-4.5367 2.2302,2.2385 m -4.5219,-4.414 2.2917,2.1755 m -4.645,-4.2844 2.3533,2.1089 m -4.7683,-4.148 2.415,2.0391 m -4.8917,-4.0048 2.4767,1.9657 m -5.0154,-3.8547 2.5387,1.889 m -5.1373,-3.6959 2.5986,1.8069 m -5.2535,-3.5256 2.6549,1.7187 m -5.3631,-3.3449 2.7082,1.6262 m -4.0814,-2.4031 1.3732,0.7769 m -2.7587,-1.5291 1.3855,0.7522 m -2.783,-1.4791 1.3975,0.7269 m -2.8065,-1.4278 1.409,0.7009 m -2.8293,-1.3754 1.4203,0.6745 m -2.8514,-1.322 1.4311,0.6475 m -2.8727,-1.2674 1.4416,0.6199 m -2.8934,-1.2118 1.4518,0.5919 m -2.9134,-1.1551 1.4616,0.5632 m -2.9327,-1.0972 1.4711,0.534 m -2.9518,-1.0385 1.4807,0.5045 m -2.9711,-0.9796 1.4904,0.4751 m -2.9903,-0.9202 1.4999,0.4451 m -3.0093,-0.8598 1.5094,0.4147 m -3.0281,-0.7986 1.5187,0.3839 m -3.0463,-0.7366 1.5276,0.3527 m -3.0642,-0.6738 1.5366,0.3211 m -3.08193,-0.6102 1.54533,0.2891 m -3.09913,-0.5457 1.5538,0.2566 m -3.116,-0.4804 1.5622,0.2238 m -3.1326,-0.4142 1.5704,0.1904 m -3.1487,-0.3472 1.5783,0.1568 m -3.1646,-0.2795 1.5863,0.1227 m -3.1801,-0.2108 1.5938,0.088 m -3.1952,-0.1412 1.6014,0.053 m -3.2101,-0.071 1.6087,0.018 m -3.2173,-2e-4 1.6086,-0.018 m -3.21,0.071 1.6014,-0.053 m -3.1953,0.1411 1.5939,-0.088 m -3.1801,0.2107 1.5862,-0.1227 m -3.1645,0.2795 1.5783,-0.1568 m -3.1487,0.3472 1.5704,-0.1904 m -3.1326,0.4142 1.5622,-0.2238 m -3.116,0.4804 1.5538,-0.2566 m -3.099,0.5456 1.5452,-0.289 m -3.0818,0.6101 1.5366,-0.3211 m -3.0642,0.6738 1.5276,-0.3527 m -3.0463,0.7366 1.5187,-0.3839 m -3.028,0.7986 1.5093,-0.4147 m -3.0093,0.8598 1.5,-0.4451 m -2.9904,0.9201 1.4904,-0.475 m -2.971,0.9795 1.4806,-0.5045 m -2.9516,1.0385 1.471,-0.534 m -2.9326,1.0972 1.4616,-0.5632 m -2.9134,1.155 1.4518,-0.5918 m -2.8934,1.2117 1.4416,-0.6199 m -2.8728,1.2674 1.4312,-0.6475 m -2.8514,1.322 1.4202,-0.6745 m -2.8292,1.3754 1.409,-0.7009 m -2.8064,1.4277 1.3974,-0.7268 m -2.7829,1.479 1.3855,-0.7522 m -2.7587,1.5291 1.3732,-0.7769 m -4.0814,2.4031 2.7082,-1.6262 m -5.3631,3.3449 2.6549,-1.7187 m -5.2536,3.5255 2.5987,-1.8068 m -5.1373,3.6958 2.5386,-1.889 m -5.0154,3.8547 2.4768,-1.9657 m -4.8917,4.0047 2.4149,-2.039 m -4.7682,4.1479 2.3533,-2.1089 m -4.645,4.2843 2.2917,-2.1754 m -4.522,4.4139 2.2303,-2.2385 m -4.3991,4.5367 2.1688,-2.2982 m -4.2765,4.6526 2.1077,-2.3544 m -4.1542,4.7617 2.0465,-2.4073 m -4.032,4.864 1.9855,-2.4567 m -3.91,4.9595 1.9245,-2.5028 m -3.7883,5.0482 1.8638,-2.5454 m -3.6668,5.1301 1.803,-2.5847 m -3.5455,5.2052 1.7425,-2.6205 m -3.4245,5.2734 1.682,-2.6529 m -3.3036,5.3348 1.6216,-2.6819 m -3.186,5.3943 1.5644,-2.7124 m -3.0746,5.4579 1.5102,-2.7455 m -2.9666,5.5226 1.4564,-2.7771 m -2.8592,5.5844 1.4028,-2.8073 m -2.7524,5.6431 1.3496,-2.8358 m -2.6462,5.6987 1.2966,-2.8629 m -2.5406,5.7514 1.244,-2.8885 m -2.4355,5.801 1.1915,-2.9125 m -2.3309,5.8476 1.1394,-2.9351 m -2.2271,5.8912 1.0877,-2.9561 m -3.1086,8.9252 2.0209,-5.9691 m -3.838,12.0041 1.8171,-6.035 m -3.4326,12.1238 1.6155,-6.0888 m -3.0329,12.2244 1.4174,-6.1356 m -2.6398,12.3119 1.2224,-6.1763 m -2.2517,12.3829 1.0293,-6.2066 m -1.8673,12.4329 0.838,-6.2263 m -1.4865,12.4618 0.6485,-6.2355 m -1.1094,12.4697 0.4609,-6.2342 m -0.7361,12.4565 0.2752,-6.2223 m -0.3666,12.4222 0.091,-6.1999 m 4e-4,12.3998 -0.091,-6.1999 m 0.3662,12.4221 -0.2752,-6.2222 m 0.7361,12.4564 -0.4609,-6.2342 m 1.1094,12.4696 -0.6485,-6.2354 m 1.4865,12.4617 -0.838,-6.2263 m 1.8672,12.4329 -1.0292,-6.2066 m 2.2516,12.3829 -1.2224,-6.1763 m 2.6398,12.3118 -1.4174,-6.1355 m 3.0329,12.2243 -1.6155,-6.0888 m 3.4326,12.1237 -1.8171,-6.0349 m 3.838,12.004 -2.0209,-5.9691 m 3.1085,8.9251 -1.0876,-2.956 m 2.227,5.891 -1.1394,-2.935 m 2.3309,5.8475 -1.1915,-2.9125 m 2.4354,5.801 -1.2439,-2.8885 m 2.5405,5.7513 -1.2966,-2.8628 m 2.6462,5.6986 -1.3496,-2.8358 m 2.7524,5.6431 -1.4028,-2.8073 m 2.8592,5.5844 -1.4564,-2.7771 m 2.9666,5.5226 -1.5102,-2.7455 m 3.0744,5.4578 -1.5642,-2.7123 m 3.8063,6.3876 -2.2421,-3.6753 m 4.598,7.2935 -2.3559,-3.6182 m 4.8261,7.1704 -2.4702,-3.5522 m 5.0548,7.0298 -2.5846,-3.4776" />
  </g>
  <desc
     id="desc2509">set4.dxf - scale = 1.000000, origin = (0.000000, 0.000000), method = manual</desc>
</svg>
