999
"DXF R12 Output" (www.mydxf.blogspot.com)
 0 
SECTION
 2 
HEADER
 9 
$ACADVER
 1 
AC1009
 9 
$EXTMIN
 10 
 0 
 20 
 0 
 9 
$EXTMAX
 10 
 8.5 
 20 
 11 
 0 
ENDSEC
 0 
SECTION
 2 
ENTITIES
0
LINE
8
Layer 1
10
0.846666
20
488.527000
11
-0.846666
21
486.833000
0
LINE
8
Layer 1
10
0.000000
20
489.091000
11
0.000000
21
486.269000
0
LINE
8
Layer 1
10
2.257780
20
486.551000
11
1.128890
21
485.422110
0
LINE
8
Layer 1
10
1.693330
20
487.116000
11
0.564440
21
485.987110
0
LINE
8
Layer 1
10
1.128890
20
487.680000
11
0.000000
21
486.551110
0
LINE
8
Default
10
48.971900
20
435.585000
11
48.971900
21
396.526000
0
LINE
8
Default
10
33.045800
20
435.584200
11
48.971900
21
435.585000
0
LINE
8
Default
10
33.045800
20
268.361000
11
33.045800
21
435.585000
0
LINE
8
Default
10
48.971900
20
268.361000
11
33.045800
21
268.361000
0
LINE
8
Default
10
48.971900
20
314.791400
11
48.971900
21
268.361000
0
LINE
8
Default
10
50.163610
20
312.733600
11
48.971900
21
314.791410
0
LINE
8
Default
10
51.406010
20
310.704990
11
50.163610
21
312.733600
0
LINE
8
Default
10
52.697200
20
308.706730
11
51.406010
21
310.704990
0
LINE
8
Default
10
54.035270
20
306.739960
11
52.697200
21
308.706730
0
LINE
8
Default
10
55.949550
20
304.086870
11
54.035270
21
306.739960
0
LINE
8
Default
10
57.945000
20
301.495670
11
55.949550
21
304.086870
0
LINE
8
Default
10
60.017890
20
298.966600
11
57.945000
21
301.495670
0
LINE
8
Default
10
62.164590
20
296.499890
11
60.017900
21
298.966590
0
LINE
8
Default
10
64.381420
20
294.095790
11
62.164590
21
296.499880
0
LINE
8
Default
10
66.664650
20
291.754540
11
64.381420
21
294.095780
0
LINE
8
Default
10
69.010680
20
289.476390
11
66.664650
21
291.754540
0
LINE
8
Default
10
71.415770
20
287.261570
11
69.010670
21
289.476390
0
LINE
8
Default
10
73.876970
20
285.109780
11
71.415770
21
287.261570
0
LINE
8
Default
10
76.391820
20
283.020400
11
73.876970
21
285.109780
0
LINE
8
Default
10
78.957420
20
280.993220
11
76.391820
21
283.020400
0
LINE
8
Default
10
81.570900
20
279.028020
11
78.957410
21
280.993220
0
LINE
8
Default
10
84.229350
20
277.124580
11
81.570900
21
279.028020
0
LINE
8
Default
10
86.929900
20
275.282690
11
84.229350
21
277.124580
0
LINE
8
Default
10
89.669660
20
273.502130
11
86.929910
21
275.282690
0
LINE
8
Default
10
92.445710
20
271.782670
11
89.669660
21
273.502120
0
LINE
8
Default
10
95.256700
20
270.123140
11
92.445710
21
271.782660
0
LINE
8
Default
10
98.102060
20
268.522180
11
95.256700
21
270.123130
0
LINE
8
Default
10
100.980190
20
266.979300
11
98.102060
21
268.522170
0
LINE
8
Default
10
103.889500
20
265.494020
11
100.980190
21
266.979300
0
LINE
8
Default
10
106.828340
20
264.065840
11
103.889510
21
265.494020
0
LINE
8
Default
10
109.795090
20
262.694260
11
106.828340
21
264.065830
0
LINE
8
Default
10
112.788160
20
261.378800
11
109.795080
21
262.694260
0
LINE
8
Default
10
115.805900
20
260.118980
11
112.788160
21
261.378800
0
LINE
8
Default
10
118.845120
20
258.914890
11
115.805900
21
260.118970
0
LINE
8
Default
10
121.903000
20
257.766620
11
118.845120
21
258.914890
0
LINE
8
Default
10
124.978570
20
256.673590
11
121.903000
21
257.766620
0
LINE
8
Default
10
128.070910
20
255.635210
11
124.978580
21
256.673590
0
LINE
8
Default
10
134.302070
20
253.720130
11
128.070920
21
255.635220
0
LINE
8
Default
10
140.588920
20
252.016760
11
134.302110
21
253.720130
0
LINE
8
Default
10
146.923610
20
250.520850
11
140.588940
21
252.016760
0
LINE
8
Default
10
153.301540
20
249.229600
11
146.923630
21
250.520840
0
LINE
8
Default
10
159.719730
20
248.140610
11
153.301490
21
249.229590
0
LINE
8
Default
10
166.175390
20
247.251470
11
159.719730
21
248.140602
0
LINE
8
Default
10
172.655730
20
246.561232
11
166.175400
21
247.251468
0
LINE
8
Default
10
179.147600
20
246.069728
11
172.655680
21
246.561235
0
LINE
8
Default
10
185.647880
20
245.775721
11
179.147600
21
246.069729
0
LINE
8
Default
10
192.153200
20
245.677991
11
185.647900
21
245.775722
0
LINE
8
Default
10
198.658500
20
245.775716
11
192.153230
21
245.677991
0
LINE
8
Default
10
205.158830
20
246.069718
11
198.658550
21
245.775716
0
LINE
8
Default
10
211.650750
20
246.561222
11
205.158800
21
246.069718
0
LINE
8
Default
10
218.131100
20
247.251448
11
211.650770
21
246.561218
0
LINE
8
Default
10
224.586770
20
248.140578
11
218.131110
21
247.251452
0
LINE
8
Default
10
231.005010
20
249.229562
11
224.586770
21
248.140582
0
LINE
8
Default
10
237.382870
20
250.520802
11
231.004960
21
249.229562
0
LINE
8
Default
10
243.717560
20
252.016712
11
237.382890
21
250.520802
0
LINE
8
Default
10
250.004390
20
253.720072
11
243.717580
21
252.016712
0
LINE
8
Default
10
256.235580
20
255.635152
11
250.004430
21
253.720072
0
LINE
8
Default
10
259.327920
20
256.673522
11
256.235590
21
255.635152
0
LINE
8
Default
10
262.403500
20
257.766562
11
259.327930
21
256.673532
0
LINE
8
Default
10
265.461380
20
258.914832
11
262.403500
21
257.766562
0
LINE
8
Default
10
268.500600
20
260.118902
11
265.461380
21
258.914822
0
LINE
8
Default
10
271.518370
20
261.378722
11
268.500600
21
260.118902
0
LINE
8
Default
10
274.511450
20
262.694182
11
271.518370
21
261.378722
0
LINE
8
Default
10
277.478190
20
264.065752
11
274.511440
21
262.694182
0
LINE
8
Default
10
280.417050
20
265.493942
11
277.478190
21
264.065762
0
LINE
8
Default
10
283.326350
20
266.979232
11
280.417060
21
265.493952
0
LINE
8
Default
10
286.204510
20
268.522102
11
283.326350
21
266.979232
0
LINE
8
Default
10
289.049900
20
270.123062
11
286.204510
21
268.522112
0
LINE
8
Default
10
291.860890
20
271.782592
11
289.049900
21
270.123062
0
LINE
8
Default
10
294.636940
20
273.502042
11
291.860890
21
271.782592
0
LINE
8
Default
10
297.376690
20
275.282612
11
294.636940
21
273.502052
0
LINE
8
Default
10
300.077250
20
277.124502
11
297.376700
21
275.282612
0
LINE
8
Default
10
302.735700
20
279.027922
11
300.077250
21
277.124492
0
LINE
8
Default
10
305.349160
20
280.993112
11
302.735700
21
279.027922
0
LINE
8
Default
10
307.914780
20
283.020282
11
305.349160
21
280.993112
0
LINE
8
Default
10
310.429610
20
285.109652
11
307.914790
21
283.020282
0
LINE
8
Default
10
312.890840
20
287.261442
11
310.429610
21
285.109652
0
LINE
8
Default
10
315.295940
20
289.476262
11
312.890840
21
287.261442
0
LINE
8
Default
10
317.641930
20
291.754412
11
315.295930
21
289.476262
0
LINE
8
Default
10
319.925190
20
294.095662
11
317.641930
21
291.754422
0
LINE
8
Default
10
322.142020
20
296.499762
11
319.925190
21
294.095672
0
LINE
8
Default
10
324.288710
20
298.966472
11
322.142020
21
296.499772
0
LINE
8
Default
10
326.361630
20
301.495552
11
324.288710
21
298.966482
0
LINE
8
Default
10
328.357050
20
304.086752
11
326.361630
21
301.495552
0
LINE
8
Default
10
330.271360
20
306.739842
11
328.357050
21
304.086762
0
LINE
8
Default
10
332.100440
20
309.454202
11
330.271360
21
306.739852
0
LINE
8
Default
10
333.839410
20
312.227372
11
332.100440
21
309.454202
0
LINE
8
Default
10
335.483290
20
315.056362
11
333.839400
21
312.227372
0
LINE
8
Default
10
336.268000
20
316.490852
11
335.483282
21
315.056362
0
LINE
8
Default
10
337.027122
20
317.938182
11
336.268001
21
316.490862
0
LINE
8
Default
10
337.760161
20
319.398222
11
337.027118
21
317.938192
0
LINE
8
Default
10
338.466818
20
320.870992
11
337.760162
21
319.398222
0
LINE
8
Default
10
339.146632
20
322.356372
11
338.466816
21
320.870992
0
LINE
8
Default
10
339.799186
20
323.854222
11
339.146632
21
322.356372
0
LINE
8
Default
10
340.424052
20
325.364422
11
339.799184
21
323.854222
0
LINE
8
Default
10
341.020724
20
326.886822
11
340.424050
21
325.364422
0
LINE
8
Default
10
341.588810
20
328.421302
11
341.020725
21
326.886832
0
LINE
8
Default
10
342.127855
20
329.967722
11
341.588811
21
328.421302
0
LINE
8
Default
10
342.636931
20
331.524472
11
342.127859
21
329.967722
0
LINE
8
Default
10
343.115184
20
333.089832
11
342.636931
21
331.524482
0
LINE
8
Default
10
343.562337
20
334.663452
11
343.115184
21
333.089832
0
LINE
8
Default
10
343.978050
20
336.245002
11
343.562337
21
334.663452
0
LINE
8
Default
10
344.362013
20
337.834152
11
343.978050
21
336.245002
0
LINE
8
Default
10
344.713944
20
339.430582
11
344.362013
21
337.834162
0
LINE
8
Default
10
345.033504
20
341.033942
11
344.713944
21
339.430582
0
LINE
8
Default
10
345.320383
20
342.643902
11
345.033504
21
341.033942
0
LINE
8
Default
10
345.574157
20
344.258542
11
345.320383
21
342.643902
0
LINE
8
Default
10
345.794488
20
345.876282
11
345.574157
21
344.258542
0
LINE
8
Default
10
345.981262
20
347.497312
11
345.794487
21
345.876272
0
LINE
8
Default
10
346.134339
20
349.121852
11
345.981262
21
347.497312
0
LINE
8
Default
10
346.253606
20
350.750092
11
346.134339
21
349.121852
0
LINE
8
Default
10
346.338950
20
352.382232
11
346.253606
21
350.750092
0
LINE
8
Default
10
346.390230
20
354.018482
11
346.338950
21
352.382232
0
LINE
8
Default
10
346.407361
20
355.659032
11
346.390145
21
354.018482
0
LINE
8
Default
10
346.390230
20
357.299582
11
346.407446
21
355.659032
0
LINE
8
Default
10
346.338950
20
358.935832
11
346.390230
21
357.299582
0
LINE
8
Default
10
346.253606
20
360.567972
11
346.338950
21
358.935832
0
LINE
8
Default
10
346.134339
20
362.196212
11
346.253606
21
360.567972
0
LINE
8
Default
10
345.981262
20
363.820752
11
346.134339
21
362.196212
0
LINE
8
Default
10
345.794515
20
365.441792
11
345.981261
21
363.820752
0
LINE
8
Default
10
345.574184
20
367.059522
11
345.794515
21
365.441782
0
LINE
8
Default
10
345.320410
20
368.674162
11
345.574184
21
367.059522
0
LINE
8
Default
10
345.033503
20
370.284122
11
345.320410
21
368.674162
0
LINE
8
Default
10
344.713943
20
371.887482
11
345.033503
21
370.284122
0
LINE
8
Default
10
344.362040
20
373.483902
11
344.713943
21
371.887482
0
LINE
8
Default
10
343.978049
20
375.073062
11
344.362040
21
373.483912
0
LINE
8
Default
10
343.562364
20
376.654612
11
343.978049
21
375.073062
0
LINE
8
Default
10
343.115212
20
378.228232
11
343.562365
21
376.654612
0
LINE
8
Default
10
342.636959
20
379.793582
11
343.115212
21
378.228232
0
LINE
8
Default
10
342.127887
20
381.350342
11
342.636959
21
379.793582
0
LINE
8
Default
10
341.588869
20
382.896752
11
342.127885
21
381.350332
0
LINE
8
Default
10
341.020785
20
384.431232
11
341.588870
21
382.896752
0
LINE
8
Default
10
340.424080
20
385.953632
11
341.020782
21
384.431232
0
LINE
8
Default
10
339.799242
20
387.463822
11
340.424082
21
385.953632
0
LINE
8
Default
10
339.146692
20
388.961672
11
339.799246
21
387.463822
0
LINE
8
Default
10
338.466846
20
390.447052
11
339.146691
21
388.961672
0
LINE
8
Default
10
337.760191
20
391.919822
11
338.466847
21
390.447052
0
LINE
8
Default
10
337.027177
20
393.379852
11
337.760192
21
391.919822
0
LINE
8
Default
10
336.268052
20
394.827172
11
337.027173
21
393.379852
0
LINE
8
Default
10
335.483333
20
396.261662
11
336.268051
21
394.827172
0
LINE
8
Default
10
333.839451
20
399.090652
11
335.483341
21
396.261662
0
LINE
8
Default
10
332.100491
20
401.863812
11
333.839461
21
399.090652
0
LINE
8
Default
10
330.271411
20
404.578172
11
332.100491
21
401.863822
0
LINE
8
Default
10
328.357131
20
407.231262
11
330.271411
21
404.578172
0
LINE
8
Default
10
326.361681
20
409.822462
11
328.357131
21
407.231262
0
LINE
8
Default
10
324.288791
20
412.351532
11
326.361681
21
409.822462
0
LINE
8
Default
10
322.142091
20
414.818242
11
324.288781
21
412.351542
0
LINE
8
Default
10
319.925261
20
417.222342
11
322.142091
21
414.818252
0
LINE
8
Default
10
317.642031
20
419.563592
11
319.925261
21
417.222352
0
LINE
8
Default
10
315.296001
20
421.841752
11
317.642031
21
419.563602
0
LINE
8
Default
10
312.890911
20
424.056572
11
315.296011
21
421.841752
0
LINE
8
Default
10
310.429711
20
426.208362
11
312.890911
21
424.056572
0
LINE
8
Default
10
307.914861
20
428.297742
11
310.429711
21
426.208362
0
LINE
8
Default
10
305.349231
20
430.324922
11
307.914851
21
428.297742
0
LINE
8
Default
10
302.735741
20
432.290132
11
305.349231
21
430.324932
0
LINE
8
Default
10
300.077291
20
434.193572
11
302.735741
21
432.290132
0
LINE
8
Default
10
297.376741
20
436.035472
11
300.077291
21
434.193572
0
LINE
8
Default
10
294.636981
20
437.816032
11
297.376731
21
436.035462
0
LINE
8
Default
10
291.860901
20
439.535482
11
294.636981
21
437.816032
0
LINE
8
Default
10
289.049921
20
441.195012
11
291.860911
21
439.535492
0
LINE
8
Default
10
286.204561
20
442.795972
11
289.049921
21
441.195022
0
LINE
8
Default
10
283.326431
20
444.338842
11
286.204561
21
442.795972
0
LINE
8
Default
10
280.417111
20
445.824122
11
283.326431
21
444.338842
0
LINE
8
Default
10
277.478271
20
447.252312
11
280.417101
21
445.824132
0
LINE
8
Default
10
274.511521
20
448.623892
11
277.478271
21
447.252322
0
LINE
8
Default
10
271.518451
20
449.939342
11
274.511531
21
448.623892
0
LINE
8
Default
10
268.500681
20
451.199172
11
271.518451
21
449.939352
0
LINE
8
Default
10
265.461491
20
452.403252
11
268.500681
21
451.199172
0
LINE
8
Default
10
262.403611
20
453.551522
11
265.461491
21
452.403252
0
LINE
8
Default
10
259.328021
20
454.644552
11
262.403621
21
453.551522
0
LINE
8
Default
10
256.235691
20
455.682932
11
259.328021
21
454.644552
0
LINE
8
Default
10
250.004531
20
457.598012
11
256.235681
21
455.682922
0
LINE
8
Default
10
243.717681
20
459.301372
11
250.004491
21
457.598002
0
LINE
8
Default
10
237.382991
20
460.797282
11
243.717661
21
459.301372
0
LINE
8
Default
10
231.005061
20
462.088522
11
237.382971
21
460.797282
0
LINE
8
Default
10
224.586871
20
463.177502
11
231.005111
21
462.088522
0
LINE
8
Default
10
218.131211
20
464.066632
11
224.586871
21
463.177503
0
LINE
8
Default
10
211.650871
20
464.756863
11
218.131201
21
464.066629
0
LINE
8
Default
10
205.158901
20
465.248369
11
211.650851
21
464.756863
0
LINE
8
Default
10
198.658651
20
465.542374
11
205.158931
21
465.248370
0
LINE
8
Default
10
192.153331
20
465.640104
11
198.658601
21
465.542375
0
LINE
8
Default
10
185.648101
20
465.542375
11
192.153371
21
465.640104
0
LINE
8
Default
10
179.147771
20
465.248371
11
185.648051
21
465.542375
0
LINE
8
Default
10
172.655851
20
464.756865
11
179.147801
21
465.248370
0
LINE
8
Default
10
166.175501
20
464.066630
11
172.655831
21
464.756863
0
LINE
8
Default
10
159.719831
20
463.177503
11
166.175461
21
464.066633
0
LINE
8
Default
10
153.301561
20
462.088523
11
159.719801
21
463.177503
0
LINE
8
Default
10
146.923601
20
460.797283
11
153.301531
21
462.088523
0
LINE
8
Default
10
140.588931
20
459.301373
11
146.923601
21
460.797283
0
LINE
8
Default
10
134.302201
20
457.598013
11
140.588981
21
459.301373
0
LINE
8
Default
10
128.071081
20
455.682933
11
134.302231
21
457.598013
0
LINE
8
Default
10
124.978741
20
454.644553
11
128.071071
21
455.682923
0
LINE
8
Default
10
121.903161
20
453.551513
11
124.978731
21
454.644543
0
LINE
8
Default
10
118.845281
20
452.403243
11
121.903161
21
453.551513
0
LINE
8
Default
10
115.806061
20
451.199163
11
118.845281
21
452.403243
0
LINE
8
Default
10
112.788291
20
449.939333
11
115.806061
21
451.199163
0
LINE
8
Default
10
109.795211
20
448.623883
11
112.788291
21
449.939333
0
LINE
8
Default
10
106.828471
20
447.252303
11
109.795221
21
448.623873
0
LINE
8
Default
10
103.889641
20
445.824113
11
106.828471
21
447.252293
0
LINE
8
Default
10
100.980321
20
444.338823
11
103.889631
21
445.824103
0
LINE
8
Default
10
98.102161
20
442.795943
11
100.980321
21
444.338813
0
LINE
8
Default
10
95.256801
20
441.194983
11
98.102161
21
442.795933
0
LINE
8
Default
10
92.445811
20
439.535453
11
95.256801
21
441.194983
0
LINE
8
Default
10
89.669741
20
437.816003
11
92.445821
21
439.535453
0
LINE
8
Default
10
86.930021
20
436.035433
11
89.669751
21
437.815993
0
LINE
8
Default
10
84.229471
20
434.193543
11
86.930021
21
436.035433
0
LINE
8
Default
10
81.570991
20
432.290113
11
84.229461
21
434.193543
0
LINE
8
Default
10
78.957521
20
430.324913
11
81.570981
21
432.290113
0
LINE
8
Default
10
76.391901
20
428.297743
11
78.957521
21
430.324923
0
LINE
8
Default
10
73.877071
20
426.208373
11
76.391891
21
428.297743
0
LINE
8
Default
10
71.415841
20
424.056583
11
73.877071
21
426.208373
0
LINE
8
Default
10
69.010741
20
421.841763
11
71.415841
21
424.056583
0
LINE
8
Default
10
66.664751
20
419.563613
11
69.010751
21
421.841763
0
LINE
8
Default
10
64.381491
20
417.222373
11
66.664751
21
419.563613
0
LINE
8
Default
10
62.164691
20
414.818273
11
64.381491
21
417.222363
0
LINE
8
Default
10
60.017971
20
412.351563
11
62.164691
21
414.818263
0
LINE
8
Default
10
57.945081
20
409.822483
11
60.017971
21
412.351553
0
LINE
8
Default
10
55.949631
20
407.231283
11
57.945081
21
409.822483
0
LINE
8
Default
10
54.035351
20
404.578203
11
55.949631
21
407.231283
0
LINE
8
Default
10
52.697281
20
402.611423
11
54.035351
21
404.578203
0
LINE
8
Default
10
51.406061
20
400.613153
11
52.697281
21
402.611433
0
LINE
8
Default
10
50.163661
20
398.584533
11
51.406061
21
400.613153
0
LINE
8
Default
10
48.971951
20
396.526703
11
50.163661
21
398.584523
0
LINE
8
Default
10
417.313661
20
266.409523
11
463.184000
21
266.409000
0
LINE
8
Default
10
417.314100
20
250.482900
11
417.314000
21
266.409000
0
LINE
8
Default
10
584.538000
20
250.482900
11
417.314000
21
250.483000
0
LINE
8
Default
10
584.538000
20
266.409100
11
584.538000
21
250.483000
0
LINE
8
Default
10
531.295900
20
266.409100
11
584.538000
21
266.409000
0
LINE
8
Default
10
531.899400
20
266.827558
11
531.295868
21
266.409000
0
LINE
8
Default
10
533.776858
20
268.188880
11
531.899408
21
266.827560
0
LINE
8
Default
10
535.610428
20
269.607690
11
533.776858
21
268.188880
0
LINE
8
Default
10
537.399878
20
271.081330
11
535.610418
21
269.607690
0
LINE
8
Default
10
539.145048
20
272.607140
11
537.399868
21
271.081330
0
LINE
8
Default
10
540.845738
20
274.182480
11
539.145038
21
272.607140
0
LINE
8
Default
10
542.501758
20
275.804690
11
540.845738
21
274.182480
0
LINE
8
Default
10
544.112968
20
277.471110
11
542.501758
21
275.804690
0
LINE
8
Default
10
545.679158
20
279.179090
11
544.112968
21
277.471110
0
LINE
8
Default
10
547.199548
20
280.924990
11
545.679158
21
279.179090
0
LINE
8
Default
10
548.674038
20
282.706140
11
547.199538
21
280.924990
0
LINE
8
Default
10
550.103348
20
284.521350
11
548.674038
21
282.706130
0
LINE
8
Default
10
551.488328
20
286.369440
11
550.103348
21
284.521340
0
LINE
8
Default
10
552.829668
20
288.249240
11
551.488328
21
286.369440
0
LINE
8
Default
10
554.128178
20
290.159550
11
552.829678
21
288.249230
0
LINE
8
Default
10
555.384638
20
292.099200
11
554.128188
21
290.159550
0
LINE
8
Default
10
556.599778
20
294.067000
11
555.384638
21
292.099200
0
LINE
8
Default
10
557.773308
20
296.060130
11
556.599768
21
294.067000
0
LINE
8
Default
10
558.904758
20
298.076100
11
557.773298
21
296.060130
0
LINE
8
Default
10
559.994698
20
300.114230
11
558.904758
21
298.076100
0
LINE
8
Default
10
561.043718
20
302.173850
11
559.994698
21
300.114230
0
LINE
8
Default
10
562.052378
20
304.254280
11
561.043718
21
302.173850
0
LINE
8
Default
10
563.021278
20
306.354840
11
562.052382
21
304.254280
0
LINE
8
Default
10
563.950942
20
308.474860
11
563.021275
21
306.354840
0
LINE
8
Default
10
564.841975
20
310.613650
11
563.950944
21
308.474850
0
LINE
8
Default
10
565.694004
20
312.768410
11
564.841976
21
310.613650
0
LINE
8
Default
10
566.506576
20
314.936330
11
565.694002
21
312.768420
0
LINE
8
Default
10
567.280122
20
317.116730
11
566.506580
21
314.936340
0
LINE
8
Default
10
568.014970
20
319.308930
11
567.280120
21
317.116730
0
LINE
8
Default
10
569.370400
20
323.726040
11
568.014970
21
319.308930
0
LINE
8
Default
10
570.576080
20
328.182290
11
569.370400
21
323.726050
0
LINE
8
Default
10
571.635800
20
332.676420
11
570.576080
21
328.182290
0
LINE
8
Default
10
572.551690
20
337.206560
11
571.635795
21
332.676420
0
LINE
8
Default
10
573.324495
20
341.766420
11
572.551686
21
337.206570
0
LINE
8
Default
10
573.955066
20
346.349670
11
573.324497
21
341.766430
0
LINE
8
Default
10
574.444157
20
350.950000
11
573.955066
21
346.349680
0
LINE
8
Default
10
574.792532
20
355.561090
11
574.444157
21
350.950000
0
LINE
8
Default
10
575.000981
20
360.176630
11
574.792532
21
355.561090
0
LINE
8
Default
10
575.070295
20
364.790310
11
575.000981
21
360.176630
0
LINE
8
Default
10
575.000981
20
369.403990
11
575.070295
21
364.790310
0
LINE
8
Default
10
574.792532
20
374.019530
11
575.000981
21
369.403990
0
LINE
8
Default
10
574.444157
20
378.630610
11
574.792532
21
374.019530
0
LINE
8
Default
10
573.955095
20
383.230930
11
574.444158
21
378.630620
0
LINE
8
Default
10
573.324528
20
387.814170
11
573.955097
21
383.230930
0
LINE
8
Default
10
572.551687
20
392.374010
11
573.324524
21
387.814170
0
LINE
8
Default
10
571.635824
20
396.904150
11
572.551691
21
392.374010
0
LINE
8
Default
10
570.576111
20
401.398270
11
571.635831
21
396.904150
0
LINE
8
Default
10
569.370461
20
405.854510
11
570.576111
21
401.398270
0
LINE
8
Default
10
568.015031
20
410.271620
11
569.370461
21
405.854510
0
LINE
8
Default
10
567.280151
20
412.463820
11
568.015029
21
410.271620
0
LINE
8
Default
10
566.506639
20
414.644220
11
567.280153
21
412.463820
0
LINE
8
Default
10
565.694063
20
416.812140
11
566.506637
21
414.644220
0
LINE
8
Default
10
564.842037
20
418.966900
11
565.694065
21
416.812140
0
LINE
8
Default
10
563.951005
20
421.105700
11
564.842036
21
418.966900
0
LINE
8
Default
10
563.021336
20
423.225720
11
563.951003
21
421.105700
0
LINE
8
Default
10
562.052463
20
425.326290
11
563.021331
21
423.225720
0
LINE
8
Default
10
561.043771
20
427.406720
11
562.052461
21
425.326280
0
LINE
8
Default
10
559.994751
20
429.466340
11
561.043771
21
427.406710
0
LINE
8
Default
10
558.904811
20
431.504470
11
559.994751
21
429.466330
0
LINE
8
Default
10
557.773351
20
433.520440
11
558.904811
21
431.504470
0
LINE
8
Default
10
556.599821
20
435.513580
11
557.773361
21
433.520440
0
LINE
8
Default
10
555.384691
20
437.481380
11
556.599831
21
435.513570
0
LINE
8
Default
10
554.128241
20
439.421030
11
555.384691
21
437.481370
0
LINE
8
Default
10
552.829731
20
441.331340
11
554.128231
21
439.421020
0
LINE
8
Default
10
551.488381
20
443.211140
11
552.829721
21
441.331340
0
LINE
8
Default
10
550.103401
20
445.059240
11
551.488381
21
443.211140
0
LINE
8
Default
10
548.674091
20
446.874450
11
550.103401
21
445.059230
0
LINE
8
Default
10
547.199621
20
448.655600
11
548.674091
21
446.874450
0
LINE
8
Default
10
545.679211
20
450.401500
11
547.199621
21
448.655600
0
LINE
8
Default
10
544.113041
20
452.109490
11
545.679201
21
450.401500
0
LINE
8
Default
10
542.501831
20
453.775920
11
544.113041
21
452.109490
0
LINE
8
Default
10
540.845781
20
455.398130
11
542.501831
21
453.775920
0
LINE
8
Default
10
539.145081
20
456.973480
11
540.845781
21
455.398140
0
LINE
8
Default
10
537.399911
20
458.499310
11
539.145091
21
456.973490
0
LINE
8
Default
10
535.610461
20
459.972960
11
537.399921
21
458.499320
0
LINE
8
Default
10
533.776901
20
461.391780
11
535.610471
21
459.972970
0
LINE
8
Default
10
531.899421
20
462.753110
11
533.776901
21
461.391780
0
LINE
8
Default
10
529.978361
20
464.054110
11
531.899421
21
462.753110
0
LINE
8
Default
10
528.015341
20
465.291340
11
529.978361
21
464.054110
0
LINE
8
Default
10
526.012491
20
466.461210
11
528.015331
21
465.291340
0
LINE
8
Default
10
524.996801
20
467.019780
11
526.012491
21
466.461218
0
LINE
8
Default
10
523.971971
20
467.560158
11
524.996801
21
467.019776
0
LINE
8
Default
10
522.938051
20
468.082046
11
523.971971
21
467.560158
0
LINE
8
Default
10
521.895071
20
468.585208
11
522.938051
21
468.082044
0
LINE
8
Default
10
520.843091
20
469.069327
11
521.895071
21
468.585208
0
LINE
8
Default
10
519.782191
20
469.534079
11
520.843091
21
469.069327
0
LINE
8
Default
10
518.712511
20
469.979143
11
519.782191
21
469.534079
0
LINE
8
Default
10
517.634111
20
470.404197
11
518.712511
21
469.979143
0
LINE
8
Default
10
516.547111
20
470.808920
11
517.634121
21
470.404197
0
LINE
8
Default
10
515.451581
20
471.192991
11
516.547111
21
470.808920
0
LINE
8
Default
10
514.348321
20
471.555805
11
515.451581
21
471.192990
0
LINE
8
Default
10
513.238371
20
471.896790
11
514.348321
21
471.555805
0
LINE
8
Default
10
512.122291
20
472.215669
11
513.238371
21
471.896790
0
LINE
8
Default
10
511.000631
20
472.512164
11
512.122291
21
472.215668
0
LINE
8
Default
10
509.873881
20
472.785999
11
511.000621
21
472.512164
0
LINE
8
Default
10
508.742561
20
473.036899
11
509.873881
21
472.786000
0
LINE
8
Default
10
507.607271
20
473.264585
11
508.742561
21
473.036899
0
LINE
8
Default
10
506.468471
20
473.468781
11
507.607261
21
473.264585
0
LINE
8
Default
10
505.326261
20
473.649378
11
506.468471
21
473.468781
0
LINE
8
Default
10
504.180501
20
473.806357
11
505.326261
21
473.649378
0
LINE
8
Default
10
503.031341
20
473.939576
11
504.180491
21
473.806357
0
LINE
8
Default
10
501.878911
20
474.048893
11
503.031341
21
473.939577
0
LINE
8
Default
10
500.723381
20
474.134165
11
501.878911
21
474.048893
0
LINE
8
Default
10
499.564941
20
474.195250
11
500.723381
21
474.134165
0
LINE
8
Default
10
498.403741
20
474.232006
11
499.564941
21
474.195250
0
LINE
8
Default
10
497.239941
20
474.244291
11
498.403741
21
474.232006
0
LINE
8
Default
10
496.076111
20
474.232009
11
497.239941
21
474.244291
0
LINE
8
Default
10
494.914911
20
474.195257
11
496.076111
21
474.232009
0
LINE
8
Default
10
493.756471
20
474.134175
11
494.914911
21
474.195257
0
LINE
8
Default
10
492.600971
20
474.048907
11
493.756471
21
474.134175
0
LINE
8
Default
10
491.448541
20
473.939593
11
492.600971
21
474.048906
0
LINE
8
Default
10
490.299361
20
473.806377
11
491.448541
21
473.939593
0
LINE
8
Default
10
489.153601
20
473.649402
11
490.299361
21
473.806378
0
LINE
8
Default
10
488.011411
20
473.468809
11
489.153591
21
473.649403
0
LINE
8
Default
10
486.872621
20
473.264617
11
488.011411
21
473.468809
0
LINE
8
Default
10
485.737291
20
473.036935
11
486.872611
21
473.264617
0
LINE
8
Default
10
484.606001
20
472.786039
11
485.737291
21
473.036935
0
LINE
8
Default
10
483.479261
20
472.512208
11
484.606001
21
472.786040
0
LINE
8
Default
10
482.357571
20
472.215716
11
483.479261
21
472.512208
0
LINE
8
Default
10
481.241521
20
471.896842
11
482.357571
21
472.215717
0
LINE
8
Default
10
480.131571
20
471.555861
11
481.241521
21
471.896842
0
LINE
8
Default
10
479.028311
20
471.193049
11
480.131571
21
471.555860
0
LINE
8
Default
10
477.932781
20
470.808981
11
479.028311
21
471.193048
0
LINE
8
Default
10
476.845751
20
470.404261
11
477.932781
21
470.808981
0
LINE
8
Default
10
475.767381
20
469.979210
11
476.845751
21
470.404261
0
LINE
8
Default
10
474.697671
20
469.534149
11
475.767381
21
469.979210
0
LINE
8
Default
10
473.636801
20
469.069399
11
474.697671
21
469.534148
0
LINE
8
Default
10
472.584811
20
468.585282
11
473.636791
21
469.069398
0
LINE
8
Default
10
471.541801
20
468.082120
11
472.584811
21
468.585282
0
LINE
8
Default
10
470.507911
20
467.560232
11
471.541801
21
468.082118
0
LINE
8
Default
10
469.483051
20
467.019848
11
470.507911
21
467.560228
0
LINE
8
Default
10
468.467361
20
466.461288
11
469.483051
21
467.019847
0
LINE
8
Default
10
466.464521
20
465.291417
11
468.467361
21
466.461287
0
LINE
8
Default
10
464.501491
20
464.054197
11
466.464511
21
465.291417
0
LINE
8
Default
10
462.580431
20
462.753197
11
464.501491
21
464.054197
0
LINE
8
Default
10
460.702951
20
461.391877
11
462.580431
21
462.753197
0
LINE
8
Default
10
458.869381
20
459.973067
11
460.702951
21
461.391877
0
LINE
8
Default
10
457.079931
20
458.499437
11
458.869391
21
459.973077
0
LINE
8
Default
10
455.334761
20
456.973627
11
457.079941
21
458.499447
0
LINE
8
Default
10
453.634071
20
455.398297
11
455.334771
21
456.973637
0
LINE
8
Default
10
451.978021
20
453.776097
11
453.634071
21
455.398307
0
LINE
8
Default
10
450.366811
20
452.109677
11
451.978021
21
453.776097
0
LINE
8
Default
10
448.800621
20
450.401697
11
450.366811
21
452.109677
0
LINE
8
Default
10
447.280231
20
448.655797
11
448.800621
21
450.401697
0
LINE
8
Default
10
445.805761
20
446.874657
11
447.280231
21
448.655807
0
LINE
8
Default
10
444.376421
20
445.059447
11
445.805761
21
446.874667
0
LINE
8
Default
10
442.991471
20
443.211357
11
444.376421
21
445.059457
0
LINE
8
Default
10
441.650101
20
441.331567
11
442.991471
21
443.211367
0
LINE
8
Default
10
440.351591
20
439.421257
11
441.650091
21
441.331577
0
LINE
8
Default
10
439.095131
20
437.481607
11
440.351581
21
439.421257
0
LINE
8
Default
10
437.879991
20
435.513807
11
439.095131
21
437.481607
0
LINE
8
Default
10
436.706461
20
433.520677
11
437.880001
21
435.513807
0
LINE
8
Default
10
435.575011
20
431.504707
11
436.706471
21
433.520677
0
LINE
8
Default
10
434.485041
20
429.466577
11
435.575011
21
431.504707
0
LINE
8
Default
10
433.436021
20
427.406957
11
434.485041
21
429.466577
0
LINE
8
Default
10
432.427361
20
425.326527
11
433.436021
21
427.406957
0
LINE
8
Default
10
431.458491
20
423.225967
11
432.427359
21
425.326527
0
LINE
8
Default
10
430.528819
20
421.105947
11
431.458486
21
423.225967
0
LINE
8
Default
10
429.637786
20
418.967157
11
430.528817
21
421.105957
0
LINE
8
Default
10
428.785727
20
416.812397
11
429.637783
21
418.967157
0
LINE
8
Default
10
427.973153
20
414.644477
11
428.785727
21
416.812387
0
LINE
8
Default
10
427.199637
20
412.464077
11
427.973151
21
414.644467
0
LINE
8
Default
10
426.464761
20
410.271877
11
427.199639
21
412.464077
0
LINE
8
Default
10
425.109329
20
405.854767
11
426.464759
21
410.271877
0
LINE
8
Default
10
423.903649
20
401.398517
11
425.109329
21
405.854757
0
LINE
8
Default
10
422.843929
20
396.904387
11
423.903649
21
401.398517
0
LINE
8
Default
10
421.928039
20
392.374227
11
422.843934
21
396.904387
0
LINE
8
Default
10
421.155204
20
387.814357
11
421.928041
21
392.374227
0
LINE
8
Default
10
420.524631
20
383.231087
11
421.155200
21
387.814357
0
LINE
8
Default
10
420.035540
20
378.630737
11
420.524631
21
383.231087
0
LINE
8
Default
10
419.687165
20
374.019627
11
420.035540
21
378.630737
0
LINE
8
Default
10
419.478716
20
369.404067
11
419.687165
21
374.019627
0
LINE
8
Default
10
419.409402
20
364.790387
11
419.478716
21
369.404077
0
LINE
8
Default
10
419.478716
20
360.176707
11
419.409402
21
364.790397
0
LINE
8
Default
10
419.687165
20
355.561157
11
419.478716
21
360.176707
0
LINE
8
Default
10
420.035540
20
350.950047
11
419.687165
21
355.561147
0
LINE
8
Default
10
420.524631
20
346.349707
11
420.035540
21
350.950047
0
LINE
8
Default
10
421.155200
20
341.766447
11
420.524631
21
346.349707
0
LINE
8
Default
10
421.928041
20
337.206587
11
421.155204
21
341.766447
0
LINE
8
Default
10
422.843904
20
332.676427
11
421.928037
21
337.206577
0
LINE
8
Default
10
423.903617
20
328.182307
11
422.843897
21
332.676427
0
LINE
8
Default
10
425.109297
20
323.726067
11
423.903617
21
328.182307
0
LINE
8
Default
10
426.464727
20
319.308957
11
425.109297
21
323.726067
0
LINE
8
Default
10
427.199607
20
317.116757
11
426.464729
21
319.308957
0
LINE
8
Default
10
427.973119
20
314.936367
11
427.199605
21
317.116757
0
LINE
8
Default
10
428.785695
20
312.768447
11
427.973121
21
314.936367
0
LINE
8
Default
10
429.637751
20
310.613687
11
428.785695
21
312.768447
0
LINE
8
Default
10
430.528785
20
308.474887
11
429.637754
21
310.613687
0
LINE
8
Default
10
431.458454
20
306.354867
11
430.528787
21
308.474887
0
LINE
8
Default
10
432.427327
20
304.254307
11
431.458459
21
306.354867
0
LINE
8
Default
10
433.435989
20
302.173867
11
432.427329
21
304.254297
0
LINE
8
Default
10
434.485039
20
300.114237
11
433.435989
21
302.173867
0
LINE
8
Default
10
435.574979
20
298.076107
11
434.485039
21
300.114247
0
LINE
8
Default
10
436.706439
20
296.060137
11
435.574979
21
298.076107
0
LINE
8
Default
10
437.879969
20
294.067007
11
436.706429
21
296.060137
0
LINE
8
Default
10
439.095099
20
292.099197
11
437.879959
21
294.067007
0
LINE
8
Default
10
440.351549
20
290.159547
11
439.095099
21
292.099197
0
LINE
8
Default
10
441.650079
20
288.249227
11
440.351549
21
290.159547
0
LINE
8
Default
10
442.991429
20
286.369437
11
441.650089
21
288.249237
0
LINE
8
Default
10
444.376379
20
284.521347
11
442.991429
21
286.369447
0
LINE
8
Default
10
445.805719
20
282.706137
11
444.376379
21
284.521357
0
LINE
8
Default
10
447.280189
20
280.924997
11
445.805719
21
282.706147
0
LINE
8
Default
10
448.800599
20
279.179107
11
447.280189
21
280.925007
0
LINE
8
Default
10
450.366769
20
277.471127
11
448.800609
21
279.179107
0
LINE
8
Default
10
451.977979
20
275.804697
11
450.366769
21
277.471117
0
LINE
8
Default
10
453.634029
20
274.182487
11
451.977979
21
275.804697
0
LINE
8
Default
10
455.334729
20
272.607147
11
453.634029
21
274.182487
0
LINE
8
Default
10
457.079899
20
271.081327
11
455.334719
21
272.607147
0
LINE
8
Default
10
458.869349
20
269.607687
11
457.079889
21
271.081327
0
LINE
8
Default
10
460.702909
20
268.188877
11
458.869339
21
269.607687
0
LINE
8
Default
10
462.580389
20
266.827557
11
460.702909
21
268.188877
0
LINE
8
Default
10
463.183839
20
266.409047
11
462.580392
21
266.827554
0
LINE
8
Default
10
61.745900
20
204.743000
11
61.745900
21
150.323000
0
LINE
8
Default
10
45.819800
20
204.742700
11
61.745900
21
204.743000
0
LINE
8
Default
10
45.819800
20
37.519000
11
45.819800
21
204.743000
0
LINE
8
Default
10
61.745900
20
37.519000
11
45.819800
21
37.519300
0
LINE
8
Default
10
61.745900
20
99.311200
11
61.745900
21
37.519300
0
LINE
8
Default
10
62.489668
20
98.549400
11
61.745900
21
99.311202
0
LINE
8
Default
10
63.250120
20
97.803262
11
62.489673
21
98.549401
0
LINE
8
Default
10
64.026823
20
97.072481
11
63.250120
21
97.803267
0
LINE
8
Default
10
64.819360
20
96.356797
11
64.026824
21
97.072484
0
LINE
8
Default
10
65.853054
20
95.465004
11
64.819364
21
96.356797
0
LINE
8
Default
10
66.907184
20
94.600387
11
65.853054
21
95.465002
0
LINE
8
Default
10
67.980924
20
93.762552
11
66.907184
21
94.600384
0
LINE
8
Default
10
69.073434
20
92.951054
11
67.980924
21
93.762555
0
LINE
8
Default
10
70.183804
20
92.165545
11
69.073434
21
92.951053
0
LINE
8
Default
10
71.311254
20
91.405553
11
70.183804
21
92.165549
0
LINE
8
Default
10
72.454904
20
90.670699
11
71.311254
21
91.405549
0
LINE
8
Default
10
73.613904
20
89.960569
11
72.454904
21
90.670696
0
LINE
8
Default
10
74.787864
20
89.274576
11
73.613904
21
89.960573
0
LINE
8
Default
10
75.976474
20
88.612283
11
74.787864
21
89.274573
0
LINE
8
Default
10
77.179074
20
87.973583
11
75.976474
21
88.612280
0
LINE
8
Default
10
78.395004
20
87.358370
11
77.179074
21
87.973586
0
LINE
8
Default
10
79.623594
20
86.766496
11
78.394994
21
87.358372
0
LINE
8
Default
10
80.864154
20
86.197842
11
79.623594
21
86.766491
0
LINE
8
Default
10
82.116014
20
85.652311
11
80.864164
21
86.197846
0
LINE
8
Default
10
83.378504
20
85.129746
11
82.116014
21
85.652308
0
LINE
8
Default
10
84.650964
20
84.630018
11
83.378514
21
85.129748
0
LINE
8
Default
10
85.932684
20
84.153034
11
84.650974
21
84.630017
0
LINE
8
Default
10
88.521334
20
83.266747
11
85.932684
21
84.153037
0
LINE
8
Default
10
91.139034
20
82.469897
11
88.521344
21
83.266751
0
LINE
8
Default
10
93.780434
20
81.761491
11
91.139034
21
82.469896
0
LINE
8
Default
10
96.442494
20
81.139956
11
93.780434
21
81.761494
0
LINE
8
Default
10
99.122694
20
80.603904
11
96.442484
21
81.139956
0
LINE
8
Default
10
101.816444
20
80.152489
11
99.122694
21
80.603903
0
LINE
8
Default
10
104.519144
20
79.784979
11
101.816444
21
80.152488
0
LINE
8
Default
10
107.226164
20
79.500499
11
104.519144
21
79.784979
0
LINE
8
Default
10
109.932924
20
79.298315
11
107.226164
21
79.500499
0
LINE
8
Default
10
112.634804
20
79.177581
11
109.932924
21
79.298316
0
LINE
8
Default
10
115.327204
20
79.137506
11
112.634804
21
79.177581
0
LINE
8
Default
10
118.019604
20
79.177581
11
115.327204
21
79.137506
0
LINE
8
Default
10
120.721484
20
79.298316
11
118.019604
21
79.177581
0
LINE
8
Default
10
123.428244
20
79.500499
11
120.721484
21
79.298315
0
LINE
8
Default
10
126.135264
20
79.784950
11
123.428244
21
79.500498
0
LINE
8
Default
10
128.837964
20
80.152487
11
126.135264
21
79.784949
0
LINE
8
Default
10
131.531744
20
80.603873
11
128.837964
21
80.152487
0
LINE
8
Default
10
134.211954
20
81.139925
11
131.531744
21
80.603873
0
LINE
8
Default
10
136.874034
20
81.761463
11
134.211944
21
81.139925
0
LINE
8
Default
10
139.515434
20
82.469865
11
136.874034
21
81.761460
0
LINE
8
Default
10
142.133154
20
83.266720
11
139.515434
21
82.469866
0
LINE
8
Default
10
144.721784
20
84.153006
11
142.133164
21
83.266716
0
LINE
8
Default
10
146.003524
20
84.629986
11
144.721784
21
84.153003
0
LINE
8
Default
10
147.275974
20
85.129717
11
146.003524
21
84.629987
0
LINE
8
Default
10
148.538474
20
85.652277
11
147.275984
21
85.129715
0
LINE
8
Default
10
149.790324
20
86.197815
11
148.538474
21
85.652280
0
LINE
8
Default
10
151.030894
20
86.766460
11
149.790334
21
86.197811
0
LINE
8
Default
10
152.259464
20
87.358341
11
151.030894
21
86.766465
0
LINE
8
Default
10
153.475414
20
87.973555
11
152.259464
21
87.358339
0
LINE
8
Default
10
154.678024
20
88.612219
11
153.475424
21
87.973551
0
LINE
8
Default
10
155.866664
20
89.274511
11
154.678034
21
88.612221
0
LINE
8
Default
10
157.040624
20
89.960541
11
155.866664
21
89.274516
0
LINE
8
Default
10
158.199624
20
90.670666
11
157.040624
21
89.960539
0
LINE
8
Default
10
159.343274
20
91.405519
11
158.199624
21
90.670669
0
LINE
8
Default
10
160.470724
20
92.165519
11
159.343274
21
91.405523
0
LINE
8
Default
10
161.581094
20
92.951023
11
160.470724
21
92.165515
0
LINE
8
Default
10
162.673604
20
93.762525
11
161.581094
21
92.951024
0
LINE
8
Default
10
163.747344
20
94.600354
11
162.673604
21
93.762522
0
LINE
8
Default
10
164.801474
20
95.464972
11
163.747344
21
94.600357
0
LINE
8
Default
10
165.835164
20
96.356767
11
164.801474
21
95.464974
0
LINE
8
Default
10
166.845634
20
97.274464
11
165.835164
21
96.356763
0
LINE
8
Default
10
167.830054
20
98.216943
11
166.845635
21
97.274463
0
LINE
8
Default
10
168.787495
20
99.184823
11
167.830057
21
98.216943
0
LINE
8
Default
10
169.717077
20
100.178753
11
168.787494
21
99.184824
0
LINE
8
Default
10
170.617874
20
101.199324
11
169.717078
21
100.178754
0
LINE
8
Default
10
171.488948
20
102.247214
11
170.617870
21
101.199324
0
LINE
8
Default
10
172.329460
20
103.323014
11
171.488946
21
102.247214
0
LINE
8
Default
10
173.138446
20
104.427404
11
172.329457
21
103.323014
0
LINE
8
Default
10
173.913677
20
105.559794
11
173.138441
21
104.427404
0
LINE
8
Default
10
174.651551
20
106.717604
11
173.913682
21
105.559784
0
LINE
8
Default
10
175.349292
20
107.898474
11
174.651555
21
106.717604
0
LINE
8
Default
10
175.682225
20
108.496814
11
175.349288
21
107.898475
0
LINE
8
Default
10
176.004043
20
109.100035
11
175.682225
21
108.496814
0
LINE
8
Default
10
176.314628
20
109.708024
11
176.004043
21
109.100033
0
LINE
8
Default
10
176.613897
20
110.320953
11
176.314629
21
109.708023
0
LINE
8
Default
10
176.901679
20
110.938713
11
176.613897
21
110.320957
0
LINE
8
Default
10
177.177833
20
111.561207
11
176.901679
21
110.938710
0
LINE
8
Default
10
177.442134
20
112.188420
11
177.177833
21
111.561210
0
LINE
8
Default
10
177.694469
20
112.820260
11
177.442134
21
112.188421
0
LINE
8
Default
10
177.934611
20
113.456641
11
177.694468
21
112.820259
0
LINE
8
Default
10
178.162392
20
114.097509
11
177.934611
21
113.456639
0
LINE
8
Default
10
178.377558
20
114.742499
11
178.162392
21
114.097509
0
LINE
8
Default
10
178.579798
20
115.391189
11
178.377558
21
114.742502
0
LINE
8
Default
10
178.769028
20
116.043492
11
178.579798
21
115.391192
0
LINE
8
Default
10
178.945106
20
116.699352
11
178.769028
21
116.043496
0
LINE
8
Default
10
179.107864
20
117.358706
11
178.945107
21
116.699351
0
LINE
8
Default
10
179.257160
20
118.021421
11
179.107865
21
117.358707
0
LINE
8
Default
10
179.392909
20
118.687437
11
179.257160
21
118.021421
0
LINE
8
Default
10
179.514942
20
119.356701
11
179.392909
21
118.687440
0
LINE
8
Default
10
179.623117
20
120.029120
11
179.514941
21
119.356698
0
LINE
8
Default
10
179.717322
20
120.704588
11
179.623116
21
120.029118
0
LINE
8
Default
10
179.797416
20
121.383048
11
179.717322
21
120.704586
0
LINE
8
Default
10
179.863231
20
122.064416
11
179.797417
21
121.383047
0
LINE
8
Default
10
179.914652
20
122.748607
11
179.863231
21
122.064416
0
LINE
8
Default
10
179.951566
20
123.435536
11
179.914652
21
122.748608
0
LINE
8
Default
10
179.973805
20
124.125148
11
179.951510
21
123.435539
0
LINE
8
Default
10
179.981256
20
124.817359
11
179.973918
21
124.125153
0
LINE
8
Default
10
179.973805
20
125.509533
11
179.981143
21
124.817355
0
LINE
8
Default
10
179.951566
20
126.199145
11
179.973862
21
125.509536
0
LINE
8
Default
10
179.914652
20
126.886106
11
179.951566
21
126.199149
0
LINE
8
Default
10
179.863231
20
127.570299
11
179.914651
21
126.886108
0
LINE
8
Default
10
179.797416
20
128.251668
11
179.863231
21
127.570299
0
LINE
8
Default
10
179.717322
20
128.930129
11
179.797416
21
128.251667
0
LINE
8
Default
10
179.623116
20
129.605597
11
179.717322
21
128.930127
0
LINE
8
Default
10
179.514941
20
130.277987
11
179.623117
21
129.605593
0
LINE
8
Default
10
179.392909
20
130.947253
11
179.514942
21
130.277992
0
LINE
8
Default
10
179.257189
20
131.613272
11
179.392910
21
130.947256
0
LINE
8
Default
10
179.107866
20
132.276016
11
179.257190
21
131.613274
0
LINE
8
Default
10
178.945109
20
132.935344
11
179.107866
21
132.276017
0
LINE
8
Default
10
178.769058
20
133.591197
11
178.945108
21
132.935341
0
LINE
8
Default
10
178.579828
20
134.243501
11
178.769058
21
133.591201
0
LINE
8
Default
10
178.377560
20
134.892191
11
178.579829
21
134.243504
0
LINE
8
Default
10
178.162423
20
135.537154
11
178.377561
21
134.892192
0
LINE
8
Default
10
177.934614
20
136.178022
11
178.162424
21
135.537152
0
LINE
8
Default
10
177.694472
20
136.814432
11
177.934615
21
136.178021
0
LINE
8
Default
10
177.442166
20
137.446241
11
177.694472
21
136.814431
0
LINE
8
Default
10
177.177836
20
138.073451
11
177.442165
21
137.446241
0
LINE
8
Default
10
176.901710
20
138.695981
11
177.177836
21
138.073456
0
LINE
8
Default
10
176.613900
20
139.313706
11
176.901710
21
138.695978
0
LINE
8
Default
10
176.314632
20
139.926638
11
176.613900
21
139.313708
0
LINE
8
Default
10
176.004075
20
140.534658
11
176.314632
21
139.926639
0
LINE
8
Default
10
175.682257
20
141.137849
11
176.004075
21
140.534656
0
LINE
8
Default
10
175.349320
20
141.736186
11
175.682257
21
141.137847
0
LINE
8
Default
10
174.651587
20
142.917057
11
175.349324
21
141.736187
0
LINE
8
Default
10
173.913714
20
144.074877
11
174.651583
21
142.917057
0
LINE
8
Default
10
173.138503
20
145.207257
11
173.913710
21
144.074867
0
LINE
8
Default
10
172.329490
20
146.311647
11
173.138508
21
145.207257
0
LINE
8
Default
10
171.489008
20
147.387447
11
172.329493
21
146.311647
0
LINE
8
Default
10
170.617903
20
148.435337
11
171.489009
21
147.387447
0
LINE
8
Default
10
169.717109
20
149.455937
11
170.617905
21
148.435337
0
LINE
8
Default
10
168.787555
20
150.449837
11
169.717110
21
149.455936
0
LINE
8
Default
10
167.830120
20
151.417716
11
168.787558
21
150.449836
0
LINE
8
Default
10
166.845698
20
152.360196
11
167.830117
21
151.417716
0
LINE
8
Default
10
165.835227
20
153.277896
11
166.845697
21
152.360195
0
LINE
8
Default
10
164.801537
20
154.169685
11
165.835227
21
153.277892
0
LINE
8
Default
10
163.747377
20
155.034302
11
164.801537
21
154.169687
0
LINE
8
Default
10
162.673667
20
155.872167
11
163.747377
21
155.034306
0
LINE
8
Default
10
161.581157
20
156.683636
11
162.673667
21
155.872163
0
LINE
8
Default
10
160.470787
20
157.469173
11
161.581157
21
156.683636
0
LINE
8
Default
10
159.343337
20
158.229136
11
160.470787
21
157.469169
0
LINE
8
Default
10
158.199687
20
158.964019
11
159.343337
21
158.229141
0
LINE
8
Default
10
157.040687
20
159.674141
11
158.199687
21
158.964014
0
LINE
8
Default
10
155.866727
20
160.360134
11
157.040687
21
159.674137
0
LINE
8
Default
10
154.678117
20
161.022427
11
155.866727
21
160.360137
0
LINE
8
Default
10
153.475517
20
161.661097
11
154.678117
21
161.022429
0
LINE
8
Default
10
152.259587
20
162.276309
11
153.475517
21
161.661093
0
LINE
8
Default
10
151.030997
20
162.868183
11
152.259597
21
162.276307
0
LINE
8
Default
10
149.790437
20
163.436837
11
151.030997
21
162.868188
0
LINE
8
Default
10
148.538577
20
163.982368
11
149.790427
21
163.436833
0
LINE
8
Default
10
147.276087
20
164.504933
11
148.538577
21
163.982371
0
LINE
8
Default
10
146.003657
20
165.004661
11
147.276087
21
164.504931
0
LINE
8
Default
10
144.721917
20
165.481645
11
146.003657
21
165.004662
0
LINE
8
Default
10
142.133297
20
166.367932
11
144.721917
21
165.481642
0
LINE
8
Default
10
139.515567
20
167.164782
11
142.133287
21
166.367928
0
LINE
8
Default
10
136.874197
20
167.873218
11
139.515567
21
167.164784
0
LINE
8
Default
10
134.212107
20
168.494724
11
136.874197
21
167.873215
0
LINE
8
Default
10
131.531907
20
169.030805
11
134.212117
21
168.494724
0
LINE
8
Default
10
128.838127
20
169.482191
11
131.531907
21
169.030805
0
LINE
8
Default
10
126.135427
20
169.849729
11
128.838127
21
169.482191
0
LINE
8
Default
10
123.428387
20
170.134180
11
126.135437
21
169.849728
0
LINE
8
Default
10
120.721597
20
170.336392
11
123.428387
21
170.134180
0
LINE
8
Default
10
118.019717
20
170.457127
11
120.721597
21
170.336392
0
LINE
8
Default
10
115.327317
20
170.497174
11
118.019717
21
170.457127
0
LINE
8
Default
10
112.634917
20
170.457127
11
115.327317
21
170.497174
0
LINE
8
Default
10
109.933037
20
170.336392
11
112.634917
21
170.457127
0
LINE
8
Default
10
107.226247
20
170.134180
11
109.933037
21
170.336392
0
LINE
8
Default
10
104.519227
20
169.849728
11
107.226247
21
170.134180
0
LINE
8
Default
10
101.816507
20
169.482191
11
104.519237
21
169.849729
0
LINE
8
Default
10
99.122757
20
169.030805
11
101.816507
21
169.482191
0
LINE
8
Default
10
96.442517
20
168.494724
11
99.122747
21
169.030805
0
LINE
8
Default
10
93.780457
20
167.873185
11
96.442517
21
168.494723
0
LINE
8
Default
10
91.139027
20
167.164783
11
93.780457
21
167.873188
0
LINE
8
Default
10
88.521337
20
166.367928
11
91.139027
21
167.164782
0
LINE
8
Default
10
85.932707
20
165.481642
11
88.521327
21
166.367932
0
LINE
8
Default
10
84.650987
20
165.004662
11
85.932697
21
165.481645
0
LINE
8
Default
10
83.378527
20
164.504959
11
84.650977
21
165.004661
0
LINE
8
Default
10
82.116057
20
163.982401
11
83.378517
21
164.504963
0
LINE
8
Default
10
80.864197
20
163.436863
11
82.116047
21
163.982398
0
LINE
8
Default
10
79.623627
20
162.868218
11
80.864187
21
163.436867
0
LINE
8
Default
10
78.395057
20
162.276337
11
79.623627
21
162.868213
0
LINE
8
Default
10
77.179137
20
161.661123
11
78.395067
21
162.276339
0
LINE
8
Default
10
75.976507
20
161.022429
11
77.179137
21
161.661126
0
LINE
8
Default
10
74.787897
20
160.360166
11
75.976507
21
161.022428
0
LINE
8
Default
10
73.613937
20
159.674138
11
74.787897
21
160.360163
0
LINE
8
Default
10
72.454937
20
158.964013
11
73.613937
21
159.674140
0
LINE
8
Default
10
71.311287
20
158.229160
11
72.454937
21
158.964010
0
LINE
8
Default
10
70.183837
20
157.469160
11
71.311287
21
158.229156
0
LINE
8
Default
10
69.073437
20
156.683656
11
70.183837
21
157.469164
0
LINE
8
Default
10
67.980957
20
155.872154
11
69.073437
21
156.683655
0
LINE
8
Default
10
66.907217
20
155.034325
11
67.980957
21
155.872157
0
LINE
8
Default
10
65.853087
20
154.169707
11
66.907217
21
155.034322
0
LINE
8
Default
10
64.819397
20
153.277912
11
65.853087
21
154.169705
0
LINE
8
Default
10
64.026857
20
152.562225
11
64.819393
21
153.277912
0
LINE
8
Default
10
63.250123
20
151.831442
11
64.026854
21
152.562228
0
LINE
8
Default
10
62.489674
20
151.085308
11
63.250121
21
151.831447
0
LINE
8
Default
10
61.745901
20
150.323477
11
62.489669
21
151.085307
0
LINE
8
Default
10
198.318669
20
74.894507
11
258.329000
21
74.894500
0
LINE
8
Default
10
198.318600
20
58.968400
11
198.319000
21
74.894500
0
LINE
8
Default
10
365.543000
20
58.968400
11
198.319000
21
58.968400
0
LINE
8
Default
10
365.543000
20
74.894500
11
365.543000
21
58.968400
0
LINE
8
Default
10
298.160400
20
74.894500
11
365.543000
21
74.894500
0
LINE
8
Default
10
298.889800
20
75.875871
11
298.160397
21
74.894500
0
LINE
8
Default
10
299.586887
20
76.878350
11
298.889799
21
75.875870
0
LINE
8
Default
10
300.251749
20
77.899400
11
299.586890
21
76.878350
0
LINE
8
Default
10
300.884490
20
78.936600
11
300.251748
21
77.899410
0
LINE
8
Default
10
301.325968
20
79.702070
11
300.884488
21
78.936599
0
LINE
8
Default
10
301.752180
20
80.476909
11
301.325968
21
79.702068
0
LINE
8
Default
10
302.163208
20
81.260668
11
301.752180
21
80.476909
0
LINE
8
Default
10
302.559109
20
82.052949
11
302.163208
21
81.260667
0
LINE
8
Default
10
302.939996
20
82.853277
11
302.559109
21
82.052952
0
LINE
8
Default
10
303.305925
20
83.661252
11
302.939996
21
82.853279
0
LINE
8
Default
10
303.657009
20
84.476419
11
303.305925
21
83.661249
0
LINE
8
Default
10
303.993277
20
85.298389
11
303.657009
21
84.476417
0
LINE
8
Default
10
304.314840
20
86.126737
11
303.993276
21
85.298387
0
LINE
8
Default
10
304.621813
20
86.960987
11
304.314840
21
86.126739
0
LINE
8
Default
10
305.192155
20
88.645599
11
304.621813
21
86.960989
0
LINE
8
Default
10
305.704983
20
90.348809
11
305.192157
21
88.645599
0
LINE
8
Default
10
306.160912
20
92.067199
11
305.704982
21
90.348809
0
LINE
8
Default
10
306.560933
20
93.798779
11
306.160912
21
92.067209
0
LINE
8
Default
10
306.905950
20
95.541869
11
306.560934
21
93.798779
0
LINE
8
Default
10
307.196413
20
97.293509
11
306.905950
21
95.541869
0
LINE
8
Default
10
307.432915
20
99.050709
11
307.196413
21
97.293509
0
LINE
8
Default
10
307.615936
20
100.810499
11
307.432915
21
99.050699
0
LINE
8
Default
10
307.746040
20
102.569899
11
307.615936
21
100.810499
0
LINE
8
Default
10
307.823708
20
104.325969
11
307.746041
21
102.569899
0
LINE
8
Default
10
307.849504
20
106.075719
11
307.823821
21
104.325969
0
LINE
8
Default
10
307.823737
20
107.825469
11
307.849419
21
106.075719
0
LINE
8
Default
10
307.746069
20
109.581509
11
307.823736
21
107.825469
0
LINE
8
Default
10
307.615992
20
111.340939
11
307.746068
21
109.581509
0
LINE
8
Default
10
307.432971
20
113.100709
11
307.615992
21
111.340939
0
LINE
8
Default
10
307.196469
20
114.857909
11
307.432971
21
113.100709
0
LINE
8
Default
10
306.906006
20
116.609549
11
307.196469
21
114.857909
0
LINE
8
Default
10
306.561018
20
118.352639
11
306.906006
21
116.609549
0
LINE
8
Default
10
306.160996
20
120.084209
11
306.561017
21
118.352639
0
LINE
8
Default
10
305.705066
20
121.802609
11
306.160996
21
120.084219
0
LINE
8
Default
10
305.192269
20
123.505819
11
305.705066
21
121.802609
0
LINE
8
Default
10
304.621926
20
125.190429
11
305.192268
21
123.505819
0
LINE
8
Default
10
304.314981
20
126.024679
11
304.621926
21
125.190431
0
LINE
8
Default
10
303.993418
20
126.853031
11
304.314982
21
126.024681
0
LINE
8
Default
10
303.657151
20
127.674971
11
303.993419
21
126.853028
0
LINE
8
Default
10
303.306067
20
128.490168
11
303.657151
21
127.674970
0
LINE
8
Default
10
302.940166
20
129.298140
11
303.306067
21
128.490167
0
LINE
8
Default
10
302.559279
20
130.098467
11
302.940166
21
129.298142
0
LINE
8
Default
10
302.163378
20
130.890722
11
302.559279
21
130.098468
0
LINE
8
Default
10
301.752350
20
131.674478
11
302.163378
21
130.890719
0
LINE
8
Default
10
301.326166
20
132.449319
11
301.752349
21
131.674478
0
LINE
8
Default
10
300.884686
20
133.214818
11
301.326166
21
132.449319
0
LINE
8
Default
10
300.427035
20
133.971739
11
300.884686
21
133.214820
0
LINE
8
Default
10
299.952337
20
134.720450
11
300.427034
21
133.971743
0
LINE
8
Default
10
299.460565
20
135.460043
11
299.952337
21
134.720452
0
LINE
8
Default
10
298.951717
20
136.189502
11
299.460563
21
135.460043
0
LINE
8
Default
10
298.425713
20
136.907873
11
298.951718
21
136.189505
0
LINE
8
Default
10
297.882548
20
137.614245
11
298.425712
21
136.907872
0
LINE
8
Default
10
297.322192
20
138.307612
11
297.882544
21
137.614249
0
LINE
8
Default
10
296.744624
20
138.987009
11
297.322191
21
138.307616
0
LINE
8
Default
10
296.149781
20
139.651496
11
296.744620
21
138.987004
0
LINE
8
Default
10
295.537670
20
140.300094
11
296.149781
21
139.651491
0
LINE
8
Default
10
294.908261
20
140.931851
11
295.537673
21
140.300097
0
LINE
8
Default
10
294.261493
20
141.545827
11
294.908261
21
140.931853
0
LINE
8
Default
10
293.597341
20
142.141003
11
294.261494
21
141.545825
0
LINE
8
Default
10
292.915774
20
142.716485
11
293.597340
21
142.141006
0
LINE
8
Default
10
292.216790
20
143.271246
11
292.915769
21
142.716482
0
LINE
8
Default
10
291.500309
20
143.804362
11
292.216786
21
143.271245
0
LINE
8
Default
10
290.766926
20
144.314305
11
291.500308
21
143.804358
0
LINE
8
Default
10
290.017658
20
144.799360
11
290.766929
21
144.314305
0
LINE
8
Default
10
289.253349
20
145.258309
11
290.017663
21
144.799360
0
LINE
8
Default
10
288.865803
20
145.477568
11
289.253350
21
145.258310
0
LINE
8
Default
10
288.474784
20
145.689856
11
288.865803
21
145.477569
0
LINE
8
Default
10
288.080379
20
145.895004
11
288.474784
21
145.689857
0
LINE
8
Default
10
287.682728
20
146.092814
11
288.080379
21
145.895005
0
LINE
8
Default
10
287.281888
20
146.283173
11
287.682728
21
146.092814
0
LINE
8
Default
10
286.878000
20
146.465911
11
287.281888
21
146.283172
0
LINE
8
Default
10
286.471149
20
146.640860
11
286.878000
21
146.465911
0
LINE
8
Default
10
286.061419
20
146.807908
11
286.471149
21
146.640861
0
LINE
8
Default
10
285.648923
20
146.966856
11
286.061419
21
146.807909
0
LINE
8
Default
10
285.233747
20
147.117563
11
285.648924
21
146.966856
0
LINE
8
Default
10
284.815861
20
147.259944
11
285.233747
21
147.117563
0
LINE
8
Default
10
284.395237
20
147.394028
11
284.815861
21
147.259944
0
LINE
8
Default
10
283.971933
20
147.519645
11
284.395238
21
147.394028
0
LINE
8
Default
10
283.545947
20
147.636682
11
283.971933
21
147.519645
0
LINE
8
Default
10
283.117337
20
147.745027
11
283.545948
21
147.636682
0
LINE
8
Default
10
282.686215
20
147.844567
11
283.117337
21
147.745027
0
LINE
8
Default
10
282.252552
20
147.935188
11
282.686214
21
147.844567
0
LINE
8
Default
10
281.816426
20
148.016779
11
282.252552
21
147.935188
0
LINE
8
Default
10
281.377909
20
148.089197
11
281.816426
21
148.016779
0
LINE
8
Default
10
280.937022
20
148.152358
11
281.377909
21
148.089197
0
LINE
8
Default
10
280.493820
20
148.206093
11
280.937021
21
148.152358
0
LINE
8
Default
10
280.048389
20
148.250345
11
280.493820
21
148.206093
0
LINE
8
Default
10
279.600700
20
148.284974
11
280.048389
21
148.250345
0
LINE
8
Default
10
279.150895
20
148.309838
11
279.600700
21
148.285002
0
LINE
8
Default
10
278.698944
20
148.324852
11
279.150894
21
148.309894
0
LINE
8
Default
10
278.244933
20
148.329932
11
278.698944
21
148.324852
0
LINE
8
Default
10
277.790951
20
148.324908
11
278.244933
21
148.329988
0
LINE
8
Default
10
277.339000
20
148.309951
11
277.790950
21
148.324908
0
LINE
8
Default
10
276.889166
20
148.285087
11
277.339000
21
148.309922
0
LINE
8
Default
10
276.441506
20
148.250458
11
276.889167
21
148.285087
0
LINE
8
Default
10
275.996075
20
148.206206
11
276.441506
21
148.250458
0
LINE
8
Default
10
275.552874
20
148.152471
11
275.996075
21
148.206206
0
LINE
8
Default
10
275.111986
20
148.089310
11
275.552873
21
148.152471
0
LINE
8
Default
10
274.673469
20
148.016892
11
275.111986
21
148.089310
0
LINE
8
Default
10
274.237380
20
147.935330
11
274.673469
21
148.016892
0
LINE
8
Default
10
273.803717
20
147.844708
11
274.237379
21
147.935330
0
LINE
8
Default
10
273.372594
20
147.745169
11
273.803716
21
147.844709
0
LINE
8
Default
10
272.943983
20
147.636824
11
273.372594
21
147.745169
0
LINE
8
Default
10
272.518026
20
147.519787
11
272.943984
21
147.636824
0
LINE
8
Default
10
272.094693
20
147.394170
11
272.518026
21
147.519787
0
LINE
8
Default
10
271.674069
20
147.260115
11
272.094693
21
147.394170
0
LINE
8
Default
10
271.256211
20
147.117734
11
271.674069
21
147.260115
0
LINE
8
Default
10
270.841063
20
146.967027
11
271.256212
21
147.117734
0
LINE
8
Default
10
270.428568
20
146.808080
11
270.841064
21
146.967027
0
LINE
8
Default
10
270.018838
20
146.641061
11
270.428568
21
146.808080
0
LINE
8
Default
10
269.611987
20
146.466112
11
270.018838
21
146.641061
0
LINE
8
Default
10
269.208071
20
146.283373
11
269.611987
21
146.466112
0
LINE
8
Default
10
268.807259
20
146.093015
11
269.208071
21
146.283374
0
LINE
8
Default
10
268.409609
20
145.895206
11
268.807260
21
146.093015
0
LINE
8
Default
10
268.015232
20
145.690087
11
268.409609
21
145.895206
0
LINE
8
Default
10
267.624213
20
145.477800
11
268.015232
21
145.690087
0
LINE
8
Default
10
267.236666
20
145.258541
11
267.624213
21
145.477799
0
LINE
8
Default
10
266.472353
20
144.799591
11
267.236667
21
145.258540
0
LINE
8
Default
10
265.723087
20
144.314536
11
266.472358
21
144.799591
0
LINE
8
Default
10
264.989678
20
143.804617
11
265.723088
21
144.314536
0
LINE
8
Default
10
264.273228
20
143.271496
11
264.989677
21
143.804613
0
LINE
8
Default
10
263.574217
20
142.716733
11
264.273224
21
143.271497
0
LINE
8
Default
10
262.892674
20
142.141287
11
263.574212
21
142.716738
0
LINE
8
Default
10
262.228522
20
141.546108
11
262.892675
21
142.141286
0
LINE
8
Default
10
261.581755
20
140.932166
11
262.228523
21
141.546112
0
LINE
8
Default
10
260.952313
20
140.300412
11
261.581753
21
140.932166
0
LINE
8
Default
10
260.340233
20
139.651806
11
260.952316
21
140.300409
0
LINE
8
Default
10
259.745396
20
138.987339
11
260.340235
21
139.651802
0
LINE
8
Default
10
259.167825
20
138.307942
11
259.745392
21
138.987335
0
LINE
8
Default
10
258.607472
20
137.614605
11
259.167824
21
138.307940
0
LINE
8
Default
10
258.064334
20
136.908260
11
258.607470
21
137.614605
0
LINE
8
Default
10
257.538330
20
136.189895
11
258.064335
21
136.908263
0
LINE
8
Default
10
257.029485
20
135.460433
11
257.538331
21
136.189892
0
LINE
8
Default
10
256.537711
20
134.720872
11
257.029483
21
135.460435
0
LINE
8
Default
10
256.063014
20
133.972165
11
256.537711
21
134.720872
0
LINE
8
Default
10
255.605362
20
133.215272
11
256.063013
21
133.972163
0
LINE
8
Default
10
255.163854
20
132.449773
11
255.605362
21
133.215272
0
LINE
8
Default
10
254.737642
20
131.674932
11
255.163854
21
132.449773
0
LINE
8
Default
10
254.326614
20
130.891173
11
254.737642
21
131.674932
0
LINE
8
Default
10
253.930713
20
130.098892
11
254.326614
21
130.891174
0
LINE
8
Default
10
253.549826
20
129.298564
11
253.930713
21
130.098889
0
LINE
8
Default
10
253.183897
20
128.490589
11
253.549826
21
129.298562
0
LINE
8
Default
10
252.832813
20
127.675392
11
253.183897
21
128.490590
0
LINE
8
Default
10
252.496545
20
126.853420
11
252.832813
21
127.675392
0
LINE
8
Default
10
252.174982
20
126.025072
11
252.496546
21
126.853422
0
LINE
8
Default
10
251.868009
20
125.190792
11
252.174982
21
126.025068
0
LINE
8
Default
10
251.297667
20
123.506178
11
251.868009
21
125.190788
0
LINE
8
Default
10
250.784839
20
121.802968
11
251.297665
21
123.506178
0
LINE
8
Default
10
250.328910
20
120.084578
11
250.784840
21
121.802968
0
LINE
8
Default
10
249.928889
20
118.352978
11
250.328910
21
120.084578
0
LINE
8
Default
10
249.583900
20
116.609888
11
249.928888
21
118.352978
0
LINE
8
Default
10
249.293409
20
114.858248
11
249.583900
21
116.609888
0
LINE
8
Default
10
249.056907
20
113.101048
11
249.293409
21
114.858248
0
LINE
8
Default
10
248.873886
20
111.341258
11
249.056907
21
113.101058
0
LINE
8
Default
10
248.743810
20
109.581838
11
248.873886
21
111.341268
0
LINE
8
Default
10
248.666142
20
107.825768
11
248.743810
21
109.581838
0
LINE
8
Default
10
248.640347
20
106.076018
11
248.666029
21
107.825768
0
LINE
8
Default
10
248.666142
20
104.326268
11
248.640460
21
106.076018
0
LINE
8
Default
10
248.743810
20
102.570228
11
248.666142
21
104.326268
0
LINE
8
Default
10
248.873886
20
100.810798
11
248.743810
21
102.570228
0
LINE
8
Default
10
249.056907
20
99.051028
11
248.873886
21
100.810798
0
LINE
8
Default
10
249.293409
20
97.293828
11
249.056907
21
99.051028
0
LINE
8
Default
10
249.583872
20
95.542188
11
249.293409
21
97.293828
0
LINE
8
Default
10
249.928860
20
93.799098
11
249.583872
21
95.542188
0
LINE
8
Default
10
250.328882
20
92.067528
11
249.928861
21
93.799098
0
LINE
8
Default
10
250.784812
20
90.349128
11
250.328882
21
92.067518
0
LINE
8
Default
10
251.297637
20
88.645948
11
250.784811
21
90.349128
0
LINE
8
Default
10
251.867981
20
86.961338
11
251.297639
21
88.645948
0
LINE
8
Default
10
252.174926
20
86.127088
11
251.867981
21
86.961336
0
LINE
8
Default
10
252.496489
20
85.298766
11
252.174925
21
86.127088
0
LINE
8
Default
10
252.832756
20
84.476798
11
252.496488
21
85.298770
0
LINE
8
Default
10
253.183811
20
83.661600
11
252.832755
21
84.476798
0
LINE
8
Default
10
253.549740
20
82.853658
11
253.183811
21
83.661603
0
LINE
8
Default
10
253.930627
20
82.053333
11
253.549740
21
82.853658
0
LINE
8
Default
10
254.326528
20
81.261048
11
253.930627
21
82.053330
0
LINE
8
Default
10
254.737556
20
80.477290
11
254.326528
21
81.261049
0
LINE
8
Default
10
255.163768
20
79.702449
11
254.737556
21
80.477290
0
LINE
8
Default
10
255.605219
20
78.936980
11
255.163767
21
79.702451
0
LINE
8
Default
10
256.237987
20
77.899731
11
255.605217
21
78.936981
0
LINE
8
Default
10
256.902877
20
76.878591
11
256.237990
21
77.899731
0
LINE
8
Default
10
257.600020
20
75.876091
11
256.902875
21
76.878601
0
LINE
8
Default
10
258.329455
20
74.894641
11
257.600024
21
75.876096
 0 
ENDSEC
 0 
EOF