<?xml version="1.0" encoding="UTF-8" standalone="no"?>
<svg
   xmlns:dc="http://purl.org/dc/elements/1.1/"
   xmlns:cc="http://creativecommons.org/ns#"
   xmlns:rdf="http://www.w3.org/1999/02/22-rdf-syntax-ns#"
   xmlns:svg="http://www.w3.org/2000/svg"
   xmlns="http://www.w3.org/2000/svg"
   xmlns:sodipodi="http://sodipodi.sourceforge.net/DTD/sodipodi-0.dtd"
   xmlns:inkscape="http://www.inkscape.org/namespaces/inkscape"
   viewBox="0 0 793.7007874015749 1122.5196850393702"
   width="793.7007874015749"
   height="1122.5196850393702"
   version="1.1"
   id="svg1758"
   sodipodi:docname="mirrors in diff sizes.svg"
   inkscape:version="1.0.2-2 (e86c870879, 2021-01-15)">
  <metadata
     id="metadata1762">
    <rdf:RDF>
      <cc:Work
         rdf:about="">
        <dc:format>image/svg+xml</dc:format>
        <dc:type
           rdf:resource="http://purl.org/dc/dcmitype/StillImage" />
        <dc:title></dc:title>
      </cc:Work>
    </rdf:RDF>
  </metadata>
  <sodipodi:namedview
     pagecolor="#ffffff"
     bordercolor="#666666"
     borderopacity="1"
     objecttolerance="10"
     gridtolerance="10"
     guidetolerance="10"
     inkscape:pageopacity="0"
     inkscape:pageshadow="2"
     inkscape:window-width="2560"
     inkscape:window-height="1369"
     id="namedview1760"
     showgrid="false"
     inkscape:zoom="3.4421031"
     inkscape:cx="247.37491"
     inkscape:cy="603.22722"
     inkscape:window-x="-8"
     inkscape:window-y="-8"
     inkscape:window-maximized="1"
     inkscape:current-layer="g1754" />
  <defs
     id="defs846">
    <marker
       id="DistanceX"
       orient="auto"
       refX="0.0"
       refY="0.0"
       style="overflow:visible">
      <path
         d="M 3,-3 L -3,3 M 0,-5 L  0,5"
         style="stroke:#000000; stroke-width:0.5"
         id="path833" />
    </marker>
    <pattern
       id="Hatch"
       patternUnits="userSpaceOnUse"
       width="8"
       height="8"
       x="0"
       y="0">
      <path
         d="M8 4 l-4,4"
         stroke="#000000"
         stroke-width="0.25"
         linecap="square"
         id="path836" />
      <path
         d="M6 2 l-4,4"
         stroke="#000000"
         stroke-width="0.25"
         linecap="square"
         id="path838" />
      <path
         d="M4 0 l-4,4"
         stroke="#000000"
         stroke-width="0.25"
         linecap="square"
         id="path840" />
    </pattern>
    <symbol
       id="*Model_Space" />
    <symbol
       id="*Paper_Space" />
    <symbol
       id="*Paper_Space0" />
  </defs>
  <g
     inkscape:groupmode="layer"
     inkscape:label="0"
     id="g848" />
  <g
     inkscape:groupmode="layer"
     inkscape:label="Default"
     id="g1754">
    <path
       id="path1074"
       style="fill:none;stroke:#4c0000"
       d="m 361.05453,457.57786 0.68501,-7.66849 m -0.70326,8.28811 0.0183,-0.61962 m -0.0206,1.23117 0.002,-0.61155 m 0.0116,1.21505 -0.0136,-0.6035 m 0.0432,1.19893 -0.0296,-0.59543 m 0.0751,1.18279 -0.0455,-0.58736 m 0.10697,1.16667 -0.0615,-0.57931 m 0.13891,1.15055 -0.0774,-0.57124 m 0.17077,1.13442 -0.0934,-0.56318 m 0.2027,1.11829 -0.1093,-0.55511 m 0.23456,1.10216 -0.12526,-0.54705 m 0.26646,1.08604 -0.1412,-0.53899 m 0.29834,1.06992 -0.15714,-0.53093 m 0.33023,1.05379 -0.17309,-0.52286 m 0.36213,1.03767 -0.18904,-0.51481 m 0.39402,1.02154 -0.20498,-0.50673 m 0.4259,1.00541 -0.22092,-0.49868 m 0.45779,0.98929 -0.23687,-0.49061 m 0.48969,0.97316 -0.25282,-0.48255 m 0.52159,0.95704 -0.26877,-0.47449 m 0.55347,0.94092 -0.2847,-0.46643 m 0.58536,0.92479 -0.30066,-0.45836 m 0.61726,0.90866 -0.3166,-0.4503 m 0.64914,0.89253 -0.33254,-0.44223 m 0.68103,0.8764 -0.34849,-0.43417 m 0.71293,0.86029 -0.36444,-0.42612 m 0.74482,0.84416 -0.38038,-0.41804 m 0.77671,0.82803 -0.39633,-0.40999 m 0.8086,0.81191 -0.41227,-0.40192 m 0.84049,0.79578 -0.42822,-0.39386 m 0.87238,0.77966 -0.44416,-0.3858 m 0.90427,0.76353 -0.46011,-0.37773 m 0.93617,0.7474 -0.47606,-0.36967 m 0.96806,0.73128 -0.492,-0.36161 m 0.99994,0.71515 -0.50794,-0.35354 m 1.03183,0.69903 -0.52389,-0.34549 m 1.06373,0.6829 -0.53984,-0.33741 m 1.09562,0.66677 -0.55578,-0.32936 m 1.12751,0.65066 -0.57173,-0.3213 m 1.1594,0.63453 -0.58767,-0.31323 m 1.19129,0.61839 -0.60362,-0.30516 m 1.22319,0.60227 -0.61957,-0.29711 m 1.25508,0.58615 -0.63551,-0.28904 m 1.28696,0.57002 -0.65145,-0.28098 m 1.31885,0.5539 -0.6674,-0.27292 m 1.35075,0.53777 -0.68335,-0.26485 m 1.38264,0.52164 -0.69929,-0.25679 m 2.14571,0.74619 -1.44642,-0.4894 m 2.95663,0.94654 -1.51021,-0.45714 m 3.08419,0.88203 -1.57398,-0.42489 m 3.21175,0.81753 -1.63777,-0.39264 m 3.33932,0.75303 -1.70155,-0.36039 m 3.46688,0.68853 -1.76533,-0.32814 m 3.59444,0.62403 -1.82911,-0.29589 m 3.72201,0.55952 -1.8929,-0.26363 m 3.84958,0.49502 -1.95668,-0.23139 m 3.91335,0 -1.95667,0.23139 m 3.84957,-0.49502 -1.8929,0.26363 m 3.72201,-0.55952 -1.82911,0.29589 m 3.59444,-0.62403 -1.76533,0.32814 m 3.46688,-0.68853 -1.70155,0.36039 m 3.33932,-0.75303 -1.63777,0.39264 m 3.21176,-0.81753 -1.57399,0.42489 m 3.08419,-0.88203 -1.5102,0.45714 m 2.95662,-0.94654 -1.44642,0.4894 m 2.14571,-0.74619 -0.69929,0.25679 m 1.38264,-0.52164 -0.68335,0.26485 m 1.35075,-0.53777 -0.6674,0.27292 m 1.31885,-0.5539 -0.65145,0.28098 m 1.28696,-0.57002 -0.63551,0.28904 m 1.25508,-0.58615 -0.61957,0.29711 m 1.22319,-0.60227 -0.60362,0.30516 m 1.19129,-0.61839 -0.58767,0.31323 m 1.1594,-0.63453 -0.57173,0.3213 m 1.12751,-0.65066 -0.55578,0.32936 m 1.09562,-0.66677 -0.53984,0.33741 m 1.06373,-0.6829 -0.52389,0.34549 m 1.03184,-0.69903 -0.50795,0.35354 m 0.99995,-0.71515 -0.492,0.36161 m 0.96805,-0.73128 -0.47605,0.36967 m 0.93616,-0.7474 -0.46011,0.37773 m 0.90427,-0.76353 -0.44416,0.3858 m 0.87238,-0.77966 -0.42822,0.39386 m 0.84049,-0.79578 -0.41227,0.40192 m 0.8086,-0.81191 -0.39633,0.40999 m 0.77671,-0.82803 -0.38038,0.41804 m 0.74482,-0.84416 -0.36444,0.42612 m 0.71293,-0.86029 -0.34849,0.43417 m 0.68104,-0.8764 -0.33255,0.44223 m 0.64914,-0.89253 -0.31659,0.4503 m 0.61725,-0.90866 -0.30066,0.45836 m 0.58537,-0.92479 -0.28471,0.46643 m 0.55347,-0.94092 -0.26876,0.47449 m 0.52158,-0.95704 -0.25282,0.48255 m 0.48969,-0.97316 -0.23687,0.49061 m 0.4578,-0.98929 -0.22093,0.49868 m 0.42591,-1.00541 -0.20498,0.50673 m 0.39401,-1.02154 -0.18903,0.51481 m 0.36212,-1.03767 -0.17309,0.52286 m 0.33024,-1.05379 -0.15715,0.53093 m 0.29835,-1.06992 -0.1412,0.53899 m 0.26645,-1.08604 -0.12525,0.54705 m 0.23456,-1.10216 -0.10931,0.55511 m 0.20267,-1.11829 -0.0934,0.56318 m 0.17082,-1.13442 -0.0774,0.57124 m 0.13887,-1.15055 -0.0615,0.57931 m 0.10702,-1.16667 -0.0455,0.58736 m 0.0751,-1.18279 -0.0296,0.59543 m 0.0432,-1.19893 -0.0136,0.6035 m 0.0113,-1.21505 0.002,0.61155 m -0.0203,-1.23117 0.0183,0.61962 m -0.70331,-8.28811 0.68501,7.66849 m -61.27052,-7.66849 h 60.58551" />
    <path
       id="path1300"
       style="fill:none;stroke:#4c0000"
       d="m 185.0537,457.33908 0.692,-7.74674 m -0.71044,8.37268 0.0184,-0.62594 m -0.0207,1.24373 0.002,-0.61779 m 0.0118,1.22744 -0.0138,-0.60965 m 0.0437,1.21116 -0.0299,-0.60151 m 0.0759,1.19487 -0.046,-0.59336 m 0.1081,1.17857 -0.0621,-0.58521 m 0.1403,1.16228 -0.0782,-0.57707 m 0.17252,1.146 -0.0943,-0.56893 m 0.20472,1.12971 -0.11042,-0.56078 m 0.23695,1.11341 -0.12653,-0.55263 m 0.26917,1.09712 -0.14264,-0.54449 m 0.30139,1.08084 -0.15875,-0.53635 m 0.33361,1.06455 -0.17486,-0.5282 m 0.36582,1.04825 -0.19096,-0.52005 m 0.39803,1.03196 -0.20707,-0.51191 m 0.43025,1.01567 -0.22318,-0.50376 m 0.46247,0.99938 -0.23929,-0.49562 m 0.49469,0.9831 -0.2554,-0.48748 m 0.52691,0.96681 -0.27151,-0.47933 m 0.55912,0.95051 -0.28761,-0.47118 m 0.59133,0.93422 -0.30372,-0.46304 m 0.62355,0.91793 -0.31983,-0.45489 m 0.65577,0.90164 -0.33594,-0.44675 m 0.68799,0.88536 -0.35205,-0.43861 m 0.7202,0.86906 -0.36815,-0.43045 m 0.75241,0.85277 -0.38426,-0.42232 m 0.78464,0.83649 -0.40038,-0.41417 m 0.81686,0.82019 -0.41648,-0.40602 m 0.84906,0.8039 -0.43258,-0.39788 m 0.88128,0.78761 -0.4487,-0.38973 m 0.9135,0.77132 -0.4648,-0.38159 m 0.94572,0.75503 -0.48092,-0.37344 m 0.97794,0.73874 -0.49702,-0.3653 m 1.01015,0.72245 -0.51313,-0.35715 m 1.04236,0.70616 -0.52923,-0.34901 m 1.07458,0.68987 -0.54535,-0.34086 m 1.1068,0.67358 -0.56145,-0.33272 m 1.13901,0.65729 -0.57756,-0.32457 m 1.17123,0.641 -0.59367,-0.31643 m 1.20345,0.62471 -0.60978,-0.30828 m 1.23567,0.60842 -0.62589,-0.30014 m 1.26788,0.59213 -0.64199,-0.29199 m 1.3001,0.57584 -0.65811,-0.28385 m 1.33232,0.55955 -0.67421,-0.2757 m 1.36453,0.54326 -0.69032,-0.26756 m 1.39675,0.52697 -0.70643,-0.25941 m 2.16761,0.7538 -1.46118,-0.49439 m 2.98679,0.95619 -1.52561,-0.4618 m 3.11566,0.89103 -1.59005,-0.42923 m 3.24452,0.82588 -1.65447,-0.39665 m 3.37339,0.76071 -1.71892,-0.36406 m 3.50226,0.69555 -1.78334,-0.33149 m 3.63112,0.6304 -1.84778,-0.29891 m 3.75999,0.56523 -1.91221,-0.26632 m 3.88885,0.50007 -1.97664,-0.23375 m 3.95329,0 -1.97665,0.23375 m 3.88886,-0.50007 -1.91221,0.26632 m 3.75999,-0.56523 -1.84778,0.29891 m 3.63112,-0.6304 -1.78334,0.33149 m 3.50225,-0.69555 -1.71891,0.36406 m 3.37339,-0.76071 -1.65448,0.39665 m 3.24453,-0.82588 -1.59005,0.42923 m 3.11566,-0.89103 -1.52561,0.4618 m 2.98679,-0.95619 -1.46118,0.49439 m 2.16761,-0.7538 -0.70643,0.25941 m 1.39675,-0.52697 -0.69032,0.26756 m 1.36453,-0.54326 -0.67421,0.2757 m 1.33231,-0.55955 -0.6581,0.28385 m 1.3001,-0.57584 -0.642,0.29199 m 1.26788,-0.59213 -0.62588,0.30014 m 1.23566,-0.60842 -0.60978,0.30828 m 1.20345,-0.62471 -0.59367,0.31643 m 1.17123,-0.641 -0.57756,0.32457 m 1.13902,-0.65729 -0.56146,0.33272 m 1.1068,-0.67358 -0.54534,0.34086 m 1.07458,-0.68987 -0.52924,0.34901 m 1.04237,-0.70616 -0.51313,0.35715 m 1.01015,-0.72245 -0.49702,0.3653 m 0.97793,-0.73874 -0.48091,0.37344 m 0.94572,-0.75503 -0.46481,0.38159 m 0.9135,-0.77132 -0.44869,0.38973 m 0.88128,-0.78761 -0.43259,0.39788 m 0.84907,-0.8039 -0.41648,0.40602 m 0.81685,-0.82019 -0.40037,0.41417 m 0.78463,-0.83649 -0.38426,0.42232 m 0.75242,-0.85277 -0.36816,0.43045 m 0.72021,-0.86906 -0.35205,0.43861 m 0.68798,-0.88536 -0.33593,0.44675 m 0.65576,-0.90164 -0.31983,0.45489 m 0.62356,-0.91793 -0.30373,0.46304 m 0.59134,-0.93422 -0.28761,0.47118 m 0.55912,-0.95051 -0.27151,0.47933 m 0.5269,-0.96681 -0.25539,0.48748 m 0.49468,-0.9831 -0.23929,0.49562 m 0.46247,-0.99938 -0.22318,0.50376 m 0.43026,-1.01567 -0.20708,0.51191 m 0.39804,-1.03196 -0.19096,0.52005 m 0.36582,-1.04825 -0.17486,0.5282 m 0.3336,-1.06455 -0.15874,0.53635 m 0.30138,-1.08084 -0.14264,0.54449 m 0.26917,-1.09712 -0.12653,0.55263 m 0.23696,-1.11341 -0.11043,0.56078 m 0.20474,-1.12971 -0.0943,0.56893 m 0.17251,-1.146 -0.0782,0.57707 m 0.1403,-1.16228 -0.0621,0.58521 m 0.10809,-1.17857 -0.046,0.59336 m 0.0759,-1.19487 -0.0299,0.60151 m 0.0437,-1.21116 -0.0138,0.60965 m 0.0115,-1.22744 0.002,0.61779 m -0.0204,-1.24373 0.0184,0.62594 m -0.7104,-8.37268 0.692,7.74674 m -61.89573,-7.74674 h 61.20373" />
    <path
       id="path1526"
       style="fill:none;stroke:#4c0000"
       d="m 42.552516,420.89283 0.698984,-7.82499 m -0.717613,8.45725 0.01863,-0.63226 m -0.02099,1.25629 0.0024,-0.62403 m 0.01151,1.23984 -0.01391,-0.61581 m 0.04409,1.22339 -0.03018,-0.60758 m 0.07663,1.20694 -0.04645,-0.59936 m 0.109175,1.19048 -0.06273,-0.59112 m 0.141727,1.17402 -0.079,-0.5829 m 0.174268,1.15758 -0.09527,-0.57468 m 0.206808,1.14112 -0.111538,-0.56644 m 0.239347,1.12466 -0.127809,-0.55822 m 0.27189,1.10821 -0.144081,-0.54999 m 0.304432,1.09175 -0.160351,-0.54176 m 0.336973,1.07529 -0.176622,-0.53353 m 0.369516,1.05884 -0.192894,-0.52531 m 0.402058,1.04239 -0.209164,-0.51708 m 0.434599,1.02593 -0.225435,-0.50885 m 0.467141,1.00948 -0.241706,-0.50063 m 0.499683,0.99303 -0.257977,-0.4924 m 0.532225,0.97657 -0.274248,-0.48417 m 0.564767,0.96011 -0.290519,-0.47594 m 0.597309,0.94366 -0.30679,-0.46772 m 0.62985,0.92721 -0.32306,-0.45949 m 0.662392,0.91075 -0.339332,-0.45126 m 0.694935,0.89429 -0.355603,-0.44303 m 0.727476,0.87784 -0.371873,-0.43481 m 0.760018,0.86139 -0.388145,-0.42658 m 0.79256,0.84493 -0.404415,-0.41835 m 0.825102,0.82847 -0.420687,-0.41012 m 0.857644,0.81202 -0.436957,-0.4019 m 0.890185,0.79557 -0.453228,-0.39367 m 0.922727,0.77911 -0.469499,-0.38544 m 0.95527,0.76266 -0.485771,-0.37722 m 0.987812,0.74621 -0.502041,-0.36899 m 1.020353,0.72975 -0.518312,-0.36076 m 1.052895,0.71329 -0.534583,-0.35253 m 1.085437,0.69683 -0.550854,-0.3443 m 1.117979,0.68038 -0.567125,-0.33608 m 1.150521,0.66393 -0.583396,-0.32785 m 1.183062,0.64748 -0.599666,-0.31963 m 1.215604,0.63102 -0.615938,-0.31139 m 1.248147,0.61456 -0.632209,-0.30317 m 1.280688,0.59811 -0.648479,-0.29494 m 1.31323,0.58166 -0.664751,-0.28672 m 1.345772,0.5652 -0.681021,-0.27848 m 1.378314,0.54874 -0.697293,-0.27026 m 1.410856,0.5323 -0.713563,-0.26204 m 2.189503,0.76142 -1.47594,-0.49938 m 3.016963,0.96585 -1.541023,-0.46647 m 3.14713,0.90003 -1.606107,-0.43356 m 3.277298,0.83422 -1.671191,-0.40066 m 3.407466,0.7684 -1.736275,-0.36774 m 3.537634,0.70258 -1.801359,-0.33484 m 3.667801,0.63676 -1.866442,-0.30192 m 3.797968,0.57094 -1.931526,-0.26902 m 3.928136,0.50512 -1.99661,-0.2361 m 3.993219,0 -1.996609,0.2361 m 3.928135,-0.50512 -1.931526,0.26902 m 3.797969,-0.57094 -1.866443,0.30192 m 3.667801,-0.63676 -1.801358,0.33484 m 3.537633,-0.70258 -1.736275,0.36774 m 3.407466,-0.7684 -1.671191,0.40066 m 3.277298,-0.83422 -1.606107,0.43356 m 3.14713,-0.90003 -1.541023,0.46647 m 3.016963,-0.96585 -1.47594,0.49938 m 2.189503,-0.76142 -0.713563,0.26204 m 1.410856,-0.5323 -0.697293,0.27026 m 1.378314,-0.54874 -0.681021,0.27848 m 1.345772,-0.5652 -0.664751,0.28672 m 1.31323,-0.58166 -0.648479,0.29494 m 1.280688,-0.59811 -0.632209,0.30317 m 1.248147,-0.61456 -0.615938,0.31139 m 1.215605,-0.63102 -0.599667,0.31963 m 1.183062,-0.64748 -0.583395,0.32785 m 1.15052,-0.66393 -0.567125,0.33608 m 1.117979,-0.68038 -0.550854,0.3443 m 1.085437,-0.69683 -0.534583,0.35253 m 1.052895,-0.71329 -0.518312,0.36076 m 1.020354,-0.72975 -0.502042,0.36899 m 0.987812,-0.74621 -0.48577,0.37722 m 0.955269,-0.76266 -0.469499,0.38544 m 0.922727,-0.77911 -0.453228,0.39367 m 0.890189,-0.79557 -0.436961,0.4019 m 0.857641,-0.81202 -0.42068,0.41012 m 0.8251,-0.82847 -0.40442,0.41835 m 0.79256,-0.84493 -0.38814,0.42658 m 0.76002,-0.86139 -0.37188,0.43481 m 0.72748,-0.87784 -0.3556,0.44303 m 0.69493,-0.89429 -0.33933,0.45126 m 0.66239,-0.91075 -0.32306,0.45949 m 0.62985,-0.92721 -0.30679,0.46772 m 0.59731,-0.94366 -0.29052,0.47594 m 0.56477,-0.96011 -0.27425,0.48417 m 0.53222,-0.97657 -0.25797,0.4924 m 0.49968,-0.99303 -0.24171,0.50063 m 0.46715,-1.00948 -0.22544,0.50885 m 0.4346,-1.02593 -0.20916,0.51708 m 0.40205,-1.04239 -0.19289,0.52531 m 0.36952,-1.05884 -0.17663,0.53353 m 0.33698,-1.07529 -0.16035,0.54176 m 0.30443,-1.09175 -0.14408,0.54999 m 0.27189,-1.10821 -0.12781,0.55822 m 0.23935,-1.12466 -0.11154,0.56644 m 0.2068,-1.14112 -0.0953,0.57468 m 0.1743,-1.15758 -0.079,0.5829 m 0.14172,-1.17402 -0.0627,0.59112 m 0.10916,-1.19048 -0.0465,0.59936 m 0.0767,-1.20694 -0.0302,0.60758 m 0.0441,-1.22339 -0.0139,0.61581 m 0.0115,-1.23984 0.002,0.62403 m -0.0206,-1.25629 0.0186,0.63226 m -0.71759,-8.45725 0.69899,7.82499 M 43.2515,413.06784 h 61.82195" />
    <path
       id="path1752"
       style="fill:none;stroke:#4c0000"
       d="m 490.773,458.29421 0.66404,-7.43373 m -0.68174,8.03438 0.0177,-0.60065 m -0.0199,1.19349 0.002,-0.59284 m 0.0112,1.17786 -0.0132,-0.58502 m 0.0419,1.16222 -0.0287,-0.5772 m 0.0728,1.14659 -0.0441,-0.56939 m 0.10369,1.13096 -0.0596,-0.56157 m 0.13464,1.11532 -0.075,-0.55375 m 0.16551,1.09969 -0.0905,-0.54594 m 0.19646,1.08406 -0.10596,-0.53812 m 0.22738,1.06843 -0.12142,-0.53031 m 0.25829,1.0528 -0.13687,-0.52249 m 0.28921,1.03716 -0.15234,-0.51467 m 0.32013,1.02153 -0.16779,-0.50686 m 0.35104,1.0059 -0.18325,-0.49904 m 0.38195,0.99027 -0.1987,-0.49123 m 0.41287,0.97464 -0.21417,-0.48341 m 0.44379,0.959 -0.22962,-0.47559 m 0.4747,0.94337 -0.24508,-0.46778 m 0.50561,0.92774 -0.26053,-0.45996 m 0.53652,0.91211 -0.27599,-0.45215 m 0.56744,0.89648 -0.29145,-0.44433 m 0.59836,0.88084 -0.30691,-0.43651 m 0.62928,0.86521 -0.32237,-0.4287 m 0.66019,0.84958 -0.33782,-0.42088 m 0.6911,0.83395 -0.35328,-0.41307 m 0.72202,0.81832 -0.36874,-0.40525 m 0.75293,0.80268 -0.38419,-0.39743 m 0.78384,0.78705 -0.39965,-0.38962 m 0.81476,0.77142 -0.41511,-0.3818 m 0.84568,0.75579 -0.43057,-0.37399 m 0.87659,0.74016 -0.44602,-0.36617 m 0.90751,0.72452 -0.46149,-0.35835 m 0.93843,0.70889 -0.47694,-0.35054 m 0.96933,0.69327 -0.49239,-0.34273 m 1.00025,0.67763 -0.50786,-0.3349 m 1.03117,0.66199 -0.52331,-0.32709 m 1.06208,0.64637 -0.53877,-0.31928 m 1.09299,0.63073 -0.55422,-0.31145 m 1.12391,0.6151 -0.56969,-0.30365 m 1.15483,0.59947 -0.58514,-0.29582 m 1.18573,0.58383 -0.60059,-0.28801 m 1.21665,0.56821 -0.61606,-0.2802 m 1.24757,0.55258 -0.63151,-0.27238 m 1.27848,0.53694 -0.64697,-0.26456 m 1.3094,0.52131 -0.66243,-0.25675 m 1.34032,0.50568 -0.67789,-0.24893 m 2.08003,0.72334 -1.40214,-0.47441 m 2.86611,0.91756 -1.46397,-0.44315 m 2.98977,0.85503 -1.5258,-0.41188 m 3.11343,0.7925 -1.58763,-0.38062 m 3.2371,0.72998 -1.64947,-0.34936 m 3.36076,0.66745 -1.71129,-0.31809 m 3.48441,0.60492 -1.77312,-0.28683 m 3.60807,0.5424 -1.83495,-0.25557 m 3.73173,0.47987 -1.89678,-0.2243 m 3.79355,0 -1.89677,0.2243 m 3.73172,-0.47987 -1.83495,0.25557 m 3.60807,-0.5424 -1.77312,0.28683 m 3.48441,-0.60492 -1.71129,0.31809 m 3.36076,-0.66745 -1.64947,0.34936 m 3.2371,-0.72998 -1.58763,0.38062 m 3.11343,-0.7925 -1.5258,0.41188 m 2.98977,-0.85503 -1.46397,0.44315 m 2.86611,-0.91756 -1.40214,0.47441 m 2.08003,-0.72334 -0.67789,0.24893 m 1.34032,-0.50568 -0.66243,0.25675 m 1.3094,-0.52131 -0.64697,0.26456 m 1.27848,-0.53694 -0.63151,0.27238 m 1.24757,-0.55258 -0.61606,0.2802 m 1.21665,-0.56821 -0.60059,0.28801 m 1.18573,-0.58383 -0.58514,0.29582 m 1.15483,-0.59947 -0.56969,0.30365 m 1.12391,-0.6151 -0.55422,0.31145 m 1.09299,-0.63073 -0.53877,0.31928 m 1.06208,-0.64637 -0.52331,0.32709 m 1.03117,-0.66199 -0.50786,0.3349 m 1.00025,-0.67763 -0.49239,0.34273 m 0.96933,-0.69327 -0.47694,0.35054 m 0.93843,-0.70889 -0.46149,0.35835 m 0.90751,-0.72452 -0.44602,0.36617 m 0.87659,-0.74016 -0.43057,0.37399 m 0.84568,-0.75579 -0.41511,0.3818 m 0.81476,-0.77142 -0.39965,0.38962 m 0.78384,-0.78705 -0.38419,0.39743 m 0.75293,-0.80268 -0.36874,0.40525 m 0.72202,-0.81832 -0.35328,0.41307 m 0.6911,-0.83395 -0.33782,0.42088 m 0.66019,-0.84958 -0.32237,0.4287 m 0.62928,-0.86521 -0.30691,0.43651 m 0.59836,-0.88084 -0.29145,0.44433 m 0.56744,-0.89648 -0.27599,0.45215 m 0.53652,-0.91211 -0.26053,0.45996 m 0.50561,-0.92774 -0.24508,0.46778 m 0.4747,-0.94337 -0.22962,0.47559 m 0.44379,-0.959 -0.21417,0.48341 m 0.41287,-0.97464 -0.1987,0.49123 m 0.38195,-0.99027 -0.18325,0.49904 m 0.35104,-1.0059 -0.16779,0.50686 m 0.32013,-1.02153 -0.15234,0.51467 m 0.28921,-1.03716 -0.13687,0.52249 m 0.25829,-1.0528 -0.12142,0.53031 m 0.22738,-1.06843 -0.10596,0.53812 m 0.19647,-1.08406 -0.0905,0.54594 m 0.16554,-1.09969 -0.075,0.55375 m 0.13459,-1.11532 -0.0596,0.56157 m 0.10373,-1.13096 -0.0441,0.56939 m 0.0728,-1.14659 -0.0287,0.5772 m 0.0419,-1.16222 -0.0132,0.58502 m 0.011,-1.17786 0.002,0.59284 m -0.0197,-1.19349 0.0177,0.60065 m -0.68174,-8.03438 0.66404,7.43373 m -59.39489,-7.43373 h 58.73085" />
    <text
       xml:space="preserve"
       style="font-style:normal;font-weight:normal;font-size:40px;line-height:1.25;font-family:sans-serif;fill:#000000;fill-opacity:1;stroke:none"
       x="45.321129"
       y="388.1348"
       id="text1777"><tspan
         sodipodi:role="line"
         id="tspan1775"
         x="45.321129"
         y="388.1348">100%</tspan></text>
    <text
       xml:space="preserve"
       style="font-style:normal;font-weight:normal;font-size:40px;line-height:1.25;font-family:sans-serif;fill:#000000;fill-opacity:1;stroke:none"
       x="192.90532"
       y="428.22656"
       id="text1781"><tspan
         sodipodi:role="line"
         id="tspan1779"
         x="192.90532"
         y="428.22656">99%</tspan></text>
    <text
       xml:space="preserve"
       style="font-style:normal;font-weight:normal;font-size:40px;line-height:1.25;font-family:sans-serif;fill:#000000;fill-opacity:1;stroke:none"
       x="346.2999"
       y="423.57825"
       id="text1785"><tspan
         sodipodi:role="line"
         id="tspan1783"
         x="346.2999"
         y="423.57825">98%</tspan></text>
    <text
       xml:space="preserve"
       style="font-style:normal;font-weight:normal;font-size:40px;line-height:1.25;font-family:sans-serif;fill:#000000;fill-opacity:1;stroke:none"
       x="525.84131"
       y="421.83514"
       id="text1789"><tspan
         sodipodi:role="line"
         id="tspan1787"
         x="525.84131"
         y="421.83514">95%</tspan></text>
    <path
       id="path1074-0"
       style="fill:none;stroke:#4c0000;stroke-width:0.13333333;stroke-miterlimit:4;stroke-dasharray:none"
       d="m 366.50375,527.68199 0.68501,-7.66849 m -0.70326,8.28811 0.0183,-0.61962 m -0.0206,1.23117 0.002,-0.61155 m 0.0116,1.21505 -0.0136,-0.6035 m 0.0432,1.19893 -0.0296,-0.59543 m 0.0751,1.18279 -0.0455,-0.58736 m 0.10697,1.16667 -0.0615,-0.57931 m 0.13891,1.15055 -0.0774,-0.57124 m 0.17077,1.13442 -0.0934,-0.56318 m 0.2027,1.11829 -0.1093,-0.55511 m 0.23456,1.10216 -0.12526,-0.54705 m 0.26646,1.08604 -0.1412,-0.53899 m 0.29834,1.06992 -0.15714,-0.53093 m 0.33023,1.05379 -0.17309,-0.52286 m 0.36213,1.03767 -0.18904,-0.51481 m 0.39402,1.02154 -0.20498,-0.50673 m 0.4259,1.00541 -0.22092,-0.49868 m 0.45779,0.98929 -0.23687,-0.49061 m 0.48969,0.97316 -0.25282,-0.48255 m 0.52159,0.95704 -0.26877,-0.47449 m 0.55347,0.94092 -0.2847,-0.46643 m 0.58536,0.92479 -0.30066,-0.45836 m 0.61726,0.90866 -0.3166,-0.4503 m 0.64914,0.89253 -0.33254,-0.44223 m 0.68103,0.8764 -0.34849,-0.43417 m 0.71293,0.86029 -0.36444,-0.42612 m 0.74482,0.84416 -0.38038,-0.41804 m 0.77671,0.82803 -0.39633,-0.40999 m 0.8086,0.81191 -0.41227,-0.40192 m 0.84049,0.79578 -0.42822,-0.39386 m 0.87238,0.77966 -0.44416,-0.3858 m 0.90427,0.76353 -0.46011,-0.37773 m 0.93617,0.7474 -0.47606,-0.36967 m 0.96806,0.73128 -0.492,-0.36161 m 0.99994,0.71515 -0.50794,-0.35354 m 1.03183,0.69903 -0.52389,-0.34549 m 1.06373,0.6829 -0.53984,-0.33741 m 1.09562,0.66677 -0.55578,-0.32936 m 1.12751,0.65066 -0.57173,-0.3213 m 1.1594,0.63453 -0.58767,-0.31323 m 1.19129,0.61839 -0.60362,-0.30516 m 1.22319,0.60227 -0.61957,-0.29711 m 1.25508,0.58615 -0.63551,-0.28904 m 1.28696,0.57002 -0.65145,-0.28098 m 1.31885,0.5539 -0.6674,-0.27292 m 1.35075,0.53777 -0.68335,-0.26485 m 1.38264,0.52164 -0.69929,-0.25679 m 2.14571,0.74619 -1.44642,-0.4894 m 2.95663,0.94654 -1.51021,-0.45714 m 3.08419,0.88203 -1.57398,-0.42489 m 3.21175,0.81753 -1.63777,-0.39264 m 3.33932,0.75303 -1.70155,-0.36039 m 3.46688,0.68853 -1.76533,-0.32814 m 3.59444,0.62403 -1.82911,-0.29589 m 3.72201,0.55952 -1.8929,-0.26363 m 3.84958,0.49502 -1.95668,-0.23139 m 3.91335,0 -1.95667,0.23139 m 3.84957,-0.49502 -1.8929,0.26363 m 3.72201,-0.55952 -1.82911,0.29589 m 3.59444,-0.62403 -1.76533,0.32814 m 3.46688,-0.68853 -1.70155,0.36039 m 3.33932,-0.75303 -1.63777,0.39264 m 3.21176,-0.81753 -1.57399,0.42489 m 3.08419,-0.88203 -1.5102,0.45714 m 2.95662,-0.94654 -1.44642,0.4894 m 2.14571,-0.74619 -0.69929,0.25679 m 1.38264,-0.52164 -0.68335,0.26485 m 1.35075,-0.53777 -0.6674,0.27292 m 1.31885,-0.5539 -0.65145,0.28098 m 1.28696,-0.57002 -0.63551,0.28904 m 1.25508,-0.58615 -0.61957,0.29711 m 1.22319,-0.60227 -0.60362,0.30516 m 1.19129,-0.61839 -0.58767,0.31323 m 1.1594,-0.63453 -0.57173,0.3213 m 1.12751,-0.65066 -0.55578,0.32936 m 1.09562,-0.66677 -0.53984,0.33741 m 1.06373,-0.6829 -0.52389,0.34549 m 1.03184,-0.69903 -0.50795,0.35354 m 0.99995,-0.71515 -0.492,0.36161 m 0.96805,-0.73128 -0.47605,0.36967 m 0.93616,-0.7474 -0.46011,0.37773 m 0.90427,-0.76353 -0.44416,0.3858 m 0.87238,-0.77966 -0.42822,0.39386 m 0.84049,-0.79578 -0.41227,0.40192 m 0.8086,-0.81191 -0.39633,0.40999 m 0.77671,-0.82803 -0.38038,0.41804 m 0.74482,-0.84416 -0.36444,0.42612 m 0.71293,-0.86029 -0.34849,0.43417 m 0.68104,-0.8764 -0.33255,0.44223 m 0.64914,-0.89253 -0.31659,0.4503 m 0.61725,-0.90866 -0.30066,0.45836 m 0.58537,-0.92479 -0.28471,0.46643 m 0.55347,-0.94092 -0.26876,0.47449 m 0.52158,-0.95704 -0.25282,0.48255 m 0.48969,-0.97316 -0.23687,0.49061 m 0.4578,-0.98929 -0.22093,0.49868 m 0.42591,-1.00541 -0.20498,0.50673 m 0.39401,-1.02154 -0.18903,0.51481 m 0.36212,-1.03767 -0.17309,0.52286 m 0.33024,-1.05379 -0.15715,0.53093 m 0.29835,-1.06992 -0.1412,0.53899 m 0.26645,-1.08604 -0.12525,0.54705 m 0.23456,-1.10216 -0.10931,0.55511 m 0.20267,-1.11829 -0.0934,0.56318 m 0.17082,-1.13442 -0.0774,0.57124 m 0.13887,-1.15055 -0.0615,0.57931 m 0.10702,-1.16667 -0.0455,0.58736 m 0.0751,-1.18279 -0.0296,0.59543 m 0.0432,-1.19893 -0.0136,0.6035 m 0.0113,-1.21505 0.002,0.61155 m -0.0203,-1.23117 0.0183,0.61962 m -0.70331,-8.28811 0.68501,7.66849 m -61.27052,-7.66849 h 60.58551" />
    <path
       id="path1300-2"
       style="fill:none;stroke:#4c0000;stroke-width:0.13333333;stroke-miterlimit:4;stroke-dasharray:none"
       d="m 190.50292,527.44321 0.692,-7.74674 m -0.71044,8.37268 0.0184,-0.62594 m -0.0207,1.24373 0.002,-0.61779 m 0.0118,1.22744 -0.0138,-0.60965 m 0.0437,1.21116 -0.0299,-0.60151 m 0.0759,1.19487 -0.046,-0.59336 m 0.1081,1.17857 -0.0621,-0.58521 m 0.1403,1.16228 -0.0782,-0.57707 m 0.17252,1.146 -0.0943,-0.56893 m 0.20472,1.12971 -0.11042,-0.56078 m 0.23695,1.11341 -0.12653,-0.55263 m 0.26917,1.09712 -0.14264,-0.54449 m 0.30139,1.08084 -0.15875,-0.53635 m 0.33361,1.06455 -0.17486,-0.5282 m 0.36582,1.04825 -0.19096,-0.52005 m 0.39803,1.03196 -0.20707,-0.51191 m 0.43025,1.01567 -0.22318,-0.50376 m 0.46247,0.99938 -0.23929,-0.49562 m 0.49469,0.9831 -0.2554,-0.48748 m 0.52691,0.96681 -0.27151,-0.47933 m 0.55912,0.95051 -0.28761,-0.47118 m 0.59133,0.93422 -0.30372,-0.46304 m 0.62355,0.91793 -0.31983,-0.45489 m 0.65577,0.90164 -0.33594,-0.44675 m 0.68799,0.88536 -0.35205,-0.43861 m 0.7202,0.86906 -0.36815,-0.43045 m 0.75241,0.85277 -0.38426,-0.42232 m 0.78464,0.83649 -0.40038,-0.41417 m 0.81686,0.82019 -0.41648,-0.40602 m 0.84906,0.8039 -0.43258,-0.39788 m 0.88128,0.78761 -0.4487,-0.38973 m 0.9135,0.77132 -0.4648,-0.38159 m 0.94572,0.75503 -0.48092,-0.37344 m 0.97794,0.73874 -0.49702,-0.3653 m 1.01015,0.72245 -0.51313,-0.35715 m 1.04236,0.70616 -0.52923,-0.34901 m 1.07458,0.68987 -0.54535,-0.34086 m 1.1068,0.67358 -0.56145,-0.33272 m 1.13901,0.65729 -0.57756,-0.32457 m 1.17123,0.641 -0.59367,-0.31643 m 1.20345,0.62471 -0.60978,-0.30828 m 1.23567,0.60842 -0.62589,-0.30014 m 1.26788,0.59213 -0.64199,-0.29199 m 1.3001,0.57584 -0.65811,-0.28385 m 1.33232,0.55955 -0.67421,-0.2757 m 1.36453,0.54326 -0.69032,-0.26756 m 1.39675,0.52697 -0.70643,-0.25941 m 2.16761,0.7538 -1.46118,-0.49439 m 2.98679,0.95619 -1.52561,-0.4618 m 3.11566,0.89103 -1.59005,-0.42923 m 3.24452,0.82588 -1.65447,-0.39665 m 3.37339,0.76071 -1.71892,-0.36406 m 3.50226,0.69555 -1.78334,-0.33149 m 3.63112,0.6304 -1.84778,-0.29891 m 3.75999,0.56523 -1.91221,-0.26632 m 3.88885,0.50007 -1.97664,-0.23375 m 3.95329,0 -1.97665,0.23375 m 3.88886,-0.50007 -1.91221,0.26632 m 3.75999,-0.56523 -1.84778,0.29891 m 3.63112,-0.6304 -1.78334,0.33149 m 3.50225,-0.69555 -1.71891,0.36406 m 3.37339,-0.76071 -1.65448,0.39665 m 3.24453,-0.82588 -1.59005,0.42923 m 3.11566,-0.89103 -1.52561,0.4618 m 2.98679,-0.95619 -1.46118,0.49439 m 2.16761,-0.7538 -0.70643,0.25941 m 1.39675,-0.52697 -0.69032,0.26756 m 1.36453,-0.54326 -0.67421,0.2757 m 1.33231,-0.55955 -0.6581,0.28385 m 1.3001,-0.57584 -0.642,0.29199 m 1.26788,-0.59213 -0.62588,0.30014 m 1.23566,-0.60842 -0.60978,0.30828 m 1.20345,-0.62471 -0.59367,0.31643 m 1.17123,-0.641 -0.57756,0.32457 m 1.13902,-0.65729 -0.56146,0.33272 m 1.1068,-0.67358 -0.54534,0.34086 m 1.07458,-0.68987 -0.52924,0.34901 m 1.04237,-0.70616 -0.51313,0.35715 m 1.01015,-0.72245 -0.49702,0.3653 m 0.97793,-0.73874 -0.48091,0.37344 m 0.94572,-0.75503 -0.46481,0.38159 m 0.9135,-0.77132 -0.44869,0.38973 m 0.88128,-0.78761 -0.43259,0.39788 m 0.84907,-0.8039 -0.41648,0.40602 m 0.81685,-0.82019 -0.40037,0.41417 m 0.78463,-0.83649 -0.38426,0.42232 m 0.75242,-0.85277 -0.36816,0.43045 m 0.72021,-0.86906 -0.35205,0.43861 m 0.68798,-0.88536 -0.33593,0.44675 m 0.65576,-0.90164 -0.31983,0.45489 m 0.62356,-0.91793 -0.30373,0.46304 m 0.59134,-0.93422 -0.28761,0.47118 m 0.55912,-0.95051 -0.27151,0.47933 m 0.5269,-0.96681 -0.25539,0.48748 m 0.49468,-0.9831 -0.23929,0.49562 m 0.46247,-0.99938 -0.22318,0.50376 m 0.43026,-1.01567 -0.20708,0.51191 m 0.39804,-1.03196 -0.19096,0.52005 m 0.36582,-1.04825 -0.17486,0.5282 m 0.3336,-1.06455 -0.15874,0.53635 m 0.30138,-1.08084 -0.14264,0.54449 m 0.26917,-1.09712 -0.12653,0.55263 m 0.23696,-1.11341 -0.11043,0.56078 m 0.20474,-1.12971 -0.0943,0.56893 m 0.17251,-1.146 -0.0782,0.57707 m 0.1403,-1.16228 -0.0621,0.58521 m 0.10809,-1.17857 -0.046,0.59336 m 0.0759,-1.19487 -0.0299,0.60151 m 0.0437,-1.21116 -0.0138,0.60965 m 0.0115,-1.22744 0.002,0.61779 m -0.0204,-1.24373 0.0184,0.62594 m -0.7104,-8.37268 0.692,7.74674 m -61.89573,-7.74674 h 61.20373" />
    <path
       id="path1526-1"
       style="fill:none;stroke:#4c0000;stroke-width:0.13333333;stroke-miterlimit:4;stroke-dasharray:none"
       d="m 48.001738,490.99696 0.69898,-7.82499 m -0.71761,8.45725 0.0186,-0.63226 m -0.021,1.25629 0.002,-0.62403 m 0.0115,1.23984 -0.0139,-0.61581 m 0.0441,1.22339 -0.0302,-0.60758 m 0.0766,1.20694 -0.0464,-0.59936 m 0.10917,1.19048 -0.0627,-0.59112 m 0.14173,1.17402 -0.079,-0.5829 m 0.17427,1.15758 -0.0953,-0.57468 m 0.2068,1.14112 -0.11153,-0.56644 m 0.23934,1.12466 -0.12781,-0.55822 m 0.27189,1.10821 -0.14408,-0.54999 m 0.30444,1.09175 -0.16036,-0.54176 m 0.33698,1.07529 -0.17662,-0.53353 m 0.36951,1.05884 -0.19289,-0.52531 m 0.40206,1.04239 -0.20917,-0.51708 m 0.4346,1.02593 -0.22543,-0.50885 m 0.46714,1.00948 -0.24171,-0.50063 m 0.49968,0.99303 -0.25797,-0.4924 m 0.53222,0.97657 -0.27425,-0.48417 m 0.56477,0.96011 -0.29052,-0.47594 m 0.59731,0.94366 -0.30679,-0.46772 m 0.62985,0.92721 -0.32306,-0.45949 m 0.66239,0.91075 -0.33933,-0.45126 m 0.69494,0.89429 -0.35561,-0.44303 m 0.72748,0.87784 -0.37187,-0.43481 m 0.76001,0.86139 -0.38814,-0.42658 m 0.79256,0.84493 -0.40442,-0.41835 m 0.82511,0.82847 -0.42069,-0.41012 m 0.85764,0.81202 -0.43695,-0.4019 m 0.89018,0.79557 -0.45323,-0.39367 m 0.92273,0.77911 -0.4695,-0.38544 m 0.95527,0.76266 -0.48577,-0.37722 m 0.98781,0.74621 -0.50204,-0.36899 m 1.02035,0.72975 -0.51831,-0.36076 m 1.0529,0.71329 -0.53459,-0.35253 m 1.08544,0.69683 -0.55085,-0.3443 m 1.11798,0.68038 -0.56713,-0.33608 m 1.15052,0.66393 -0.58339,-0.32785 m 1.18306,0.64748 -0.59967,-0.31963 m 1.21561,0.63102 -0.61594,-0.31139 m 1.24814,0.61456 -0.6322,-0.30317 m 1.28068,0.59811 -0.64848,-0.29494 m 1.31323,0.58166 -0.66475,-0.28672 m 1.34578,0.5652 -0.68103,-0.27848 m 1.37832,0.54874 -0.69729,-0.27026 m 1.41085,0.5323 -0.71356,-0.26204 m 2.1895,0.76142 -1.47594,-0.49938 m 3.01696,0.96585 -1.54102,-0.46647 m 3.14713,0.90003 -1.60611,-0.43356 m 3.2773,0.83422 -1.67119,-0.40066 m 3.40747,0.7684 -1.73628,-0.36774 m 3.53764,0.70258 -1.80136,-0.33484 m 3.6678,0.63676 -1.86644,-0.30192 m 3.79796,0.57094 -1.93152,-0.26902 m 3.92813,0.50512 -1.99661,-0.2361 m 3.99322,0 -1.99661,0.2361 m 3.92814,-0.50512 -1.93153,0.26902 m 3.79797,-0.57094 -1.86644,0.30192 m 3.6678,-0.63676 -1.80136,0.33484 m 3.53764,-0.70258 -1.73628,0.36774 m 3.40747,-0.7684 -1.67119,0.40066 m 3.27729,-0.83422 -1.6061,0.43356 m 3.14713,-0.90003 -1.54103,0.46647 m 3.01697,-0.96585 -1.47594,0.49938 m 2.1895,-0.76142 -0.71356,0.26204 m 1.41085,-0.5323 -0.69729,0.27026 m 1.37831,-0.54874 -0.68102,0.27848 m 1.34577,-0.5652 -0.66475,0.28672 m 1.31323,-0.58166 -0.64848,0.29494 m 1.28069,-0.59811 -0.63221,0.30317 m 1.24815,-0.61456 -0.61594,0.31139 m 1.215612,-0.63102 -0.599672,0.31963 m 1.183062,-0.64748 -0.58339,0.32785 m 1.15052,-0.66393 -0.56713,0.33608 m 1.11798,-0.68038 -0.55085,0.3443 m 1.08543,-0.69683 -0.53458,0.35253 m 1.0529,-0.71329 -0.51832,0.36076 m 1.02036,-0.72975 -0.50204,0.36899 m 0.98781,-0.74621 -0.48577,0.37722 m 0.95527,-0.76266 -0.4695,0.38544 m 0.92273,-0.77911 -0.45323,0.39367 m 0.89019,-0.79557 -0.43696,0.4019 m 0.85764,-0.81202 -0.42068,0.41012 m 0.8251,-0.82847 -0.40442,0.41835 m 0.79256,-0.84493 -0.38814,0.42658 m 0.76002,-0.86139 -0.37188,0.43481 m 0.72748,-0.87784 -0.3556,0.44303 m 0.69493,-0.89429 -0.33933,0.45126 m 0.66239,-0.91075 -0.32306,0.45949 m 0.62985,-0.92721 -0.30679,0.46772 m 0.59731,-0.94366 -0.29052,0.47594 m 0.56477,-0.96011 -0.27425,0.48417 m 0.53222,-0.97657 -0.25797,0.4924 m 0.49968,-0.99303 -0.24171,0.50063 m 0.46715,-1.00948 -0.22544,0.50885 m 0.4346,-1.02593 -0.20916,0.51708 m 0.40205,-1.04239 -0.19289,0.52531 m 0.36952,-1.05884 -0.17663,0.53353 m 0.33698,-1.07529 -0.16035,0.54176 m 0.30443,-1.09175 -0.14408,0.54999 m 0.27189,-1.10821 -0.12781,0.55822 m 0.23935,-1.12466 -0.11154,0.56644 m 0.2068,-1.14112 -0.0953,0.57468 m 0.1743,-1.15758 -0.079,0.5829 m 0.14172,-1.17402 -0.0627,0.59112 m 0.10916,-1.19048 -0.0465,0.59936 m 0.0767,-1.20694 -0.0302,0.60758 m 0.0441,-1.22339 -0.0139,0.61581 m 0.0115,-1.23984 0.002,0.62403 m -0.0206,-1.25629 0.0186,0.63226 m -0.71759,-8.45725 0.69899,7.82499 m -62.520922,-7.82499 h 61.821952" />
    <path
       id="path1752-4"
       style="fill:none;stroke:#4c0000;stroke-width:0.13333333;stroke-miterlimit:4;stroke-dasharray:none"
       d="m 496.22222,528.39834 0.66404,-7.43373 m -0.68174,8.03438 0.0177,-0.60065 m -0.0199,1.19349 0.002,-0.59284 m 0.0112,1.17786 -0.0132,-0.58502 m 0.0419,1.16222 -0.0287,-0.5772 m 0.0728,1.14659 -0.0441,-0.56939 m 0.10369,1.13096 -0.0596,-0.56157 m 0.13464,1.11532 -0.075,-0.55375 m 0.16551,1.09969 -0.0905,-0.54594 m 0.19646,1.08406 -0.10596,-0.53812 m 0.22738,1.06843 -0.12142,-0.53031 m 0.25829,1.0528 -0.13687,-0.52249 m 0.28921,1.03716 -0.15234,-0.51467 m 0.32013,1.02153 -0.16779,-0.50686 m 0.35104,1.0059 -0.18325,-0.49904 m 0.38195,0.99027 -0.1987,-0.49123 m 0.41287,0.97464 -0.21417,-0.48341 m 0.44379,0.959 -0.22962,-0.47559 m 0.4747,0.94337 -0.24508,-0.46778 m 0.50561,0.92774 -0.26053,-0.45996 m 0.53652,0.91211 -0.27599,-0.45215 m 0.56744,0.89648 -0.29145,-0.44433 m 0.59836,0.88084 -0.30691,-0.43651 m 0.62928,0.86521 -0.32237,-0.4287 m 0.66019,0.84958 -0.33782,-0.42088 m 0.6911,0.83395 -0.35328,-0.41307 m 0.72202,0.81832 -0.36874,-0.40525 m 0.75293,0.80268 -0.38419,-0.39743 m 0.78384,0.78705 -0.39965,-0.38962 m 0.81476,0.77142 -0.41511,-0.3818 m 0.84568,0.75579 -0.43057,-0.37399 m 0.87659,0.74016 -0.44602,-0.36617 m 0.90751,0.72452 -0.46149,-0.35835 m 0.93843,0.70889 -0.47694,-0.35054 m 0.96933,0.69327 -0.49239,-0.34273 m 1.00025,0.67763 -0.50786,-0.3349 m 1.03117,0.66199 -0.52331,-0.32709 m 1.06208,0.64637 -0.53877,-0.31928 m 1.09299,0.63073 -0.55422,-0.31145 m 1.12391,0.6151 -0.56969,-0.30365 m 1.15483,0.59947 -0.58514,-0.29582 m 1.18573,0.58383 -0.60059,-0.28801 m 1.21665,0.56821 -0.61606,-0.2802 m 1.24757,0.55258 -0.63151,-0.27238 m 1.27848,0.53694 -0.64697,-0.26456 m 1.3094,0.52131 -0.66243,-0.25675 m 1.34032,0.50568 -0.67789,-0.24893 m 2.08003,0.72334 -1.40214,-0.47441 m 2.86611,0.91756 -1.46397,-0.44315 m 2.98977,0.85503 -1.5258,-0.41188 m 3.11343,0.7925 -1.58763,-0.38062 m 3.2371,0.72998 -1.64947,-0.34936 m 3.36076,0.66745 -1.71129,-0.31809 m 3.48441,0.60492 -1.77312,-0.28683 m 3.60807,0.5424 -1.83495,-0.25557 m 3.73173,0.47987 -1.89678,-0.2243 m 3.79355,0 -1.89677,0.2243 m 3.73172,-0.47987 -1.83495,0.25557 m 3.60807,-0.5424 -1.77312,0.28683 m 3.48441,-0.60492 -1.71129,0.31809 m 3.36076,-0.66745 -1.64947,0.34936 m 3.2371,-0.72998 -1.58763,0.38062 m 3.11343,-0.7925 -1.5258,0.41188 m 2.98977,-0.85503 -1.46397,0.44315 m 2.86611,-0.91756 -1.40214,0.47441 m 2.08003,-0.72334 -0.67789,0.24893 m 1.34032,-0.50568 -0.66243,0.25675 m 1.3094,-0.52131 -0.64697,0.26456 m 1.27848,-0.53694 -0.63151,0.27238 m 1.24757,-0.55258 -0.61606,0.2802 m 1.21665,-0.56821 -0.60059,0.28801 m 1.18573,-0.58383 -0.58514,0.29582 m 1.15483,-0.59947 -0.56969,0.30365 m 1.12391,-0.6151 -0.55422,0.31145 m 1.09299,-0.63073 -0.53877,0.31928 m 1.06208,-0.64637 -0.52331,0.32709 m 1.03117,-0.66199 -0.50786,0.3349 m 1.00025,-0.67763 -0.49239,0.34273 m 0.96933,-0.69327 -0.47694,0.35054 m 0.93843,-0.70889 -0.46149,0.35835 m 0.90751,-0.72452 -0.44602,0.36617 m 0.87659,-0.74016 -0.43057,0.37399 m 0.84568,-0.75579 -0.41511,0.3818 m 0.81476,-0.77142 -0.39965,0.38962 m 0.78384,-0.78705 -0.38419,0.39743 m 0.75293,-0.80268 -0.36874,0.40525 m 0.72202,-0.81832 -0.35328,0.41307 m 0.6911,-0.83395 -0.33782,0.42088 m 0.66019,-0.84958 -0.32237,0.4287 m 0.62928,-0.86521 -0.30691,0.43651 m 0.59836,-0.88084 -0.29145,0.44433 m 0.56744,-0.89648 -0.27599,0.45215 m 0.53652,-0.91211 -0.26053,0.45996 m 0.50561,-0.92774 -0.24508,0.46778 m 0.4747,-0.94337 -0.22962,0.47559 m 0.44379,-0.959 -0.21417,0.48341 m 0.41287,-0.97464 -0.1987,0.49123 m 0.38195,-0.99027 -0.18325,0.49904 m 0.35104,-1.0059 -0.16779,0.50686 m 0.32013,-1.02153 -0.15234,0.51467 m 0.28921,-1.03716 -0.13687,0.52249 m 0.25829,-1.0528 -0.12142,0.53031 m 0.22738,-1.06843 -0.10596,0.53812 m 0.19647,-1.08406 -0.0905,0.54594 m 0.16554,-1.09969 -0.075,0.55375 m 0.13459,-1.11532 -0.0596,0.56157 m 0.10373,-1.13096 -0.0441,0.56939 m 0.0728,-1.14659 -0.0287,0.5772 m 0.0419,-1.16222 -0.0132,0.58502 m 0.011,-1.17786 0.002,0.59284 m -0.0197,-1.19349 0.0177,0.60065 m -0.68174,-8.03438 0.66404,7.43373 m -59.39489,-7.43373 h 58.73085" />
  </g>
  <desc
     id="desc1756">mirrors in diff sizes.dxf - scale = 1.000000, origin = (0.000000, 0.000000), method = manual</desc>
</svg>
