999
"DXF R12 Output" (www.mydxf.blogspot.com)
 0 
SECTION
 2 
HEADER
 9 
$ACADVER
 1 
AC1009
 9 
$EXTMIN
 10 
 0 
 20 
 0 
 9 
$EXTMAX
 10 
 8.5 
 20 
 11 
 0 
ENDSEC
 0 
SECTION
 2 
ENTITIES
0
LINE
8
Layer 1
10
0.846666
20
317.647000
11
-0.846666
21
315.953000
0
LINE
8
Layer 1
10
0.000000
20
318.211000
11
0.000000
21
315.389000
0
LINE
8
Layer 1
10
2.257780
20
315.671000
11
1.128890
21
314.542110
0
LINE
8
Layer 1
10
1.693330
20
316.236000
11
0.564440
21
315.107110
0
LINE
8
Layer 1
10
1.128890
20
316.800000
11
0.000000
21
315.671110
0
LINE
8
Default
10
101.898000
20
187.661000
11
102.091325
21
189.825220
0
LINE
8
Default
10
101.892850
20
187.486130
11
101.898015
21
187.661000
0
LINE
8
Default
10
101.892201
20
187.313537
11
101.892765
21
187.486130
0
LINE
8
Default
10
101.896039
20
187.143216
11
101.892201
21
187.313537
0
LINE
8
Default
10
101.904393
20
186.975173
11
101.896039
21
187.143216
0
LINE
8
Default
10
101.917234
20
186.809407
11
101.904393
21
186.975173
0
LINE
8
Default
10
101.934582
20
186.645913
11
101.917226
21
186.809407
0
LINE
8
Default
10
101.956429
20
186.484696
11
101.934585
21
186.645912
0
LINE
8
Default
10
101.982780
20
186.325754
11
101.956421
21
186.484696
0
LINE
8
Default
10
102.013627
20
186.169090
11
101.982780
21
186.325754
0
LINE
8
Default
10
102.048978
20
186.014700
11
102.013627
21
186.169090
0
LINE
8
Default
10
102.088828
20
185.862586
11
102.048978
21
186.014701
0
LINE
8
Default
10
102.133176
20
185.712746
11
102.088828
21
185.862586
0
LINE
8
Default
10
102.182026
20
185.565183
11
102.133176
21
185.712746
0
LINE
8
Default
10
102.235377
20
185.419893
11
102.182026
21
185.565184
0
LINE
8
Default
10
102.293227
20
185.276883
11
102.235377
21
185.419893
0
LINE
8
Default
10
102.355575
20
185.136144
11
102.293227
21
185.276882
0
LINE
8
Default
10
102.422425
20
184.997683
11
102.355575
21
185.136144
0
LINE
8
Default
10
102.493776
20
184.861497
11
102.422424
21
184.997683
0
LINE
8
Default
10
102.569628
20
184.727585
11
102.493776
21
184.861497
0
LINE
8
Default
10
102.649977
20
184.595949
11
102.569628
21
184.727586
0
LINE
8
Default
10
102.734829
20
184.466590
11
102.649976
21
184.595949
0
LINE
8
Default
10
102.824180
20
184.339505
11
102.734829
21
184.466590
0
LINE
8
Default
10
102.918031
20
184.214698
11
102.824181
21
184.339505
0
LINE
8
Default
10
103.016383
20
184.092166
11
102.918031
21
184.214698
0
LINE
8
Default
10
103.119236
20
183.971905
11
103.016383
21
184.092165
0
LINE
8
Default
10
103.226588
20
183.853924
11
103.119236
21
183.971904
0
LINE
8
Default
10
103.338441
20
183.738216
11
103.226588
21
183.853924
0
LINE
8
Default
10
103.454793
20
183.624785
11
103.338441
21
183.738216
0
LINE
8
Default
10
103.575646
20
183.513629
11
103.454793
21
183.624785
0
LINE
8
Default
10
103.700998
20
183.404748
11
103.575646
21
183.513629
0
LINE
8
Default
10
103.830851
20
183.298144
11
103.700998
21
183.404748
0
LINE
8
Default
10
103.965206
20
183.193815
11
103.830851
21
183.298144
0
LINE
8
Default
10
104.104059
20
183.091761
11
103.965206
21
183.193815
0
LINE
8
Default
10
104.247411
20
182.991984
11
104.104059
21
183.091761
0
LINE
8
Default
10
104.395264
20
182.894479
11
104.247411
21
182.991984
0
LINE
8
Default
10
104.547619
20
182.799255
11
104.395264
21
182.894479
0
LINE
8
Default
10
104.704472
20
182.706302
11
104.547619
21
182.799255
0
LINE
8
Default
10
104.865827
20
182.615624
11
104.704472
21
182.706302
0
LINE
8
Default
10
105.031680
20
182.527224
11
104.865827
21
182.615624
0
LINE
8
Default
10
105.202035
20
182.441101
11
105.031680
21
182.527224
0
LINE
8
Default
10
105.376891
20
182.357250
11
105.202035
21
182.441101
0
LINE
8
Default
10
105.556246
20
182.275677
11
105.376891
21
182.357250
0
LINE
8
Default
10
105.740099
20
182.196378
11
105.556245
21
182.275677
0
LINE
8
Default
10
105.928453
20
182.119354
11
105.740098
21
182.196378
0
LINE
8
Default
10
106.121309
20
182.044607
11
105.928453
21
182.119354
0
LINE
8
Default
10
106.318664
20
181.972136
11
106.121309
21
182.044607
0
LINE
8
Default
10
106.726876
20
181.834016
11
106.318664
21
181.972135
0
LINE
8
Default
10
107.153090
20
181.705001
11
106.726876
21
181.834016
0
LINE
8
Default
10
107.597302
20
181.585088
11
107.153090
21
181.705001
0
LINE
8
Default
10
108.059517
20
181.474276
11
107.597302
21
181.585088
0
LINE
8
Default
10
108.539732
20
181.372566
11
108.059517
21
181.474276
0
LINE
8
Default
10
109.037947
20
181.279958
11
108.539732
21
181.372567
0
LINE
8
Default
10
109.554162
20
181.196452
11
109.037947
21
181.279958
0
LINE
8
Default
10
110.088377
20
181.122049
11
109.554159
21
181.196452
0
LINE
8
Default
10
110.640599
20
181.056746
11
110.088381
21
181.122049
0
LINE
8
Default
10
111.192811
20
181.122049
11
110.640596
21
181.056746
0
LINE
8
Default
10
111.727026
20
181.196452
11
111.192808
21
181.122049
0
LINE
8
Default
10
112.243238
20
181.279958
11
111.727023
21
181.196452
0
LINE
8
Default
10
112.741453
20
181.372567
11
112.243238
21
181.279958
0
LINE
8
Default
10
113.221668
20
181.474276
11
112.741453
21
181.372566
0
LINE
8
Default
10
113.683883
20
181.585088
11
113.221668
21
181.474276
0
LINE
8
Default
10
114.128097
20
181.705001
11
113.683882
21
181.585088
0
LINE
8
Default
10
114.554308
20
181.834016
11
114.128096
21
181.705001
0
LINE
8
Default
10
114.962519
20
181.972135
11
114.554307
21
181.834016
0
LINE
8
Default
10
115.159874
20
182.044607
11
114.962519
21
181.972136
0
LINE
8
Default
10
115.352730
20
182.119354
11
115.159874
21
182.044607
0
LINE
8
Default
10
115.541085
20
182.196378
11
115.352730
21
182.119354
0
LINE
8
Default
10
115.724938
20
182.275677
11
115.541084
21
182.196378
0
LINE
8
Default
10
115.904292
20
182.357250
11
115.724937
21
182.275677
0
LINE
8
Default
10
116.079148
20
182.441101
11
115.904292
21
182.357250
0
LINE
8
Default
10
116.249503
20
182.527224
11
116.079148
21
182.441101
0
LINE
8
Default
10
116.415356
20
182.615624
11
116.249503
21
182.527224
0
LINE
8
Default
10
116.576711
20
182.706302
11
116.415356
21
182.615624
0
LINE
8
Default
10
116.733564
20
182.799255
11
116.576711
21
182.706302
0
LINE
8
Default
10
116.885919
20
182.894479
11
116.733564
21
182.799255
0
LINE
8
Default
10
117.033772
20
182.991984
11
116.885919
21
182.894479
0
LINE
8
Default
10
117.177127
20
183.091761
11
117.033772
21
182.991984
0
LINE
8
Default
10
117.315980
20
183.193815
11
117.177127
21
183.091761
0
LINE
8
Default
10
117.450332
20
183.298144
11
117.315980
21
183.193815
0
LINE
8
Default
10
117.580185
20
183.404748
11
117.450332
21
183.298144
0
LINE
8
Default
10
117.705537
20
183.513629
11
117.580185
21
183.404748
0
LINE
8
Default
10
117.826390
20
183.624785
11
117.705537
21
183.513629
0
LINE
8
Default
10
117.942742
20
183.738216
11
117.826390
21
183.624785
0
LINE
8
Default
10
118.054595
20
183.853924
11
117.942742
21
183.738216
0
LINE
8
Default
10
118.161947
20
183.971904
11
118.054595
21
183.853924
0
LINE
8
Default
10
118.264800
20
184.092165
11
118.161947
21
183.971905
0
LINE
8
Default
10
118.363152
20
184.214698
11
118.264801
21
184.092166
0
LINE
8
Default
10
118.457005
20
184.339505
11
118.363152
21
184.214698
0
LINE
8
Default
10
118.546354
20
184.466590
11
118.457005
21
184.339505
0
LINE
8
Default
10
118.631207
20
184.595949
11
118.546354
21
184.466590
0
LINE
8
Default
10
118.711558
20
184.727586
11
118.631207
21
184.595949
0
LINE
8
Default
10
118.787408
20
184.861497
11
118.711558
21
184.727585
0
LINE
8
Default
10
118.858759
20
184.997683
11
118.787407
21
184.861497
0
LINE
8
Default
10
118.925608
20
185.136144
11
118.858758
21
184.997683
0
LINE
8
Default
10
118.987959
20
185.276882
11
118.925608
21
185.136144
0
LINE
8
Default
10
119.045809
20
185.419893
11
118.987959
21
185.276883
0
LINE
8
Default
10
119.099157
20
185.565184
11
119.045809
21
185.419893
0
LINE
8
Default
10
119.148007
20
185.712746
11
119.099157
21
185.565183
0
LINE
8
Default
10
119.192358
20
185.862586
11
119.148007
21
185.712746
0
LINE
8
Default
10
119.232208
20
186.014701
11
119.192358
21
185.862586
0
LINE
8
Default
10
119.267556
20
186.169090
11
119.232208
21
186.014700
0
LINE
8
Default
10
119.298406
20
186.325754
11
119.267556
21
186.169090
0
LINE
8
Default
10
119.324754
20
186.484696
11
119.298394
21
186.325754
0
LINE
8
Default
10
119.346604
20
186.645912
11
119.324760
21
186.484696
0
LINE
8
Default
10
119.363952
20
186.809407
11
119.346595
21
186.645913
0
LINE
8
Default
10
119.376799
20
186.975173
11
119.363957
21
186.809407
0
LINE
8
Default
10
119.385152
20
187.143216
11
119.376799
21
186.975173
0
LINE
8
Default
10
119.388991
20
187.313537
11
119.385152
21
187.143216
0
LINE
8
Default
10
119.388341
20
187.486130
11
119.388906
21
187.313537
0
LINE
8
Default
10
119.383177
20
187.661000
11
119.388341
21
187.486130
0
LINE
8
Default
10
119.189851
20
189.825220
11
119.383176
21
187.661000
0
LINE
8
Default
10
102.091276
20
189.825220
11
119.189000
21
189.826000
0
LINE
8
Default
10
52.226200
20
187.729000
11
52.421498
21
189.915300
0
LINE
8
Default
10
52.220996
20
187.552350
11
52.226189
21
187.729004
0
LINE
8
Default
10
52.220347
20
187.377996
11
52.220911
21
187.552350
0
LINE
8
Default
10
52.224242
20
187.205939
11
52.220347
21
187.377996
0
LINE
8
Default
10
52.232680
20
187.036180
11
52.224242
21
187.205939
0
LINE
8
Default
10
52.245662
20
186.868720
11
52.232680
21
187.036179
0
LINE
8
Default
10
52.263188
20
186.703561
11
52.245662
21
186.868720
0
LINE
8
Default
10
52.285258
20
186.540699
11
52.263188
21
186.703561
0
LINE
8
Default
10
52.311877
20
186.380135
11
52.285263
21
186.540700
0
LINE
8
Default
10
52.343040
20
186.221871
11
52.311877
21
186.380135
0
LINE
8
Default
10
52.378749
20
186.065906
11
52.343040
21
186.221870
0
LINE
8
Default
10
52.419006
20
185.912239
11
52.378750
21
186.065906
0
LINE
8
Default
10
52.463808
20
185.760869
11
52.419006
21
185.912239
0
LINE
8
Default
10
52.513158
20
185.611800
11
52.463809
21
185.760870
0
LINE
8
Default
10
52.567051
20
185.465031
11
52.513157
21
185.611801
0
LINE
8
Default
10
52.625490
20
185.320559
11
52.567051
21
185.465031
0
LINE
8
Default
10
52.688477
20
185.178387
11
52.625490
21
185.320559
0
LINE
8
Default
10
52.756009
20
185.038512
11
52.688477
21
185.178387
0
LINE
8
Default
10
52.828089
20
184.900935
11
52.756009
21
185.038513
0
LINE
8
Default
10
52.904715
20
184.765658
11
52.828089
21
184.900935
0
LINE
8
Default
10
52.985885
20
184.632680
11
52.904715
21
184.765657
0
LINE
8
Default
10
53.071601
20
184.502000
11
52.985885
21
184.632680
0
LINE
8
Default
10
53.161865
20
184.373620
11
53.071601
21
184.502000
0
LINE
8
Default
10
53.256674
20
184.247537
11
53.161865
21
184.373620
0
LINE
8
Default
10
53.356031
20
184.123752
11
53.256674
21
184.247537
0
LINE
8
Default
10
53.459930
20
184.002269
11
53.356030
21
184.123751
0
LINE
8
Default
10
53.568377
20
183.883081
11
53.459930
21
184.002269
0
LINE
8
Default
10
53.681373
20
183.766193
11
53.568377
21
183.883081
0
LINE
8
Default
10
53.798913
20
183.651605
11
53.681373
21
183.766193
0
LINE
8
Default
10
53.920996
20
183.539315
11
53.798912
21
183.651605
0
LINE
8
Default
10
54.047629
20
183.429324
11
53.920996
21
183.539314
0
LINE
8
Default
10
54.178806
20
183.321631
11
54.047629
21
183.429324
0
LINE
8
Default
10
54.314532
20
183.216238
11
54.178806
21
183.321631
0
LINE
8
Default
10
54.454802
20
183.113142
11
54.314532
21
183.216238
0
LINE
8
Default
10
54.599619
20
183.012347
11
54.454802
21
183.113143
0
LINE
8
Default
10
54.748979
20
182.913849
11
54.599619
21
183.012347
0
LINE
8
Default
10
54.902889
20
182.817651
11
54.748979
21
182.913849
0
LINE
8
Default
10
55.061342
20
182.723750
11
54.902888
21
182.817651
0
LINE
8
Default
10
55.224342
20
182.632149
11
55.061342
21
182.723750
0
LINE
8
Default
10
55.391889
20
182.542846
11
55.224342
21
182.632150
0
LINE
8
Default
10
55.563982
20
182.455843
11
55.391889
21
182.542846
0
LINE
8
Default
10
55.740622
20
182.371136
11
55.563982
21
182.455842
0
LINE
8
Default
10
55.921806
20
182.288730
11
55.740622
21
182.371136
0
LINE
8
Default
10
56.107539
20
182.208621
11
55.921806
21
182.288730
0
LINE
8
Default
10
56.297816
20
182.130813
11
56.107539
21
182.208621
0
LINE
8
Default
10
56.492639
20
182.055301
11
56.297816
21
182.130813
0
LINE
8
Default
10
56.692010
20
181.982090
11
56.492640
21
182.055301
0
LINE
8
Default
10
57.104387
20
181.842562
11
56.692010
21
181.982090
0
LINE
8
Default
10
57.534948
20
181.712232
11
57.104387
21
181.842562
0
LINE
8
Default
10
57.983695
20
181.591094
11
57.534948
21
181.712232
0
LINE
8
Default
10
58.450623
20
181.479150
11
57.983695
21
181.591093
0
LINE
8
Default
10
58.935740
20
181.376404
11
58.450623
21
181.479150
0
LINE
8
Default
10
59.439038
20
181.282850
11
58.935740
21
181.376404
0
LINE
8
Default
10
59.960520
20
181.198491
11
59.439036
21
181.282850
0
LINE
8
Default
10
60.500186
20
181.123330
11
59.960518
21
181.198491
0
LINE
8
Default
10
61.058038
20
181.057360
11
60.500187
21
181.123330
0
LINE
8
Default
10
61.615897
20
181.123330
11
61.058043
21
181.057360
0
LINE
8
Default
10
62.155563
20
181.198491
11
61.615895
21
181.123330
0
LINE
8
Default
10
62.677045
20
181.282850
11
62.155561
21
181.198491
0
LINE
8
Default
10
63.180341
20
181.376404
11
62.677043
21
181.282850
0
LINE
8
Default
10
63.665455
20
181.479150
11
63.180341
21
181.376404
0
LINE
8
Default
10
64.132386
20
181.591093
11
63.665455
21
181.479150
0
LINE
8
Default
10
64.581133
20
181.712232
11
64.132386
21
181.591094
0
LINE
8
Default
10
65.011694
20
181.842562
11
64.581133
21
181.712232
0
LINE
8
Default
10
65.424071
20
181.982090
11
65.011694
21
181.842562
0
LINE
8
Default
10
65.623441
20
182.055301
11
65.424071
21
181.982090
0
LINE
8
Default
10
65.818265
20
182.130813
11
65.623442
21
182.055301
0
LINE
8
Default
10
66.008542
20
182.208621
11
65.818265
21
182.130813
0
LINE
8
Default
10
66.194272
20
182.288730
11
66.008542
21
182.208621
0
LINE
8
Default
10
66.375459
20
182.371136
11
66.194272
21
182.288730
0
LINE
8
Default
10
66.552096
20
182.455842
11
66.375459
21
182.371136
0
LINE
8
Default
10
66.724189
20
182.542846
11
66.552096
21
182.455843
0
LINE
8
Default
10
66.891736
20
182.632150
11
66.724189
21
182.542846
0
LINE
8
Default
10
67.054736
20
182.723750
11
66.891736
21
182.632149
0
LINE
8
Default
10
67.213193
20
182.817651
11
67.054737
21
182.723750
0
LINE
8
Default
10
67.367100
20
182.913849
11
67.213193
21
182.817651
0
LINE
8
Default
10
67.516463
20
183.012347
11
67.367100
21
182.913849
0
LINE
8
Default
10
67.661280
20
183.113143
11
67.516463
21
183.012347
0
LINE
8
Default
10
67.801550
20
183.216238
11
67.661280
21
183.113142
0
LINE
8
Default
10
67.937273
20
183.321631
11
67.801550
21
183.216238
0
LINE
8
Default
10
68.068453
20
183.429324
11
67.937273
21
183.321631
0
LINE
8
Default
10
68.195083
20
183.539314
11
68.068453
21
183.429324
0
LINE
8
Default
10
68.317170
20
183.651605
11
68.195084
21
183.539315
0
LINE
8
Default
10
68.434710
20
183.766193
11
68.317170
21
183.651605
0
LINE
8
Default
10
68.547703
20
183.883081
11
68.434710
21
183.766193
0
LINE
8
Default
10
68.656150
20
184.002269
11
68.547703
21
183.883081
0
LINE
8
Default
10
68.760052
20
184.123751
11
68.656149
21
184.002269
0
LINE
8
Default
10
68.859408
20
184.247537
11
68.760052
21
184.123752
0
LINE
8
Default
10
68.954215
20
184.373620
11
68.859408
21
184.247537
0
LINE
8
Default
10
69.044478
20
184.502000
11
68.954215
21
184.373620
0
LINE
8
Default
10
69.130197
20
184.632680
11
69.044478
21
184.502000
0
LINE
8
Default
10
69.211367
20
184.765657
11
69.130197
21
184.632680
0
LINE
8
Default
10
69.287993
20
184.900935
11
69.211367
21
184.765658
0
LINE
8
Default
10
69.360070
20
185.038513
11
69.287993
21
184.900935
0
LINE
8
Default
10
69.427603
20
185.178387
11
69.360070
21
185.038512
0
LINE
8
Default
10
69.490589
20
185.320559
11
69.427603
21
185.178387
0
LINE
8
Default
10
69.549032
20
185.465031
11
69.490590
21
185.320559
0
LINE
8
Default
10
69.602926
20
185.611801
11
69.549032
21
185.465031
0
LINE
8
Default
10
69.652274
20
185.760870
11
69.602925
21
185.611800
0
LINE
8
Default
10
69.697074
20
185.912239
11
69.652275
21
185.760869
0
LINE
8
Default
10
69.737331
20
186.065906
11
69.697075
21
185.912239
0
LINE
8
Default
10
69.773040
20
186.221870
11
69.737331
21
186.065906
0
LINE
8
Default
10
69.804206
20
186.380135
11
69.773040
21
186.221871
0
LINE
8
Default
10
69.830822
20
186.540700
11
69.804209
21
186.380135
0
LINE
8
Default
10
69.852895
20
186.703561
11
69.830825
21
186.540699
0
LINE
8
Default
10
69.870421
20
186.868720
11
69.852895
21
186.703561
0
LINE
8
Default
10
69.883400
20
187.036179
11
69.870418
21
186.868720
0
LINE
8
Default
10
69.891839
20
187.205939
11
69.883400
21
187.036180
0
LINE
8
Default
10
69.895733
20
187.377996
11
69.891839
21
187.205939
0
LINE
8
Default
10
69.895084
20
187.552350
11
69.895649
21
187.377996
0
LINE
8
Default
10
69.889891
20
187.729004
11
69.895084
21
187.552350
0
LINE
8
Default
10
69.694593
20
189.915300
11
69.889891
21
187.729000
0
LINE
8
Default
10
52.421591
20
189.915300
11
69.694600
21
189.915000
0
LINE
8
Default
10
12.009300
20
198.015000
11
12.206569
21
200.223380
0
LINE
8
Default
10
12.004043
20
197.836560
11
12.009301
21
198.014998
0
LINE
8
Default
10
12.003377
20
197.660445
11
12.004054
21
197.836560
0
LINE
8
Default
10
12.007303
20
197.486650
11
12.003377
21
197.660445
0
LINE
8
Default
10
12.015820
20
197.315177
11
12.007303
21
197.486649
0
LINE
8
Default
10
12.028929
20
197.146024
11
12.015820
21
197.315177
0
LINE
8
Default
10
12.046632
20
196.979197
11
12.028928
21
197.146024
0
LINE
8
Default
10
12.068927
20
196.814690
11
12.046631
21
196.979197
0
LINE
8
Default
10
12.095813
20
196.652502
11
12.068926
21
196.814689
0
LINE
8
Default
10
12.127292
20
196.492640
11
12.095813
21
196.652502
0
LINE
8
Default
10
12.163362
20
196.335098
11
12.127292
21
196.492640
0
LINE
8
Default
10
12.204025
20
196.179879
11
12.163362
21
196.335098
0
LINE
8
Default
10
12.249280
20
196.026982
11
12.204025
21
196.179879
0
LINE
8
Default
10
12.299126
20
195.876409
11
12.249280
21
196.026983
0
LINE
8
Default
10
12.353566
20
195.728155
11
12.299127
21
195.876409
0
LINE
8
Default
10
12.412597
20
195.582224
11
12.353566
21
195.728155
0
LINE
8
Default
10
12.476219
20
195.438615
11
12.412596
21
195.582224
0
LINE
8
Default
10
12.544433
20
195.297327
11
12.476219
21
195.438616
0
LINE
8
Default
10
12.617241
20
195.158361
11
12.544434
21
195.297327
0
LINE
8
Default
10
12.694640
20
195.021717
11
12.617241
21
195.158360
0
LINE
8
Default
10
12.776631
20
194.887396
11
12.694640
21
195.021717
0
LINE
8
Default
10
12.863214
20
194.755395
11
12.776631
21
194.887396
0
LINE
8
Default
10
12.954389
20
194.625717
11
12.863215
21
194.755395
0
LINE
8
Default
10
13.050157
20
194.498361
11
12.954390
21
194.625716
0
LINE
8
Default
10
13.150516
20
194.373328
11
13.050157
21
194.498361
0
LINE
8
Default
10
13.255467
20
194.250615
11
13.150516
21
194.373328
0
LINE
8
Default
10
13.365010
20
194.130225
11
13.255467
21
194.250615
0
LINE
8
Default
10
13.479145
20
194.012157
11
13.365010
21
194.130225
0
LINE
8
Default
10
13.597872
20
193.896413
11
13.479145
21
194.012158
0
LINE
8
Default
10
13.721191
20
193.782988
11
13.597872
21
193.896413
0
LINE
8
Default
10
13.849102
20
193.671886
11
13.721191
21
193.782988
0
LINE
8
Default
10
13.981605
20
193.563106
11
13.849102
21
193.671886
0
LINE
8
Default
10
14.118700
20
193.456647
11
13.981605
21
193.563107
0
LINE
8
Default
10
14.260387
20
193.352510
11
14.118700
21
193.456647
0
LINE
8
Default
10
14.406666
20
193.250695
11
14.260387
21
193.352509
0
LINE
8
Default
10
14.557537
20
193.151203
11
14.406666
21
193.250695
0
LINE
8
Default
10
14.713000
20
193.054034
11
14.557537
21
193.151203
0
LINE
8
Default
10
14.873055
20
192.959185
11
14.713000
21
193.054034
0
LINE
8
Default
10
15.037702
20
192.866658
11
14.873055
21
192.959184
0
LINE
8
Default
10
15.206941
20
192.776451
11
15.037702
21
192.866658
0
LINE
8
Default
10
15.380772
20
192.688570
11
15.206941
21
192.776451
0
LINE
8
Default
10
15.559196
20
192.603009
11
15.380773
21
192.688570
0
LINE
8
Default
10
15.742211
20
192.519770
11
15.559196
21
192.603009
0
LINE
8
Default
10
15.929818
20
192.438852
11
15.742211
21
192.519771
0
LINE
8
Default
10
16.122017
20
192.360259
11
15.929818
21
192.438852
0
LINE
8
Default
10
16.318809
20
192.283985
11
16.122018
21
192.360258
0
LINE
8
Default
10
16.520193
20
192.210031
11
16.318810
21
192.283985
0
LINE
8
Default
10
16.936736
20
192.069096
11
16.520193
21
192.210032
0
LINE
8
Default
10
17.371646
20
191.937448
11
16.936735
21
192.069096
0
LINE
8
Default
10
17.824924
20
191.815088
11
17.371645
21
191.937448
0
LINE
8
Default
10
18.296571
20
191.702013
11
17.824924
21
191.815088
0
LINE
8
Default
10
18.786586
20
191.598229
11
18.296571
21
191.702013
0
LINE
8
Default
10
19.294969
20
191.503729
11
18.786586
21
191.598228
0
LINE
8
Default
10
19.821716
20
191.418520
11
19.294965
21
191.503728
0
LINE
8
Default
10
20.366835
20
191.342596
11
19.821716
21
191.418520
0
LINE
8
Default
10
20.930326
20
191.275964
11
20.366839
21
191.342596
0
LINE
8
Default
10
21.493809
20
191.342596
11
20.930322
21
191.275964
0
LINE
8
Default
10
22.038932
20
191.418520
11
21.493813
21
191.342596
0
LINE
8
Default
10
22.565683
20
191.503728
11
22.038932
21
191.418520
0
LINE
8
Default
10
23.074062
20
191.598228
11
22.565679
21
191.503729
0
LINE
8
Default
10
23.564077
20
191.702013
11
23.074062
21
191.598229
0
LINE
8
Default
10
24.035724
20
191.815088
11
23.564077
21
191.702013
0
LINE
8
Default
10
24.489003
20
191.937448
11
24.035724
21
191.815088
0
LINE
8
Default
10
24.923913
20
192.069096
11
24.489002
21
191.937448
0
LINE
8
Default
10
25.340455
20
192.210032
11
24.923912
21
192.069096
0
LINE
8
Default
10
25.541838
20
192.283985
11
25.340455
21
192.210031
0
LINE
8
Default
10
25.738630
20
192.360258
11
25.541839
21
192.283985
0
LINE
8
Default
10
25.930830
20
192.438852
11
25.738631
21
192.360259
0
LINE
8
Default
10
26.118437
20
192.519771
11
25.930830
21
192.438852
0
LINE
8
Default
10
26.301452
20
192.603009
11
26.118437
21
192.519770
0
LINE
8
Default
10
26.479875
20
192.688570
11
26.301452
21
192.603009
0
LINE
8
Default
10
26.653707
20
192.776451
11
26.479876
21
192.688570
0
LINE
8
Default
10
26.822946
20
192.866658
11
26.653707
21
192.776451
0
LINE
8
Default
10
26.987593
20
192.959184
11
26.822946
21
192.866658
0
LINE
8
Default
10
27.147648
20
193.054034
11
26.987593
21
192.959185
0
LINE
8
Default
10
27.303111
20
193.151203
11
27.147648
21
193.054034
0
LINE
8
Default
10
27.453982
20
193.250695
11
27.303111
21
193.151203
0
LINE
8
Default
10
27.600261
20
193.352509
11
27.453982
21
193.250695
0
LINE
8
Default
10
27.741948
20
193.456647
11
27.600261
21
193.352510
0
LINE
8
Default
10
27.879043
20
193.563107
11
27.741948
21
193.456647
0
LINE
8
Default
10
28.011546
20
193.671886
11
27.879043
21
193.563106
0
LINE
8
Default
10
28.139457
20
193.782988
11
28.011546
21
193.671886
0
LINE
8
Default
10
28.262777
20
193.896413
11
28.139457
21
193.782988
0
LINE
8
Default
10
28.381502
20
194.012158
11
28.262777
21
193.896413
0
LINE
8
Default
10
28.495638
20
194.130225
11
28.381502
21
194.012157
0
LINE
8
Default
10
28.605180
20
194.250615
11
28.495638
21
194.130225
0
LINE
8
Default
10
28.710132
20
194.373328
11
28.605179
21
194.250615
0
LINE
8
Default
10
28.810490
20
194.498361
11
28.710132
21
194.373328
0
LINE
8
Default
10
28.906257
20
194.625716
11
28.810490
21
194.498361
0
LINE
8
Default
10
28.997431
20
194.755395
11
28.906257
21
194.625717
0
LINE
8
Default
10
29.084015
20
194.887396
11
28.997432
21
194.755395
0
LINE
8
Default
10
29.166006
20
195.021717
11
29.084015
21
194.887396
0
LINE
8
Default
10
29.243406
20
195.158360
11
29.166006
21
195.021717
0
LINE
8
Default
10
29.316210
20
195.297327
11
29.243405
21
195.158361
0
LINE
8
Default
10
29.384426
20
195.438616
11
29.316211
21
195.297327
0
LINE
8
Default
10
29.448051
20
195.582224
11
29.384426
21
195.438615
0
LINE
8
Default
10
29.507080
20
195.728155
11
29.448051
21
195.582224
0
LINE
8
Default
10
29.561518
20
195.876409
11
29.507080
21
195.728155
0
LINE
8
Default
10
29.611367
20
196.026983
11
29.561518
21
195.876409
0
LINE
8
Default
10
29.656621
20
196.179879
11
29.611367
21
196.026982
0
LINE
8
Default
10
29.697284
20
196.335098
11
29.656621
21
196.179879
0
LINE
8
Default
10
29.733355
20
196.492640
11
29.697284
21
196.335098
0
LINE
8
Default
10
29.764834
20
196.652502
11
29.733355
21
196.492640
0
LINE
8
Default
10
29.791718
20
196.814689
11
29.764822
21
196.652502
0
LINE
8
Default
10
29.814014
20
196.979197
11
29.791718
21
196.814690
0
LINE
8
Default
10
29.831715
20
197.146024
11
29.814019
21
196.979197
0
LINE
8
Default
10
29.844827
20
197.315177
11
29.831703
21
197.146024
0
LINE
8
Default
10
29.853350
20
197.486649
11
29.844827
21
197.315177
0
LINE
8
Default
10
29.857273
20
197.660445
11
29.853350
21
197.486650
0
LINE
8
Default
10
29.856595
20
197.836560
11
29.857160
21
197.660445
0
LINE
8
Default
10
29.851346
20
198.014998
11
29.856595
21
197.836560
0
LINE
8
Default
10
29.654075
20
200.223380
11
29.851345
21
198.015000
0
LINE
8
Default
10
12.206500
20
200.223000
11
29.654000
21
200.223000
0
LINE
8
Default
10
138.507000
20
187.459000
11
138.694407
21
189.556960
0
LINE
8
Default
10
138.502005
20
187.289480
11
138.507000
21
187.458997
0
LINE
8
Default
10
138.501384
20
187.122168
11
138.501949
21
187.289480
0
LINE
8
Default
10
138.505109
20
186.957062
11
138.501384
21
187.122168
0
LINE
8
Default
10
138.513209
20
186.794164
11
138.505109
21
186.957063
0
LINE
8
Default
10
138.525655
20
186.633470
11
138.513209
21
186.794164
0
LINE
8
Default
10
138.542473
20
186.474982
11
138.525652
21
186.633469
0
LINE
8
Default
10
138.563651
20
186.318701
11
138.542484
21
186.474981
0
LINE
8
Default
10
138.589195
20
186.164624
11
138.563654
21
186.318700
0
LINE
8
Default
10
138.619099
20
186.012754
11
138.589195
21
186.164623
0
LINE
8
Default
10
138.653366
20
185.863089
11
138.619099
21
186.012754
0
LINE
8
Default
10
138.691994
20
185.715631
11
138.653366
21
185.863089
0
LINE
8
Default
10
138.734988
20
185.570380
11
138.691994
21
185.715631
0
LINE
8
Default
10
138.782342
20
185.427333
11
138.734988
21
185.570380
0
LINE
8
Default
10
138.834059
20
185.286493
11
138.782342
21
185.427333
0
LINE
8
Default
10
138.890137
20
185.147857
11
138.834059
21
185.286493
0
LINE
8
Default
10
138.950580
20
185.011428
11
138.890137
21
185.147857
0
LINE
8
Default
10
139.015384
20
184.877206
11
138.950580
21
185.011428
0
LINE
8
Default
10
139.084551
20
184.745188
11
139.015384
21
184.877206
0
LINE
8
Default
10
139.158078
20
184.615377
11
139.084551
21
184.745188
0
LINE
8
Default
10
139.235969
20
184.487770
11
139.158078
21
184.615377
0
LINE
8
Default
10
139.318222
20
184.362371
11
139.235969
21
184.487771
0
LINE
8
Default
10
139.404839
20
184.239179
11
139.318222
21
184.362372
0
LINE
8
Default
10
139.495819
20
184.118191
11
139.404839
21
184.239180
0
LINE
8
Default
10
139.591159
20
183.999410
11
139.495819
21
184.118192
0
LINE
8
Default
10
139.690863
20
183.882833
11
139.591159
21
183.999410
0
LINE
8
Default
10
139.794929
20
183.768462
11
139.690862
21
183.882832
0
LINE
8
Default
10
139.903355
20
183.656298
11
139.794928
21
183.768461
0
LINE
8
Default
10
140.016145
20
183.546338
11
139.903355
21
183.656297
0
LINE
8
Default
10
140.133298
20
183.438585
11
140.016145
21
183.546337
0
LINE
8
Default
10
140.254815
20
183.333036
11
140.133299
21
183.438584
0
LINE
8
Default
10
140.380692
20
183.229695
11
140.254815
21
183.333036
0
LINE
8
Default
10
140.510934
20
183.128561
11
140.380691
21
183.229695
0
LINE
8
Default
10
140.645537
20
183.029631
11
140.510934
21
183.128561
0
LINE
8
Default
10
140.784500
20
182.932905
11
140.645537
21
183.029631
0
LINE
8
Default
10
140.927830
20
182.838389
11
140.784501
21
182.932905
0
LINE
8
Default
10
141.075520
20
182.746077
11
140.927830
21
182.838389
0
LINE
8
Default
10
141.227572
20
182.655969
11
141.075519
21
182.746077
0
LINE
8
Default
10
141.383985
20
182.568071
11
141.227572
21
182.655969
0
LINE
8
Default
10
141.544764
20
182.482374
11
141.383985
21
182.568071
0
LINE
8
Default
10
141.709903
20
182.398887
11
141.544764
21
182.482374
0
LINE
8
Default
10
141.879403
20
182.317604
11
141.709903
21
182.398886
0
LINE
8
Default
10
142.053268
20
182.238525
11
141.879402
21
182.317604
0
LINE
8
Default
10
142.231494
20
182.161654
11
142.053268
21
182.238526
0
LINE
8
Default
10
142.414083
20
182.086990
11
142.231494
21
182.161654
0
LINE
8
Default
10
142.601035
20
182.014529
11
142.414083
21
182.086990
0
LINE
8
Default
10
142.792351
20
181.944276
11
142.601036
21
182.014529
0
LINE
8
Default
10
143.188066
20
181.810387
11
142.792351
21
181.944276
0
LINE
8
Default
10
143.601230
20
181.685320
11
143.188065
21
181.810387
0
LINE
8
Default
10
144.031844
20
181.569079
11
143.601230
21
181.685321
0
LINE
8
Default
10
144.479908
20
181.461660
11
144.031844
21
181.569079
0
LINE
8
Default
10
144.945425
20
181.363063
11
144.479908
21
181.461660
0
LINE
8
Default
10
145.428388
20
181.273291
11
144.945424
21
181.363063
0
LINE
8
Default
10
145.928801
20
181.192341
11
145.428388
21
181.273291
0
LINE
8
Default
10
146.446668
20
181.120214
11
145.928805
21
181.192342
0
LINE
8
Default
10
146.981985
20
181.056912
11
146.446672
21
181.120214
0
LINE
8
Default
10
147.517292
20
181.120214
11
146.981982
21
181.056912
0
LINE
8
Default
10
148.035152
20
181.192342
11
147.517289
21
181.120214
0
LINE
8
Default
10
148.535569
20
181.273291
11
148.035156
21
181.192341
0
LINE
8
Default
10
149.018533
20
181.363063
11
148.535569
21
181.273291
0
LINE
8
Default
10
149.484049
20
181.461660
11
149.018532
21
181.363063
0
LINE
8
Default
10
149.932113
20
181.569079
11
149.484049
21
181.461660
0
LINE
8
Default
10
150.362727
20
181.685321
11
149.932113
21
181.569079
0
LINE
8
Default
10
150.775892
20
181.810387
11
150.362727
21
181.685320
0
LINE
8
Default
10
151.171606
20
181.944276
11
150.775891
21
181.810387
0
LINE
8
Default
10
151.362921
20
182.014529
11
151.171606
21
181.944276
0
LINE
8
Default
10
151.549874
20
182.086990
11
151.362922
21
182.014529
0
LINE
8
Default
10
151.732463
20
182.161654
11
151.549874
21
182.086990
0
LINE
8
Default
10
151.910689
20
182.238526
11
151.732463
21
182.161654
0
LINE
8
Default
10
152.084555
20
182.317604
11
151.910689
21
182.238525
0
LINE
8
Default
10
152.254054
20
182.398886
11
152.084554
21
182.317604
0
LINE
8
Default
10
152.419193
20
182.482374
11
152.254054
21
182.398887
0
LINE
8
Default
10
152.579972
20
182.568071
11
152.419193
21
182.482374
0
LINE
8
Default
10
152.736385
20
182.655969
11
152.579972
21
182.568071
0
LINE
8
Default
10
152.888438
20
182.746077
11
152.736385
21
182.655969
0
LINE
8
Default
10
153.036127
20
182.838389
11
152.888437
21
182.746077
0
LINE
8
Default
10
153.179456
20
182.932905
11
153.036127
21
182.838389
0
LINE
8
Default
10
153.318420
20
183.029631
11
153.179457
21
182.932905
0
LINE
8
Default
10
153.453023
20
183.128561
11
153.318420
21
183.029631
0
LINE
8
Default
10
153.583266
20
183.229695
11
153.453023
21
183.128561
0
LINE
8
Default
10
153.709142
20
183.333036
11
153.583265
21
183.229695
0
LINE
8
Default
10
153.830658
20
183.438584
11
153.709142
21
183.333036
0
LINE
8
Default
10
153.947812
20
183.546337
11
153.830659
21
183.438585
0
LINE
8
Default
10
154.060602
20
183.656297
11
153.947812
21
183.546338
0
LINE
8
Default
10
154.169029
20
183.768461
11
154.060602
21
183.656298
0
LINE
8
Default
10
154.273095
20
183.882832
11
154.169028
21
183.768462
0
LINE
8
Default
10
154.372798
20
183.999410
11
154.273095
21
183.882833
0
LINE
8
Default
10
154.468139
20
184.118192
11
154.372799
21
183.999410
0
LINE
8
Default
10
154.559119
20
184.239180
11
154.468139
21
184.118191
0
LINE
8
Default
10
154.645736
20
184.362372
11
154.559119
21
184.239179
0
LINE
8
Default
10
154.727989
20
184.487771
11
154.645736
21
184.362371
0
LINE
8
Default
10
154.805880
20
184.615377
11
154.727989
21
184.487770
0
LINE
8
Default
10
154.879407
20
184.745188
11
154.805880
21
184.615377
0
LINE
8
Default
10
154.948574
20
184.877206
11
154.879407
21
184.745188
0
LINE
8
Default
10
155.013378
20
185.011428
11
154.948574
21
184.877206
0
LINE
8
Default
10
155.073821
20
185.147857
11
155.013378
21
185.011428
0
LINE
8
Default
10
155.129899
20
185.286493
11
155.073821
21
185.147857
0
LINE
8
Default
10
155.181616
20
185.427333
11
155.129899
21
185.286493
0
LINE
8
Default
10
155.228970
20
185.570380
11
155.181616
21
185.427333
0
LINE
8
Default
10
155.271964
20
185.715631
11
155.228970
21
185.570380
0
LINE
8
Default
10
155.310591
20
185.863089
11
155.271964
21
185.715631
0
LINE
8
Default
10
155.344859
20
186.012754
11
155.310591
21
185.863089
0
LINE
8
Default
10
155.374763
20
186.164623
11
155.344859
21
186.012754
0
LINE
8
Default
10
155.400307
20
186.318700
11
155.374766
21
186.164624
0
LINE
8
Default
10
155.421485
20
186.474981
11
155.400318
21
186.318701
0
LINE
8
Default
10
155.438303
20
186.633469
11
155.421482
21
186.474982
0
LINE
8
Default
10
155.450757
20
186.794164
11
155.438311
21
186.633470
0
LINE
8
Default
10
155.458857
20
186.957063
11
155.450757
21
186.794164
0
LINE
8
Default
10
155.462582
20
187.122168
11
155.458857
21
186.957062
0
LINE
8
Default
10
155.461961
20
187.289480
11
155.462526
21
187.122168
0
LINE
8
Default
10
155.456966
20
187.458997
11
155.461961
21
187.289480
0
LINE
8
Default
10
155.269559
20
189.556960
11
155.456966
21
187.459000
0
LINE
8
Default
10
138.694466
20
189.556960
11
155.269000
21
189.557000
 0 
ENDSEC
 0 
EOF