  0
SECTION
  2
HEADER
  9
$ACADVER
  1
AC1009
  9
$DWGCODEPAGE
  3
ansi_1252
  9
$INSBASE
 10
0.0
 20
0.0
 30
0.0
  9
$EXTMIN
 10
290.0
 20
-794.6313972081441
 30
0.0
  9
$EXTMAX
 10
864.0
 20
-373.0
 30
4.0
  9
$LIMMIN
 10
0.0
 20
0.0
  9
$LIMMAX
 10
12.0
 20
9.0
  9
$ORTHOMODE
 70
     0
  9
$REGENMODE
 70
     1
  9
$FILLMODE
 70
     1
  9
$QTEXTMODE
 70
     0
  9
$MIRRTEXT
 70
     1
  9
$DRAGMODE
 70
     2
  9
$LTSCALE
 40
1.0
  9
$OSMODE
 70
    37
  9
$ATTMODE
 70
     1
  9
$TEXTSIZE
 40
0.2
  9
$TRACEWID
 40
0.05
  9
$TEXTSTYLE
  7
STANDARD
  9
$CLAYER
  8
DEFAULT
  9
$CELTYPE
  6
BYLAYER
  9
$CECOLOR
 62
   256
  9
$DIMSCALE
 40
1.0
  9
$DIMASZ
 40
0.18
  9
$DIMEXO
 40
0.0625
  9
$DIMDLI
 40
0.38
  9
$DIMRND
 40
0.0
  9
$DIMDLE
 40
0.0
  9
$DIMEXE
 40
0.18
  9
$DIMTP
 40
0.0
  9
$DIMTM
 40
0.0
  9
$DIMTXT
 40
0.18
  9
$DIMCEN
 40
0.09
  9
$DIMTSZ
 40
0.0
  9
$DIMTOL
 70
     0
  9
$DIMLIM
 70
     0
  9
$DIMTIH
 70
     1
  9
$DIMTOH
 70
     1
  9
$DIMSE1
 70
     0
  9
$DIMSE2
 70
     0
  9
$DIMTAD
 70
     0
  9
$DIMZIN
 70
     0
  9
$DIMBLK
  1

  9
$DIMASO
 70
     1
  9
$DIMSHO
 70
     1
  9
$DIMPOST
  1

  9
$DIMAPOST
  1

  9
$DIMALT
 70
     0
  9
$DIMALTD
 70
     2
  9
$DIMALTF
 40
25.4
  9
$DIMLFAC
 40
1.0
  9
$DIMTOFL
 70
     0
  9
$DIMTVP
 40
0.0
  9
$DIMTIX
 70
     0
  9
$DIMSOXD
 70
     0
  9
$DIMSAH
 70
     0
  9
$DIMBLK1
  1

  9
$DIMBLK2
  1

  9
$DIMSTYLE
  2
STANDARD_ACAD
  9
$DIMCLRD
 70
     0
  9
$DIMCLRE
 70
     0
  9
$DIMCLRT
 70
     0
  9
$DIMTFAC
 40
1.0
  9
$DIMGAP
 40
0.09
  9
$LUNITS
 70
     2
  9
$LUPREC
 70
     3
  9
$SKETCHINC
 40
0.1
  9
$FILLETRAD
 40
0.0
  9
$AUNITS
 70
     0
  9
$AUPREC
 70
     0
  9
$MENU
  1
.
  9
$ELEVATION
 40
0.0
  9
$PELEVATION
 40
0.0
  9
$THICKNESS
 40
0.0
  9
$LIMCHECK
 70
     0
  9
$CHAMFERA
 40
0.0
  9
$CHAMFERB
 40
0.0
  9
$SKPOLY
 70
     0
  9
$TDCREATE
 40
2459867.638260683
  9
$TDUPDATE
 40
2459867.638291296
  9
$TDINDWG
 40
0.0000000116
  9
$TDUSRTIMER
 40
0.0000000116
  9
$USRTIMER
 70
     1
  9
$ANGBASE
 50
0.0
  9
$ANGDIR
 70
     0
  9
$PDMODE
 70
     0
  9
$PDSIZE
 40
0.0
  9
$PLINEWID
 40
0.0
  9
$COORDS
 70
     1
  9
$SPLFRAME
 70
     0
  9
$SPLINETYPE
 70
     6
  9
$SPLINESEGS
 70
     8
  9
$ATTDIA
 70
     0
  9
$ATTREQ
 70
     1
  9
$HANDLING
 70
     1
  9
$HANDSEED
  5
50D
  9
$SURFTAB1
 70
     6
  9
$SURFTAB2
 70
     6
  9
$SURFTYPE
 70
     6
  9
$SURFU
 70
     6
  9
$SURFV
 70
     6
  9
$UCSNAME
  2

  9
$UCSORG
 10
0.0
 20
0.0
 30
0.0
  9
$UCSXDIR
 10
1.0
 20
0.0
 30
0.0
  9
$UCSYDIR
 10
0.0
 20
1.0
 30
0.0
  9
$PUCSNAME
  2

  9
$PUCSORG
 10
0.0
 20
0.0
 30
0.0
  9
$PUCSXDIR
 10
1.0
 20
0.0
 30
0.0
  9
$PUCSYDIR
 10
0.0
 20
1.0
 30
0.0
  9
$USERI1
 70
     0
  9
$USERI2
 70
     0
  9
$USERI3
 70
     0
  9
$USERI4
 70
     0
  9
$USERI5
 70
     0
  9
$USERR1
 40
0.0
  9
$USERR2
 40
0.0
  9
$USERR3
 40
0.0
  9
$USERR4
 40
0.0
  9
$USERR5
 40
0.0
  9
$WORLDVIEW
 70
     1
  9
$SHADEDGE
 70
     3
  9
$SHADEDIF
 70
    70
  9
$TILEMODE
 70
     1
  9
$MAXACTVP
 70
    64
  9
$PLIMCHECK
 70
     0
  9
$PEXTMIN
 10
1.000000000000000E+20
 20
1.000000000000000E+20
 30
1.000000000000000E+20
  9
$PEXTMAX
 10
-1.000000000000000E+20
 20
-1.000000000000000E+20
 30
-1.000000000000000E+20
  9
$PLIMMIN
 10
0.0
 20
0.0
  9
$PLIMMAX
 10
12.0
 20
9.0
  9
$UNITMODE
 70
     0
  9
$VISRETAIN
 70
     1
  9
$PLINEGEN
 70
     0
  9
$PSLTSCALE
 70
     1
  0
ENDSEC
  0
SECTION
  2
TABLES
  0
TABLE
  2
VPORT
 70
     1
  0
VPORT
  2
*ACTIVE
 70
     0
 10
0.0
 20
0.0
 11
1.0
 21
1.0
 12
10.42990654205607
 22
4.5
 13
0.0
 23
0.0
 14
0.5
 24
0.5
 15
0.5
 25
0.5
 16
0.0
 26
0.0
 36
1.0
 17
0.0
 27
0.0
 37
0.0
 40
9.0
 41
1.972972972850329
 42
50.0
 43
0.0
 44
0.0
 50
0.0
 51
0.0
 71
     0
 72
   100
 73
     1
 74
     3
 75
     0
 76
     0
 77
     0
 78
     0
  0
ENDTAB
  0
TABLE
  2
LTYPE
 70
     1
  0
LTYPE
  2
CONTINUOUS
 70
     0
  3
Solid line
 72
    65
 73
     0
 40
0.0
  0
ENDTAB
  0
TABLE
  2
LAYER
 70
     2
  0
LAYER
  2
0
 70
     0
 62
     7
  6
CONTINUOUS
  0
LAYER
  2
DEFAULT
 70
     0
 62
     7
  6
CONTINUOUS
  0
ENDTAB
  0
TABLE
  2
STYLE
 70
     1
  0
STYLE
  2
STANDARD
 70
     0
 40
0.0
 41
1.0
 50
0.0
 71
     0
 42
0.2
  3
txt
  4

  0
ENDTAB
  0
TABLE
  2
VIEW
 70
     0
  0
ENDTAB
  0
TABLE
  2
UCS
 70
     0
  0
ENDTAB
  0
TABLE
  2
APPID
 70
     2
  0
APPID
  2
ACAD
 70
     0
  0
APPID
  2
RHINO
 70
     0
  0
ENDTAB
  0
TABLE
  2
DIMSTYLE
 70
     1
  0
DIMSTYLE
  2
STANDARD_ACAD
 70
     0
  3

  4

  5

  6

  7

 40
1.0
 41
0.18
 42
0.0625
 43
0.38
 44
0.18
 45
0.0
 46
0.0
 47
0.0
 48
0.0
140
0.18
141
0.09
142
0.0
143
25.4
144
1.0
145
0.0
146
1.0
147
0.09
 71
     0
 72
     0
 73
     1
 74
     1
 75
     0
 76
     0
 77
     0
 78
     0
170
     0
171
     2
172
     0
173
     0
174
     0
175
     0
176
     0
177
     0
178
     0
  0
ENDTAB
  0
ENDSEC
  0
SECTION
  2
BLOCKS
  0
BLOCK
  8
0
  2
$MODEL_SPACE
 70
     0
 10
0.0
 20
0.0
 30
0.0
  3
$MODEL_SPACE
  1

  0
ENDBLK
  5
21
  8
0
  0
BLOCK
 67
     1
  8
0
  2
$PAPER_SPACE
 70
     0
 10
0.0
 20
0.0
 30
0.0
  3
$PAPER_SPACE
  1

  0
ENDBLK
  5
1D
 67
     1
  8
0
  0
ENDSEC
  0
SECTION
  2
ENTITIES
  0
LINE
  5
60
  8
DEFAULT
 10
827.5335921350013
 20
-420.0
 30
0.0
 11
820.5835921350013
 21
-420.0
 31
0.0
  0
LINE
  5
61
  8
DEFAULT
 10
820.5835921350013
 20
-420.0
 30
0.0
 11
820.5835921350013
 21
-432.1068460550193
 31
0.0
  0
LINE
  5
62
  8
DEFAULT
 10
820.5835921350013
 20
-432.1068460550193
 30
0.0
 11
832.0978869674097
 21
-435.8480672343017
 31
0.0
  0
LINE
  5
63
  8
DEFAULT
 10
832.0978869674097
 20
-435.8480672343017
 30
0.0
 11
834.2455550783155
 21
-429.2382244460503
 31
0.0
  0
LINE
  5
64
  8
DEFAULT
 10
834.2455550783155
 20
-429.2382244460503
 30
0.0
 11
838.0497811434961
 21
-430.4742924235501
 31
0.0
  0
LINE
  5
65
  8
DEFAULT
 10
838.0497811434961
 20
-430.4742924235501
 30
0.0
 11
835.9021130325903
 21
-437.0841352118014
 31
0.0
  0
LINE
  5
66
  8
DEFAULT
 10
835.9021130325903
 20
-437.0841352118014
 30
0.0
 11
847.4164078649987
 21
-440.8253563910837
 31
0.0
  0
LINE
  5
67
  8
DEFAULT
 10
847.4164078649987
 20
-440.8253563910837
 30
0.0
 11
854.5326334279144
 21
-431.0307121842918
 31
0.0
  0
LINE
  5
68
  8
DEFAULT
 10
854.5326334279144
 20
-431.0307121842918
 30
0.0
 11
848.9099653170085
 21
-426.945604680859
 31
0.0
  0
LINE
  5
69
  8
DEFAULT
 10
848.9099653170085
 20
-426.945604680859
 30
0.0
 11
851.2611063261784
 21
-423.7095367033593
 31
0.0
  0
LINE
  5
6A
  8
DEFAULT
 10
851.2611063261784
 20
-423.7095367033593
 30
0.0
 11
856.8837744370843
 21
-427.794644206792
 31
0.0
  0
LINE
  5
6B
  8
DEFAULT
 10
856.8837744370843
 20
-427.794644206792
 30
0.0
 11
864.0
 21
-418.0
 31
0.0
  0
LINE
  5
6C
  8
DEFAULT
 10
864.0
 20
-418.0
 30
0.0
 11
856.8837744370843
 21
-408.2053557932081
 31
0.0
  0
LINE
  5
6D
  8
DEFAULT
 10
856.8837744370843
 20
-408.2053557932081
 30
0.0
 11
851.2611063261784
 21
-412.2904632966407
 31
0.0
  0
LINE
  5
6E
  8
DEFAULT
 10
851.2611063261784
 20
-412.2904632966407
 30
0.0
 11
848.9099653170085
 21
-409.054395319141
 31
0.0
  0
LINE
  5
6F
  8
DEFAULT
 10
848.9099653170085
 20
-409.054395319141
 30
0.0
 11
854.5326334279144
 21
-404.9692878157082
 31
0.0
  0
LINE
  5
70
  8
DEFAULT
 10
854.5326334279144
 20
-404.9692878157082
 30
0.0
 11
847.4164078649987
 21
-395.1746436089163
 31
0.0
  0
LINE
  5
71
  8
DEFAULT
 10
847.4164078649987
 20
-395.1746436089163
 30
0.0
 11
835.9021130325903
 21
-398.9158647881986
 31
0.0
  0
LINE
  5
72
  8
DEFAULT
 10
835.9021130325903
 20
-398.9158647881986
 30
0.0
 11
838.0497811434961
 21
-405.5257075764499
 31
0.0
  0
LINE
  5
73
  8
DEFAULT
 10
838.0497811434961
 20
-405.5257075764499
 30
0.0
 11
834.2455550783156
 21
-406.7617755539497
 31
0.0
  0
LINE
  5
74
  8
DEFAULT
 10
834.2455550783156
 20
-406.7617755539497
 30
0.0
 11
832.0978869674097
 21
-400.1519327656983
 31
0.0
  0
LINE
  5
75
  8
DEFAULT
 10
832.0978869674097
 20
-400.1519327656983
 30
0.0
 11
820.5835921350013
 21
-403.8931539449807
 31
0.0
  0
LINE
  5
76
  8
DEFAULT
 10
820.5835921350013
 20
-403.8931539449807
 30
0.0
 11
820.5835921350013
 21
-416.0
 31
0.0
  0
LINE
  5
77
  8
DEFAULT
 10
820.5835921350013
 20
-416.0
 30
0.0
 11
827.5335921350013
 21
-416.0
 31
0.0
  0
LINE
  5
78
  8
DEFAULT
 10
827.5335921350013
 20
-416.0
 30
0.0
 11
827.5335921350013
 21
-420.0
 31
0.0
  0
LINE
  5
79
  8
DEFAULT
 10
827.5335921350013
 20
-469.0
 30
0.0
 11
820.5835921350013
 21
-469.0
 31
0.0
  0
LINE
  5
7A
  8
DEFAULT
 10
820.5835921350013
 20
-469.0
 30
0.0
 11
820.5835921350013
 21
-481.1068460550193
 31
0.0
  0
LINE
  5
7B
  8
DEFAULT
 10
820.5835921350013
 20
-481.1068460550193
 30
0.0
 11
832.0978869674097
 21
-484.8480672343017
 31
0.0
  0
LINE
  5
7C
  8
DEFAULT
 10
832.0978869674097
 20
-484.8480672343017
 30
0.0
 11
834.2455550783155
 21
-478.2382244460503
 31
0.0
  0
LINE
  5
7D
  8
DEFAULT
 10
834.2455550783155
 20
-478.2382244460503
 30
0.0
 11
838.0497811434961
 21
-479.4742924235501
 31
0.0
  0
LINE
  5
7E
  8
DEFAULT
 10
838.0497811434961
 20
-479.4742924235501
 30
0.0
 11
835.9021130325903
 21
-486.0841352118014
 31
0.0
  0
LINE
  5
7F
  8
DEFAULT
 10
835.9021130325903
 20
-486.0841352118014
 30
0.0
 11
847.4164078649987
 21
-489.8253563910837
 31
0.0
  0
LINE
  5
80
  8
DEFAULT
 10
847.4164078649987
 20
-489.8253563910837
 30
0.0
 11
854.5326334279144
 21
-480.0307121842918
 31
0.0
  0
LINE
  5
81
  8
DEFAULT
 10
854.5326334279144
 20
-480.0307121842918
 30
0.0
 11
848.9099653170085
 21
-475.945604680859
 31
0.0
  0
LINE
  5
82
  8
DEFAULT
 10
848.9099653170085
 20
-475.945604680859
 30
0.0
 11
851.2611063261784
 21
-472.7095367033593
 31
0.0
  0
LINE
  5
83
  8
DEFAULT
 10
851.2611063261784
 20
-472.7095367033593
 30
0.0
 11
856.8837744370843
 21
-476.7946442067919
 31
0.0
  0
LINE
  5
84
  8
DEFAULT
 10
856.8837744370843
 20
-476.7946442067919
 30
0.0
 11
864.0
 21
-467.0
 31
0.0
  0
LINE
  5
85
  8
DEFAULT
 10
864.0
 20
-467.0
 30
0.0
 11
856.8837744370843
 21
-457.2053557932081
 31
0.0
  0
LINE
  5
86
  8
DEFAULT
 10
856.8837744370843
 20
-457.2053557932081
 30
0.0
 11
851.2611063261784
 21
-461.2904632966407
 31
0.0
  0
LINE
  5
87
  8
DEFAULT
 10
851.2611063261784
 20
-461.2904632966407
 30
0.0
 11
848.9099653170085
 21
-458.054395319141
 31
0.0
  0
LINE
  5
88
  8
DEFAULT
 10
848.9099653170085
 20
-458.054395319141
 30
0.0
 11
854.5326334279144
 21
-453.9692878157082
 31
0.0
  0
LINE
  5
89
  8
DEFAULT
 10
854.5326334279144
 20
-453.9692878157082
 30
0.0
 11
847.4164078649987
 21
-444.1746436089163
 31
0.0
  0
LINE
  5
8A
  8
DEFAULT
 10
847.4164078649987
 20
-444.1746436089163
 30
0.0
 11
835.9021130325903
 21
-447.9158647881986
 31
0.0
  0
LINE
  5
8B
  8
DEFAULT
 10
835.9021130325903
 20
-447.9158647881986
 30
0.0
 11
838.0497811434961
 21
-454.5257075764499
 31
0.0
  0
LINE
  5
8C
  8
DEFAULT
 10
838.0497811434961
 20
-454.5257075764499
 30
0.0
 11
834.2455550783156
 21
-455.7617755539497
 31
0.0
  0
LINE
  5
8D
  8
DEFAULT
 10
834.2455550783156
 20
-455.7617755539497
 30
0.0
 11
832.0978869674097
 21
-449.1519327656983
 31
0.0
  0
LINE
  5
8E
  8
DEFAULT
 10
832.0978869674097
 20
-449.1519327656983
 30
0.0
 11
820.5835921350013
 21
-452.8931539449807
 31
0.0
  0
LINE
  5
8F
  8
DEFAULT
 10
820.5835921350013
 20
-452.8931539449807
 30
0.0
 11
820.5835921350013
 21
-465.0
 31
0.0
  0
LINE
  5
90
  8
DEFAULT
 10
820.5835921350013
 20
-465.0
 30
0.0
 11
827.5335921350013
 21
-465.0
 31
0.0
  0
LINE
  5
91
  8
DEFAULT
 10
827.5335921350013
 20
-465.0
 30
0.0
 11
827.5335921350013
 21
-469.0
 31
0.0
  0
LINE
  5
92
  8
DEFAULT
 10
778.5335921350013
 20
-420.0
 30
0.0
 11
771.5835921350013
 21
-420.0
 31
0.0
  0
LINE
  5
93
  8
DEFAULT
 10
771.5835921350013
 20
-420.0
 30
0.0
 11
771.5835921350013
 21
-432.1068460550193
 31
0.0
  0
LINE
  5
94
  8
DEFAULT
 10
771.5835921350013
 20
-432.1068460550193
 30
0.0
 11
783.0978869674097
 21
-435.8480672343017
 31
0.0
  0
LINE
  5
95
  8
DEFAULT
 10
783.0978869674097
 20
-435.8480672343017
 30
0.0
 11
785.2455550783155
 21
-429.2382244460503
 31
0.0
  0
LINE
  5
96
  8
DEFAULT
 10
785.2455550783155
 20
-429.2382244460503
 30
0.0
 11
789.0497811434961
 21
-430.4742924235501
 31
0.0
  0
LINE
  5
97
  8
DEFAULT
 10
789.0497811434961
 20
-430.4742924235501
 30
0.0
 11
786.9021130325903
 21
-437.0841352118014
 31
0.0
  0
LINE
  5
98
  8
DEFAULT
 10
786.9021130325903
 20
-437.0841352118014
 30
0.0
 11
798.4164078649987
 21
-440.8253563910837
 31
0.0
  0
LINE
  5
99
  8
DEFAULT
 10
798.4164078649987
 20
-440.8253563910837
 30
0.0
 11
805.5326334279144
 21
-431.0307121842918
 31
0.0
  0
LINE
  5
9A
  8
DEFAULT
 10
805.5326334279144
 20
-431.0307121842918
 30
0.0
 11
799.9099653170085
 21
-426.945604680859
 31
0.0
  0
LINE
  5
9B
  8
DEFAULT
 10
799.9099653170085
 20
-426.945604680859
 30
0.0
 11
802.2611063261784
 21
-423.7095367033593
 31
0.0
  0
LINE
  5
9C
  8
DEFAULT
 10
802.2611063261784
 20
-423.7095367033593
 30
0.0
 11
807.8837744370843
 21
-427.794644206792
 31
0.0
  0
LINE
  5
9D
  8
DEFAULT
 10
807.8837744370843
 20
-427.794644206792
 30
0.0
 11
815.0
 21
-418.0
 31
0.0
  0
LINE
  5
9E
  8
DEFAULT
 10
815.0
 20
-418.0
 30
0.0
 11
807.8837744370843
 21
-408.2053557932081
 31
0.0
  0
LINE
  5
9F
  8
DEFAULT
 10
807.8837744370843
 20
-408.2053557932081
 30
0.0
 11
802.2611063261784
 21
-412.2904632966407
 31
0.0
  0
LINE
  5
A0
  8
DEFAULT
 10
802.2611063261784
 20
-412.2904632966407
 30
0.0
 11
799.9099653170085
 21
-409.054395319141
 31
0.0
  0
LINE
  5
A1
  8
DEFAULT
 10
799.9099653170085
 20
-409.054395319141
 30
0.0
 11
805.5326334279144
 21
-404.9692878157082
 31
0.0
  0
LINE
  5
A2
  8
DEFAULT
 10
805.5326334279144
 20
-404.9692878157082
 30
0.0
 11
798.4164078649987
 21
-395.1746436089163
 31
0.0
  0
LINE
  5
A3
  8
DEFAULT
 10
798.4164078649987
 20
-395.1746436089163
 30
0.0
 11
786.9021130325903
 21
-398.9158647881986
 31
0.0
  0
LINE
  5
A4
  8
DEFAULT
 10
786.9021130325903
 20
-398.9158647881986
 30
0.0
 11
789.0497811434961
 21
-405.5257075764499
 31
0.0
  0
LINE
  5
A5
  8
DEFAULT
 10
789.0497811434961
 20
-405.5257075764499
 30
0.0
 11
785.2455550783156
 21
-406.7617755539497
 31
0.0
  0
LINE
  5
A6
  8
DEFAULT
 10
785.2455550783156
 20
-406.7617755539497
 30
0.0
 11
783.0978869674097
 21
-400.1519327656983
 31
0.0
  0
LINE
  5
A7
  8
DEFAULT
 10
783.0978869674097
 20
-400.1519327656983
 30
0.0
 11
771.5835921350013
 21
-403.8931539449807
 31
0.0
  0
LINE
  5
A8
  8
DEFAULT
 10
771.5835921350013
 20
-403.8931539449807
 30
0.0
 11
771.5835921350013
 21
-416.0
 31
0.0
  0
LINE
  5
A9
  8
DEFAULT
 10
771.5835921350013
 20
-416.0
 30
0.0
 11
778.5335921350013
 21
-416.0
 31
0.0
  0
LINE
  5
AA
  8
DEFAULT
 10
778.5335921350013
 20
-416.0
 30
0.0
 11
778.5335921350013
 21
-420.0
 31
0.0
  0
LINE
  5
AB
  8
DEFAULT
 10
783.0978869674097
 20
-484.8480672343017
 30
4.0
 11
771.5835921350013
 21
-481.1068460550193
 31
4.0
  0
LINE
  5
AC
  8
DEFAULT
 10
771.5835921350013
 20
-481.1068460550193
 30
4.0
 11
771.5835921350013
 21
-469.0
 31
4.0
  0
LINE
  5
AD
  8
DEFAULT
 10
771.5835921350013
 20
-469.0
 30
4.0
 11
778.5335921350013
 21
-469.0
 31
4.0
  0
LINE
  5
AE
  8
DEFAULT
 10
778.5335921350013
 20
-469.0
 30
4.0
 11
778.5335921350013
 21
-465.0
 31
4.0
  0
LINE
  5
AF
  8
DEFAULT
 10
778.5335921350013
 20
-465.0
 30
4.0
 11
771.5835921350013
 21
-465.0
 31
4.0
  0
LINE
  5
B0
  8
DEFAULT
 10
771.5835921350013
 20
-465.0
 30
4.0
 11
771.5835921350013
 21
-452.8931539449807
 31
4.0
  0
LINE
  5
B1
  8
DEFAULT
 10
771.5835921350013
 20
-452.8931539449807
 30
4.0
 11
783.0978869674097
 21
-449.1519327656983
 31
4.0
  0
LINE
  5
B2
  8
DEFAULT
 10
783.0978869674097
 20
-449.1519327656983
 30
4.0
 11
785.2455550783156
 21
-455.7617755539497
 31
4.0
  0
LINE
  5
B3
  8
DEFAULT
 10
785.2455550783156
 20
-455.7617755539497
 30
4.0
 11
789.0497811434961
 21
-454.5257075764499
 31
4.0
  0
LINE
  5
B4
  8
DEFAULT
 10
789.0497811434961
 20
-454.5257075764499
 30
4.0
 11
786.9021130325903
 21
-447.9158647881986
 31
4.0
  0
LINE
  5
B5
  8
DEFAULT
 10
786.9021130325903
 20
-447.9158647881986
 30
4.0
 11
798.4164078649987
 21
-444.1746436089163
 31
4.0
  0
LINE
  5
B6
  8
DEFAULT
 10
798.4164078649987
 20
-444.1746436089163
 30
4.0
 11
805.5326334279144
 21
-453.9692878157082
 31
4.0
  0
LINE
  5
B7
  8
DEFAULT
 10
805.5326334279144
 20
-453.9692878157082
 30
4.0
 11
799.9099653170085
 21
-458.054395319141
 31
4.0
  0
LINE
  5
B8
  8
DEFAULT
 10
799.9099653170085
 20
-458.054395319141
 30
4.0
 11
802.2611063261784
 21
-461.2904632966407
 31
4.0
  0
LINE
  5
B9
  8
DEFAULT
 10
802.2611063261784
 20
-461.2904632966407
 30
4.0
 11
807.8837744370843
 21
-457.2053557932081
 31
4.0
  0
LINE
  5
BA
  8
DEFAULT
 10
807.8837744370843
 20
-457.2053557932081
 30
4.0
 11
815.0
 21
-467.0
 31
4.0
  0
LINE
  5
BB
  8
DEFAULT
 10
815.0
 20
-467.0
 30
4.0
 11
807.8837744370843
 21
-476.7946442067919
 31
4.0
  0
LINE
  5
BC
  8
DEFAULT
 10
807.8837744370843
 20
-476.7946442067919
 30
4.0
 11
802.2611063261784
 21
-472.7095367033593
 31
4.0
  0
LINE
  5
BD
  8
DEFAULT
 10
802.2611063261784
 20
-472.7095367033593
 30
4.0
 11
799.9099653170085
 21
-475.945604680859
 31
4.0
  0
LINE
  5
BE
  8
DEFAULT
 10
799.9099653170085
 20
-475.945604680859
 30
4.0
 11
805.5326334279144
 21
-480.0307121842918
 31
4.0
  0
LINE
  5
BF
  8
DEFAULT
 10
805.5326334279144
 20
-480.0307121842918
 30
4.0
 11
798.4164078649987
 21
-489.8253563910837
 31
4.0
  0
LINE
  5
C0
  8
DEFAULT
 10
798.4164078649987
 20
-489.8253563910837
 30
4.0
 11
786.9021130325903
 21
-486.0841352118014
 31
4.0
  0
LINE
  5
C1
  8
DEFAULT
 10
786.9021130325903
 20
-486.0841352118014
 30
4.0
 11
789.0497811434961
 21
-479.4742924235501
 31
4.0
  0
LINE
  5
C2
  8
DEFAULT
 10
789.0497811434961
 20
-479.4742924235501
 30
4.0
 11
785.2455550783155
 21
-478.2382244460503
 31
4.0
  0
LINE
  5
C3
  8
DEFAULT
 10
785.2455550783155
 20
-478.2382244460503
 30
4.0
 11
783.0978869674097
 21
-484.8480672343017
 31
4.0
  0
LINE
  5
C4
  8
DEFAULT
 10
734.0978869674097
 20
-484.8480672343017
 30
4.0
 11
722.5835921350013
 21
-481.1068460550193
 31
4.0
  0
LINE
  5
C5
  8
DEFAULT
 10
722.5835921350013
 20
-481.1068460550193
 30
4.0
 11
722.5835921350013
 21
-469.0
 31
4.0
  0
LINE
  5
C6
  8
DEFAULT
 10
722.5835921350013
 20
-469.0
 30
4.0
 11
729.5335921350013
 21
-469.0
 31
4.0
  0
LINE
  5
C7
  8
DEFAULT
 10
729.5335921350013
 20
-469.0
 30
4.0
 11
729.5335921350013
 21
-465.0
 31
4.0
  0
LINE
  5
C8
  8
DEFAULT
 10
729.5335921350013
 20
-465.0
 30
4.0
 11
722.5835921350013
 21
-465.0
 31
4.0
  0
LINE
  5
C9
  8
DEFAULT
 10
722.5835921350013
 20
-465.0
 30
4.0
 11
722.5835921350013
 21
-452.8931539449807
 31
4.0
  0
LINE
  5
CA
  8
DEFAULT
 10
722.5835921350013
 20
-452.8931539449807
 30
4.0
 11
734.0978869674097
 21
-449.1519327656983
 31
4.0
  0
LINE
  5
CB
  8
DEFAULT
 10
734.0978869674097
 20
-449.1519327656983
 30
4.0
 11
736.2455550783156
 21
-455.7617755539497
 31
4.0
  0
LINE
  5
CC
  8
DEFAULT
 10
736.2455550783156
 20
-455.7617755539497
 30
4.0
 11
740.0497811434961
 21
-454.5257075764499
 31
4.0
  0
LINE
  5
CD
  8
DEFAULT
 10
740.0497811434961
 20
-454.5257075764499
 30
4.0
 11
737.9021130325903
 21
-447.9158647881986
 31
4.0
  0
LINE
  5
CE
  8
DEFAULT
 10
737.9021130325903
 20
-447.9158647881986
 30
4.0
 11
749.4164078649987
 21
-444.1746436089163
 31
4.0
  0
LINE
  5
CF
  8
DEFAULT
 10
749.4164078649987
 20
-444.1746436089163
 30
4.0
 11
756.5326334279144
 21
-453.9692878157082
 31
4.0
  0
LINE
  5
D0
  8
DEFAULT
 10
756.5326334279144
 20
-453.9692878157082
 30
4.0
 11
750.9099653170085
 21
-458.054395319141
 31
4.0
  0
LINE
  5
D1
  8
DEFAULT
 10
750.9099653170085
 20
-458.054395319141
 30
4.0
 11
753.2611063261784
 21
-461.2904632966407
 31
4.0
  0
LINE
  5
D2
  8
DEFAULT
 10
753.2611063261784
 20
-461.2904632966407
 30
4.0
 11
758.8837744370843
 21
-457.2053557932081
 31
4.0
  0
LINE
  5
D3
  8
DEFAULT
 10
758.8837744370843
 20
-457.2053557932081
 30
4.0
 11
766.0
 21
-467.0
 31
4.0
  0
LINE
  5
D4
  8
DEFAULT
 10
766.0
 20
-467.0
 30
4.0
 11
758.8837744370843
 21
-476.7946442067919
 31
4.0
  0
LINE
  5
D5
  8
DEFAULT
 10
758.8837744370843
 20
-476.7946442067919
 30
4.0
 11
753.2611063261784
 21
-472.7095367033593
 31
4.0
  0
LINE
  5
D6
  8
DEFAULT
 10
753.2611063261784
 20
-472.7095367033593
 30
4.0
 11
750.9099653170085
 21
-475.945604680859
 31
4.0
  0
LINE
  5
D7
  8
DEFAULT
 10
750.9099653170085
 20
-475.945604680859
 30
4.0
 11
756.5326334279144
 21
-480.0307121842918
 31
4.0
  0
LINE
  5
D8
  8
DEFAULT
 10
756.5326334279144
 20
-480.0307121842918
 30
4.0
 11
749.4164078649987
 21
-489.8253563910837
 31
4.0
  0
LINE
  5
D9
  8
DEFAULT
 10
749.4164078649987
 20
-489.8253563910837
 30
4.0
 11
737.9021130325903
 21
-486.0841352118014
 31
4.0
  0
LINE
  5
DA
  8
DEFAULT
 10
737.9021130325903
 20
-486.0841352118014
 30
4.0
 11
740.0497811434961
 21
-479.4742924235501
 31
4.0
  0
LINE
  5
DB
  8
DEFAULT
 10
740.0497811434961
 20
-479.4742924235501
 30
4.0
 11
736.2455550783156
 21
-478.2382244460503
 31
4.0
  0
LINE
  5
DC
  8
DEFAULT
 10
736.2455550783156
 20
-478.2382244460503
 30
4.0
 11
734.0978869674097
 21
-484.8480672343017
 31
4.0
  0
LINE
  5
DD
  8
DEFAULT
 10
734.0978869674097
 20
-435.8480672343017
 30
4.0
 11
722.5835921350013
 21
-432.1068460550193
 31
4.0
  0
LINE
  5
DE
  8
DEFAULT
 10
722.5835921350013
 20
-432.1068460550193
 30
4.0
 11
722.5835921350013
 21
-420.0
 31
4.0
  0
LINE
  5
DF
  8
DEFAULT
 10
722.5835921350013
 20
-420.0
 30
4.0
 11
729.5335921350013
 21
-420.0
 31
4.0
  0
LINE
  5
E0
  8
DEFAULT
 10
729.5335921350013
 20
-420.0
 30
4.0
 11
729.5335921350013
 21
-416.0
 31
4.0
  0
LINE
  5
E1
  8
DEFAULT
 10
729.5335921350013
 20
-416.0
 30
4.0
 11
722.5835921350013
 21
-416.0
 31
4.0
  0
LINE
  5
E2
  8
DEFAULT
 10
722.5835921350013
 20
-416.0
 30
4.0
 11
722.5835921350013
 21
-403.8931539449807
 31
4.0
  0
LINE
  5
E3
  8
DEFAULT
 10
722.5835921350013
 20
-403.8931539449807
 30
4.0
 11
734.0978869674097
 21
-400.1519327656983
 31
4.0
  0
LINE
  5
E4
  8
DEFAULT
 10
734.0978869674097
 20
-400.1519327656983
 30
4.0
 11
736.2455550783156
 21
-406.7617755539497
 31
4.0
  0
LINE
  5
E5
  8
DEFAULT
 10
736.2455550783156
 20
-406.7617755539497
 30
4.0
 11
740.0497811434961
 21
-405.5257075764499
 31
4.0
  0
LINE
  5
E6
  8
DEFAULT
 10
740.0497811434961
 20
-405.5257075764499
 30
4.0
 11
737.9021130325903
 21
-398.9158647881986
 31
4.0
  0
LINE
  5
E7
  8
DEFAULT
 10
737.9021130325903
 20
-398.9158647881986
 30
4.0
 11
749.4164078649987
 21
-395.1746436089163
 31
4.0
  0
LINE
  5
E8
  8
DEFAULT
 10
749.4164078649987
 20
-395.1746436089163
 30
4.0
 11
756.5326334279144
 21
-404.9692878157082
 31
4.0
  0
LINE
  5
E9
  8
DEFAULT
 10
756.5326334279144
 20
-404.9692878157082
 30
4.0
 11
750.9099653170085
 21
-409.054395319141
 31
4.0
  0
LINE
  5
EA
  8
DEFAULT
 10
750.9099653170085
 20
-409.054395319141
 30
4.0
 11
753.2611063261784
 21
-412.2904632966407
 31
4.0
  0
LINE
  5
EB
  8
DEFAULT
 10
753.2611063261784
 20
-412.2904632966407
 30
4.0
 11
758.8837744370843
 21
-408.2053557932081
 31
4.0
  0
LINE
  5
EC
  8
DEFAULT
 10
758.8837744370843
 20
-408.2053557932081
 30
4.0
 11
766.0
 21
-418.0
 31
4.0
  0
LINE
  5
ED
  8
DEFAULT
 10
766.0
 20
-418.0
 30
4.0
 11
758.8837744370843
 21
-427.794644206792
 31
4.0
  0
LINE
  5
EE
  8
DEFAULT
 10
758.8837744370843
 20
-427.794644206792
 30
4.0
 11
753.2611063261784
 21
-423.7095367033593
 31
4.0
  0
LINE
  5
EF
  8
DEFAULT
 10
753.2611063261784
 20
-423.7095367033593
 30
4.0
 11
750.9099653170085
 21
-426.945604680859
 31
4.0
  0
LINE
  5
F0
  8
DEFAULT
 10
750.9099653170085
 20
-426.945604680859
 30
4.0
 11
756.5326334279144
 21
-431.0307121842918
 31
4.0
  0
LINE
  5
F1
  8
DEFAULT
 10
756.5326334279144
 20
-431.0307121842918
 30
4.0
 11
749.4164078649987
 21
-440.8253563910837
 31
4.0
  0
LINE
  5
F2
  8
DEFAULT
 10
749.4164078649987
 20
-440.8253563910837
 30
4.0
 11
737.9021130325903
 21
-437.0841352118014
 31
4.0
  0
LINE
  5
F3
  8
DEFAULT
 10
737.9021130325903
 20
-437.0841352118014
 30
4.0
 11
740.0497811434961
 21
-430.4742924235501
 31
4.0
  0
LINE
  5
F4
  8
DEFAULT
 10
740.0497811434961
 20
-430.4742924235501
 30
4.0
 11
736.2455550783156
 21
-429.2382244460503
 31
4.0
  0
LINE
  5
F5
  8
DEFAULT
 10
736.2455550783156
 20
-429.2382244460503
 30
4.0
 11
734.0978869674097
 21
-435.8480672343017
 31
4.0
  0
LINE
  5
F6
  8
DEFAULT
 10
680.5335921350013
 20
-420.0
 30
0.0
 11
673.5835921350013
 21
-420.0
 31
0.0
  0
LINE
  5
F7
  8
DEFAULT
 10
673.5835921350013
 20
-420.0
 30
0.0
 11
673.5835921350013
 21
-432.1068460550193
 31
0.0
  0
LINE
  5
F8
  8
DEFAULT
 10
673.5835921350013
 20
-432.1068460550193
 30
0.0
 11
685.0978869674097
 21
-435.8480672343017
 31
0.0
  0
LINE
  5
F9
  8
DEFAULT
 10
685.0978869674097
 20
-435.8480672343017
 30
0.0
 11
687.2455550783156
 21
-429.2382244460503
 31
0.0
  0
LINE
  5
FA
  8
DEFAULT
 10
687.2455550783156
 20
-429.2382244460503
 30
0.0
 11
691.0497811434961
 21
-430.4742924235501
 31
0.0
  0
LINE
  5
FB
  8
DEFAULT
 10
691.0497811434961
 20
-430.4742924235501
 30
0.0
 11
688.9021130325903
 21
-437.0841352118014
 31
0.0
  0
LINE
  5
FC
  8
DEFAULT
 10
688.9021130325903
 20
-437.0841352118014
 30
0.0
 11
700.4164078649987
 21
-440.8253563910837
 31
0.0
  0
LINE
  5
FD
  8
DEFAULT
 10
700.4164078649987
 20
-440.8253563910837
 30
0.0
 11
707.5326334279144
 21
-431.0307121842918
 31
0.0
  0
LINE
  5
FE
  8
DEFAULT
 10
707.5326334279144
 20
-431.0307121842918
 30
0.0
 11
701.9099653170085
 21
-426.945604680859
 31
0.0
  0
LINE
  5
FF
  8
DEFAULT
 10
701.9099653170085
 20
-426.945604680859
 30
0.0
 11
704.2611063261784
 21
-423.7095367033593
 31
0.0
  0
LINE
  5
100
  8
DEFAULT
 10
704.2611063261784
 20
-423.7095367033593
 30
0.0
 11
709.8837744370843
 21
-427.794644206792
 31
0.0
  0
LINE
  5
101
  8
DEFAULT
 10
709.8837744370843
 20
-427.794644206792
 30
0.0
 11
717.0
 21
-418.0
 31
0.0
  0
LINE
  5
102
  8
DEFAULT
 10
717.0
 20
-418.0
 30
0.0
 11
709.8837744370843
 21
-408.2053557932081
 31
0.0
  0
LINE
  5
103
  8
DEFAULT
 10
709.8837744370843
 20
-408.2053557932081
 30
0.0
 11
704.2611063261784
 21
-412.2904632966407
 31
0.0
  0
LINE
  5
104
  8
DEFAULT
 10
704.2611063261784
 20
-412.2904632966407
 30
0.0
 11
701.9099653170085
 21
-409.054395319141
 31
0.0
  0
LINE
  5
105
  8
DEFAULT
 10
701.9099653170085
 20
-409.054395319141
 30
0.0
 11
707.5326334279144
 21
-404.9692878157082
 31
0.0
  0
LINE
  5
106
  8
DEFAULT
 10
707.5326334279144
 20
-404.9692878157082
 30
0.0
 11
700.4164078649987
 21
-395.1746436089163
 31
0.0
  0
LINE
  5
107
  8
DEFAULT
 10
700.4164078649987
 20
-395.1746436089163
 30
0.0
 11
688.9021130325903
 21
-398.9158647881986
 31
0.0
  0
LINE
  5
108
  8
DEFAULT
 10
688.9021130325903
 20
-398.9158647881986
 30
0.0
 11
691.0497811434961
 21
-405.5257075764499
 31
0.0
  0
LINE
  5
109
  8
DEFAULT
 10
691.0497811434961
 20
-405.5257075764499
 30
0.0
 11
687.2455550783156
 21
-406.7617755539497
 31
0.0
  0
LINE
  5
10A
  8
DEFAULT
 10
687.2455550783156
 20
-406.7617755539497
 30
0.0
 11
685.0978869674097
 21
-400.1519327656983
 31
0.0
  0
LINE
  5
10B
  8
DEFAULT
 10
685.0978869674097
 20
-400.1519327656983
 30
0.0
 11
673.5835921350013
 21
-403.8931539449807
 31
0.0
  0
LINE
  5
10C
  8
DEFAULT
 10
673.5835921350013
 20
-403.8931539449807
 30
0.0
 11
673.5835921350013
 21
-416.0
 31
0.0
  0
LINE
  5
10D
  8
DEFAULT
 10
673.5835921350013
 20
-416.0
 30
0.0
 11
680.5335921350013
 21
-416.0
 31
0.0
  0
LINE
  5
10E
  8
DEFAULT
 10
680.5335921350013
 20
-416.0
 30
0.0
 11
680.5335921350013
 21
-420.0
 31
0.0
  0
LINE
  5
10F
  8
DEFAULT
 10
680.5335921350013
 20
-469.0
 30
0.0
 11
673.5835921350013
 21
-469.0
 31
0.0
  0
LINE
  5
110
  8
DEFAULT
 10
673.5835921350013
 20
-469.0
 30
0.0
 11
673.5835921350013
 21
-481.1068460550193
 31
0.0
  0
LINE
  5
111
  8
DEFAULT
 10
673.5835921350013
 20
-481.1068460550193
 30
0.0
 11
685.0978869674097
 21
-484.8480672343017
 31
0.0
  0
LINE
  5
112
  8
DEFAULT
 10
685.0978869674097
 20
-484.8480672343017
 30
0.0
 11
687.2455550783156
 21
-478.2382244460503
 31
0.0
  0
LINE
  5
113
  8
DEFAULT
 10
687.2455550783156
 20
-478.2382244460503
 30
0.0
 11
691.0497811434961
 21
-479.4742924235501
 31
0.0
  0
LINE
  5
114
  8
DEFAULT
 10
691.0497811434961
 20
-479.4742924235501
 30
0.0
 11
688.9021130325903
 21
-486.0841352118014
 31
0.0
  0
LINE
  5
115
  8
DEFAULT
 10
688.9021130325903
 20
-486.0841352118014
 30
0.0
 11
700.4164078649987
 21
-489.8253563910837
 31
0.0
  0
LINE
  5
116
  8
DEFAULT
 10
700.4164078649987
 20
-489.8253563910837
 30
0.0
 11
707.5326334279144
 21
-480.0307121842918
 31
0.0
  0
LINE
  5
117
  8
DEFAULT
 10
707.5326334279144
 20
-480.0307121842918
 30
0.0
 11
701.9099653170085
 21
-475.945604680859
 31
0.0
  0
LINE
  5
118
  8
DEFAULT
 10
701.9099653170085
 20
-475.945604680859
 30
0.0
 11
704.2611063261784
 21
-472.7095367033593
 31
0.0
  0
LINE
  5
119
  8
DEFAULT
 10
704.2611063261784
 20
-472.7095367033593
 30
0.0
 11
709.8837744370843
 21
-476.7946442067919
 31
0.0
  0
LINE
  5
11A
  8
DEFAULT
 10
709.8837744370843
 20
-476.7946442067919
 30
0.0
 11
717.0
 21
-467.0
 31
0.0
  0
LINE
  5
11B
  8
DEFAULT
 10
717.0
 20
-467.0
 30
0.0
 11
709.8837744370843
 21
-457.2053557932081
 31
0.0
  0
LINE
  5
11C
  8
DEFAULT
 10
709.8837744370843
 20
-457.2053557932081
 30
0.0
 11
704.2611063261784
 21
-461.2904632966407
 31
0.0
  0
LINE
  5
11D
  8
DEFAULT
 10
704.2611063261784
 20
-461.2904632966407
 30
0.0
 11
701.9099653170085
 21
-458.054395319141
 31
0.0
  0
LINE
  5
11E
  8
DEFAULT
 10
701.9099653170085
 20
-458.054395319141
 30
0.0
 11
707.5326334279144
 21
-453.9692878157082
 31
0.0
  0
LINE
  5
11F
  8
DEFAULT
 10
707.5326334279144
 20
-453.9692878157082
 30
0.0
 11
700.4164078649987
 21
-444.1746436089163
 31
0.0
  0
LINE
  5
120
  8
DEFAULT
 10
700.4164078649987
 20
-444.1746436089163
 30
0.0
 11
688.9021130325903
 21
-447.9158647881986
 31
0.0
  0
LINE
  5
121
  8
DEFAULT
 10
688.9021130325903
 20
-447.9158647881986
 30
0.0
 11
691.0497811434961
 21
-454.5257075764499
 31
0.0
  0
LINE
  5
122
  8
DEFAULT
 10
691.0497811434961
 20
-454.5257075764499
 30
0.0
 11
687.2455550783156
 21
-455.7617755539497
 31
0.0
  0
LINE
  5
123
  8
DEFAULT
 10
687.2455550783156
 20
-455.7617755539497
 30
0.0
 11
685.0978869674097
 21
-449.1519327656983
 31
0.0
  0
LINE
  5
124
  8
DEFAULT
 10
685.0978869674097
 20
-449.1519327656983
 30
0.0
 11
673.5835921350013
 21
-452.8931539449807
 31
0.0
  0
LINE
  5
125
  8
DEFAULT
 10
673.5835921350013
 20
-452.8931539449807
 30
0.0
 11
673.5835921350013
 21
-465.0
 31
0.0
  0
LINE
  5
126
  8
DEFAULT
 10
673.5835921350013
 20
-465.0
 30
0.0
 11
680.5335921350013
 21
-465.0
 31
0.0
  0
LINE
  5
127
  8
DEFAULT
 10
680.5335921350013
 20
-465.0
 30
0.0
 11
680.5335921350013
 21
-469.0
 31
0.0
  0
LINE
  5
128
  8
DEFAULT
 10
631.5335921350013
 20
-469.0
 30
0.0
 11
624.5835921350013
 21
-469.0
 31
0.0
  0
LINE
  5
129
  8
DEFAULT
 10
624.5835921350013
 20
-469.0
 30
0.0
 11
624.5835921350013
 21
-481.1068460550193
 31
0.0
  0
LINE
  5
12A
  8
DEFAULT
 10
624.5835921350013
 20
-481.1068460550193
 30
0.0
 11
636.0978869674097
 21
-484.8480672343017
 31
0.0
  0
LINE
  5
12B
  8
DEFAULT
 10
636.0978869674097
 20
-484.8480672343017
 30
0.0
 11
638.2455550783155
 21
-478.2382244460503
 31
0.0
  0
LINE
  5
12C
  8
DEFAULT
 10
638.2455550783155
 20
-478.2382244460503
 30
0.0
 11
642.0497811434961
 21
-479.4742924235501
 31
0.0
  0
LINE
  5
12D
  8
DEFAULT
 10
642.0497811434961
 20
-479.4742924235501
 30
0.0
 11
639.9021130325903
 21
-486.0841352118014
 31
0.0
  0
LINE
  5
12E
  8
DEFAULT
 10
639.9021130325903
 20
-486.0841352118014
 30
0.0
 11
651.4164078649987
 21
-489.8253563910837
 31
0.0
  0
LINE
  5
12F
  8
DEFAULT
 10
651.4164078649987
 20
-489.8253563910837
 30
0.0
 11
658.5326334279144
 21
-480.0307121842918
 31
0.0
  0
LINE
  5
130
  8
DEFAULT
 10
658.5326334279144
 20
-480.0307121842918
 30
0.0
 11
652.9099653170085
 21
-475.945604680859
 31
0.0
  0
LINE
  5
131
  8
DEFAULT
 10
652.9099653170085
 20
-475.945604680859
 30
0.0
 11
655.2611063261784
 21
-472.7095367033593
 31
0.0
  0
LINE
  5
132
  8
DEFAULT
 10
655.2611063261784
 20
-472.7095367033593
 30
0.0
 11
660.8837744370843
 21
-476.7946442067919
 31
0.0
  0
LINE
  5
133
  8
DEFAULT
 10
660.8837744370843
 20
-476.7946442067919
 30
0.0
 11
668.0
 21
-467.0
 31
0.0
  0
LINE
  5
134
  8
DEFAULT
 10
668.0
 20
-467.0
 30
0.0
 11
660.8837744370843
 21
-457.2053557932081
 31
0.0
  0
LINE
  5
135
  8
DEFAULT
 10
660.8837744370843
 20
-457.2053557932081
 30
0.0
 11
655.2611063261784
 21
-461.2904632966407
 31
0.0
  0
LINE
  5
136
  8
DEFAULT
 10
655.2611063261784
 20
-461.2904632966407
 30
0.0
 11
652.9099653170085
 21
-458.054395319141
 31
0.0
  0
LINE
  5
137
  8
DEFAULT
 10
652.9099653170085
 20
-458.054395319141
 30
0.0
 11
658.5326334279144
 21
-453.9692878157082
 31
0.0
  0
LINE
  5
138
  8
DEFAULT
 10
658.5326334279144
 20
-453.9692878157082
 30
0.0
 11
651.4164078649987
 21
-444.1746436089163
 31
0.0
  0
LINE
  5
139
  8
DEFAULT
 10
651.4164078649987
 20
-444.1746436089163
 30
0.0
 11
639.9021130325903
 21
-447.9158647881986
 31
0.0
  0
LINE
  5
13A
  8
DEFAULT
 10
639.9021130325903
 20
-447.9158647881986
 30
0.0
 11
642.0497811434961
 21
-454.5257075764499
 31
0.0
  0
LINE
  5
13B
  8
DEFAULT
 10
642.0497811434961
 20
-454.5257075764499
 30
0.0
 11
638.2455550783156
 21
-455.7617755539497
 31
0.0
  0
LINE
  5
13C
  8
DEFAULT
 10
638.2455550783156
 20
-455.7617755539497
 30
0.0
 11
636.0978869674097
 21
-449.1519327656983
 31
0.0
  0
LINE
  5
13D
  8
DEFAULT
 10
636.0978869674097
 20
-449.1519327656983
 30
0.0
 11
624.5835921350013
 21
-452.8931539449807
 31
0.0
  0
LINE
  5
13E
  8
DEFAULT
 10
624.5835921350013
 20
-452.8931539449807
 30
0.0
 11
624.5835921350013
 21
-465.0
 31
0.0
  0
LINE
  5
13F
  8
DEFAULT
 10
624.5835921350013
 20
-465.0
 30
0.0
 11
631.5335921350013
 21
-465.0
 31
0.0
  0
LINE
  5
140
  8
DEFAULT
 10
631.5335921350013
 20
-465.0
 30
0.0
 11
631.5335921350013
 21
-469.0
 31
0.0
  0
LINE
  5
141
  8
DEFAULT
 10
636.0978869674097
 20
-435.8480672343017
 30
4.0
 11
624.5835921350013
 21
-432.1068460550193
 31
4.0
  0
LINE
  5
142
  8
DEFAULT
 10
624.5835921350013
 20
-432.1068460550193
 30
4.0
 11
624.5835921350013
 21
-420.0
 31
4.0
  0
LINE
  5
143
  8
DEFAULT
 10
624.5835921350013
 20
-420.0
 30
4.0
 11
631.5335921350013
 21
-420.0
 31
4.0
  0
LINE
  5
144
  8
DEFAULT
 10
631.5335921350013
 20
-420.0
 30
4.0
 11
631.5335921350013
 21
-416.0
 31
4.0
  0
LINE
  5
145
  8
DEFAULT
 10
631.5335921350013
 20
-416.0
 30
4.0
 11
624.5835921350013
 21
-416.0
 31
4.0
  0
LINE
  5
146
  8
DEFAULT
 10
624.5835921350013
 20
-416.0
 30
4.0
 11
624.5835921350013
 21
-403.8931539449807
 31
4.0
  0
LINE
  5
147
  8
DEFAULT
 10
624.5835921350013
 20
-403.8931539449807
 30
4.0
 11
636.0978869674097
 21
-400.1519327656983
 31
4.0
  0
LINE
  5
148
  8
DEFAULT
 10
636.0978869674097
 20
-400.1519327656983
 30
4.0
 11
638.2455550783156
 21
-406.7617755539497
 31
4.0
  0
LINE
  5
149
  8
DEFAULT
 10
638.2455550783156
 20
-406.7617755539497
 30
4.0
 11
642.0497811434961
 21
-405.5257075764499
 31
4.0
  0
LINE
  5
14A
  8
DEFAULT
 10
642.0497811434961
 20
-405.5257075764499
 30
4.0
 11
639.9021130325903
 21
-398.9158647881986
 31
4.0
  0
LINE
  5
14B
  8
DEFAULT
 10
639.9021130325903
 20
-398.9158647881986
 30
4.0
 11
651.4164078649987
 21
-395.1746436089163
 31
4.0
  0
LINE
  5
14C
  8
DEFAULT
 10
651.4164078649987
 20
-395.1746436089163
 30
4.0
 11
658.5326334279144
 21
-404.9692878157082
 31
4.0
  0
LINE
  5
14D
  8
DEFAULT
 10
658.5326334279144
 20
-404.9692878157082
 30
4.0
 11
652.9099653170085
 21
-409.054395319141
 31
4.0
  0
LINE
  5
14E
  8
DEFAULT
 10
652.9099653170085
 20
-409.054395319141
 30
4.0
 11
655.2611063261784
 21
-412.2904632966407
 31
4.0
  0
LINE
  5
14F
  8
DEFAULT
 10
655.2611063261784
 20
-412.2904632966407
 30
4.0
 11
660.8837744370843
 21
-408.2053557932081
 31
4.0
  0
LINE
  5
150
  8
DEFAULT
 10
660.8837744370843
 20
-408.2053557932081
 30
4.0
 11
668.0
 21
-418.0
 31
4.0
  0
LINE
  5
151
  8
DEFAULT
 10
668.0
 20
-418.0
 30
4.0
 11
660.8837744370843
 21
-427.794644206792
 31
4.0
  0
LINE
  5
152
  8
DEFAULT
 10
660.8837744370843
 20
-427.794644206792
 30
4.0
 11
655.2611063261784
 21
-423.7095367033593
 31
4.0
  0
LINE
  5
153
  8
DEFAULT
 10
655.2611063261784
 20
-423.7095367033593
 30
4.0
 11
652.9099653170085
 21
-426.945604680859
 31
4.0
  0
LINE
  5
154
  8
DEFAULT
 10
652.9099653170085
 20
-426.945604680859
 30
4.0
 11
658.5326334279144
 21
-431.0307121842918
 31
4.0
  0
LINE
  5
155
  8
DEFAULT
 10
658.5326334279144
 20
-431.0307121842918
 30
4.0
 11
651.4164078649987
 21
-440.8253563910837
 31
4.0
  0
LINE
  5
156
  8
DEFAULT
 10
651.4164078649987
 20
-440.8253563910837
 30
4.0
 11
639.9021130325903
 21
-437.0841352118014
 31
4.0
  0
LINE
  5
157
  8
DEFAULT
 10
639.9021130325903
 20
-437.0841352118014
 30
4.0
 11
642.0497811434961
 21
-430.4742924235501
 31
4.0
  0
LINE
  5
158
  8
DEFAULT
 10
642.0497811434961
 20
-430.4742924235501
 30
4.0
 11
638.2455550783155
 21
-429.2382244460503
 31
4.0
  0
LINE
  5
159
  8
DEFAULT
 10
638.2455550783155
 20
-429.2382244460503
 30
4.0
 11
636.0978869674097
 21
-435.8480672343017
 31
4.0
  0
LINE
  5
15A
  8
DEFAULT
 10
551.079689783217
 20
-382.079689783217
 30
0.0
 11
547.3052117563387
 21
-391.1920858265859
 31
0.0
  0
LINE
  5
15B
  8
DEFAULT
 10
547.3052117563387
 20
-391.1920858265859
 30
0.0
 11
552.8022949747808
 21
-393.4690522491582
 31
0.0
  0
LINE
  5
15C
  8
DEFAULT
 10
552.8022949747808
 20
-393.4690522491582
 30
0.0
 11
551.2715612453205
 21
-397.1645703792034
 31
0.0
  0
LINE
  5
15D
  8
DEFAULT
 10
551.2715612453205
 20
-397.1645703792034
 30
0.0
 11
545.7744780268783
 21
-394.8876039566311
 31
0.0
  0
LINE
  5
15E
  8
DEFAULT
 10
545.7744780268783
 20
-394.8876039566311
 30
0.0
 11
542.0
 21
-404.0
 31
0.0
  0
LINE
  5
15F
  8
DEFAULT
 10
542.0
 20
-404.0
 30
0.0
 11
545.7744780268783
 21
-413.1123960433689
 31
0.0
  0
LINE
  5
160
  8
DEFAULT
 10
545.7744780268783
 20
-413.1123960433689
 30
0.0
 11
551.2715612453205
 21
-410.8354296207966
 31
0.0
  0
LINE
  5
161
  8
DEFAULT
 10
551.2715612453205
 20
-410.8354296207966
 30
0.0
 11
552.8022949747808
 21
-414.5309477508418
 31
0.0
  0
LINE
  5
162
  8
DEFAULT
 10
552.8022949747808
 20
-414.5309477508418
 30
0.0
 11
547.3052117563386
 21
-416.8079141734141
 31
0.0
  0
LINE
  5
163
  8
DEFAULT
 10
547.3052117563386
 20
-416.8079141734141
 30
0.0
 11
551.079689783217
 21
-425.920310216783
 31
0.0
  0
LINE
  5
164
  8
DEFAULT
 10
551.079689783217
 20
-425.920310216783
 30
0.0
 11
560.192085826586
 21
-429.6947882436613
 31
0.0
  0
LINE
  5
165
  8
DEFAULT
 10
560.192085826586
 20
-429.6947882436613
 30
0.0
 11
562.4690522491583
 21
-424.1977050252191
 31
0.0
  0
LINE
  5
166
  8
DEFAULT
 10
562.4690522491583
 20
-424.1977050252191
 30
0.0
 11
566.1645703792034
 21
-425.7284387546795
 31
0.0
  0
LINE
  5
167
  8
DEFAULT
 10
566.1645703792034
 20
-425.7284387546795
 30
0.0
 11
563.8876039566311
 21
-431.2255219731217
 31
0.0
  0
LINE
  5
168
  8
DEFAULT
 10
563.8876039566311
 20
-431.2255219731217
 30
0.0
 11
573.0
 21
-435.0
 31
0.0
  0
LINE
  5
169
  8
DEFAULT
 10
573.0
 20
-435.0
 30
0.0
 11
582.1123960433689
 21
-431.2255219731217
 31
0.0
  0
LINE
  5
16A
  8
DEFAULT
 10
582.1123960433689
 20
-431.2255219731217
 30
0.0
 11
579.8354296207966
 21
-425.7284387546795
 31
0.0
  0
LINE
  5
16B
  8
DEFAULT
 10
579.8354296207966
 20
-425.7284387546795
 30
0.0
 11
583.5309477508417
 21
-424.1977050252191
 31
0.0
  0
LINE
  5
16C
  8
DEFAULT
 10
583.5309477508417
 20
-424.1977050252191
 30
0.0
 11
585.807914173414
 21
-429.6947882436613
 31
0.0
  0
LINE
  5
16D
  8
DEFAULT
 10
585.807914173414
 20
-429.6947882436613
 30
0.0
 11
594.920310216783
 21
-425.920310216783
 31
0.0
  0
LINE
  5
16E
  8
DEFAULT
 10
594.920310216783
 20
-425.920310216783
 30
0.0
 11
598.6947882436614
 21
-416.8079141734141
 31
0.0
  0
LINE
  5
16F
  8
DEFAULT
 10
598.6947882436614
 20
-416.8079141734141
 30
0.0
 11
593.1977050252192
 21
-414.5309477508418
 31
0.0
  0
LINE
  5
170
  8
DEFAULT
 10
593.1977050252192
 20
-414.5309477508418
 30
0.0
 11
594.7284387546795
 21
-410.8354296207966
 31
0.0
  0
LINE
  5
171
  8
DEFAULT
 10
594.7284387546795
 20
-410.8354296207966
 30
0.0
 11
600.2255219731217
 21
-413.1123960433689
 31
0.0
  0
LINE
  5
172
  8
DEFAULT
 10
600.2255219731217
 20
-413.1123960433689
 30
0.0
 11
604.0
 21
-404.0
 31
0.0
  0
LINE
  5
173
  8
DEFAULT
 10
604.0
 20
-404.0
 30
0.0
 11
600.2255219731217
 21
-394.8876039566311
 31
0.0
  0
LINE
  5
174
  8
DEFAULT
 10
600.2255219731217
 20
-394.8876039566311
 30
0.0
 11
594.7284387546795
 21
-397.1645703792034
 31
0.0
  0
LINE
  5
175
  8
DEFAULT
 10
594.7284387546795
 20
-397.1645703792034
 30
0.0
 11
593.1977050252192
 21
-393.4690522491582
 31
0.0
  0
LINE
  5
176
  8
DEFAULT
 10
593.1977050252192
 20
-393.4690522491582
 30
0.0
 11
598.6947882436614
 21
-391.1920858265859
 31
0.0
  0
LINE
  5
177
  8
DEFAULT
 10
598.6947882436614
 20
-391.1920858265859
 30
0.0
 11
594.920310216783
 21
-382.079689783217
 31
0.0
  0
LINE
  5
178
  8
DEFAULT
 10
594.920310216783
 20
-382.079689783217
 30
0.0
 11
585.807914173414
 21
-378.3052117563387
 31
0.0
  0
LINE
  5
179
  8
DEFAULT
 10
585.807914173414
 20
-378.3052117563387
 30
0.0
 11
583.5309477508417
 21
-383.8022949747809
 31
0.0
  0
LINE
  5
17A
  8
DEFAULT
 10
583.5309477508417
 20
-383.8022949747809
 30
0.0
 11
579.8354296207966
 21
-382.2715612453205
 31
0.0
  0
LINE
  5
17B
  8
DEFAULT
 10
579.8354296207966
 20
-382.2715612453205
 30
0.0
 11
582.1123960433689
 21
-376.7744780268783
 31
0.0
  0
LINE
  5
17C
  8
DEFAULT
 10
582.1123960433689
 20
-376.7744780268783
 30
0.0
 11
573.0
 21
-373.0
 31
0.0
  0
LINE
  5
17D
  8
DEFAULT
 10
573.0
 20
-373.0
 30
0.0
 11
563.8876039566311
 21
-376.7744780268783
 31
0.0
  0
LINE
  5
17E
  8
DEFAULT
 10
563.8876039566311
 20
-376.7744780268783
 30
0.0
 11
566.1645703792034
 21
-382.2715612453205
 31
0.0
  0
LINE
  5
17F
  8
DEFAULT
 10
566.1645703792034
 20
-382.2715612453205
 30
0.0
 11
562.4690522491583
 21
-383.8022949747809
 31
0.0
  0
LINE
  5
180
  8
DEFAULT
 10
562.4690522491583
 20
-383.8022949747809
 30
0.0
 11
560.192085826586
 21
-378.3052117563387
 31
0.0
  0
LINE
  5
181
  8
DEFAULT
 10
560.192085826586
 20
-378.3052117563387
 30
0.0
 11
551.079689783217
 21
-382.079689783217
 31
0.0
  0
LINE
  5
182
  8
DEFAULT
 10
551.2715612453205
 20
-460.1645703792034
 30
4.0
 11
552.8022949747808
 21
-456.4690522491582
 31
4.0
  0
LINE
  5
183
  8
DEFAULT
 10
552.8022949747808
 20
-456.4690522491582
 30
4.0
 11
547.3052117563387
 21
-454.1920858265859
 31
4.0
  0
LINE
  5
184
  8
DEFAULT
 10
547.3052117563387
 20
-454.1920858265859
 30
4.0
 11
551.079689783217
 21
-445.079689783217
 31
4.0
  0
LINE
  5
185
  8
DEFAULT
 10
551.079689783217
 20
-445.079689783217
 30
4.0
 11
560.192085826586
 21
-441.3052117563387
 31
4.0
  0
LINE
  5
186
  8
DEFAULT
 10
560.192085826586
 20
-441.3052117563387
 30
4.0
 11
562.4690522491583
 21
-446.8022949747809
 31
4.0
  0
LINE
  5
187
  8
DEFAULT
 10
562.4690522491583
 20
-446.8022949747809
 30
4.0
 11
566.1645703792034
 21
-445.2715612453205
 31
4.0
  0
LINE
  5
188
  8
DEFAULT
 10
566.1645703792034
 20
-445.2715612453205
 30
4.0
 11
563.8876039566311
 21
-439.7744780268783
 31
4.0
  0
LINE
  5
189
  8
DEFAULT
 10
563.8876039566311
 20
-439.7744780268783
 30
4.0
 11
573.0
 21
-436.0
 31
4.0
  0
LINE
  5
18A
  8
DEFAULT
 10
573.0
 20
-436.0
 30
4.0
 11
582.1123960433689
 21
-439.7744780268783
 31
4.0
  0
LINE
  5
18B
  8
DEFAULT
 10
582.1123960433689
 20
-439.7744780268783
 30
4.0
 11
579.8354296207966
 21
-445.2715612453205
 31
4.0
  0
LINE
  5
18C
  8
DEFAULT
 10
579.8354296207966
 20
-445.2715612453205
 30
4.0
 11
583.5309477508417
 21
-446.8022949747809
 31
4.0
  0
LINE
  5
18D
  8
DEFAULT
 10
583.5309477508417
 20
-446.8022949747809
 30
4.0
 11
585.807914173414
 21
-441.3052117563387
 31
4.0
  0
LINE
  5
18E
  8
DEFAULT
 10
585.807914173414
 20
-441.3052117563387
 30
4.0
 11
594.920310216783
 21
-445.079689783217
 31
4.0
  0
LINE
  5
18F
  8
DEFAULT
 10
594.920310216783
 20
-445.079689783217
 30
4.0
 11
598.6947882436614
 21
-454.1920858265859
 31
4.0
  0
LINE
  5
190
  8
DEFAULT
 10
598.6947882436614
 20
-454.1920858265859
 30
4.0
 11
593.1977050252192
 21
-456.4690522491582
 31
4.0
  0
LINE
  5
191
  8
DEFAULT
 10
593.1977050252192
 20
-456.4690522491582
 30
4.0
 11
594.7284387546795
 21
-460.1645703792034
 31
4.0
  0
LINE
  5
192
  8
DEFAULT
 10
594.7284387546795
 20
-460.1645703792034
 30
4.0
 11
600.2255219731217
 21
-457.8876039566311
 31
4.0
  0
LINE
  5
193
  8
DEFAULT
 10
600.2255219731217
 20
-457.8876039566311
 30
4.0
 11
604.0
 21
-467.0
 31
4.0
  0
LINE
  5
194
  8
DEFAULT
 10
604.0
 20
-467.0
 30
4.0
 11
600.2255219731217
 21
-476.1123960433689
 31
4.0
  0
LINE
  5
195
  8
DEFAULT
 10
600.2255219731217
 20
-476.1123960433689
 30
4.0
 11
594.7284387546795
 21
-473.8354296207966
 31
4.0
  0
LINE
  5
196
  8
DEFAULT
 10
594.7284387546795
 20
-473.8354296207966
 30
4.0
 11
593.1977050252192
 21
-477.5309477508418
 31
4.0
  0
LINE
  5
197
  8
DEFAULT
 10
593.1977050252192
 20
-477.5309477508418
 30
4.0
 11
598.6947882436614
 21
-479.8079141734141
 31
4.0
  0
LINE
  5
198
  8
DEFAULT
 10
598.6947882436614
 20
-479.8079141734141
 30
4.0
 11
594.920310216783
 21
-488.920310216783
 31
4.0
  0
LINE
  5
199
  8
DEFAULT
 10
594.920310216783
 20
-488.920310216783
 30
4.0
 11
585.807914173414
 21
-492.6947882436613
 31
4.0
  0
LINE
  5
19A
  8
DEFAULT
 10
585.807914173414
 20
-492.6947882436613
 30
4.0
 11
583.5309477508417
 21
-487.1977050252191
 31
4.0
  0
LINE
  5
19B
  8
DEFAULT
 10
583.5309477508417
 20
-487.1977050252191
 30
4.0
 11
579.8354296207966
 21
-488.7284387546795
 31
4.0
  0
LINE
  5
19C
  8
DEFAULT
 10
579.8354296207966
 20
-488.7284387546795
 30
4.0
 11
582.1123960433689
 21
-494.2255219731217
 31
4.0
  0
LINE
  5
19D
  8
DEFAULT
 10
582.1123960433689
 20
-494.2255219731217
 30
4.0
 11
573.0
 21
-498.0
 31
4.0
  0
LINE
  5
19E
  8
DEFAULT
 10
573.0
 20
-498.0
 30
4.0
 11
563.8876039566311
 21
-494.2255219731217
 31
4.0
  0
LINE
  5
19F
  8
DEFAULT
 10
563.8876039566311
 20
-494.2255219731217
 30
4.0
 11
566.1645703792034
 21
-488.7284387546795
 31
4.0
  0
LINE
  5
1A0
  8
DEFAULT
 10
566.1645703792034
 20
-488.7284387546795
 30
4.0
 11
562.4690522491583
 21
-487.1977050252191
 31
4.0
  0
LINE
  5
1A1
  8
DEFAULT
 10
562.4690522491583
 20
-487.1977050252191
 30
4.0
 11
560.192085826586
 21
-492.6947882436613
 31
4.0
  0
LINE
  5
1A2
  8
DEFAULT
 10
560.192085826586
 20
-492.6947882436613
 30
4.0
 11
551.079689783217
 21
-488.920310216783
 31
4.0
  0
LINE
  5
1A3
  8
DEFAULT
 10
551.079689783217
 20
-488.920310216783
 30
4.0
 11
547.3052117563386
 21
-479.8079141734141
 31
4.0
  0
LINE
  5
1A4
  8
DEFAULT
 10
547.3052117563386
 20
-479.8079141734141
 30
4.0
 11
552.8022949747808
 21
-477.5309477508418
 31
4.0
  0
LINE
  5
1A5
  8
DEFAULT
 10
552.8022949747808
 20
-477.5309477508418
 30
4.0
 11
551.2715612453205
 21
-473.8354296207966
 31
4.0
  0
LINE
  5
1A6
  8
DEFAULT
 10
551.2715612453205
 20
-473.8354296207966
 30
4.0
 11
545.7744780268783
 21
-476.1123960433689
 31
4.0
  0
LINE
  5
1A7
  8
DEFAULT
 10
545.7744780268783
 20
-476.1123960433689
 30
4.0
 11
542.0
 21
-467.0
 31
4.0
  0
LINE
  5
1A8
  8
DEFAULT
 10
542.0
 20
-467.0
 30
4.0
 11
545.7744780268783
 21
-457.8876039566311
 31
4.0
  0
LINE
  5
1A9
  8
DEFAULT
 10
545.7744780268783
 20
-457.8876039566311
 30
4.0
 11
551.2715612453205
 21
-460.1645703792034
 31
4.0
  0
LINE
  5
1AA
  8
DEFAULT
 10
488.079689783217
 20
-382.079689783217
 30
0.0
 11
484.3052117563387
 21
-391.1920858265859
 31
0.0
  0
LINE
  5
1AB
  8
DEFAULT
 10
484.3052117563387
 20
-391.1920858265859
 30
0.0
 11
489.8022949747808
 21
-393.4690522491582
 31
0.0
  0
LINE
  5
1AC
  8
DEFAULT
 10
489.8022949747808
 20
-393.4690522491582
 30
0.0
 11
488.2715612453205
 21
-397.1645703792034
 31
0.0
  0
LINE
  5
1AD
  8
DEFAULT
 10
488.2715612453205
 20
-397.1645703792034
 30
0.0
 11
482.7744780268783
 21
-394.8876039566311
 31
0.0
  0
LINE
  5
1AE
  8
DEFAULT
 10
482.7744780268783
 20
-394.8876039566311
 30
0.0
 11
479.0
 21
-404.0
 31
0.0
  0
LINE
  5
1AF
  8
DEFAULT
 10
479.0
 20
-404.0
 30
0.0
 11
482.7744780268783
 21
-413.1123960433689
 31
0.0
  0
LINE
  5
1B0
  8
DEFAULT
 10
482.7744780268783
 20
-413.1123960433689
 30
0.0
 11
488.2715612453205
 21
-410.8354296207966
 31
0.0
  0
LINE
  5
1B1
  8
DEFAULT
 10
488.2715612453205
 20
-410.8354296207966
 30
0.0
 11
489.8022949747808
 21
-414.5309477508418
 31
0.0
  0
LINE
  5
1B2
  8
DEFAULT
 10
489.8022949747808
 20
-414.5309477508418
 30
0.0
 11
484.3052117563386
 21
-416.8079141734141
 31
0.0
  0
LINE
  5
1B3
  8
DEFAULT
 10
484.3052117563386
 20
-416.8079141734141
 30
0.0
 11
488.079689783217
 21
-425.920310216783
 31
0.0
  0
LINE
  5
1B4
  8
DEFAULT
 10
488.079689783217
 20
-425.920310216783
 30
0.0
 11
497.192085826586
 21
-429.6947882436613
 31
0.0
  0
LINE
  5
1B5
  8
DEFAULT
 10
497.192085826586
 20
-429.6947882436613
 30
0.0
 11
499.4690522491583
 21
-424.1977050252191
 31
0.0
  0
LINE
  5
1B6
  8
DEFAULT
 10
499.4690522491583
 20
-424.1977050252191
 30
0.0
 11
503.1645703792034
 21
-425.7284387546795
 31
0.0
  0
LINE
  5
1B7
  8
DEFAULT
 10
503.1645703792034
 20
-425.7284387546795
 30
0.0
 11
500.8876039566311
 21
-431.2255219731217
 31
0.0
  0
LINE
  5
1B8
  8
DEFAULT
 10
500.8876039566311
 20
-431.2255219731217
 30
0.0
 11
510.0
 21
-435.0
 31
0.0
  0
LINE
  5
1B9
  8
DEFAULT
 10
510.0
 20
-435.0
 30
0.0
 11
519.1123960433689
 21
-431.2255219731217
 31
0.0
  0
LINE
  5
1BA
  8
DEFAULT
 10
519.1123960433689
 20
-431.2255219731217
 30
0.0
 11
516.8354296207966
 21
-425.7284387546795
 31
0.0
  0
LINE
  5
1BB
  8
DEFAULT
 10
516.8354296207966
 20
-425.7284387546795
 30
0.0
 11
520.5309477508417
 21
-424.1977050252191
 31
0.0
  0
LINE
  5
1BC
  8
DEFAULT
 10
520.5309477508417
 20
-424.1977050252191
 30
0.0
 11
522.807914173414
 21
-429.6947882436613
 31
0.0
  0
LINE
  5
1BD
  8
DEFAULT
 10
522.807914173414
 20
-429.6947882436613
 30
0.0
 11
531.920310216783
 21
-425.920310216783
 31
0.0
  0
LINE
  5
1BE
  8
DEFAULT
 10
531.920310216783
 20
-425.920310216783
 30
0.0
 11
535.6947882436613
 21
-416.8079141734141
 31
0.0
  0
LINE
  5
1BF
  8
DEFAULT
 10
535.6947882436613
 20
-416.8079141734141
 30
0.0
 11
530.1977050252192
 21
-414.5309477508418
 31
0.0
  0
LINE
  5
1C0
  8
DEFAULT
 10
530.1977050252192
 20
-414.5309477508418
 30
0.0
 11
531.7284387546795
 21
-410.8354296207966
 31
0.0
  0
LINE
  5
1C1
  8
DEFAULT
 10
531.7284387546795
 20
-410.8354296207966
 30
0.0
 11
537.2255219731217
 21
-413.1123960433689
 31
0.0
  0
LINE
  5
1C2
  8
DEFAULT
 10
537.2255219731217
 20
-413.1123960433689
 30
0.0
 11
541.0
 21
-404.0
 31
0.0
  0
LINE
  5
1C3
  8
DEFAULT
 10
541.0
 20
-404.0
 30
0.0
 11
537.2255219731217
 21
-394.8876039566311
 31
0.0
  0
LINE
  5
1C4
  8
DEFAULT
 10
537.2255219731217
 20
-394.8876039566311
 30
0.0
 11
531.7284387546795
 21
-397.1645703792034
 31
0.0
  0
LINE
  5
1C5
  8
DEFAULT
 10
531.7284387546795
 20
-397.1645703792034
 30
0.0
 11
530.1977050252192
 21
-393.4690522491582
 31
0.0
  0
LINE
  5
1C6
  8
DEFAULT
 10
530.1977050252192
 20
-393.4690522491582
 30
0.0
 11
535.6947882436614
 21
-391.1920858265859
 31
0.0
  0
LINE
  5
1C7
  8
DEFAULT
 10
535.6947882436614
 20
-391.1920858265859
 30
0.0
 11
531.920310216783
 21
-382.079689783217
 31
0.0
  0
LINE
  5
1C8
  8
DEFAULT
 10
531.920310216783
 20
-382.079689783217
 30
0.0
 11
522.807914173414
 21
-378.3052117563387
 31
0.0
  0
LINE
  5
1C9
  8
DEFAULT
 10
522.807914173414
 20
-378.3052117563387
 30
0.0
 11
520.5309477508417
 21
-383.8022949747809
 31
0.0
  0
LINE
  5
1CA
  8
DEFAULT
 10
520.5309477508417
 20
-383.8022949747809
 30
0.0
 11
516.8354296207966
 21
-382.2715612453205
 31
0.0
  0
LINE
  5
1CB
  8
DEFAULT
 10
516.8354296207966
 20
-382.2715612453205
 30
0.0
 11
519.1123960433689
 21
-376.7744780268783
 31
0.0
  0
LINE
  5
1CC
  8
DEFAULT
 10
519.1123960433689
 20
-376.7744780268783
 30
0.0
 11
510.0
 21
-373.0
 31
0.0
  0
LINE
  5
1CD
  8
DEFAULT
 10
510.0
 20
-373.0
 30
0.0
 11
500.8876039566311
 21
-376.7744780268783
 31
0.0
  0
LINE
  5
1CE
  8
DEFAULT
 10
500.8876039566311
 20
-376.7744780268783
 30
0.0
 11
503.1645703792034
 21
-382.2715612453205
 31
0.0
  0
LINE
  5
1CF
  8
DEFAULT
 10
503.1645703792034
 20
-382.2715612453205
 30
0.0
 11
499.4690522491583
 21
-383.8022949747809
 31
0.0
  0
LINE
  5
1D0
  8
DEFAULT
 10
499.4690522491583
 20
-383.8022949747809
 30
0.0
 11
497.192085826586
 21
-378.3052117563387
 31
0.0
  0
LINE
  5
1D1
  8
DEFAULT
 10
497.192085826586
 20
-378.3052117563387
 30
0.0
 11
488.079689783217
 21
-382.079689783217
 31
0.0
  0
LINE
  5
1D2
  8
DEFAULT
 10
488.079689783217
 20
-445.079689783217
 30
0.0
 11
484.3052117563387
 21
-454.1920858265859
 31
0.0
  0
LINE
  5
1D3
  8
DEFAULT
 10
484.3052117563387
 20
-454.1920858265859
 30
0.0
 11
489.8022949747808
 21
-456.4690522491582
 31
0.0
  0
LINE
  5
1D4
  8
DEFAULT
 10
489.8022949747808
 20
-456.4690522491582
 30
0.0
 11
488.2715612453205
 21
-460.1645703792034
 31
0.0
  0
LINE
  5
1D5
  8
DEFAULT
 10
488.2715612453205
 20
-460.1645703792034
 30
0.0
 11
482.7744780268783
 21
-457.8876039566311
 31
0.0
  0
LINE
  5
1D6
  8
DEFAULT
 10
482.7744780268783
 20
-457.8876039566311
 30
0.0
 11
479.0
 21
-467.0
 31
0.0
  0
LINE
  5
1D7
  8
DEFAULT
 10
479.0
 20
-467.0
 30
0.0
 11
482.7744780268783
 21
-476.1123960433689
 31
0.0
  0
LINE
  5
1D8
  8
DEFAULT
 10
482.7744780268783
 20
-476.1123960433689
 30
0.0
 11
488.2715612453205
 21
-473.8354296207966
 31
0.0
  0
LINE
  5
1D9
  8
DEFAULT
 10
488.2715612453205
 20
-473.8354296207966
 30
0.0
 11
489.8022949747808
 21
-477.5309477508418
 31
0.0
  0
LINE
  5
1DA
  8
DEFAULT
 10
489.8022949747808
 20
-477.5309477508418
 30
0.0
 11
484.3052117563386
 21
-479.8079141734141
 31
0.0
  0
LINE
  5
1DB
  8
DEFAULT
 10
484.3052117563386
 20
-479.8079141734141
 30
0.0
 11
488.079689783217
 21
-488.920310216783
 31
0.0
  0
LINE
  5
1DC
  8
DEFAULT
 10
488.079689783217
 20
-488.920310216783
 30
0.0
 11
497.192085826586
 21
-492.6947882436613
 31
0.0
  0
LINE
  5
1DD
  8
DEFAULT
 10
497.192085826586
 20
-492.6947882436613
 30
0.0
 11
499.4690522491583
 21
-487.1977050252191
 31
0.0
  0
LINE
  5
1DE
  8
DEFAULT
 10
499.4690522491583
 20
-487.1977050252191
 30
0.0
 11
503.1645703792034
 21
-488.7284387546795
 31
0.0
  0
LINE
  5
1DF
  8
DEFAULT
 10
503.1645703792034
 20
-488.7284387546795
 30
0.0
 11
500.8876039566311
 21
-494.2255219731217
 31
0.0
  0
LINE
  5
1E0
  8
DEFAULT
 10
500.8876039566311
 20
-494.2255219731217
 30
0.0
 11
510.0
 21
-498.0
 31
0.0
  0
LINE
  5
1E1
  8
DEFAULT
 10
510.0
 20
-498.0
 30
0.0
 11
519.1123960433689
 21
-494.2255219731217
 31
0.0
  0
LINE
  5
1E2
  8
DEFAULT
 10
519.1123960433689
 20
-494.2255219731217
 30
0.0
 11
516.8354296207966
 21
-488.7284387546795
 31
0.0
  0
LINE
  5
1E3
  8
DEFAULT
 10
516.8354296207966
 20
-488.7284387546795
 30
0.0
 11
520.5309477508417
 21
-487.1977050252191
 31
0.0
  0
LINE
  5
1E4
  8
DEFAULT
 10
520.5309477508417
 20
-487.1977050252191
 30
0.0
 11
522.807914173414
 21
-492.6947882436613
 31
0.0
  0
LINE
  5
1E5
  8
DEFAULT
 10
522.807914173414
 20
-492.6947882436613
 30
0.0
 11
531.920310216783
 21
-488.920310216783
 31
0.0
  0
LINE
  5
1E6
  8
DEFAULT
 10
531.920310216783
 20
-488.920310216783
 30
0.0
 11
535.6947882436613
 21
-479.8079141734141
 31
0.0
  0
LINE
  5
1E7
  8
DEFAULT
 10
535.6947882436613
 20
-479.8079141734141
 30
0.0
 11
530.1977050252192
 21
-477.5309477508418
 31
0.0
  0
LINE
  5
1E8
  8
DEFAULT
 10
530.1977050252192
 20
-477.5309477508418
 30
0.0
 11
531.7284387546795
 21
-473.8354296207966
 31
0.0
  0
LINE
  5
1E9
  8
DEFAULT
 10
531.7284387546795
 20
-473.8354296207966
 30
0.0
 11
537.2255219731217
 21
-476.1123960433689
 31
0.0
  0
LINE
  5
1EA
  8
DEFAULT
 10
537.2255219731217
 20
-476.1123960433689
 30
0.0
 11
541.0
 21
-467.0
 31
0.0
  0
LINE
  5
1EB
  8
DEFAULT
 10
541.0
 20
-467.0
 30
0.0
 11
537.2255219731217
 21
-457.8876039566311
 31
0.0
  0
LINE
  5
1EC
  8
DEFAULT
 10
537.2255219731217
 20
-457.8876039566311
 30
0.0
 11
531.7284387546795
 21
-460.1645703792034
 31
0.0
  0
LINE
  5
1ED
  8
DEFAULT
 10
531.7284387546795
 20
-460.1645703792034
 30
0.0
 11
530.1977050252192
 21
-456.4690522491582
 31
0.0
  0
LINE
  5
1EE
  8
DEFAULT
 10
530.1977050252192
 20
-456.4690522491582
 30
0.0
 11
535.6947882436614
 21
-454.1920858265859
 31
0.0
  0
LINE
  5
1EF
  8
DEFAULT
 10
535.6947882436614
 20
-454.1920858265859
 30
0.0
 11
531.920310216783
 21
-445.079689783217
 31
0.0
  0
LINE
  5
1F0
  8
DEFAULT
 10
531.920310216783
 20
-445.079689783217
 30
0.0
 11
522.807914173414
 21
-441.3052117563387
 31
0.0
  0
LINE
  5
1F1
  8
DEFAULT
 10
522.807914173414
 20
-441.3052117563387
 30
0.0
 11
520.5309477508417
 21
-446.8022949747809
 31
0.0
  0
LINE
  5
1F2
  8
DEFAULT
 10
520.5309477508417
 20
-446.8022949747809
 30
0.0
 11
516.8354296207966
 21
-445.2715612453205
 31
0.0
  0
LINE
  5
1F3
  8
DEFAULT
 10
516.8354296207966
 20
-445.2715612453205
 30
0.0
 11
519.1123960433689
 21
-439.7744780268783
 31
0.0
  0
LINE
  5
1F4
  8
DEFAULT
 10
519.1123960433689
 20
-439.7744780268783
 30
0.0
 11
510.0
 21
-436.0
 31
0.0
  0
LINE
  5
1F5
  8
DEFAULT
 10
510.0
 20
-436.0
 30
0.0
 11
500.8876039566311
 21
-439.7744780268783
 31
0.0
  0
LINE
  5
1F6
  8
DEFAULT
 10
500.8876039566311
 20
-439.7744780268783
 30
0.0
 11
503.1645703792034
 21
-445.2715612453205
 31
0.0
  0
LINE
  5
1F7
  8
DEFAULT
 10
503.1645703792034
 20
-445.2715612453205
 30
0.0
 11
499.4690522491583
 21
-446.8022949747809
 31
0.0
  0
LINE
  5
1F8
  8
DEFAULT
 10
499.4690522491583
 20
-446.8022949747809
 30
0.0
 11
497.192085826586
 21
-441.3052117563387
 31
0.0
  0
LINE
  5
1F9
  8
DEFAULT
 10
497.192085826586
 20
-441.3052117563387
 30
0.0
 11
488.079689783217
 21
-445.079689783217
 31
0.0
  0
LINE
  5
1FA
  8
DEFAULT
 10
425.2715612453205
 20
-397.1645703792034
 30
4.0
 11
426.8022949747809
 21
-393.4690522491582
 31
4.0
  0
LINE
  5
1FB
  8
DEFAULT
 10
426.8022949747809
 20
-393.4690522491582
 30
4.0
 11
421.3052117563387
 21
-391.1920858265859
 31
4.0
  0
LINE
  5
1FC
  8
DEFAULT
 10
421.3052117563387
 20
-391.1920858265859
 30
4.0
 11
425.079689783217
 21
-382.079689783217
 31
4.0
  0
LINE
  5
1FD
  8
DEFAULT
 10
425.079689783217
 20
-382.079689783217
 30
4.0
 11
434.192085826586
 21
-378.3052117563387
 31
4.0
  0
LINE
  5
1FE
  8
DEFAULT
 10
434.192085826586
 20
-378.3052117563387
 30
4.0
 11
436.4690522491583
 21
-383.8022949747809
 31
4.0
  0
LINE
  5
1FF
  8
DEFAULT
 10
436.4690522491583
 20
-383.8022949747809
 30
4.0
 11
440.1645703792034
 21
-382.2715612453205
 31
4.0
  0
LINE
  5
200
  8
DEFAULT
 10
440.1645703792034
 20
-382.2715612453205
 30
4.0
 11
437.8876039566311
 21
-376.7744780268783
 31
4.0
  0
LINE
  5
201
  8
DEFAULT
 10
437.8876039566311
 20
-376.7744780268783
 30
4.0
 11
447.0
 21
-373.0
 31
4.0
  0
LINE
  5
202
  8
DEFAULT
 10
447.0
 20
-373.0
 30
4.0
 11
456.1123960433689
 21
-376.7744780268783
 31
4.0
  0
LINE
  5
203
  8
DEFAULT
 10
456.1123960433689
 20
-376.7744780268783
 30
4.0
 11
453.8354296207966
 21
-382.2715612453205
 31
4.0
  0
LINE
  5
204
  8
DEFAULT
 10
453.8354296207966
 20
-382.2715612453205
 30
4.0
 11
457.5309477508417
 21
-383.8022949747809
 31
4.0
  0
LINE
  5
205
  8
DEFAULT
 10
457.5309477508417
 20
-383.8022949747809
 30
4.0
 11
459.807914173414
 21
-378.3052117563387
 31
4.0
  0
LINE
  5
206
  8
DEFAULT
 10
459.807914173414
 20
-378.3052117563387
 30
4.0
 11
468.920310216783
 21
-382.079689783217
 31
4.0
  0
LINE
  5
207
  8
DEFAULT
 10
468.920310216783
 20
-382.079689783217
 30
4.0
 11
472.6947882436614
 21
-391.1920858265859
 31
4.0
  0
LINE
  5
208
  8
DEFAULT
 10
472.6947882436614
 20
-391.1920858265859
 30
4.0
 11
467.1977050252192
 21
-393.4690522491582
 31
4.0
  0
LINE
  5
209
  8
DEFAULT
 10
467.1977050252192
 20
-393.4690522491582
 30
4.0
 11
468.7284387546795
 21
-397.1645703792034
 31
4.0
  0
LINE
  5
20A
  8
DEFAULT
 10
468.7284387546795
 20
-397.1645703792034
 30
4.0
 11
474.2255219731217
 21
-394.8876039566311
 31
4.0
  0
LINE
  5
20B
  8
DEFAULT
 10
474.2255219731217
 20
-394.8876039566311
 30
4.0
 11
478.0
 21
-404.0
 31
4.0
  0
LINE
  5
20C
  8
DEFAULT
 10
478.0
 20
-404.0
 30
4.0
 11
474.2255219731217
 21
-413.1123960433689
 31
4.0
  0
LINE
  5
20D
  8
DEFAULT
 10
474.2255219731217
 20
-413.1123960433689
 30
4.0
 11
468.7284387546795
 21
-410.8354296207966
 31
4.0
  0
LINE
  5
20E
  8
DEFAULT
 10
468.7284387546795
 20
-410.8354296207966
 30
4.0
 11
467.1977050252192
 21
-414.5309477508418
 31
4.0
  0
LINE
  5
20F
  8
DEFAULT
 10
467.1977050252192
 20
-414.5309477508418
 30
4.0
 11
472.6947882436613
 21
-416.8079141734141
 31
4.0
  0
LINE
  5
210
  8
DEFAULT
 10
472.6947882436613
 20
-416.8079141734141
 30
4.0
 11
468.920310216783
 21
-425.920310216783
 31
4.0
  0
LINE
  5
211
  8
DEFAULT
 10
468.920310216783
 20
-425.920310216783
 30
4.0
 11
459.807914173414
 21
-429.6947882436613
 31
4.0
  0
LINE
  5
212
  8
DEFAULT
 10
459.807914173414
 20
-429.6947882436613
 30
4.0
 11
457.5309477508417
 21
-424.1977050252191
 31
4.0
  0
LINE
  5
213
  8
DEFAULT
 10
457.5309477508417
 20
-424.1977050252191
 30
4.0
 11
453.8354296207966
 21
-425.7284387546795
 31
4.0
  0
LINE
  5
214
  8
DEFAULT
 10
453.8354296207966
 20
-425.7284387546795
 30
4.0
 11
456.1123960433689
 21
-431.2255219731217
 31
4.0
  0
LINE
  5
215
  8
DEFAULT
 10
456.1123960433689
 20
-431.2255219731217
 30
4.0
 11
447.0
 21
-435.0
 31
4.0
  0
LINE
  5
216
  8
DEFAULT
 10
447.0
 20
-435.0
 30
4.0
 11
437.8876039566311
 21
-431.2255219731217
 31
4.0
  0
LINE
  5
217
  8
DEFAULT
 10
437.8876039566311
 20
-431.2255219731217
 30
4.0
 11
440.1645703792034
 21
-425.7284387546795
 31
4.0
  0
LINE
  5
218
  8
DEFAULT
 10
440.1645703792034
 20
-425.7284387546795
 30
4.0
 11
436.4690522491583
 21
-424.1977050252191
 31
4.0
  0
LINE
  5
219
  8
DEFAULT
 10
436.4690522491583
 20
-424.1977050252191
 30
4.0
 11
434.192085826586
 21
-429.6947882436613
 31
4.0
  0
LINE
  5
21A
  8
DEFAULT
 10
434.192085826586
 20
-429.6947882436613
 30
4.0
 11
425.079689783217
 21
-425.920310216783
 31
4.0
  0
LINE
  5
21B
  8
DEFAULT
 10
425.079689783217
 20
-425.920310216783
 30
4.0
 11
421.3052117563387
 21
-416.8079141734141
 31
4.0
  0
LINE
  5
21C
  8
DEFAULT
 10
421.3052117563387
 20
-416.8079141734141
 30
4.0
 11
426.8022949747809
 21
-414.5309477508418
 31
4.0
  0
LINE
  5
21D
  8
DEFAULT
 10
426.8022949747809
 20
-414.5309477508418
 30
4.0
 11
425.2715612453205
 21
-410.8354296207966
 31
4.0
  0
LINE
  5
21E
  8
DEFAULT
 10
425.2715612453205
 20
-410.8354296207966
 30
4.0
 11
419.7744780268783
 21
-413.1123960433689
 31
4.0
  0
LINE
  5
21F
  8
DEFAULT
 10
419.7744780268783
 20
-413.1123960433689
 30
4.0
 11
416.0
 21
-404.0
 31
4.0
  0
LINE
  5
220
  8
DEFAULT
 10
416.0
 20
-404.0
 30
4.0
 11
419.7744780268783
 21
-394.8876039566311
 31
4.0
  0
LINE
  5
221
  8
DEFAULT
 10
419.7744780268783
 20
-394.8876039566311
 30
4.0
 11
425.2715612453205
 21
-397.1645703792034
 31
4.0
  0
LINE
  5
222
  8
DEFAULT
 10
425.2715612453205
 20
-460.1645703792034
 30
4.0
 11
426.8022949747809
 21
-456.4690522491582
 31
4.0
  0
LINE
  5
223
  8
DEFAULT
 10
426.8022949747809
 20
-456.4690522491582
 30
4.0
 11
421.3052117563387
 21
-454.1920858265859
 31
4.0
  0
LINE
  5
224
  8
DEFAULT
 10
421.3052117563387
 20
-454.1920858265859
 30
4.0
 11
425.079689783217
 21
-445.079689783217
 31
4.0
  0
LINE
  5
225
  8
DEFAULT
 10
425.079689783217
 20
-445.079689783217
 30
4.0
 11
434.192085826586
 21
-441.3052117563387
 31
4.0
  0
LINE
  5
226
  8
DEFAULT
 10
434.192085826586
 20
-441.3052117563387
 30
4.0
 11
436.4690522491583
 21
-446.8022949747809
 31
4.0
  0
LINE
  5
227
  8
DEFAULT
 10
436.4690522491583
 20
-446.8022949747809
 30
4.0
 11
440.1645703792034
 21
-445.2715612453205
 31
4.0
  0
LINE
  5
228
  8
DEFAULT
 10
440.1645703792034
 20
-445.2715612453205
 30
4.0
 11
437.8876039566311
 21
-439.7744780268783
 31
4.0
  0
LINE
  5
229
  8
DEFAULT
 10
437.8876039566311
 20
-439.7744780268783
 30
4.0
 11
447.0
 21
-436.0
 31
4.0
  0
LINE
  5
22A
  8
DEFAULT
 10
447.0
 20
-436.0
 30
4.0
 11
456.1123960433689
 21
-439.7744780268783
 31
4.0
  0
LINE
  5
22B
  8
DEFAULT
 10
456.1123960433689
 20
-439.7744780268783
 30
4.0
 11
453.8354296207966
 21
-445.2715612453205
 31
4.0
  0
LINE
  5
22C
  8
DEFAULT
 10
453.8354296207966
 20
-445.2715612453205
 30
4.0
 11
457.5309477508417
 21
-446.8022949747809
 31
4.0
  0
LINE
  5
22D
  8
DEFAULT
 10
457.5309477508417
 20
-446.8022949747809
 30
4.0
 11
459.807914173414
 21
-441.3052117563387
 31
4.0
  0
LINE
  5
22E
  8
DEFAULT
 10
459.807914173414
 20
-441.3052117563387
 30
4.0
 11
468.920310216783
 21
-445.079689783217
 31
4.0
  0
LINE
  5
22F
  8
DEFAULT
 10
468.920310216783
 20
-445.079689783217
 30
4.0
 11
472.6947882436614
 21
-454.1920858265859
 31
4.0
  0
LINE
  5
230
  8
DEFAULT
 10
472.6947882436614
 20
-454.1920858265859
 30
4.0
 11
467.1977050252192
 21
-456.4690522491582
 31
4.0
  0
LINE
  5
231
  8
DEFAULT
 10
467.1977050252192
 20
-456.4690522491582
 30
4.0
 11
468.7284387546795
 21
-460.1645703792034
 31
4.0
  0
LINE
  5
232
  8
DEFAULT
 10
468.7284387546795
 20
-460.1645703792034
 30
4.0
 11
474.2255219731217
 21
-457.8876039566311
 31
4.0
  0
LINE
  5
233
  8
DEFAULT
 10
474.2255219731217
 20
-457.8876039566311
 30
4.0
 11
478.0
 21
-467.0
 31
4.0
  0
LINE
  5
234
  8
DEFAULT
 10
478.0
 20
-467.0
 30
4.0
 11
474.2255219731217
 21
-476.1123960433689
 31
4.0
  0
LINE
  5
235
  8
DEFAULT
 10
474.2255219731217
 20
-476.1123960433689
 30
4.0
 11
468.7284387546795
 21
-473.8354296207966
 31
4.0
  0
LINE
  5
236
  8
DEFAULT
 10
468.7284387546795
 20
-473.8354296207966
 30
4.0
 11
467.1977050252192
 21
-477.5309477508418
 31
4.0
  0
LINE
  5
237
  8
DEFAULT
 10
467.1977050252192
 20
-477.5309477508418
 30
4.0
 11
472.6947882436613
 21
-479.8079141734141
 31
4.0
  0
LINE
  5
238
  8
DEFAULT
 10
472.6947882436613
 20
-479.8079141734141
 30
4.0
 11
468.920310216783
 21
-488.920310216783
 31
4.0
  0
LINE
  5
239
  8
DEFAULT
 10
468.920310216783
 20
-488.920310216783
 30
4.0
 11
459.807914173414
 21
-492.6947882436613
 31
4.0
  0
LINE
  5
23A
  8
DEFAULT
 10
459.807914173414
 20
-492.6947882436613
 30
4.0
 11
457.5309477508417
 21
-487.1977050252191
 31
4.0
  0
LINE
  5
23B
  8
DEFAULT
 10
457.5309477508417
 20
-487.1977050252191
 30
4.0
 11
453.8354296207966
 21
-488.7284387546795
 31
4.0
  0
LINE
  5
23C
  8
DEFAULT
 10
453.8354296207966
 20
-488.7284387546795
 30
4.0
 11
456.1123960433689
 21
-494.2255219731217
 31
4.0
  0
LINE
  5
23D
  8
DEFAULT
 10
456.1123960433689
 20
-494.2255219731217
 30
4.0
 11
447.0
 21
-498.0
 31
4.0
  0
LINE
  5
23E
  8
DEFAULT
 10
447.0
 20
-498.0
 30
4.0
 11
437.8876039566311
 21
-494.2255219731217
 31
4.0
  0
LINE
  5
23F
  8
DEFAULT
 10
437.8876039566311
 20
-494.2255219731217
 30
4.0
 11
440.1645703792034
 21
-488.7284387546795
 31
4.0
  0
LINE
  5
240
  8
DEFAULT
 10
440.1645703792034
 20
-488.7284387546795
 30
4.0
 11
436.4690522491583
 21
-487.1977050252191
 31
4.0
  0
LINE
  5
241
  8
DEFAULT
 10
436.4690522491583
 20
-487.1977050252191
 30
4.0
 11
434.192085826586
 21
-492.6947882436613
 31
4.0
  0
LINE
  5
242
  8
DEFAULT
 10
434.192085826586
 20
-492.6947882436613
 30
4.0
 11
425.079689783217
 21
-488.920310216783
 31
4.0
  0
LINE
  5
243
  8
DEFAULT
 10
425.079689783217
 20
-488.920310216783
 30
4.0
 11
421.3052117563387
 21
-479.8079141734141
 31
4.0
  0
LINE
  5
244
  8
DEFAULT
 10
421.3052117563387
 20
-479.8079141734141
 30
4.0
 11
426.8022949747809
 21
-477.5309477508418
 31
4.0
  0
LINE
  5
245
  8
DEFAULT
 10
426.8022949747809
 20
-477.5309477508418
 30
4.0
 11
425.2715612453205
 21
-473.8354296207966
 31
4.0
  0
LINE
  5
246
  8
DEFAULT
 10
425.2715612453205
 20
-473.8354296207966
 30
4.0
 11
419.7744780268783
 21
-476.1123960433689
 31
4.0
  0
LINE
  5
247
  8
DEFAULT
 10
419.7744780268783
 20
-476.1123960433689
 30
4.0
 11
416.0
 21
-467.0
 31
4.0
  0
LINE
  5
248
  8
DEFAULT
 10
416.0
 20
-467.0
 30
4.0
 11
419.7744780268783
 21
-457.8876039566311
 31
4.0
  0
LINE
  5
249
  8
DEFAULT
 10
419.7744780268783
 20
-457.8876039566311
 30
4.0
 11
425.2715612453205
 21
-460.1645703792034
 31
4.0
  0
LINE
  5
24A
  8
DEFAULT
 10
362.2715612453205
 20
-460.1645703792034
 30
4.0
 11
363.8022949747809
 21
-456.4690522491582
 31
4.0
  0
LINE
  5
24B
  8
DEFAULT
 10
363.8022949747809
 20
-456.4690522491582
 30
4.0
 11
358.3052117563387
 21
-454.1920858265859
 31
4.0
  0
LINE
  5
24C
  8
DEFAULT
 10
358.3052117563387
 20
-454.1920858265859
 30
4.0
 11
362.079689783217
 21
-445.079689783217
 31
4.0
  0
LINE
  5
24D
  8
DEFAULT
 10
362.079689783217
 20
-445.079689783217
 30
4.0
 11
371.1920858265859
 21
-441.3052117563387
 31
4.0
  0
LINE
  5
24E
  8
DEFAULT
 10
371.1920858265859
 20
-441.3052117563387
 30
4.0
 11
373.4690522491582
 21
-446.8022949747809
 31
4.0
  0
LINE
  5
24F
  8
DEFAULT
 10
373.4690522491582
 20
-446.8022949747809
 30
4.0
 11
377.1645703792034
 21
-445.2715612453205
 31
4.0
  0
LINE
  5
250
  8
DEFAULT
 10
377.1645703792034
 20
-445.2715612453205
 30
4.0
 11
374.8876039566311
 21
-439.7744780268783
 31
4.0
  0
LINE
  5
251
  8
DEFAULT
 10
374.8876039566311
 20
-439.7744780268783
 30
4.0
 11
384.0
 21
-436.0
 31
4.0
  0
LINE
  5
252
  8
DEFAULT
 10
384.0
 20
-436.0
 30
4.0
 11
393.1123960433689
 21
-439.7744780268783
 31
4.0
  0
LINE
  5
253
  8
DEFAULT
 10
393.1123960433689
 20
-439.7744780268783
 30
4.0
 11
390.8354296207966
 21
-445.2715612453205
 31
4.0
  0
LINE
  5
254
  8
DEFAULT
 10
390.8354296207966
 20
-445.2715612453205
 30
4.0
 11
394.5309477508418
 21
-446.8022949747809
 31
4.0
  0
LINE
  5
255
  8
DEFAULT
 10
394.5309477508418
 20
-446.8022949747809
 30
4.0
 11
396.8079141734141
 21
-441.3052117563387
 31
4.0
  0
LINE
  5
256
  8
DEFAULT
 10
396.8079141734141
 20
-441.3052117563387
 30
4.0
 11
405.920310216783
 21
-445.079689783217
 31
4.0
  0
LINE
  5
257
  8
DEFAULT
 10
405.920310216783
 20
-445.079689783217
 30
4.0
 11
409.6947882436613
 21
-454.1920858265859
 31
4.0
  0
LINE
  5
258
  8
DEFAULT
 10
409.6947882436613
 20
-454.1920858265859
 30
4.0
 11
404.1977050252191
 21
-456.4690522491582
 31
4.0
  0
LINE
  5
259
  8
DEFAULT
 10
404.1977050252191
 20
-456.4690522491582
 30
4.0
 11
405.7284387546795
 21
-460.1645703792034
 31
4.0
  0
LINE
  5
25A
  8
DEFAULT
 10
405.7284387546795
 20
-460.1645703792034
 30
4.0
 11
411.2255219731217
 21
-457.8876039566311
 31
4.0
  0
LINE
  5
25B
  8
DEFAULT
 10
411.2255219731217
 20
-457.8876039566311
 30
4.0
 11
415.0
 21
-467.0
 31
4.0
  0
LINE
  5
25C
  8
DEFAULT
 10
415.0
 20
-467.0
 30
4.0
 11
411.2255219731217
 21
-476.1123960433689
 31
4.0
  0
LINE
  5
25D
  8
DEFAULT
 10
411.2255219731217
 20
-476.1123960433689
 30
4.0
 11
405.7284387546795
 21
-473.8354296207966
 31
4.0
  0
LINE
  5
25E
  8
DEFAULT
 10
405.7284387546795
 20
-473.8354296207966
 30
4.0
 11
404.1977050252191
 21
-477.5309477508418
 31
4.0
  0
LINE
  5
25F
  8
DEFAULT
 10
404.1977050252191
 20
-477.5309477508418
 30
4.0
 11
409.6947882436613
 21
-479.8079141734141
 31
4.0
  0
LINE
  5
260
  8
DEFAULT
 10
409.6947882436613
 20
-479.8079141734141
 30
4.0
 11
405.920310216783
 21
-488.920310216783
 31
4.0
  0
LINE
  5
261
  8
DEFAULT
 10
405.920310216783
 20
-488.920310216783
 30
4.0
 11
396.8079141734141
 21
-492.6947882436613
 31
4.0
  0
LINE
  5
262
  8
DEFAULT
 10
396.8079141734141
 20
-492.6947882436613
 30
4.0
 11
394.5309477508418
 21
-487.1977050252191
 31
4.0
  0
LINE
  5
263
  8
DEFAULT
 10
394.5309477508418
 20
-487.1977050252191
 30
4.0
 11
390.8354296207966
 21
-488.7284387546795
 31
4.0
  0
LINE
  5
264
  8
DEFAULT
 10
390.8354296207966
 20
-488.7284387546795
 30
4.0
 11
393.1123960433689
 21
-494.2255219731217
 31
4.0
  0
LINE
  5
265
  8
DEFAULT
 10
393.1123960433689
 20
-494.2255219731217
 30
4.0
 11
384.0
 21
-498.0
 31
4.0
  0
LINE
  5
266
  8
DEFAULT
 10
384.0
 20
-498.0
 30
4.0
 11
374.8876039566311
 21
-494.2255219731217
 31
4.0
  0
LINE
  5
267
  8
DEFAULT
 10
374.8876039566311
 20
-494.2255219731217
 30
4.0
 11
377.1645703792034
 21
-488.7284387546795
 31
4.0
  0
LINE
  5
268
  8
DEFAULT
 10
377.1645703792034
 20
-488.7284387546795
 30
4.0
 11
373.4690522491582
 21
-487.1977050252191
 31
4.0
  0
LINE
  5
269
  8
DEFAULT
 10
373.4690522491582
 20
-487.1977050252191
 30
4.0
 11
371.1920858265859
 21
-492.6947882436613
 31
4.0
  0
LINE
  5
26A
  8
DEFAULT
 10
371.1920858265859
 20
-492.6947882436613
 30
4.0
 11
362.079689783217
 21
-488.920310216783
 31
4.0
  0
LINE
  5
26B
  8
DEFAULT
 10
362.079689783217
 20
-488.920310216783
 30
4.0
 11
358.3052117563387
 21
-479.8079141734141
 31
4.0
  0
LINE
  5
26C
  8
DEFAULT
 10
358.3052117563387
 20
-479.8079141734141
 30
4.0
 11
363.8022949747809
 21
-477.5309477508418
 31
4.0
  0
LINE
  5
26D
  8
DEFAULT
 10
363.8022949747809
 20
-477.5309477508418
 30
4.0
 11
362.2715612453205
 21
-473.8354296207966
 31
4.0
  0
LINE
  5
26E
  8
DEFAULT
 10
362.2715612453205
 20
-473.8354296207966
 30
4.0
 11
356.7744780268783
 21
-476.1123960433689
 31
4.0
  0
LINE
  5
26F
  8
DEFAULT
 10
356.7744780268783
 20
-476.1123960433689
 30
4.0
 11
353.0
 21
-467.0
 31
4.0
  0
LINE
  5
270
  8
DEFAULT
 10
353.0
 20
-467.0
 30
4.0
 11
356.7744780268783
 21
-457.8876039566311
 31
4.0
  0
LINE
  5
271
  8
DEFAULT
 10
356.7744780268783
 20
-457.8876039566311
 30
4.0
 11
362.2715612453205
 21
-460.1645703792034
 31
4.0
  0
LINE
  5
272
  8
DEFAULT
 10
362.079689783217
 20
-382.079689783217
 30
0.0
 11
358.3052117563387
 21
-391.1920858265859
 31
0.0
  0
LINE
  5
273
  8
DEFAULT
 10
358.3052117563387
 20
-391.1920858265859
 30
0.0
 11
363.8022949747809
 21
-393.4690522491582
 31
0.0
  0
LINE
  5
274
  8
DEFAULT
 10
363.8022949747809
 20
-393.4690522491582
 30
0.0
 11
362.2715612453205
 21
-397.1645703792034
 31
0.0
  0
LINE
  5
275
  8
DEFAULT
 10
362.2715612453205
 20
-397.1645703792034
 30
0.0
 11
356.7744780268783
 21
-394.8876039566311
 31
0.0
  0
LINE
  5
276
  8
DEFAULT
 10
356.7744780268783
 20
-394.8876039566311
 30
0.0
 11
353.0
 21
-404.0
 31
0.0
  0
LINE
  5
277
  8
DEFAULT
 10
353.0
 20
-404.0
 30
0.0
 11
356.7744780268783
 21
-413.1123960433689
 31
0.0
  0
LINE
  5
278
  8
DEFAULT
 10
356.7744780268783
 20
-413.1123960433689
 30
0.0
 11
362.2715612453205
 21
-410.8354296207966
 31
0.0
  0
LINE
  5
279
  8
DEFAULT
 10
362.2715612453205
 20
-410.8354296207966
 30
0.0
 11
363.8022949747809
 21
-414.5309477508418
 31
0.0
  0
LINE
  5
27A
  8
DEFAULT
 10
363.8022949747809
 20
-414.5309477508418
 30
0.0
 11
358.3052117563387
 21
-416.8079141734141
 31
0.0
  0
LINE
  5
27B
  8
DEFAULT
 10
358.3052117563387
 20
-416.8079141734141
 30
0.0
 11
362.079689783217
 21
-425.920310216783
 31
0.0
  0
LINE
  5
27C
  8
DEFAULT
 10
362.079689783217
 20
-425.920310216783
 30
0.0
 11
371.1920858265859
 21
-429.6947882436613
 31
0.0
  0
LINE
  5
27D
  8
DEFAULT
 10
371.1920858265859
 20
-429.6947882436613
 30
0.0
 11
373.4690522491582
 21
-424.1977050252191
 31
0.0
  0
LINE
  5
27E
  8
DEFAULT
 10
373.4690522491582
 20
-424.1977050252191
 30
0.0
 11
377.1645703792034
 21
-425.7284387546795
 31
0.0
  0
LINE
  5
27F
  8
DEFAULT
 10
377.1645703792034
 20
-425.7284387546795
 30
0.0
 11
374.8876039566311
 21
-431.2255219731217
 31
0.0
  0
LINE
  5
280
  8
DEFAULT
 10
374.8876039566311
 20
-431.2255219731217
 30
0.0
 11
384.0
 21
-435.0
 31
0.0
  0
LINE
  5
281
  8
DEFAULT
 10
384.0
 20
-435.0
 30
0.0
 11
393.1123960433689
 21
-431.2255219731217
 31
0.0
  0
LINE
  5
282
  8
DEFAULT
 10
393.1123960433689
 20
-431.2255219731217
 30
0.0
 11
390.8354296207966
 21
-425.7284387546795
 31
0.0
  0
LINE
  5
283
  8
DEFAULT
 10
390.8354296207966
 20
-425.7284387546795
 30
0.0
 11
394.5309477508418
 21
-424.1977050252191
 31
0.0
  0
LINE
  5
284
  8
DEFAULT
 10
394.5309477508418
 20
-424.1977050252191
 30
0.0
 11
396.8079141734141
 21
-429.6947882436613
 31
0.0
  0
LINE
  5
285
  8
DEFAULT
 10
396.8079141734141
 20
-429.6947882436613
 30
0.0
 11
405.920310216783
 21
-425.920310216783
 31
0.0
  0
LINE
  5
286
  8
DEFAULT
 10
405.920310216783
 20
-425.920310216783
 30
0.0
 11
409.6947882436613
 21
-416.8079141734141
 31
0.0
  0
LINE
  5
287
  8
DEFAULT
 10
409.6947882436613
 20
-416.8079141734141
 30
0.0
 11
404.1977050252191
 21
-414.5309477508418
 31
0.0
  0
LINE
  5
288
  8
DEFAULT
 10
404.1977050252191
 20
-414.5309477508418
 30
0.0
 11
405.7284387546795
 21
-410.8354296207966
 31
0.0
  0
LINE
  5
289
  8
DEFAULT
 10
405.7284387546795
 20
-410.8354296207966
 30
0.0
 11
411.2255219731217
 21
-413.1123960433689
 31
0.0
  0
LINE
  5
28A
  8
DEFAULT
 10
411.2255219731217
 20
-413.1123960433689
 30
0.0
 11
415.0
 21
-404.0
 31
0.0
  0
LINE
  5
28B
  8
DEFAULT
 10
415.0
 20
-404.0
 30
0.0
 11
411.2255219731217
 21
-394.8876039566311
 31
0.0
  0
LINE
  5
28C
  8
DEFAULT
 10
411.2255219731217
 20
-394.8876039566311
 30
0.0
 11
405.7284387546795
 21
-397.1645703792034
 31
0.0
  0
LINE
  5
28D
  8
DEFAULT
 10
405.7284387546795
 20
-397.1645703792034
 30
0.0
 11
404.1977050252191
 21
-393.4690522491582
 31
0.0
  0
LINE
  5
28E
  8
DEFAULT
 10
404.1977050252191
 20
-393.4690522491582
 30
0.0
 11
409.6947882436613
 21
-391.1920858265859
 31
0.0
  0
LINE
  5
28F
  8
DEFAULT
 10
409.6947882436613
 20
-391.1920858265859
 30
0.0
 11
405.920310216783
 21
-382.079689783217
 31
0.0
  0
LINE
  5
290
  8
DEFAULT
 10
405.920310216783
 20
-382.079689783217
 30
0.0
 11
396.8079141734141
 21
-378.3052117563387
 31
0.0
  0
LINE
  5
291
  8
DEFAULT
 10
396.8079141734141
 20
-378.3052117563387
 30
0.0
 11
394.5309477508418
 21
-383.8022949747809
 31
0.0
  0
LINE
  5
292
  8
DEFAULT
 10
394.5309477508418
 20
-383.8022949747809
 30
0.0
 11
390.8354296207966
 21
-382.2715612453205
 31
0.0
  0
LINE
  5
293
  8
DEFAULT
 10
390.8354296207966
 20
-382.2715612453205
 30
0.0
 11
393.1123960433689
 21
-376.7744780268783
 31
0.0
  0
LINE
  5
294
  8
DEFAULT
 10
393.1123960433689
 20
-376.7744780268783
 30
0.0
 11
384.0
 21
-373.0
 31
0.0
  0
LINE
  5
295
  8
DEFAULT
 10
384.0
 20
-373.0
 30
0.0
 11
374.8876039566311
 21
-376.7744780268783
 31
0.0
  0
LINE
  5
296
  8
DEFAULT
 10
374.8876039566311
 20
-376.7744780268783
 30
0.0
 11
377.1645703792034
 21
-382.2715612453205
 31
0.0
  0
LINE
  5
297
  8
DEFAULT
 10
377.1645703792034
 20
-382.2715612453205
 30
0.0
 11
373.4690522491582
 21
-383.8022949747809
 31
0.0
  0
LINE
  5
298
  8
DEFAULT
 10
373.4690522491582
 20
-383.8022949747809
 30
0.0
 11
371.1920858265859
 21
-378.3052117563387
 31
0.0
  0
LINE
  5
299
  8
DEFAULT
 10
371.1920858265859
 20
-378.3052117563387
 30
0.0
 11
362.079689783217
 21
-382.079689783217
 31
0.0
  0
LINE
  5
29A
  8
DEFAULT
 10
299.2715612453205
 20
-397.1645703792034
 30
4.0
 11
300.8022949747809
 21
-393.4690522491582
 31
4.0
  0
LINE
  5
29B
  8
DEFAULT
 10
300.8022949747809
 20
-393.4690522491582
 30
4.0
 11
295.3052117563387
 21
-391.1920858265859
 31
4.0
  0
LINE
  5
29C
  8
DEFAULT
 10
295.3052117563387
 20
-391.1920858265859
 30
4.0
 11
299.079689783217
 21
-382.079689783217
 31
4.0
  0
LINE
  5
29D
  8
DEFAULT
 10
299.079689783217
 20
-382.079689783217
 30
4.0
 11
308.1920858265859
 21
-378.3052117563387
 31
4.0
  0
LINE
  5
29E
  8
DEFAULT
 10
308.1920858265859
 20
-378.3052117563387
 30
4.0
 11
310.4690522491582
 21
-383.8022949747809
 31
4.0
  0
LINE
  5
29F
  8
DEFAULT
 10
310.4690522491582
 20
-383.8022949747809
 30
4.0
 11
314.1645703792034
 21
-382.2715612453205
 31
4.0
  0
LINE
  5
2A0
  8
DEFAULT
 10
314.1645703792034
 20
-382.2715612453205
 30
4.0
 11
311.8876039566311
 21
-376.7744780268783
 31
4.0
  0
LINE
  5
2A1
  8
DEFAULT
 10
311.8876039566311
 20
-376.7744780268783
 30
4.0
 11
321.0
 21
-373.0
 31
4.0
  0
LINE
  5
2A2
  8
DEFAULT
 10
321.0
 20
-373.0
 30
4.0
 11
330.1123960433689
 21
-376.7744780268783
 31
4.0
  0
LINE
  5
2A3
  8
DEFAULT
 10
330.1123960433689
 20
-376.7744780268783
 30
4.0
 11
327.8354296207966
 21
-382.2715612453205
 31
4.0
  0
LINE
  5
2A4
  8
DEFAULT
 10
327.8354296207966
 20
-382.2715612453205
 30
4.0
 11
331.5309477508418
 21
-383.8022949747809
 31
4.0
  0
LINE
  5
2A5
  8
DEFAULT
 10
331.5309477508418
 20
-383.8022949747809
 30
4.0
 11
333.8079141734141
 21
-378.3052117563387
 31
4.0
  0
LINE
  5
2A6
  8
DEFAULT
 10
333.8079141734141
 20
-378.3052117563387
 30
4.0
 11
342.920310216783
 21
-382.079689783217
 31
4.0
  0
LINE
  5
2A7
  8
DEFAULT
 10
342.920310216783
 20
-382.079689783217
 30
4.0
 11
346.6947882436613
 21
-391.1920858265859
 31
4.0
  0
LINE
  5
2A8
  8
DEFAULT
 10
346.6947882436613
 20
-391.1920858265859
 30
4.0
 11
341.1977050252191
 21
-393.4690522491582
 31
4.0
  0
LINE
  5
2A9
  8
DEFAULT
 10
341.1977050252191
 20
-393.4690522491582
 30
4.0
 11
342.7284387546795
 21
-397.1645703792034
 31
4.0
  0
LINE
  5
2AA
  8
DEFAULT
 10
342.7284387546795
 20
-397.1645703792034
 30
4.0
 11
348.2255219731217
 21
-394.8876039566311
 31
4.0
  0
LINE
  5
2AB
  8
DEFAULT
 10
348.2255219731217
 20
-394.8876039566311
 30
4.0
 11
352.0
 21
-404.0
 31
4.0
  0
LINE
  5
2AC
  8
DEFAULT
 10
352.0
 20
-404.0
 30
4.0
 11
348.2255219731217
 21
-413.1123960433689
 31
4.0
  0
LINE
  5
2AD
  8
DEFAULT
 10
348.2255219731217
 20
-413.1123960433689
 30
4.0
 11
342.7284387546795
 21
-410.8354296207966
 31
4.0
  0
LINE
  5
2AE
  8
DEFAULT
 10
342.7284387546795
 20
-410.8354296207966
 30
4.0
 11
341.1977050252191
 21
-414.5309477508418
 31
4.0
  0
LINE
  5
2AF
  8
DEFAULT
 10
341.1977050252191
 20
-414.5309477508418
 30
4.0
 11
346.6947882436613
 21
-416.8079141734141
 31
4.0
  0
LINE
  5
2B0
  8
DEFAULT
 10
346.6947882436613
 20
-416.8079141734141
 30
4.0
 11
342.920310216783
 21
-425.920310216783
 31
4.0
  0
LINE
  5
2B1
  8
DEFAULT
 10
342.920310216783
 20
-425.920310216783
 30
4.0
 11
333.8079141734141
 21
-429.6947882436613
 31
4.0
  0
LINE
  5
2B2
  8
DEFAULT
 10
333.8079141734141
 20
-429.6947882436613
 30
4.0
 11
331.5309477508418
 21
-424.1977050252191
 31
4.0
  0
LINE
  5
2B3
  8
DEFAULT
 10
331.5309477508418
 20
-424.1977050252191
 30
4.0
 11
327.8354296207966
 21
-425.7284387546795
 31
4.0
  0
LINE
  5
2B4
  8
DEFAULT
 10
327.8354296207966
 20
-425.7284387546795
 30
4.0
 11
330.1123960433689
 21
-431.2255219731217
 31
4.0
  0
LINE
  5
2B5
  8
DEFAULT
 10
330.1123960433689
 20
-431.2255219731217
 30
4.0
 11
321.0
 21
-435.0
 31
4.0
  0
LINE
  5
2B6
  8
DEFAULT
 10
321.0
 20
-435.0
 30
4.0
 11
311.8876039566311
 21
-431.2255219731217
 31
4.0
  0
LINE
  5
2B7
  8
DEFAULT
 10
311.8876039566311
 20
-431.2255219731217
 30
4.0
 11
314.1645703792034
 21
-425.7284387546795
 31
4.0
  0
LINE
  5
2B8
  8
DEFAULT
 10
314.1645703792034
 20
-425.7284387546795
 30
4.0
 11
310.4690522491582
 21
-424.1977050252191
 31
4.0
  0
LINE
  5
2B9
  8
DEFAULT
 10
310.4690522491582
 20
-424.1977050252191
 30
4.0
 11
308.1920858265859
 21
-429.6947882436613
 31
4.0
  0
LINE
  5
2BA
  8
DEFAULT
 10
308.1920858265859
 20
-429.6947882436613
 30
4.0
 11
299.079689783217
 21
-425.920310216783
 31
4.0
  0
LINE
  5
2BB
  8
DEFAULT
 10
299.079689783217
 20
-425.920310216783
 30
4.0
 11
295.3052117563387
 21
-416.8079141734141
 31
4.0
  0
LINE
  5
2BC
  8
DEFAULT
 10
295.3052117563387
 20
-416.8079141734141
 30
4.0
 11
300.8022949747809
 21
-414.5309477508418
 31
4.0
  0
LINE
  5
2BD
  8
DEFAULT
 10
300.8022949747809
 20
-414.5309477508418
 30
4.0
 11
299.2715612453205
 21
-410.8354296207966
 31
4.0
  0
LINE
  5
2BE
  8
DEFAULT
 10
299.2715612453205
 20
-410.8354296207966
 30
4.0
 11
293.7744780268783
 21
-413.1123960433689
 31
4.0
  0
LINE
  5
2BF
  8
DEFAULT
 10
293.7744780268783
 20
-413.1123960433689
 30
4.0
 11
290.0
 21
-404.0
 31
4.0
  0
LINE
  5
2C0
  8
DEFAULT
 10
290.0
 20
-404.0
 30
4.0
 11
293.7744780268783
 21
-394.8876039566311
 31
4.0
  0
LINE
  5
2C1
  8
DEFAULT
 10
293.7744780268783
 20
-394.8876039566311
 30
4.0
 11
299.2715612453205
 21
-397.1645703792034
 31
4.0
  0
LINE
  5
2C2
  8
DEFAULT
 10
299.079689783217
 20
-445.079689783217
 30
0.0
 11
295.3052117563387
 21
-454.1920858265859
 31
0.0
  0
LINE
  5
2C3
  8
DEFAULT
 10
295.3052117563387
 20
-454.1920858265859
 30
0.0
 11
300.8022949747809
 21
-456.4690522491582
 31
0.0
  0
LINE
  5
2C4
  8
DEFAULT
 10
300.8022949747809
 20
-456.4690522491582
 30
0.0
 11
299.2715612453205
 21
-460.1645703792034
 31
0.0
  0
LINE
  5
2C5
  8
DEFAULT
 10
299.2715612453205
 20
-460.1645703792034
 30
0.0
 11
293.7744780268783
 21
-457.8876039566311
 31
0.0
  0
LINE
  5
2C6
  8
DEFAULT
 10
293.7744780268783
 20
-457.8876039566311
 30
0.0
 11
290.0
 21
-467.0
 31
0.0
  0
LINE
  5
2C7
  8
DEFAULT
 10
290.0
 20
-467.0
 30
0.0
 11
293.7744780268783
 21
-476.1123960433689
 31
0.0
  0
LINE
  5
2C8
  8
DEFAULT
 10
293.7744780268783
 20
-476.1123960433689
 30
0.0
 11
299.2715612453205
 21
-473.8354296207966
 31
0.0
  0
LINE
  5
2C9
  8
DEFAULT
 10
299.2715612453205
 20
-473.8354296207966
 30
0.0
 11
300.8022949747809
 21
-477.5309477508418
 31
0.0
  0
LINE
  5
2CA
  8
DEFAULT
 10
300.8022949747809
 20
-477.5309477508418
 30
0.0
 11
295.3052117563387
 21
-479.8079141734141
 31
0.0
  0
LINE
  5
2CB
  8
DEFAULT
 10
295.3052117563387
 20
-479.8079141734141
 30
0.0
 11
299.079689783217
 21
-488.920310216783
 31
0.0
  0
LINE
  5
2CC
  8
DEFAULT
 10
299.079689783217
 20
-488.920310216783
 30
0.0
 11
308.1920858265859
 21
-492.6947882436613
 31
0.0
  0
LINE
  5
2CD
  8
DEFAULT
 10
308.1920858265859
 20
-492.6947882436613
 30
0.0
 11
310.4690522491582
 21
-487.1977050252191
 31
0.0
  0
LINE
  5
2CE
  8
DEFAULT
 10
310.4690522491582
 20
-487.1977050252191
 30
0.0
 11
314.1645703792034
 21
-488.7284387546795
 31
0.0
  0
LINE
  5
2CF
  8
DEFAULT
 10
314.1645703792034
 20
-488.7284387546795
 30
0.0
 11
311.8876039566311
 21
-494.2255219731217
 31
0.0
  0
LINE
  5
2D0
  8
DEFAULT
 10
311.8876039566311
 20
-494.2255219731217
 30
0.0
 11
321.0
 21
-498.0
 31
0.0
  0
LINE
  5
2D1
  8
DEFAULT
 10
321.0
 20
-498.0
 30
0.0
 11
330.1123960433689
 21
-494.2255219731217
 31
0.0
  0
LINE
  5
2D2
  8
DEFAULT
 10
330.1123960433689
 20
-494.2255219731217
 30
0.0
 11
327.8354296207966
 21
-488.7284387546795
 31
0.0
  0
LINE
  5
2D3
  8
DEFAULT
 10
327.8354296207966
 20
-488.7284387546795
 30
0.0
 11
331.5309477508418
 21
-487.1977050252191
 31
0.0
  0
LINE
  5
2D4
  8
DEFAULT
 10
331.5309477508418
 20
-487.1977050252191
 30
0.0
 11
333.8079141734141
 21
-492.6947882436613
 31
0.0
  0
LINE
  5
2D5
  8
DEFAULT
 10
333.8079141734141
 20
-492.6947882436613
 30
0.0
 11
342.920310216783
 21
-488.920310216783
 31
0.0
  0
LINE
  5
2D6
  8
DEFAULT
 10
342.920310216783
 20
-488.920310216783
 30
0.0
 11
346.6947882436613
 21
-479.8079141734141
 31
0.0
  0
LINE
  5
2D7
  8
DEFAULT
 10
346.6947882436613
 20
-479.8079141734141
 30
0.0
 11
341.1977050252191
 21
-477.5309477508418
 31
0.0
  0
LINE
  5
2D8
  8
DEFAULT
 10
341.1977050252191
 20
-477.5309477508418
 30
0.0
 11
342.7284387546795
 21
-473.8354296207966
 31
0.0
  0
LINE
  5
2D9
  8
DEFAULT
 10
342.7284387546795
 20
-473.8354296207966
 30
0.0
 11
348.2255219731217
 21
-476.1123960433689
 31
0.0
  0
LINE
  5
2DA
  8
DEFAULT
 10
348.2255219731217
 20
-476.1123960433689
 30
0.0
 11
352.0
 21
-467.0
 31
0.0
  0
LINE
  5
2DB
  8
DEFAULT
 10
352.0
 20
-467.0
 30
0.0
 11
348.2255219731217
 21
-457.8876039566311
 31
0.0
  0
LINE
  5
2DC
  8
DEFAULT
 10
348.2255219731217
 20
-457.8876039566311
 30
0.0
 11
342.7284387546795
 21
-460.1645703792034
 31
0.0
  0
LINE
  5
2DD
  8
DEFAULT
 10
342.7284387546795
 20
-460.1645703792034
 30
0.0
 11
341.1977050252191
 21
-456.4690522491582
 31
0.0
  0
LINE
  5
2DE
  8
DEFAULT
 10
341.1977050252191
 20
-456.4690522491582
 30
0.0
 11
346.6947882436613
 21
-454.1920858265859
 31
0.0
  0
LINE
  5
2DF
  8
DEFAULT
 10
346.6947882436613
 20
-454.1920858265859
 30
0.0
 11
342.920310216783
 21
-445.079689783217
 31
0.0
  0
LINE
  5
2E0
  8
DEFAULT
 10
342.920310216783
 20
-445.079689783217
 30
0.0
 11
333.8079141734141
 21
-441.3052117563387
 31
0.0
  0
LINE
  5
2E1
  8
DEFAULT
 10
333.8079141734141
 20
-441.3052117563387
 30
0.0
 11
331.5309477508418
 21
-446.8022949747809
 31
0.0
  0
LINE
  5
2E2
  8
DEFAULT
 10
331.5309477508418
 20
-446.8022949747809
 30
0.0
 11
327.8354296207966
 21
-445.2715612453205
 31
0.0
  0
LINE
  5
2E3
  8
DEFAULT
 10
327.8354296207966
 20
-445.2715612453205
 30
0.0
 11
330.1123960433689
 21
-439.7744780268783
 31
0.0
  0
LINE
  5
2E4
  8
DEFAULT
 10
330.1123960433689
 20
-439.7744780268783
 30
0.0
 11
321.0
 21
-436.0
 31
0.0
  0
LINE
  5
2E5
  8
DEFAULT
 10
321.0
 20
-436.0
 30
0.0
 11
311.8876039566311
 21
-439.7744780268783
 31
0.0
  0
LINE
  5
2E6
  8
DEFAULT
 10
311.8876039566311
 20
-439.7744780268783
 30
0.0
 11
314.1645703792034
 21
-445.2715612453205
 31
0.0
  0
LINE
  5
2E7
  8
DEFAULT
 10
314.1645703792034
 20
-445.2715612453205
 30
0.0
 11
310.4690522491582
 21
-446.8022949747809
 31
0.0
  0
LINE
  5
2E8
  8
DEFAULT
 10
310.4690522491582
 20
-446.8022949747809
 30
0.0
 11
308.1920858265859
 21
-441.3052117563387
 31
0.0
  0
LINE
  5
2E9
  8
DEFAULT
 10
308.1920858265859
 20
-441.3052117563387
 30
0.0
 11
299.079689783217
 21
-445.079689783217
 31
0.0
  0
LINE
  5
2EA
  8
DEFAULT
 10
653.0
 20
-514.0
 30
0.0
 11
661.5857864376269
 21
-505.4142135623731
 31
0.0
  0
LINE
  5
2EB
  8
DEFAULT
 10
661.5857864376269
 20
-505.4142135623731
 30
0.0
 11
664.3788582233137
 21
-508.2072853480599
 31
0.0
  0
LINE
  5
2EC
  8
DEFAULT
 10
664.3788582233137
 20
-508.2072853480599
 30
0.0
 11
667.2072853480599
 21
-505.3788582233138
 31
0.0
  0
LINE
  5
2ED
  8
DEFAULT
 10
667.2072853480599
 20
-505.3788582233138
 30
0.0
 11
664.4142135623731
 21
-502.5857864376269
 31
0.0
  0
LINE
  5
2EE
  8
DEFAULT
 10
664.4142135623731
 20
-502.5857864376269
 30
0.0
 11
673.0
 21
-494.0
 31
0.0
  0
LINE
  5
2EF
  8
DEFAULT
 10
673.0
 20
-494.0
 30
0.0
 11
681.5857864376269
 21
-502.5857864376269
 31
0.0
  0
LINE
  5
2F0
  8
DEFAULT
 10
681.5857864376269
 20
-502.5857864376269
 30
0.0
 11
678.7927146519401
 21
-505.3788582233138
 31
0.0
  0
LINE
  5
2F1
  8
DEFAULT
 10
678.7927146519401
 20
-505.3788582233138
 30
0.0
 11
681.6211417766863
 21
-508.2072853480599
 31
0.0
  0
LINE
  5
2F2
  8
DEFAULT
 10
681.6211417766863
 20
-508.2072853480599
 30
0.0
 11
684.4142135623731
 21
-505.4142135623731
 31
0.0
  0
LINE
  5
2F3
  8
DEFAULT
 10
684.4142135623731
 20
-505.4142135623731
 30
0.0
 11
693.0
 21
-514.0
 31
0.0
  0
LINE
  5
2F4
  8
DEFAULT
 10
693.0
 20
-514.0
 30
0.0
 11
684.4142135623731
 21
-522.5857864376269
 31
0.0
  0
LINE
  5
2F5
  8
DEFAULT
 10
684.4142135623731
 20
-522.5857864376269
 30
0.0
 11
681.6211417766863
 21
-519.7927146519401
 31
0.0
  0
LINE
  5
2F6
  8
DEFAULT
 10
681.6211417766863
 20
-519.7927146519401
 30
0.0
 11
678.7927146519401
 21
-522.6211417766863
 31
0.0
  0
LINE
  5
2F7
  8
DEFAULT
 10
678.7927146519401
 20
-522.6211417766863
 30
0.0
 11
681.5857864376269
 21
-525.4142135623731
 31
0.0
  0
LINE
  5
2F8
  8
DEFAULT
 10
681.5857864376269
 20
-525.4142135623731
 30
0.0
 11
673.0
 21
-534.0
 31
0.0
  0
LINE
  5
2F9
  8
DEFAULT
 10
673.0
 20
-534.0
 30
0.0
 11
664.4142135623731
 21
-525.4142135623731
 31
0.0
  0
LINE
  5
2FA
  8
DEFAULT
 10
664.4142135623731
 20
-525.4142135623731
 30
0.0
 11
667.2072853480599
 21
-522.6211417766863
 31
0.0
  0
LINE
  5
2FB
  8
DEFAULT
 10
667.2072853480599
 20
-522.6211417766863
 30
0.0
 11
664.3788582233137
 21
-519.7927146519401
 31
0.0
  0
LINE
  5
2FC
  8
DEFAULT
 10
664.3788582233137
 20
-519.7927146519401
 30
0.0
 11
661.5857864376269
 21
-522.5857864376269
 31
0.0
  0
LINE
  5
2FD
  8
DEFAULT
 10
661.5857864376269
 20
-522.5857864376269
 30
0.0
 11
653.0
 21
-514.0
 31
0.0
  0
LINE
  5
2FE
  8
DEFAULT
 10
626.2072853480599
 20
-505.3788582233138
 30
4.0
 11
623.3788582233137
 21
-508.2072853480599
 31
4.0
  0
LINE
  5
2FF
  8
DEFAULT
 10
623.3788582233137
 20
-508.2072853480599
 30
4.0
 11
620.5857864376269
 21
-505.4142135623731
 31
4.0
  0
LINE
  5
300
  8
DEFAULT
 10
620.5857864376269
 20
-505.4142135623731
 30
4.0
 11
612.0
 21
-514.0
 31
4.0
  0
LINE
  5
301
  8
DEFAULT
 10
612.0
 20
-514.0
 30
4.0
 11
620.5857864376269
 21
-522.5857864376269
 31
4.0
  0
LINE
  5
302
  8
DEFAULT
 10
620.5857864376269
 20
-522.5857864376269
 30
4.0
 11
623.3788582233137
 21
-519.7927146519401
 31
4.0
  0
LINE
  5
303
  8
DEFAULT
 10
623.3788582233137
 20
-519.7927146519401
 30
4.0
 11
626.2072853480599
 21
-522.6211417766863
 31
4.0
  0
LINE
  5
304
  8
DEFAULT
 10
626.2072853480599
 20
-522.6211417766863
 30
4.0
 11
623.4142135623731
 21
-525.4142135623731
 31
4.0
  0
LINE
  5
305
  8
DEFAULT
 10
623.4142135623731
 20
-525.4142135623731
 30
4.0
 11
632.0
 21
-534.0
 31
4.0
  0
LINE
  5
306
  8
DEFAULT
 10
632.0
 20
-534.0
 30
4.0
 11
640.5857864376269
 21
-525.4142135623731
 31
4.0
  0
LINE
  5
307
  8
DEFAULT
 10
640.5857864376269
 20
-525.4142135623731
 30
4.0
 11
637.7927146519401
 21
-522.6211417766863
 31
4.0
  0
LINE
  5
308
  8
DEFAULT
 10
637.7927146519401
 20
-522.6211417766863
 30
4.0
 11
640.6211417766863
 21
-519.7927146519401
 31
4.0
  0
LINE
  5
309
  8
DEFAULT
 10
640.6211417766863
 20
-519.7927146519401
 30
4.0
 11
643.4142135623731
 21
-522.5857864376269
 31
4.0
  0
LINE
  5
30A
  8
DEFAULT
 10
643.4142135623731
 20
-522.5857864376269
 30
4.0
 11
652.0
 21
-514.0
 31
4.0
  0
LINE
  5
30B
  8
DEFAULT
 10
652.0
 20
-514.0
 30
4.0
 11
643.4142135623731
 21
-505.4142135623731
 31
4.0
  0
LINE
  5
30C
  8
DEFAULT
 10
643.4142135623731
 20
-505.4142135623731
 30
4.0
 11
640.6211417766863
 21
-508.2072853480599
 31
4.0
  0
LINE
  5
30D
  8
DEFAULT
 10
640.6211417766863
 20
-508.2072853480599
 30
4.0
 11
637.7927146519401
 21
-505.3788582233138
 31
4.0
  0
LINE
  5
30E
  8
DEFAULT
 10
637.7927146519401
 20
-505.3788582233138
 30
4.0
 11
640.5857864376269
 21
-502.5857864376269
 31
4.0
  0
LINE
  5
30F
  8
DEFAULT
 10
640.5857864376269
 20
-502.5857864376269
 30
4.0
 11
632.0
 21
-494.0
 31
4.0
  0
LINE
  5
310
  8
DEFAULT
 10
632.0
 20
-494.0
 30
4.0
 11
623.4142135623731
 21
-502.5857864376269
 31
4.0
  0
LINE
  5
311
  8
DEFAULT
 10
623.4142135623731
 20
-502.5857864376269
 30
4.0
 11
626.2072853480599
 21
-505.3788582233138
 31
4.0
  0
LINE
  5
312
  8
DEFAULT
 10
571.0
 20
-514.0
 30
0.0
 11
579.5857864376269
 21
-505.4142135623731
 31
0.0
  0
LINE
  5
313
  8
DEFAULT
 10
579.5857864376269
 20
-505.4142135623731
 30
0.0
 11
582.3788582233137
 21
-508.2072853480599
 31
0.0
  0
LINE
  5
314
  8
DEFAULT
 10
582.3788582233137
 20
-508.2072853480599
 30
0.0
 11
585.2072853480599
 21
-505.3788582233138
 31
0.0
  0
LINE
  5
315
  8
DEFAULT
 10
585.2072853480599
 20
-505.3788582233138
 30
0.0
 11
582.4142135623731
 21
-502.5857864376269
 31
0.0
  0
LINE
  5
316
  8
DEFAULT
 10
582.4142135623731
 20
-502.5857864376269
 30
0.0
 11
591.0
 21
-494.0
 31
0.0
  0
LINE
  5
317
  8
DEFAULT
 10
591.0
 20
-494.0
 30
0.0
 11
599.5857864376269
 21
-502.5857864376269
 31
0.0
  0
LINE
  5
318
  8
DEFAULT
 10
599.5857864376269
 20
-502.5857864376269
 30
0.0
 11
596.7927146519401
 21
-505.3788582233138
 31
0.0
  0
LINE
  5
319
  8
DEFAULT
 10
596.7927146519401
 20
-505.3788582233138
 30
0.0
 11
599.6211417766863
 21
-508.2072853480599
 31
0.0
  0
LINE
  5
31A
  8
DEFAULT
 10
599.6211417766863
 20
-508.2072853480599
 30
0.0
 11
602.4142135623731
 21
-505.4142135623731
 31
0.0
  0
LINE
  5
31B
  8
DEFAULT
 10
602.4142135623731
 20
-505.4142135623731
 30
0.0
 11
611.0
 21
-514.0
 31
0.0
  0
LINE
  5
31C
  8
DEFAULT
 10
611.0
 20
-514.0
 30
0.0
 11
602.4142135623731
 21
-522.5857864376269
 31
0.0
  0
LINE
  5
31D
  8
DEFAULT
 10
602.4142135623731
 20
-522.5857864376269
 30
0.0
 11
599.6211417766863
 21
-519.7927146519401
 31
0.0
  0
LINE
  5
31E
  8
DEFAULT
 10
599.6211417766863
 20
-519.7927146519401
 30
0.0
 11
596.7927146519401
 21
-522.6211417766863
 31
0.0
  0
LINE
  5
31F
  8
DEFAULT
 10
596.7927146519401
 20
-522.6211417766863
 30
0.0
 11
599.5857864376269
 21
-525.4142135623731
 31
0.0
  0
LINE
  5
320
  8
DEFAULT
 10
599.5857864376269
 20
-525.4142135623731
 30
0.0
 11
591.0
 21
-534.0
 31
0.0
  0
LINE
  5
321
  8
DEFAULT
 10
591.0
 20
-534.0
 30
0.0
 11
582.4142135623731
 21
-525.4142135623731
 31
0.0
  0
LINE
  5
322
  8
DEFAULT
 10
582.4142135623731
 20
-525.4142135623731
 30
0.0
 11
585.2072853480599
 21
-522.6211417766863
 31
0.0
  0
LINE
  5
323
  8
DEFAULT
 10
585.2072853480599
 20
-522.6211417766863
 30
0.0
 11
582.3788582233137
 21
-519.7927146519401
 31
0.0
  0
LINE
  5
324
  8
DEFAULT
 10
582.3788582233137
 20
-519.7927146519401
 30
0.0
 11
579.5857864376269
 21
-522.5857864376269
 31
0.0
  0
LINE
  5
325
  8
DEFAULT
 10
579.5857864376269
 20
-522.5857864376269
 30
0.0
 11
571.0
 21
-514.0
 31
0.0
  0
LINE
  5
326
  8
DEFAULT
 10
544.2072853480599
 20
-505.3788582233138
 30
4.0
 11
541.3788582233137
 21
-508.2072853480599
 31
4.0
  0
LINE
  5
327
  8
DEFAULT
 10
541.3788582233137
 20
-508.2072853480599
 30
4.0
 11
538.5857864376269
 21
-505.4142135623731
 31
4.0
  0
LINE
  5
328
  8
DEFAULT
 10
538.5857864376269
 20
-505.4142135623731
 30
4.0
 11
530.0
 21
-514.0
 31
4.0
  0
LINE
  5
329
  8
DEFAULT
 10
530.0
 20
-514.0
 30
4.0
 11
538.5857864376269
 21
-522.5857864376269
 31
4.0
  0
LINE
  5
32A
  8
DEFAULT
 10
538.5857864376269
 20
-522.5857864376269
 30
4.0
 11
541.3788582233137
 21
-519.7927146519401
 31
4.0
  0
LINE
  5
32B
  8
DEFAULT
 10
541.3788582233137
 20
-519.7927146519401
 30
4.0
 11
544.2072853480599
 21
-522.6211417766863
 31
4.0
  0
LINE
  5
32C
  8
DEFAULT
 10
544.2072853480599
 20
-522.6211417766863
 30
4.0
 11
541.4142135623731
 21
-525.4142135623731
 31
4.0
  0
LINE
  5
32D
  8
DEFAULT
 10
541.4142135623731
 20
-525.4142135623731
 30
4.0
 11
550.0
 21
-534.0
 31
4.0
  0
LINE
  5
32E
  8
DEFAULT
 10
550.0
 20
-534.0
 30
4.0
 11
558.5857864376269
 21
-525.4142135623731
 31
4.0
  0
LINE
  5
32F
  8
DEFAULT
 10
558.5857864376269
 20
-525.4142135623731
 30
4.0
 11
555.7927146519401
 21
-522.6211417766863
 31
4.0
  0
LINE
  5
330
  8
DEFAULT
 10
555.7927146519401
 20
-522.6211417766863
 30
4.0
 11
558.6211417766863
 21
-519.7927146519401
 31
4.0
  0
LINE
  5
331
  8
DEFAULT
 10
558.6211417766863
 20
-519.7927146519401
 30
4.0
 11
561.4142135623731
 21
-522.5857864376269
 31
4.0
  0
LINE
  5
332
  8
DEFAULT
 10
561.4142135623731
 20
-522.5857864376269
 30
4.0
 11
570.0
 21
-514.0
 31
4.0
  0
LINE
  5
333
  8
DEFAULT
 10
570.0
 20
-514.0
 30
4.0
 11
561.4142135623731
 21
-505.4142135623731
 31
4.0
  0
LINE
  5
334
  8
DEFAULT
 10
561.4142135623731
 20
-505.4142135623731
 30
4.0
 11
558.6211417766863
 21
-508.2072853480599
 31
4.0
  0
LINE
  5
335
  8
DEFAULT
 10
558.6211417766863
 20
-508.2072853480599
 30
4.0
 11
555.7927146519401
 21
-505.3788582233138
 31
4.0
  0
LINE
  5
336
  8
DEFAULT
 10
555.7927146519401
 20
-505.3788582233138
 30
4.0
 11
558.5857864376269
 21
-502.5857864376269
 31
4.0
  0
LINE
  5
337
  8
DEFAULT
 10
558.5857864376269
 20
-502.5857864376269
 30
4.0
 11
550.0
 21
-494.0
 31
4.0
  0
LINE
  5
338
  8
DEFAULT
 10
550.0
 20
-494.0
 30
4.0
 11
541.4142135623731
 21
-502.5857864376269
 31
4.0
  0
LINE
  5
339
  8
DEFAULT
 10
541.4142135623731
 20
-502.5857864376269
 30
4.0
 11
544.2072853480599
 21
-505.3788582233138
 31
4.0
  0
LINE
  5
33A
  8
DEFAULT
 10
489.7570508075689
 20
-522.2394536928958
 30
4.0
 11
486.2929491924311
 21
-524.2394536928958
 31
4.0
  0
LINE
  5
33B
  8
DEFAULT
 10
486.2929491924311
 20
-524.2394536928958
 30
4.0
 11
488.2679491924312
 21
-527.6602540378444
 31
4.0
  0
LINE
  5
33C
  8
DEFAULT
 10
488.2679491924312
 20
-527.6602540378444
 30
4.0
 11
475.0
 21
-535.3205080756887
 31
4.0
  0
LINE
  5
33D
  8
DEFAULT
 10
475.0
 20
-535.3205080756887
 30
4.0
 11
475.0
 21
-520.0
 31
4.0
  0
LINE
  5
33E
  8
DEFAULT
 10
475.0
 20
-520.0
 30
4.0
 11
478.95
 21
-520.0
 31
4.0
  0
LINE
  5
33F
  8
DEFAULT
 10
478.95
 20
-520.0
 30
4.0
 11
478.95
 21
-516.0
 31
4.0
  0
LINE
  5
340
  8
DEFAULT
 10
478.95
 20
-516.0
 30
4.0
 11
475.0
 21
-516.0
 31
4.0
  0
LINE
  5
341
  8
DEFAULT
 10
475.0
 20
-516.0
 30
4.0
 11
475.0
 21
-500.6794919243112
 31
4.0
  0
LINE
  5
342
  8
DEFAULT
 10
475.0
 20
-500.6794919243112
 30
4.0
 11
488.2679491924312
 21
-508.3397459621556
 31
4.0
  0
LINE
  5
343
  8
DEFAULT
 10
488.2679491924312
 20
-508.3397459621556
 30
4.0
 11
486.2929491924311
 21
-511.7605463071042
 31
4.0
  0
LINE
  5
344
  8
DEFAULT
 10
486.2929491924311
 20
-511.7605463071042
 30
4.0
 11
489.7570508075689
 21
-513.7605463071042
 31
4.0
  0
LINE
  5
345
  8
DEFAULT
 10
489.7570508075689
 20
-513.7605463071042
 30
4.0
 11
491.7320508075688
 21
-510.3397459621556
 31
4.0
  0
LINE
  5
346
  8
DEFAULT
 10
491.7320508075688
 20
-510.3397459621556
 30
4.0
 11
505.0
 21
-518.0
 31
4.0
  0
LINE
  5
347
  8
DEFAULT
 10
505.0
 20
-518.0
 30
4.0
 11
491.7320508075688
 21
-525.6602540378444
 31
4.0
  0
LINE
  5
348
  8
DEFAULT
 10
491.7320508075688
 20
-525.6602540378444
 30
4.0
 11
489.7570508075689
 21
-522.2394536928958
 31
4.0
  0
LINE
  5
349
  8
DEFAULT
 10
311.0
 20
-535.3205080756887
 30
0.0
 11
324.2679491924311
 21
-527.6602540378444
 31
0.0
  0
LINE
  5
34A
  8
DEFAULT
 10
324.2679491924311
 20
-527.6602540378444
 30
0.0
 11
322.2929491924311
 21
-524.2394536928958
 31
0.0
  0
LINE
  5
34B
  8
DEFAULT
 10
322.2929491924311
 20
-524.2394536928958
 30
0.0
 11
325.7570508075689
 21
-522.2394536928958
 31
0.0
  0
LINE
  5
34C
  8
DEFAULT
 10
325.7570508075689
 20
-522.2394536928958
 30
0.0
 11
327.7320508075689
 21
-525.6602540378444
 31
0.0
  0
LINE
  5
34D
  8
DEFAULT
 10
327.7320508075689
 20
-525.6602540378444
 30
0.0
 11
341.0
 21
-518.0
 31
0.0
  0
LINE
  5
34E
  8
DEFAULT
 10
341.0
 20
-518.0
 30
0.0
 11
327.7320508075689
 21
-510.3397459621556
 31
0.0
  0
LINE
  5
34F
  8
DEFAULT
 10
327.7320508075689
 20
-510.3397459621556
 30
0.0
 11
325.7570508075689
 21
-513.7605463071042
 31
0.0
  0
LINE
  5
350
  8
DEFAULT
 10
325.7570508075689
 20
-513.7605463071042
 30
0.0
 11
322.2929491924311
 21
-511.7605463071042
 31
0.0
  0
LINE
  5
351
  8
DEFAULT
 10
322.2929491924311
 20
-511.7605463071042
 30
0.0
 11
324.2679491924311
 21
-508.3397459621556
 31
0.0
  0
LINE
  5
352
  8
DEFAULT
 10
324.2679491924311
 20
-508.3397459621556
 30
0.0
 11
311.0
 21
-500.6794919243112
 31
0.0
  0
LINE
  5
353
  8
DEFAULT
 10
311.0
 20
-500.6794919243112
 30
0.0
 11
311.0
 21
-516.0
 31
0.0
  0
LINE
  5
354
  8
DEFAULT
 10
311.0
 20
-516.0
 30
0.0
 11
314.95
 21
-516.0
 31
0.0
  0
LINE
  5
355
  8
DEFAULT
 10
314.95
 20
-516.0
 30
0.0
 11
314.95
 21
-520.0
 31
0.0
  0
LINE
  5
356
  8
DEFAULT
 10
314.95
 20
-520.0
 30
0.0
 11
311.0
 21
-520.0
 31
0.0
  0
LINE
  5
357
  8
DEFAULT
 10
311.0
 20
-520.0
 30
0.0
 11
311.0
 21
-535.3205080756887
 31
0.0
  0
LINE
  5
358
  8
DEFAULT
 10
325.7570508075689
 20
-563.2394536928958
 30
4.0
 11
322.2929491924311
 21
-565.2394536928958
 31
4.0
  0
LINE
  5
359
  8
DEFAULT
 10
322.2929491924311
 20
-565.2394536928958
 30
4.0
 11
324.2679491924311
 21
-568.6602540378444
 31
4.0
  0
LINE
  5
35A
  8
DEFAULT
 10
324.2679491924311
 20
-568.6602540378444
 30
4.0
 11
311.0
 21
-576.3205080756887
 31
4.0
  0
LINE
  5
35B
  8
DEFAULT
 10
311.0
 20
-576.3205080756887
 30
4.0
 11
311.0
 21
-561.0
 31
4.0
  0
LINE
  5
35C
  8
DEFAULT
 10
311.0
 20
-561.0
 30
4.0
 11
314.95
 21
-561.0
 31
4.0
  0
LINE
  5
35D
  8
DEFAULT
 10
314.95
 20
-561.0
 30
4.0
 11
314.95
 21
-557.0
 31
4.0
  0
LINE
  5
35E
  8
DEFAULT
 10
314.95
 20
-557.0
 30
4.0
 11
311.0
 21
-557.0
 31
4.0
  0
LINE
  5
35F
  8
DEFAULT
 10
311.0
 20
-557.0
 30
4.0
 11
311.0
 21
-541.6794919243112
 31
4.0
  0
LINE
  5
360
  8
DEFAULT
 10
311.0
 20
-541.6794919243112
 30
4.0
 11
324.2679491924311
 21
-549.3397459621556
 31
4.0
  0
LINE
  5
361
  8
DEFAULT
 10
324.2679491924311
 20
-549.3397459621556
 30
4.0
 11
322.2929491924311
 21
-552.7605463071042
 31
4.0
  0
LINE
  5
362
  8
DEFAULT
 10
322.2929491924311
 20
-552.7605463071042
 30
4.0
 11
325.7570508075689
 21
-554.7605463071042
 31
4.0
  0
LINE
  5
363
  8
DEFAULT
 10
325.7570508075689
 20
-554.7605463071042
 30
4.0
 11
327.7320508075689
 21
-551.3397459621556
 31
4.0
  0
LINE
  5
364
  8
DEFAULT
 10
327.7320508075689
 20
-551.3397459621556
 30
4.0
 11
341.0
 21
-559.0
 31
4.0
  0
LINE
  5
365
  8
DEFAULT
 10
341.0
 20
-559.0
 30
4.0
 11
327.7320508075689
 21
-566.6602540378444
 31
4.0
  0
LINE
  5
366
  8
DEFAULT
 10
327.7320508075689
 20
-566.6602540378444
 30
4.0
 11
325.7570508075689
 21
-563.2394536928958
 31
4.0
  0
LINE
  5
367
  8
DEFAULT
 10
448.7570508075689
 20
-522.2394536928958
 30
4.0
 11
445.2929491924311
 21
-524.2394536928958
 31
4.0
  0
LINE
  5
368
  8
DEFAULT
 10
445.2929491924311
 20
-524.2394536928958
 30
4.0
 11
447.2679491924312
 21
-527.6602540378444
 31
4.0
  0
LINE
  5
369
  8
DEFAULT
 10
447.2679491924312
 20
-527.6602540378444
 30
4.0
 11
434.0
 21
-535.3205080756887
 31
4.0
  0
LINE
  5
36A
  8
DEFAULT
 10
434.0
 20
-535.3205080756887
 30
4.0
 11
434.0
 21
-520.0
 31
4.0
  0
LINE
  5
36B
  8
DEFAULT
 10
434.0
 20
-520.0
 30
4.0
 11
437.95
 21
-520.0
 31
4.0
  0
LINE
  5
36C
  8
DEFAULT
 10
437.95
 20
-520.0
 30
4.0
 11
437.95
 21
-516.0
 31
4.0
  0
LINE
  5
36D
  8
DEFAULT
 10
437.95
 20
-516.0
 30
4.0
 11
434.0
 21
-516.0
 31
4.0
  0
LINE
  5
36E
  8
DEFAULT
 10
434.0
 20
-516.0
 30
4.0
 11
434.0
 21
-500.6794919243112
 31
4.0
  0
LINE
  5
36F
  8
DEFAULT
 10
434.0
 20
-500.6794919243112
 30
4.0
 11
447.2679491924312
 21
-508.3397459621556
 31
4.0
  0
LINE
  5
370
  8
DEFAULT
 10
447.2679491924312
 20
-508.3397459621556
 30
4.0
 11
445.2929491924311
 21
-511.7605463071042
 31
4.0
  0
LINE
  5
371
  8
DEFAULT
 10
445.2929491924311
 20
-511.7605463071042
 30
4.0
 11
448.7570508075689
 21
-513.7605463071042
 31
4.0
  0
LINE
  5
372
  8
DEFAULT
 10
448.7570508075689
 20
-513.7605463071042
 30
4.0
 11
450.7320508075688
 21
-510.3397459621556
 31
4.0
  0
LINE
  5
373
  8
DEFAULT
 10
450.7320508075688
 20
-510.3397459621556
 30
4.0
 11
464.0
 21
-518.0
 31
4.0
  0
LINE
  5
374
  8
DEFAULT
 10
464.0
 20
-518.0
 30
4.0
 11
450.7320508075688
 21
-525.6602540378444
 31
4.0
  0
LINE
  5
375
  8
DEFAULT
 10
450.7320508075688
 20
-525.6602540378444
 30
4.0
 11
448.7570508075689
 21
-522.2394536928958
 31
4.0
  0
LINE
  5
376
  8
DEFAULT
 10
407.7570508075689
 20
-522.2394536928958
 30
4.0
 11
404.2929491924311
 21
-524.2394536928958
 31
4.0
  0
LINE
  5
377
  8
DEFAULT
 10
404.2929491924311
 20
-524.2394536928958
 30
4.0
 11
406.2679491924311
 21
-527.6602540378444
 31
4.0
  0
LINE
  5
378
  8
DEFAULT
 10
406.2679491924311
 20
-527.6602540378444
 30
4.0
 11
393.0
 21
-535.3205080756887
 31
4.0
  0
LINE
  5
379
  8
DEFAULT
 10
393.0
 20
-535.3205080756887
 30
4.0
 11
393.0
 21
-520.0
 31
4.0
  0
LINE
  5
37A
  8
DEFAULT
 10
393.0
 20
-520.0
 30
4.0
 11
396.95
 21
-520.0
 31
4.0
  0
LINE
  5
37B
  8
DEFAULT
 10
396.95
 20
-520.0
 30
4.0
 11
396.95
 21
-516.0
 31
4.0
  0
LINE
  5
37C
  8
DEFAULT
 10
396.95
 20
-516.0
 30
4.0
 11
393.0
 21
-516.0
 31
4.0
  0
LINE
  5
37D
  8
DEFAULT
 10
393.0
 20
-516.0
 30
4.0
 11
393.0
 21
-500.6794919243112
 31
4.0
  0
LINE
  5
37E
  8
DEFAULT
 10
393.0
 20
-500.6794919243112
 30
4.0
 11
406.2679491924311
 21
-508.3397459621556
 31
4.0
  0
LINE
  5
37F
  8
DEFAULT
 10
406.2679491924311
 20
-508.3397459621556
 30
4.0
 11
404.2929491924311
 21
-511.7605463071042
 31
4.0
  0
LINE
  5
380
  8
DEFAULT
 10
404.2929491924311
 20
-511.7605463071042
 30
4.0
 11
407.7570508075689
 21
-513.7605463071042
 31
4.0
  0
LINE
  5
381
  8
DEFAULT
 10
407.7570508075689
 20
-513.7605463071042
 30
4.0
 11
409.7320508075688
 21
-510.3397459621556
 31
4.0
  0
LINE
  5
382
  8
DEFAULT
 10
409.7320508075688
 20
-510.3397459621556
 30
4.0
 11
423.0
 21
-518.0
 31
4.0
  0
LINE
  5
383
  8
DEFAULT
 10
423.0
 20
-518.0
 30
4.0
 11
409.7320508075688
 21
-525.6602540378444
 31
4.0
  0
LINE
  5
384
  8
DEFAULT
 10
409.7320508075688
 20
-525.6602540378444
 30
4.0
 11
407.7570508075689
 21
-522.2394536928958
 31
4.0
  0
LINE
  5
385
  8
DEFAULT
 10
352.0
 20
-535.3205080756887
 30
0.0
 11
365.2679491924311
 21
-527.6602540378444
 31
0.0
  0
LINE
  5
386
  8
DEFAULT
 10
365.2679491924311
 20
-527.6602540378444
 30
0.0
 11
363.2929491924311
 21
-524.2394536928958
 31
0.0
  0
LINE
  5
387
  8
DEFAULT
 10
363.2929491924311
 20
-524.2394536928958
 30
0.0
 11
366.7570508075689
 21
-522.2394536928958
 31
0.0
  0
LINE
  5
388
  8
DEFAULT
 10
366.7570508075689
 20
-522.2394536928958
 30
0.0
 11
368.7320508075688
 21
-525.6602540378444
 31
0.0
  0
LINE
  5
389
  8
DEFAULT
 10
368.7320508075688
 20
-525.6602540378444
 30
0.0
 11
382.0
 21
-518.0
 31
0.0
  0
LINE
  5
38A
  8
DEFAULT
 10
382.0
 20
-518.0
 30
0.0
 11
368.7320508075689
 21
-510.3397459621556
 31
0.0
  0
LINE
  5
38B
  8
DEFAULT
 10
368.7320508075689
 20
-510.3397459621556
 30
0.0
 11
366.7570508075689
 21
-513.7605463071042
 31
0.0
  0
LINE
  5
38C
  8
DEFAULT
 10
366.7570508075689
 20
-513.7605463071042
 30
0.0
 11
363.2929491924311
 21
-511.7605463071042
 31
0.0
  0
LINE
  5
38D
  8
DEFAULT
 10
363.2929491924311
 20
-511.7605463071042
 30
0.0
 11
365.2679491924311
 21
-508.3397459621556
 31
0.0
  0
LINE
  5
38E
  8
DEFAULT
 10
365.2679491924311
 20
-508.3397459621556
 30
0.0
 11
352.0
 21
-500.6794919243112
 31
0.0
  0
LINE
  5
38F
  8
DEFAULT
 10
352.0
 20
-500.6794919243112
 30
0.0
 11
352.0
 21
-516.0
 31
0.0
  0
LINE
  5
390
  8
DEFAULT
 10
352.0
 20
-516.0
 30
0.0
 11
355.95
 21
-516.0
 31
0.0
  0
LINE
  5
391
  8
DEFAULT
 10
355.95
 20
-516.0
 30
0.0
 11
355.95
 21
-520.0
 31
0.0
  0
LINE
  5
392
  8
DEFAULT
 10
355.95
 20
-520.0
 30
0.0
 11
352.0
 21
-520.0
 31
0.0
  0
LINE
  5
393
  8
DEFAULT
 10
352.0
 20
-520.0
 30
0.0
 11
352.0
 21
-535.3205080756887
 31
0.0
  0
LINE
  5
394
  8
DEFAULT
 10
366.7570508075689
 20
-563.2394536928958
 30
4.0
 11
363.2929491924311
 21
-565.2394536928958
 31
4.0
  0
LINE
  5
395
  8
DEFAULT
 10
363.2929491924311
 20
-565.2394536928958
 30
4.0
 11
365.2679491924311
 21
-568.6602540378444
 31
4.0
  0
LINE
  5
396
  8
DEFAULT
 10
365.2679491924311
 20
-568.6602540378444
 30
4.0
 11
352.0
 21
-576.3205080756887
 31
4.0
  0
LINE
  5
397
  8
DEFAULT
 10
352.0
 20
-576.3205080756887
 30
4.0
 11
352.0
 21
-561.0
 31
4.0
  0
LINE
  5
398
  8
DEFAULT
 10
352.0
 20
-561.0
 30
4.0
 11
355.95
 21
-561.0
 31
4.0
  0
LINE
  5
399
  8
DEFAULT
 10
355.95
 20
-561.0
 30
4.0
 11
355.95
 21
-557.0
 31
4.0
  0
LINE
  5
39A
  8
DEFAULT
 10
355.95
 20
-557.0
 30
4.0
 11
352.0
 21
-557.0
 31
4.0
  0
LINE
  5
39B
  8
DEFAULT
 10
352.0
 20
-557.0
 30
4.0
 11
352.0
 21
-541.6794919243112
 31
4.0
  0
LINE
  5
39C
  8
DEFAULT
 10
352.0
 20
-541.6794919243112
 30
4.0
 11
365.2679491924311
 21
-549.3397459621556
 31
4.0
  0
LINE
  5
39D
  8
DEFAULT
 10
365.2679491924311
 20
-549.3397459621556
 30
4.0
 11
363.2929491924311
 21
-552.7605463071042
 31
4.0
  0
LINE
  5
39E
  8
DEFAULT
 10
363.2929491924311
 20
-552.7605463071042
 30
4.0
 11
366.7570508075689
 21
-554.7605463071042
 31
4.0
  0
LINE
  5
39F
  8
DEFAULT
 10
366.7570508075689
 20
-554.7605463071042
 30
4.0
 11
368.7320508075689
 21
-551.3397459621556
 31
4.0
  0
LINE
  5
3A0
  8
DEFAULT
 10
368.7320508075689
 20
-551.3397459621556
 30
4.0
 11
382.0
 21
-559.0
 31
4.0
  0
LINE
  5
3A1
  8
DEFAULT
 10
382.0
 20
-559.0
 30
4.0
 11
368.7320508075688
 21
-566.6602540378444
 31
4.0
  0
LINE
  5
3A2
  8
DEFAULT
 10
368.7320508075688
 20
-566.6602540378444
 30
4.0
 11
366.7570508075689
 21
-563.2394536928958
 31
4.0
  0
LINE
  5
3A3
  8
DEFAULT
 10
407.7570508075689
 20
-563.2394536928958
 30
4.0
 11
404.2929491924311
 21
-565.2394536928958
 31
4.0
  0
LINE
  5
3A4
  8
DEFAULT
 10
404.2929491924311
 20
-565.2394536928958
 30
4.0
 11
406.2679491924311
 21
-568.6602540378444
 31
4.0
  0
LINE
  5
3A5
  8
DEFAULT
 10
406.2679491924311
 20
-568.6602540378444
 30
4.0
 11
393.0
 21
-576.3205080756887
 31
4.0
  0
LINE
  5
3A6
  8
DEFAULT
 10
393.0
 20
-576.3205080756887
 30
4.0
 11
393.0
 21
-561.0
 31
4.0
  0
LINE
  5
3A7
  8
DEFAULT
 10
393.0
 20
-561.0
 30
4.0
 11
396.95
 21
-561.0
 31
4.0
  0
LINE
  5
3A8
  8
DEFAULT
 10
396.95
 20
-561.0
 30
4.0
 11
396.95
 21
-557.0
 31
4.0
  0
LINE
  5
3A9
  8
DEFAULT
 10
396.95
 20
-557.0
 30
4.0
 11
393.0
 21
-557.0
 31
4.0
  0
LINE
  5
3AA
  8
DEFAULT
 10
393.0
 20
-557.0
 30
4.0
 11
393.0
 21
-541.6794919243112
 31
4.0
  0
LINE
  5
3AB
  8
DEFAULT
 10
393.0
 20
-541.6794919243112
 30
4.0
 11
406.2679491924311
 21
-549.3397459621556
 31
4.0
  0
LINE
  5
3AC
  8
DEFAULT
 10
406.2679491924311
 20
-549.3397459621556
 30
4.0
 11
404.2929491924311
 21
-552.7605463071042
 31
4.0
  0
LINE
  5
3AD
  8
DEFAULT
 10
404.2929491924311
 20
-552.7605463071042
 30
4.0
 11
407.7570508075689
 21
-554.7605463071042
 31
4.0
  0
LINE
  5
3AE
  8
DEFAULT
 10
407.7570508075689
 20
-554.7605463071042
 30
4.0
 11
409.7320508075688
 21
-551.3397459621556
 31
4.0
  0
LINE
  5
3AF
  8
DEFAULT
 10
409.7320508075688
 20
-551.3397459621556
 30
4.0
 11
423.0
 21
-559.0
 31
4.0
  0
LINE
  5
3B0
  8
DEFAULT
 10
423.0
 20
-559.0
 30
4.0
 11
409.7320508075688
 21
-566.6602540378444
 31
4.0
  0
LINE
  5
3B1
  8
DEFAULT
 10
409.7320508075688
 20
-566.6602540378444
 30
4.0
 11
407.7570508075689
 21
-563.2394536928958
 31
4.0
  0
LINE
  5
3B2
  8
DEFAULT
 10
448.7570508075689
 20
-563.2394536928958
 30
4.0
 11
445.2929491924311
 21
-565.2394536928958
 31
4.0
  0
LINE
  5
3B3
  8
DEFAULT
 10
445.2929491924311
 20
-565.2394536928958
 30
4.0
 11
447.2679491924312
 21
-568.6602540378444
 31
4.0
  0
LINE
  5
3B4
  8
DEFAULT
 10
447.2679491924312
 20
-568.6602540378444
 30
4.0
 11
434.0
 21
-576.3205080756887
 31
4.0
  0
LINE
  5
3B5
  8
DEFAULT
 10
434.0
 20
-576.3205080756887
 30
4.0
 11
434.0
 21
-561.0
 31
4.0
  0
LINE
  5
3B6
  8
DEFAULT
 10
434.0
 20
-561.0
 30
4.0
 11
437.95
 21
-561.0
 31
4.0
  0
LINE
  5
3B7
  8
DEFAULT
 10
437.95
 20
-561.0
 30
4.0
 11
437.95
 21
-557.0
 31
4.0
  0
LINE
  5
3B8
  8
DEFAULT
 10
437.95
 20
-557.0
 30
4.0
 11
434.0
 21
-557.0
 31
4.0
  0
LINE
  5
3B9
  8
DEFAULT
 10
434.0
 20
-557.0
 30
4.0
 11
434.0
 21
-541.6794919243112
 31
4.0
  0
LINE
  5
3BA
  8
DEFAULT
 10
434.0
 20
-541.6794919243112
 30
4.0
 11
447.2679491924312
 21
-549.3397459621556
 31
4.0
  0
LINE
  5
3BB
  8
DEFAULT
 10
447.2679491924312
 20
-549.3397459621556
 30
4.0
 11
445.2929491924311
 21
-552.7605463071042
 31
4.0
  0
LINE
  5
3BC
  8
DEFAULT
 10
445.2929491924311
 20
-552.7605463071042
 30
4.0
 11
448.7570508075689
 21
-554.7605463071042
 31
4.0
  0
LINE
  5
3BD
  8
DEFAULT
 10
448.7570508075689
 20
-554.7605463071042
 30
4.0
 11
450.7320508075688
 21
-551.3397459621556
 31
4.0
  0
LINE
  5
3BE
  8
DEFAULT
 10
450.7320508075688
 20
-551.3397459621556
 30
4.0
 11
464.0
 21
-559.0
 31
4.0
  0
LINE
  5
3BF
  8
DEFAULT
 10
464.0
 20
-559.0
 30
4.0
 11
450.7320508075688
 21
-566.6602540378444
 31
4.0
  0
LINE
  5
3C0
  8
DEFAULT
 10
450.7320508075688
 20
-566.6602540378444
 30
4.0
 11
448.7570508075689
 21
-563.2394536928958
 31
4.0
  0
LINE
  5
3C1
  8
DEFAULT
 10
475.0
 20
-557.0
 30
4.0
 11
475.0
 21
-557.0
 31
0.0
  0
LINE
  5
3C2
  8
DEFAULT
 10
475.0
 20
-557.0
 30
0.0
 11
478.95
 21
-557.0
 31
0.0
  0
LINE
  5
3C3
  8
DEFAULT
 10
478.95
 20
-557.0
 30
0.0
 11
478.95
 21
-557.0
 31
4.0
  0
LINE
  5
3C4
  8
DEFAULT
 10
478.95
 20
-557.0
 30
4.0
 11
475.0
 21
-557.0
 31
4.0
  0
LINE
  5
3C5
  8
DEFAULT
 10
475.0
 20
-576.3205080756887
 30
0.0
 11
488.2679491924312
 21
-568.6602540378444
 31
0.0
  0
LINE
  5
3C6
  8
DEFAULT
 10
488.2679491924312
 20
-568.6602540378444
 30
0.0
 11
486.2929491924311
 21
-565.2394536928958
 31
0.0
  0
LINE
  5
3C7
  8
DEFAULT
 10
486.2929491924311
 20
-565.2394536928958
 30
0.0
 11
489.7570508075689
 21
-563.2394536928958
 31
0.0
  0
LINE
  5
3C8
  8
DEFAULT
 10
489.7570508075689
 20
-563.2394536928958
 30
0.0
 11
491.7320508075688
 21
-566.6602540378444
 31
0.0
  0
LINE
  5
3C9
  8
DEFAULT
 10
491.7320508075688
 20
-566.6602540378444
 30
0.0
 11
505.0
 21
-559.0
 31
0.0
  0
LINE
  5
3CA
  8
DEFAULT
 10
505.0
 20
-559.0
 30
0.0
 11
491.7320508075688
 21
-551.3397459621556
 31
0.0
  0
LINE
  5
3CB
  8
DEFAULT
 10
491.7320508075688
 20
-551.3397459621556
 30
0.0
 11
489.7570508075689
 21
-554.7605463071042
 31
0.0
  0
LINE
  5
3CC
  8
DEFAULT
 10
489.7570508075689
 20
-554.7605463071042
 30
0.0
 11
486.2929491924311
 21
-552.7605463071042
 31
0.0
  0
LINE
  5
3CD
  8
DEFAULT
 10
486.2929491924311
 20
-552.7605463071042
 30
0.0
 11
488.2679491924312
 21
-549.3397459621556
 31
0.0
  0
LINE
  5
3CE
  8
DEFAULT
 10
488.2679491924312
 20
-549.3397459621556
 30
0.0
 11
475.0
 21
-541.6794919243112
 31
0.0
  0
LINE
  5
3CF
  8
DEFAULT
 10
475.0
 20
-541.6794919243112
 30
0.0
 11
475.0
 21
-557.0
 31
0.0
  0
LINE
  5
3D0
  8
DEFAULT
 10
475.0
 20
-557.0
 30
0.0
 11
478.95
 21
-557.0
 31
0.0
  0
LINE
  5
3D1
  8
DEFAULT
 10
478.95
 20
-557.0
 30
0.0
 11
478.95
 21
-561.0
 31
0.0
  0
LINE
  5
3D2
  8
DEFAULT
 10
478.95
 20
-561.0
 30
0.0
 11
475.0
 21
-561.0
 31
0.0
  0
LINE
  5
3D3
  8
DEFAULT
 10
475.0
 20
-561.0
 30
0.0
 11
475.0
 21
-576.3205080756887
 31
0.0
  0
LINE
  5
3D4
  8
DEFAULT
 10
478.95
 20
-557.0
 30
4.0
 11
478.95
 21
-557.0
 31
0.0
  0
LINE
  5
3D5
  8
DEFAULT
 10
478.95
 20
-557.0
 30
0.0
 11
478.95
 21
-561.0
 31
0.0
  0
LINE
  5
3D6
  8
DEFAULT
 10
478.95
 20
-561.0
 30
0.0
 11
478.95
 21
-561.0
 31
4.0
  0
LINE
  5
3D7
  8
DEFAULT
 10
478.95
 20
-561.0
 30
4.0
 11
478.95
 21
-557.0
 31
4.0
  0
LINE
  5
3D8
  8
DEFAULT
 10
544.2072853480599
 20
-546.3788582233137
 30
4.0
 11
541.3788582233137
 21
-549.2072853480599
 31
4.0
  0
LINE
  5
3D9
  8
DEFAULT
 10
541.3788582233137
 20
-549.2072853480599
 30
4.0
 11
538.5857864376269
 21
-546.4142135623731
 31
4.0
  0
LINE
  5
3DA
  8
DEFAULT
 10
538.5857864376269
 20
-546.4142135623731
 30
4.0
 11
530.0
 21
-555.0
 31
4.0
  0
LINE
  5
3DB
  8
DEFAULT
 10
530.0
 20
-555.0
 30
4.0
 11
538.5857864376269
 21
-563.5857864376269
 31
4.0
  0
LINE
  5
3DC
  8
DEFAULT
 10
538.5857864376269
 20
-563.5857864376269
 30
4.0
 11
541.3788582233137
 21
-560.7927146519401
 31
4.0
  0
LINE
  5
3DD
  8
DEFAULT
 10
541.3788582233137
 20
-560.7927146519401
 30
4.0
 11
544.2072853480599
 21
-563.6211417766863
 31
4.0
  0
LINE
  5
3DE
  8
DEFAULT
 10
544.2072853480599
 20
-563.6211417766863
 30
4.0
 11
541.4142135623731
 21
-566.4142135623731
 31
4.0
  0
LINE
  5
3DF
  8
DEFAULT
 10
541.4142135623731
 20
-566.4142135623731
 30
4.0
 11
550.0
 21
-575.0
 31
4.0
  0
LINE
  5
3E0
  8
DEFAULT
 10
550.0
 20
-575.0
 30
4.0
 11
558.5857864376269
 21
-566.4142135623731
 31
4.0
  0
LINE
  5
3E1
  8
DEFAULT
 10
558.5857864376269
 20
-566.4142135623731
 30
4.0
 11
555.7927146519401
 21
-563.6211417766863
 31
4.0
  0
LINE
  5
3E2
  8
DEFAULT
 10
555.7927146519401
 20
-563.6211417766863
 30
4.0
 11
558.6211417766863
 21
-560.7927146519401
 31
4.0
  0
LINE
  5
3E3
  8
DEFAULT
 10
558.6211417766863
 20
-560.7927146519401
 30
4.0
 11
561.4142135623731
 21
-563.5857864376269
 31
4.0
  0
LINE
  5
3E4
  8
DEFAULT
 10
561.4142135623731
 20
-563.5857864376269
 30
4.0
 11
570.0
 21
-555.0
 31
4.0
  0
LINE
  5
3E5
  8
DEFAULT
 10
570.0
 20
-555.0
 30
4.0
 11
561.4142135623731
 21
-546.4142135623731
 31
4.0
  0
LINE
  5
3E6
  8
DEFAULT
 10
561.4142135623731
 20
-546.4142135623731
 30
4.0
 11
558.6211417766863
 21
-549.2072853480599
 31
4.0
  0
LINE
  5
3E7
  8
DEFAULT
 10
558.6211417766863
 20
-549.2072853480599
 30
4.0
 11
555.7927146519401
 21
-546.3788582233137
 31
4.0
  0
LINE
  5
3E8
  8
DEFAULT
 10
555.7927146519401
 20
-546.3788582233137
 30
4.0
 11
558.5857864376269
 21
-543.5857864376269
 31
4.0
  0
LINE
  5
3E9
  8
DEFAULT
 10
558.5857864376269
 20
-543.5857864376269
 30
4.0
 11
550.0
 21
-535.0
 31
4.0
  0
LINE
  5
3EA
  8
DEFAULT
 10
550.0
 20
-535.0
 30
4.0
 11
541.4142135623731
 21
-543.5857864376269
 31
4.0
  0
LINE
  5
3EB
  8
DEFAULT
 10
541.4142135623731
 20
-543.5857864376269
 30
4.0
 11
544.2072853480599
 21
-546.3788582233137
 31
4.0
  0
LINE
  5
3EC
  8
DEFAULT
 10
541.3788582233137
 20
-560.7927146519401
 30
4.0
 11
541.3788582233137
 21
-560.7927146519401
 31
0.0
  0
LINE
  5
3ED
  8
DEFAULT
 10
541.3788582233137
 20
-560.7927146519401
 30
0.0
 11
538.5857864376269
 21
-563.5857864376269
 31
0.0
  0
LINE
  5
3EE
  8
DEFAULT
 10
538.5857864376269
 20
-563.5857864376269
 30
0.0
 11
538.5857864376269
 21
-563.5857864376269
 31
4.0
  0
LINE
  5
3EF
  8
DEFAULT
 10
538.5857864376269
 20
-563.5857864376269
 30
4.0
 11
541.3788582233137
 21
-560.7927146519401
 31
4.0
  0
LINE
  5
3F0
  8
DEFAULT
 10
541.4142135623731
 20
-566.4142135623731
 30
4.0
 11
541.4142135623731
 21
-566.4142135623731
 31
0.0
  0
LINE
  5
3F1
  8
DEFAULT
 10
541.4142135623731
 20
-566.4142135623731
 30
0.0
 11
544.2072853480599
 21
-563.6211417766863
 31
0.0
  0
LINE
  5
3F2
  8
DEFAULT
 10
544.2072853480599
 20
-563.6211417766863
 30
0.0
 11
544.2072853480599
 21
-563.6211417766863
 31
4.0
  0
LINE
  5
3F3
  8
DEFAULT
 10
544.2072853480599
 20
-563.6211417766863
 30
4.0
 11
541.4142135623731
 21
-566.4142135623731
 31
4.0
  0
LINE
  5
3F4
  8
DEFAULT
 10
530.0
 20
-555.0
 30
0.0
 11
538.5857864376269
 21
-546.4142135623731
 31
0.0
  0
LINE
  5
3F5
  8
DEFAULT
 10
538.5857864376269
 20
-546.4142135623731
 30
0.0
 11
541.3788582233137
 21
-549.2072853480599
 31
0.0
  0
LINE
  5
3F6
  8
DEFAULT
 10
541.3788582233137
 20
-549.2072853480599
 30
0.0
 11
544.2072853480599
 21
-546.3788582233137
 31
0.0
  0
LINE
  5
3F7
  8
DEFAULT
 10
544.2072853480599
 20
-546.3788582233137
 30
0.0
 11
541.4142135623731
 21
-543.5857864376269
 31
0.0
  0
LINE
  5
3F8
  8
DEFAULT
 10
541.4142135623731
 20
-543.5857864376269
 30
0.0
 11
550.0
 21
-535.0
 31
0.0
  0
LINE
  5
3F9
  8
DEFAULT
 10
550.0
 20
-535.0
 30
0.0
 11
558.5857864376269
 21
-543.5857864376269
 31
0.0
  0
LINE
  5
3FA
  8
DEFAULT
 10
558.5857864376269
 20
-543.5857864376269
 30
0.0
 11
555.7927146519401
 21
-546.3788582233137
 31
0.0
  0
LINE
  5
3FB
  8
DEFAULT
 10
555.7927146519401
 20
-546.3788582233137
 30
0.0
 11
558.6211417766863
 21
-549.2072853480599
 31
0.0
  0
LINE
  5
3FC
  8
DEFAULT
 10
558.6211417766863
 20
-549.2072853480599
 30
0.0
 11
561.4142135623731
 21
-546.4142135623731
 31
0.0
  0
LINE
  5
3FD
  8
DEFAULT
 10
561.4142135623731
 20
-546.4142135623731
 30
0.0
 11
570.0
 21
-555.0
 31
0.0
  0
LINE
  5
3FE
  8
DEFAULT
 10
570.0
 20
-555.0
 30
0.0
 11
561.4142135623731
 21
-563.5857864376269
 31
0.0
  0
LINE
  5
3FF
  8
DEFAULT
 10
561.4142135623731
 20
-563.5857864376269
 30
0.0
 11
558.6211417766863
 21
-560.7927146519401
 31
0.0
  0
LINE
  5
400
  8
DEFAULT
 10
558.6211417766863
 20
-560.7927146519401
 30
0.0
 11
555.7927146519401
 21
-563.6211417766863
 31
0.0
  0
LINE
  5
401
  8
DEFAULT
 10
555.7927146519401
 20
-563.6211417766863
 30
0.0
 11
558.5857864376269
 21
-566.4142135623731
 31
0.0
  0
LINE
  5
402
  8
DEFAULT
 10
558.5857864376269
 20
-566.4142135623731
 30
0.0
 11
550.0
 21
-575.0
 31
0.0
  0
LINE
  5
403
  8
DEFAULT
 10
550.0
 20
-575.0
 30
0.0
 11
541.4142135623731
 21
-566.4142135623731
 31
0.0
  0
LINE
  5
404
  8
DEFAULT
 10
541.4142135623731
 20
-566.4142135623731
 30
0.0
 11
544.2072853480599
 21
-563.6211417766863
 31
0.0
  0
LINE
  5
405
  8
DEFAULT
 10
544.2072853480599
 20
-563.6211417766863
 30
0.0
 11
541.3788582233137
 21
-560.7927146519401
 31
0.0
  0
LINE
  5
406
  8
DEFAULT
 10
541.3788582233137
 20
-560.7927146519401
 30
0.0
 11
538.5857864376269
 21
-563.5857864376269
 31
0.0
  0
LINE
  5
407
  8
DEFAULT
 10
538.5857864376269
 20
-563.5857864376269
 30
0.0
 11
530.0
 21
-555.0
 31
0.0
  0
LINE
  5
408
  8
DEFAULT
 10
544.2072853480599
 20
-563.6211417766863
 30
4.0
 11
544.2072853480599
 21
-563.6211417766863
 31
0.0
  0
LINE
  5
409
  8
DEFAULT
 10
544.2072853480599
 20
-563.6211417766863
 30
0.0
 11
541.3788582233137
 21
-560.7927146519401
 31
0.0
  0
LINE
  5
40A
  8
DEFAULT
 10
541.3788582233137
 20
-560.7927146519401
 30
0.0
 11
541.3788582233137
 21
-560.7927146519401
 31
4.0
  0
LINE
  5
40B
  8
DEFAULT
 10
541.3788582233137
 20
-560.7927146519401
 30
4.0
 11
544.2072853480599
 21
-563.6211417766863
 31
4.0
  0
LINE
  5
40C
  8
DEFAULT
 10
571.0
 20
-555.0
 30
0.0
 11
579.5857864376269
 21
-546.4142135623731
 31
0.0
  0
LINE
  5
40D
  8
DEFAULT
 10
579.5857864376269
 20
-546.4142135623731
 30
0.0
 11
582.3788582233137
 21
-549.2072853480599
 31
0.0
  0
LINE
  5
40E
  8
DEFAULT
 10
582.3788582233137
 20
-549.2072853480599
 30
0.0
 11
585.2072853480599
 21
-546.3788582233137
 31
0.0
  0
LINE
  5
40F
  8
DEFAULT
 10
585.2072853480599
 20
-546.3788582233137
 30
0.0
 11
582.4142135623731
 21
-543.5857864376269
 31
0.0
  0
LINE
  5
410
  8
DEFAULT
 10
582.4142135623731
 20
-543.5857864376269
 30
0.0
 11
591.0
 21
-535.0
 31
0.0
  0
LINE
  5
411
  8
DEFAULT
 10
591.0
 20
-535.0
 30
0.0
 11
599.5857864376269
 21
-543.5857864376269
 31
0.0
  0
LINE
  5
412
  8
DEFAULT
 10
599.5857864376269
 20
-543.5857864376269
 30
0.0
 11
596.7927146519401
 21
-546.3788582233137
 31
0.0
  0
LINE
  5
413
  8
DEFAULT
 10
596.7927146519401
 20
-546.3788582233137
 30
0.0
 11
599.6211417766863
 21
-549.2072853480599
 31
0.0
  0
LINE
  5
414
  8
DEFAULT
 10
599.6211417766863
 20
-549.2072853480599
 30
0.0
 11
602.4142135623731
 21
-546.4142135623731
 31
0.0
  0
LINE
  5
415
  8
DEFAULT
 10
602.4142135623731
 20
-546.4142135623731
 30
0.0
 11
611.0
 21
-555.0
 31
0.0
  0
LINE
  5
416
  8
DEFAULT
 10
611.0
 20
-555.0
 30
0.0
 11
602.4142135623731
 21
-563.5857864376269
 31
0.0
  0
LINE
  5
417
  8
DEFAULT
 10
602.4142135623731
 20
-563.5857864376269
 30
0.0
 11
599.6211417766863
 21
-560.7927146519401
 31
0.0
  0
LINE
  5
418
  8
DEFAULT
 10
599.6211417766863
 20
-560.7927146519401
 30
0.0
 11
596.7927146519401
 21
-563.6211417766863
 31
0.0
  0
LINE
  5
419
  8
DEFAULT
 10
596.7927146519401
 20
-563.6211417766863
 30
0.0
 11
599.5857864376269
 21
-566.4142135623731
 31
0.0
  0
LINE
  5
41A
  8
DEFAULT
 10
599.5857864376269
 20
-566.4142135623731
 30
0.0
 11
591.0
 21
-575.0
 31
0.0
  0
LINE
  5
41B
  8
DEFAULT
 10
591.0
 20
-575.0
 30
0.0
 11
582.4142135623731
 21
-566.4142135623731
 31
0.0
  0
LINE
  5
41C
  8
DEFAULT
 10
582.4142135623731
 20
-566.4142135623731
 30
0.0
 11
585.2072853480599
 21
-563.6211417766863
 31
0.0
  0
LINE
  5
41D
  8
DEFAULT
 10
585.2072853480599
 20
-563.6211417766863
 30
0.0
 11
582.3788582233137
 21
-560.7927146519401
 31
0.0
  0
LINE
  5
41E
  8
DEFAULT
 10
582.3788582233137
 20
-560.7927146519401
 30
0.0
 11
579.5857864376269
 21
-563.5857864376269
 31
0.0
  0
LINE
  5
41F
  8
DEFAULT
 10
579.5857864376269
 20
-563.5857864376269
 30
0.0
 11
571.0
 21
-555.0
 31
0.0
  0
LINE
  5
420
  8
DEFAULT
 10
626.2072853480599
 20
-546.3788582233137
 30
4.0
 11
623.3788582233137
 21
-549.2072853480599
 31
4.0
  0
LINE
  5
421
  8
DEFAULT
 10
623.3788582233137
 20
-549.2072853480599
 30
4.0
 11
620.5857864376269
 21
-546.4142135623731
 31
4.0
  0
LINE
  5
422
  8
DEFAULT
 10
620.5857864376269
 20
-546.4142135623731
 30
4.0
 11
612.0
 21
-555.0
 31
4.0
  0
LINE
  5
423
  8
DEFAULT
 10
612.0
 20
-555.0
 30
4.0
 11
620.5857864376269
 21
-563.5857864376269
 31
4.0
  0
LINE
  5
424
  8
DEFAULT
 10
620.5857864376269
 20
-563.5857864376269
 30
4.0
 11
623.3788582233137
 21
-560.7927146519401
 31
4.0
  0
LINE
  5
425
  8
DEFAULT
 10
623.3788582233137
 20
-560.7927146519401
 30
4.0
 11
626.2072853480599
 21
-563.6211417766863
 31
4.0
  0
LINE
  5
426
  8
DEFAULT
 10
626.2072853480599
 20
-563.6211417766863
 30
4.0
 11
623.4142135623731
 21
-566.4142135623731
 31
4.0
  0
LINE
  5
427
  8
DEFAULT
 10
623.4142135623731
 20
-566.4142135623731
 30
4.0
 11
632.0
 21
-575.0
 31
4.0
  0
LINE
  5
428
  8
DEFAULT
 10
632.0
 20
-575.0
 30
4.0
 11
640.5857864376269
 21
-566.4142135623731
 31
4.0
  0
LINE
  5
429
  8
DEFAULT
 10
640.5857864376269
 20
-566.4142135623731
 30
4.0
 11
637.7927146519401
 21
-563.6211417766863
 31
4.0
  0
LINE
  5
42A
  8
DEFAULT
 10
637.7927146519401
 20
-563.6211417766863
 30
4.0
 11
640.6211417766863
 21
-560.7927146519401
 31
4.0
  0
LINE
  5
42B
  8
DEFAULT
 10
640.6211417766863
 20
-560.7927146519401
 30
4.0
 11
643.4142135623731
 21
-563.5857864376269
 31
4.0
  0
LINE
  5
42C
  8
DEFAULT
 10
643.4142135623731
 20
-563.5857864376269
 30
4.0
 11
652.0
 21
-555.0
 31
4.0
  0
LINE
  5
42D
  8
DEFAULT
 10
652.0
 20
-555.0
 30
4.0
 11
643.4142135623731
 21
-546.4142135623731
 31
4.0
  0
LINE
  5
42E
  8
DEFAULT
 10
643.4142135623731
 20
-546.4142135623731
 30
4.0
 11
640.6211417766863
 21
-549.2072853480599
 31
4.0
  0
LINE
  5
42F
  8
DEFAULT
 10
640.6211417766863
 20
-549.2072853480599
 30
4.0
 11
637.7927146519401
 21
-546.3788582233137
 31
4.0
  0
LINE
  5
430
  8
DEFAULT
 10
637.7927146519401
 20
-546.3788582233137
 30
4.0
 11
640.5857864376269
 21
-543.5857864376269
 31
4.0
  0
LINE
  5
431
  8
DEFAULT
 10
640.5857864376269
 20
-543.5857864376269
 30
4.0
 11
632.0
 21
-535.0
 31
4.0
  0
LINE
  5
432
  8
DEFAULT
 10
632.0
 20
-535.0
 30
4.0
 11
623.4142135623731
 21
-543.5857864376269
 31
4.0
  0
LINE
  5
433
  8
DEFAULT
 10
623.4142135623731
 20
-543.5857864376269
 30
4.0
 11
626.2072853480599
 21
-546.3788582233137
 31
4.0
  0
LINE
  5
434
  8
DEFAULT
 10
667.2072853480599
 20
-546.3788582233137
 30
4.0
 11
664.3788582233137
 21
-549.2072853480599
 31
4.0
  0
LINE
  5
435
  8
DEFAULT
 10
664.3788582233137
 20
-549.2072853480599
 30
4.0
 11
661.5857864376269
 21
-546.4142135623731
 31
4.0
  0
LINE
  5
436
  8
DEFAULT
 10
661.5857864376269
 20
-546.4142135623731
 30
4.0
 11
653.0
 21
-555.0
 31
4.0
  0
LINE
  5
437
  8
DEFAULT
 10
653.0
 20
-555.0
 30
4.0
 11
661.5857864376269
 21
-563.5857864376269
 31
4.0
  0
LINE
  5
438
  8
DEFAULT
 10
661.5857864376269
 20
-563.5857864376269
 30
4.0
 11
664.3788582233137
 21
-560.7927146519401
 31
4.0
  0
LINE
  5
439
  8
DEFAULT
 10
664.3788582233137
 20
-560.7927146519401
 30
4.0
 11
667.2072853480599
 21
-563.6211417766863
 31
4.0
  0
LINE
  5
43A
  8
DEFAULT
 10
667.2072853480599
 20
-563.6211417766863
 30
4.0
 11
664.4142135623731
 21
-566.4142135623731
 31
4.0
  0
LINE
  5
43B
  8
DEFAULT
 10
664.4142135623731
 20
-566.4142135623731
 30
4.0
 11
673.0
 21
-575.0
 31
4.0
  0
LINE
  5
43C
  8
DEFAULT
 10
673.0
 20
-575.0
 30
4.0
 11
681.5857864376269
 21
-566.4142135623731
 31
4.0
  0
LINE
  5
43D
  8
DEFAULT
 10
681.5857864376269
 20
-566.4142135623731
 30
4.0
 11
678.7927146519401
 21
-563.6211417766863
 31
4.0
  0
LINE
  5
43E
  8
DEFAULT
 10
678.7927146519401
 20
-563.6211417766863
 30
4.0
 11
681.6211417766863
 21
-560.7927146519401
 31
4.0
  0
LINE
  5
43F
  8
DEFAULT
 10
681.6211417766863
 20
-560.7927146519401
 30
4.0
 11
684.4142135623731
 21
-563.5857864376269
 31
4.0
  0
LINE
  5
440
  8
DEFAULT
 10
684.4142135623731
 20
-563.5857864376269
 30
4.0
 11
693.0
 21
-555.0
 31
4.0
  0
LINE
  5
441
  8
DEFAULT
 10
693.0
 20
-555.0
 30
4.0
 11
684.4142135623731
 21
-546.4142135623731
 31
4.0
  0
LINE
  5
442
  8
DEFAULT
 10
684.4142135623731
 20
-546.4142135623731
 30
4.0
 11
681.6211417766863
 21
-549.2072853480599
 31
4.0
  0
LINE
  5
443
  8
DEFAULT
 10
681.6211417766863
 20
-549.2072853480599
 30
4.0
 11
678.7927146519401
 21
-546.3788582233137
 31
4.0
  0
LINE
  5
444
  8
DEFAULT
 10
678.7927146519401
 20
-546.3788582233137
 30
4.0
 11
681.5857864376269
 21
-543.5857864376269
 31
4.0
  0
LINE
  5
445
  8
DEFAULT
 10
681.5857864376269
 20
-543.5857864376269
 30
4.0
 11
673.0
 21
-535.0
 31
4.0
  0
LINE
  5
446
  8
DEFAULT
 10
673.0
 20
-535.0
 30
4.0
 11
664.4142135623731
 21
-543.5857864376269
 31
4.0
  0
LINE
  5
447
  8
DEFAULT
 10
664.4142135623731
 20
-543.5857864376269
 30
4.0
 11
667.2072853480599
 21
-546.3788582233137
 31
4.0
  0
LINE
  5
448
  8
DEFAULT
 10
694.0
 20
-555.0
 30
0.0
 11
702.5857864376269
 21
-546.4142135623731
 31
0.0
  0
LINE
  5
449
  8
DEFAULT
 10
702.5857864376269
 20
-546.4142135623731
 30
0.0
 11
705.3788582233137
 21
-549.2072853480599
 31
0.0
  0
LINE
  5
44A
  8
DEFAULT
 10
705.3788582233137
 20
-549.2072853480599
 30
0.0
 11
708.2072853480599
 21
-546.3788582233137
 31
0.0
  0
LINE
  5
44B
  8
DEFAULT
 10
708.2072853480599
 20
-546.3788582233137
 30
0.0
 11
705.4142135623731
 21
-543.5857864376269
 31
0.0
  0
LINE
  5
44C
  8
DEFAULT
 10
705.4142135623731
 20
-543.5857864376269
 30
0.0
 11
714.0
 21
-535.0
 31
0.0
  0
LINE
  5
44D
  8
DEFAULT
 10
714.0
 20
-535.0
 30
0.0
 11
722.5857864376269
 21
-543.5857864376269
 31
0.0
  0
LINE
  5
44E
  8
DEFAULT
 10
722.5857864376269
 20
-543.5857864376269
 30
0.0
 11
719.7927146519401
 21
-546.3788582233137
 31
0.0
  0
LINE
  5
44F
  8
DEFAULT
 10
719.7927146519401
 20
-546.3788582233137
 30
0.0
 11
722.6211417766863
 21
-549.2072853480599
 31
0.0
  0
LINE
  5
450
  8
DEFAULT
 10
722.6211417766863
 20
-549.2072853480599
 30
0.0
 11
725.4142135623731
 21
-546.4142135623731
 31
0.0
  0
LINE
  5
451
  8
DEFAULT
 10
725.4142135623731
 20
-546.4142135623731
 30
0.0
 11
734.0
 21
-555.0
 31
0.0
  0
LINE
  5
452
  8
DEFAULT
 10
734.0
 20
-555.0
 30
0.0
 11
725.4142135623731
 21
-563.5857864376269
 31
0.0
  0
LINE
  5
453
  8
DEFAULT
 10
725.4142135623731
 20
-563.5857864376269
 30
0.0
 11
722.6211417766863
 21
-560.7927146519401
 31
0.0
  0
LINE
  5
454
  8
DEFAULT
 10
722.6211417766863
 20
-560.7927146519401
 30
0.0
 11
719.7927146519401
 21
-563.6211417766863
 31
0.0
  0
LINE
  5
455
  8
DEFAULT
 10
719.7927146519401
 20
-563.6211417766863
 30
0.0
 11
722.5857864376269
 21
-566.4142135623731
 31
0.0
  0
LINE
  5
456
  8
DEFAULT
 10
722.5857864376269
 20
-566.4142135623731
 30
0.0
 11
714.0
 21
-575.0
 31
0.0
  0
LINE
  5
457
  8
DEFAULT
 10
714.0
 20
-575.0
 30
0.0
 11
705.4142135623731
 21
-566.4142135623731
 31
0.0
  0
LINE
  5
458
  8
DEFAULT
 10
705.4142135623731
 20
-566.4142135623731
 30
0.0
 11
708.2072853480599
 21
-563.6211417766863
 31
0.0
  0
LINE
  5
459
  8
DEFAULT
 10
708.2072853480599
 20
-563.6211417766863
 30
0.0
 11
705.3788582233137
 21
-560.7927146519401
 31
0.0
  0
LINE
  5
45A
  8
DEFAULT
 10
705.3788582233137
 20
-560.7927146519401
 30
0.0
 11
702.5857864376269
 21
-563.5857864376269
 31
0.0
  0
LINE
  5
45B
  8
DEFAULT
 10
702.5857864376269
 20
-563.5857864376269
 30
0.0
 11
694.0
 21
-555.0
 31
0.0
  0
LINE
  5
45C
  8
DEFAULT
 10
694.0
 20
-514.0
 30
0.0
 11
702.5857864376269
 21
-505.4142135623731
 31
0.0
  0
LINE
  5
45D
  8
DEFAULT
 10
702.5857864376269
 20
-505.4142135623731
 30
0.0
 11
705.3788582233137
 21
-508.2072853480599
 31
0.0
  0
LINE
  5
45E
  8
DEFAULT
 10
705.3788582233137
 20
-508.2072853480599
 30
0.0
 11
708.2072853480599
 21
-505.3788582233138
 31
0.0
  0
LINE
  5
45F
  8
DEFAULT
 10
708.2072853480599
 20
-505.3788582233138
 30
0.0
 11
705.4142135623731
 21
-502.5857864376269
 31
0.0
  0
LINE
  5
460
  8
DEFAULT
 10
705.4142135623731
 20
-502.5857864376269
 30
0.0
 11
714.0
 21
-494.0
 31
0.0
  0
LINE
  5
461
  8
DEFAULT
 10
714.0
 20
-494.0
 30
0.0
 11
722.5857864376269
 21
-502.5857864376269
 31
0.0
  0
LINE
  5
462
  8
DEFAULT
 10
722.5857864376269
 20
-502.5857864376269
 30
0.0
 11
719.7927146519401
 21
-505.3788582233138
 31
0.0
  0
LINE
  5
463
  8
DEFAULT
 10
719.7927146519401
 20
-505.3788582233138
 30
0.0
 11
722.6211417766863
 21
-508.2072853480599
 31
0.0
  0
LINE
  5
464
  8
DEFAULT
 10
722.6211417766863
 20
-508.2072853480599
 30
0.0
 11
725.4142135623731
 21
-505.4142135623731
 31
0.0
  0
LINE
  5
465
  8
DEFAULT
 10
725.4142135623731
 20
-505.4142135623731
 30
0.0
 11
734.0
 21
-514.0
 31
0.0
  0
LINE
  5
466
  8
DEFAULT
 10
734.0
 20
-514.0
 30
0.0
 11
725.4142135623731
 21
-522.5857864376269
 31
0.0
  0
LINE
  5
467
  8
DEFAULT
 10
725.4142135623731
 20
-522.5857864376269
 30
0.0
 11
722.6211417766863
 21
-519.7927146519401
 31
0.0
  0
LINE
  5
468
  8
DEFAULT
 10
722.6211417766863
 20
-519.7927146519401
 30
0.0
 11
719.7927146519401
 21
-522.6211417766863
 31
0.0
  0
LINE
  5
469
  8
DEFAULT
 10
719.7927146519401
 20
-522.6211417766863
 30
0.0
 11
722.5857864376269
 21
-525.4142135623731
 31
0.0
  0
LINE
  5
46A
  8
DEFAULT
 10
722.5857864376269
 20
-525.4142135623731
 30
0.0
 11
714.0
 21
-534.0
 31
0.0
  0
LINE
  5
46B
  8
DEFAULT
 10
714.0
 20
-534.0
 30
0.0
 11
705.4142135623731
 21
-525.4142135623731
 31
0.0
  0
LINE
  5
46C
  8
DEFAULT
 10
705.4142135623731
 20
-525.4142135623731
 30
0.0
 11
708.2072853480599
 21
-522.6211417766863
 31
0.0
  0
LINE
  5
46D
  8
DEFAULT
 10
708.2072853480599
 20
-522.6211417766863
 30
0.0
 11
705.3788582233137
 21
-519.7927146519401
 31
0.0
  0
LINE
  5
46E
  8
DEFAULT
 10
705.3788582233137
 20
-519.7927146519401
 30
0.0
 11
702.5857864376269
 21
-522.5857864376269
 31
0.0
  0
LINE
  5
46F
  8
DEFAULT
 10
702.5857864376269
 20
-522.5857864376269
 30
0.0
 11
694.0
 21
-514.0
 31
0.0
  0
LINE
  5
470
  8
DEFAULT
 10
777.0179491924312
 20
-722.184301395928
 30
4.0
 11
737.5
 21
-699.3686027918559
 31
4.0
  0
LINE
  5
471
  8
DEFAULT
 10
737.5
 20
-699.3686027918559
 30
4.0
 11
737.5
 21
-745.0
 31
4.0
  0
LINE
  5
472
  8
DEFAULT
 10
737.5
 20
-745.0
 30
4.0
 11
747.45
 21
-745.0
 31
4.0
  0
LINE
  5
473
  8
DEFAULT
 10
747.45
 20
-745.0
 30
4.0
 11
747.45
 21
-749.0
 31
4.0
  0
LINE
  5
474
  8
DEFAULT
 10
747.45
 20
-749.0
 30
4.0
 11
737.5
 21
-749.0
 31
4.0
  0
LINE
  5
475
  8
DEFAULT
 10
737.5
 20
-749.0
 30
4.0
 11
737.5
 21
-794.6313972081441
 31
4.0
  0
LINE
  5
476
  8
DEFAULT
 10
737.5
 20
-794.6313972081441
 30
4.0
 11
777.0179491924312
 21
-771.815698604072
 31
4.0
  0
LINE
  5
477
  8
DEFAULT
 10
777.0179491924312
 20
-771.815698604072
 30
4.0
 11
772.0429491924311
 21
-763.198745836417
 31
4.0
  0
LINE
  5
478
  8
DEFAULT
 10
772.0429491924311
 20
-763.198745836417
 30
4.0
 11
775.5070508075689
 21
-761.198745836417
 31
4.0
  0
LINE
  5
479
  8
DEFAULT
 10
775.5070508075689
 20
-761.198745836417
 30
4.0
 11
780.4820508075688
 21
-769.815698604072
 31
4.0
  0
LINE
  5
47A
  8
DEFAULT
 10
780.4820508075688
 20
-769.815698604072
 30
4.0
 11
820.0
 21
-747.0
 31
4.0
  0
LINE
  5
47B
  8
DEFAULT
 10
820.0
 20
-747.0
 30
4.0
 11
780.4820508075688
 21
-724.184301395928
 31
4.0
  0
LINE
  5
47C
  8
DEFAULT
 10
780.4820508075688
 20
-724.184301395928
 30
4.0
 11
775.5070508075689
 21
-732.801254163583
 31
4.0
  0
LINE
  5
47D
  8
DEFAULT
 10
775.5070508075689
 20
-732.801254163583
 30
4.0
 11
772.0429491924311
 21
-730.801254163583
 31
4.0
  0
LINE
  5
47E
  8
DEFAULT
 10
772.0429491924311
 20
-730.801254163583
 30
4.0
 11
777.0179491924312
 21
-722.184301395928
 31
4.0
  0
LINE
  5
47F
  8
DEFAULT
 10
747.45
 20
-634.0
 30
0.0
 11
737.5
 21
-634.0
 31
0.0
  0
LINE
  5
480
  8
DEFAULT
 10
737.5
 20
-634.0
 30
0.0
 11
737.5
 21
-588.3686027918559
 31
0.0
  0
LINE
  5
481
  8
DEFAULT
 10
737.5
 20
-588.3686027918559
 30
0.0
 11
777.0179491924312
 21
-611.184301395928
 31
0.0
  0
LINE
  5
482
  8
DEFAULT
 10
777.0179491924312
 20
-611.184301395928
 30
0.0
 11
772.0429491924311
 21
-619.801254163583
 31
0.0
  0
LINE
  5
483
  8
DEFAULT
 10
772.0429491924311
 20
-619.801254163583
 30
0.0
 11
775.5070508075689
 21
-621.801254163583
 31
0.0
  0
LINE
  5
484
  8
DEFAULT
 10
775.5070508075689
 20
-621.801254163583
 30
0.0
 11
780.4820508075688
 21
-613.184301395928
 31
0.0
  0
LINE
  5
485
  8
DEFAULT
 10
780.4820508075688
 20
-613.184301395928
 30
0.0
 11
820.0
 21
-636.0
 31
0.0
  0
LINE
  5
486
  8
DEFAULT
 10
820.0
 20
-636.0
 30
0.0
 11
780.4820508075688
 21
-658.815698604072
 31
0.0
  0
LINE
  5
487
  8
DEFAULT
 10
780.4820508075688
 20
-658.815698604072
 30
0.0
 11
775.5070508075689
 21
-650.198745836417
 31
0.0
  0
LINE
  5
488
  8
DEFAULT
 10
775.5070508075689
 20
-650.198745836417
 30
0.0
 11
772.0429491924311
 21
-652.198745836417
 31
0.0
  0
LINE
  5
489
  8
DEFAULT
 10
772.0429491924311
 20
-652.198745836417
 30
0.0
 11
777.0179491924312
 21
-660.815698604072
 31
0.0
  0
LINE
  5
48A
  8
DEFAULT
 10
777.0179491924312
 20
-660.815698604072
 30
0.0
 11
737.5
 21
-683.6313972081441
 31
0.0
  0
LINE
  5
48B
  8
DEFAULT
 10
737.5
 20
-683.6313972081441
 30
0.0
 11
737.5
 21
-638.0
 31
0.0
  0
LINE
  5
48C
  8
DEFAULT
 10
737.5
 20
-638.0
 30
0.0
 11
747.45
 21
-638.0
 31
0.0
  0
LINE
  5
48D
  8
DEFAULT
 10
747.45
 20
-638.0
 30
0.0
 11
747.45
 21
-634.0
 31
0.0
  0
LINE
  5
48E
  8
DEFAULT
 10
666.0179491924312
 20
-611.184301395928
 30
4.0
 11
626.5
 21
-588.3686027918559
 31
4.0
  0
LINE
  5
48F
  8
DEFAULT
 10
626.5
 20
-588.3686027918559
 30
4.0
 11
626.5
 21
-634.0
 31
4.0
  0
LINE
  5
490
  8
DEFAULT
 10
626.5
 20
-634.0
 30
4.0
 11
636.45
 21
-634.0
 31
4.0
  0
LINE
  5
491
  8
DEFAULT
 10
636.45
 20
-634.0
 30
4.0
 11
636.45
 21
-638.0
 31
4.0
  0
LINE
  5
492
  8
DEFAULT
 10
636.45
 20
-638.0
 30
4.0
 11
626.5
 21
-638.0
 31
4.0
  0
LINE
  5
493
  8
DEFAULT
 10
626.5
 20
-638.0
 30
4.0
 11
626.5
 21
-683.6313972081441
 31
4.0
  0
LINE
  5
494
  8
DEFAULT
 10
626.5
 20
-683.6313972081441
 30
4.0
 11
666.0179491924312
 21
-660.815698604072
 31
4.0
  0
LINE
  5
495
  8
DEFAULT
 10
666.0179491924312
 20
-660.815698604072
 30
4.0
 11
661.0429491924311
 21
-652.198745836417
 31
4.0
  0
LINE
  5
496
  8
DEFAULT
 10
661.0429491924311
 20
-652.198745836417
 30
4.0
 11
664.5070508075689
 21
-650.198745836417
 31
4.0
  0
LINE
  5
497
  8
DEFAULT
 10
664.5070508075689
 20
-650.198745836417
 30
4.0
 11
669.4820508075688
 21
-658.815698604072
 31
4.0
  0
LINE
  5
498
  8
DEFAULT
 10
669.4820508075688
 20
-658.815698604072
 30
4.0
 11
709.0
 21
-636.0
 31
4.0
  0
LINE
  5
499
  8
DEFAULT
 10
709.0
 20
-636.0
 30
4.0
 11
669.4820508075688
 21
-613.184301395928
 31
4.0
  0
LINE
  5
49A
  8
DEFAULT
 10
669.4820508075688
 20
-613.184301395928
 30
4.0
 11
664.5070508075689
 21
-621.801254163583
 31
4.0
  0
LINE
  5
49B
  8
DEFAULT
 10
664.5070508075689
 20
-621.801254163583
 30
4.0
 11
661.0429491924311
 21
-619.801254163583
 31
4.0
  0
LINE
  5
49C
  8
DEFAULT
 10
661.0429491924311
 20
-619.801254163583
 30
4.0
 11
666.0179491924312
 21
-611.184301395928
 31
4.0
  0
LINE
  5
49D
  8
DEFAULT
 10
666.0179491924312
 20
-722.184301395928
 30
4.0
 11
626.5
 21
-699.3686027918559
 31
4.0
  0
LINE
  5
49E
  8
DEFAULT
 10
626.5
 20
-699.3686027918559
 30
4.0
 11
626.5
 21
-745.0
 31
4.0
  0
LINE
  5
49F
  8
DEFAULT
 10
626.5
 20
-745.0
 30
4.0
 11
636.45
 21
-745.0
 31
4.0
  0
LINE
  5
4A0
  8
DEFAULT
 10
636.45
 20
-745.0
 30
4.0
 11
636.45
 21
-749.0
 31
4.0
  0
LINE
  5
4A1
  8
DEFAULT
 10
636.45
 20
-749.0
 30
4.0
 11
626.5
 21
-749.0
 31
4.0
  0
LINE
  5
4A2
  8
DEFAULT
 10
626.5
 20
-749.0
 30
4.0
 11
626.5
 21
-794.6313972081441
 31
4.0
  0
LINE
  5
4A3
  8
DEFAULT
 10
626.5
 20
-794.6313972081441
 30
4.0
 11
666.0179491924312
 21
-771.815698604072
 31
4.0
  0
LINE
  5
4A4
  8
DEFAULT
 10
666.0179491924312
 20
-771.815698604072
 30
4.0
 11
661.0429491924311
 21
-763.198745836417
 31
4.0
  0
LINE
  5
4A5
  8
DEFAULT
 10
661.0429491924311
 20
-763.198745836417
 30
4.0
 11
664.5070508075689
 21
-761.198745836417
 31
4.0
  0
LINE
  5
4A6
  8
DEFAULT
 10
664.5070508075689
 20
-761.198745836417
 30
4.0
 11
669.4820508075688
 21
-769.815698604072
 31
4.0
  0
LINE
  5
4A7
  8
DEFAULT
 10
669.4820508075688
 20
-769.815698604072
 30
4.0
 11
709.0
 21
-747.0
 31
4.0
  0
LINE
  5
4A8
  8
DEFAULT
 10
709.0
 20
-747.0
 30
4.0
 11
669.4820508075688
 21
-724.184301395928
 31
4.0
  0
LINE
  5
4A9
  8
DEFAULT
 10
669.4820508075688
 20
-724.184301395928
 30
4.0
 11
664.5070508075689
 21
-732.801254163583
 31
4.0
  0
LINE
  5
4AA
  8
DEFAULT
 10
664.5070508075689
 20
-732.801254163583
 30
4.0
 11
661.0429491924311
 21
-730.801254163583
 31
4.0
  0
LINE
  5
4AB
  8
DEFAULT
 10
661.0429491924311
 20
-730.801254163583
 30
4.0
 11
666.0179491924312
 21
-722.184301395928
 31
4.0
  0
LINE
  5
4AC
  8
DEFAULT
 10
555.0179491924312
 20
-722.184301395928
 30
4.0
 11
515.5
 21
-699.3686027918559
 31
4.0
  0
LINE
  5
4AD
  8
DEFAULT
 10
515.5
 20
-699.3686027918559
 30
4.0
 11
515.5
 21
-745.0
 31
4.0
  0
LINE
  5
4AE
  8
DEFAULT
 10
515.5
 20
-745.0
 30
4.0
 11
525.45
 21
-745.0
 31
4.0
  0
LINE
  5
4AF
  8
DEFAULT
 10
525.45
 20
-745.0
 30
4.0
 11
525.45
 21
-749.0
 31
4.0
  0
LINE
  5
4B0
  8
DEFAULT
 10
525.45
 20
-749.0
 30
4.0
 11
515.5
 21
-749.0
 31
4.0
  0
LINE
  5
4B1
  8
DEFAULT
 10
515.5
 20
-749.0
 30
4.0
 11
515.5
 21
-794.6313972081441
 31
4.0
  0
LINE
  5
4B2
  8
DEFAULT
 10
515.5
 20
-794.6313972081441
 30
4.0
 11
555.0179491924312
 21
-771.815698604072
 31
4.0
  0
LINE
  5
4B3
  8
DEFAULT
 10
555.0179491924312
 20
-771.815698604072
 30
4.0
 11
550.0429491924311
 21
-763.198745836417
 31
4.0
  0
LINE
  5
4B4
  8
DEFAULT
 10
550.0429491924311
 20
-763.198745836417
 30
4.0
 11
553.5070508075689
 21
-761.198745836417
 31
4.0
  0
LINE
  5
4B5
  8
DEFAULT
 10
553.5070508075689
 20
-761.198745836417
 30
4.0
 11
558.4820508075688
 21
-769.815698604072
 31
4.0
  0
LINE
  5
4B6
  8
DEFAULT
 10
558.4820508075688
 20
-769.815698604072
 30
4.0
 11
598.0
 21
-747.0
 31
4.0
  0
LINE
  5
4B7
  8
DEFAULT
 10
598.0
 20
-747.0
 30
4.0
 11
558.4820508075688
 21
-724.184301395928
 31
4.0
  0
LINE
  5
4B8
  8
DEFAULT
 10
558.4820508075688
 20
-724.184301395928
 30
4.0
 11
553.5070508075689
 21
-732.801254163583
 31
4.0
  0
LINE
  5
4B9
  8
DEFAULT
 10
553.5070508075689
 20
-732.801254163583
 30
4.0
 11
550.0429491924311
 21
-730.801254163583
 31
4.0
  0
LINE
  5
4BA
  8
DEFAULT
 10
550.0429491924311
 20
-730.801254163583
 30
4.0
 11
555.0179491924312
 21
-722.184301395928
 31
4.0
  0
LINE
  5
4BB
  8
DEFAULT
 10
555.0179491924312
 20
-611.184301395928
 30
4.0
 11
515.5
 21
-588.3686027918559
 31
4.0
  0
LINE
  5
4BC
  8
DEFAULT
 10
515.5
 20
-588.3686027918559
 30
4.0
 11
515.5
 21
-634.0
 31
4.0
  0
LINE
  5
4BD
  8
DEFAULT
 10
515.5
 20
-634.0
 30
4.0
 11
525.45
 21
-634.0
 31
4.0
  0
LINE
  5
4BE
  8
DEFAULT
 10
525.45
 20
-634.0
 30
4.0
 11
525.45
 21
-638.0
 31
4.0
  0
LINE
  5
4BF
  8
DEFAULT
 10
525.45
 20
-638.0
 30
4.0
 11
515.5
 21
-638.0
 31
4.0
  0
LINE
  5
4C0
  8
DEFAULT
 10
515.5
 20
-638.0
 30
4.0
 11
515.5
 21
-683.6313972081441
 31
4.0
  0
LINE
  5
4C1
  8
DEFAULT
 10
515.5
 20
-683.6313972081441
 30
4.0
 11
555.0179491924312
 21
-660.815698604072
 31
4.0
  0
LINE
  5
4C2
  8
DEFAULT
 10
555.0179491924312
 20
-660.815698604072
 30
4.0
 11
550.0429491924311
 21
-652.198745836417
 31
4.0
  0
LINE
  5
4C3
  8
DEFAULT
 10
550.0429491924311
 20
-652.198745836417
 30
4.0
 11
553.5070508075689
 21
-650.198745836417
 31
4.0
  0
LINE
  5
4C4
  8
DEFAULT
 10
553.5070508075689
 20
-650.198745836417
 30
4.0
 11
558.4820508075688
 21
-658.815698604072
 31
4.0
  0
LINE
  5
4C5
  8
DEFAULT
 10
558.4820508075688
 20
-658.815698604072
 30
4.0
 11
598.0
 21
-636.0
 31
4.0
  0
LINE
  5
4C6
  8
DEFAULT
 10
598.0
 20
-636.0
 30
4.0
 11
558.4820508075688
 21
-613.184301395928
 31
4.0
  0
LINE
  5
4C7
  8
DEFAULT
 10
558.4820508075688
 20
-613.184301395928
 30
4.0
 11
553.5070508075689
 21
-621.801254163583
 31
4.0
  0
LINE
  5
4C8
  8
DEFAULT
 10
553.5070508075689
 20
-621.801254163583
 30
4.0
 11
550.0429491924311
 21
-619.801254163583
 31
4.0
  0
LINE
  5
4C9
  8
DEFAULT
 10
550.0429491924311
 20
-619.801254163583
 30
4.0
 11
555.0179491924312
 21
-611.184301395928
 31
4.0
  0
LINE
  5
4CA
  8
DEFAULT
 10
444.0179491924312
 20
-722.184301395928
 30
4.0
 11
404.5
 21
-699.3686027918559
 31
4.0
  0
LINE
  5
4CB
  8
DEFAULT
 10
404.5
 20
-699.3686027918559
 30
4.0
 11
404.5
 21
-745.0
 31
4.0
  0
LINE
  5
4CC
  8
DEFAULT
 10
404.5
 20
-745.0
 30
4.0
 11
414.45
 21
-745.0
 31
4.0
  0
LINE
  5
4CD
  8
DEFAULT
 10
414.45
 20
-745.0
 30
4.0
 11
414.45
 21
-749.0
 31
4.0
  0
LINE
  5
4CE
  8
DEFAULT
 10
414.45
 20
-749.0
 30
4.0
 11
404.5
 21
-749.0
 31
4.0
  0
LINE
  5
4CF
  8
DEFAULT
 10
404.5
 20
-749.0
 30
4.0
 11
404.5
 21
-794.6313972081441
 31
4.0
  0
LINE
  5
4D0
  8
DEFAULT
 10
404.5
 20
-794.6313972081441
 30
4.0
 11
444.0179491924312
 21
-771.815698604072
 31
4.0
  0
LINE
  5
4D1
  8
DEFAULT
 10
444.0179491924312
 20
-771.815698604072
 30
4.0
 11
439.0429491924311
 21
-763.198745836417
 31
4.0
  0
LINE
  5
4D2
  8
DEFAULT
 10
439.0429491924311
 20
-763.198745836417
 30
4.0
 11
442.5070508075689
 21
-761.198745836417
 31
4.0
  0
LINE
  5
4D3
  8
DEFAULT
 10
442.5070508075689
 20
-761.198745836417
 30
4.0
 11
447.4820508075688
 21
-769.815698604072
 31
4.0
  0
LINE
  5
4D4
  8
DEFAULT
 10
447.4820508075688
 20
-769.815698604072
 30
4.0
 11
487.0
 21
-747.0
 31
4.0
  0
LINE
  5
4D5
  8
DEFAULT
 10
487.0
 20
-747.0
 30
4.0
 11
447.4820508075688
 21
-724.184301395928
 31
4.0
  0
LINE
  5
4D6
  8
DEFAULT
 10
447.4820508075688
 20
-724.184301395928
 30
4.0
 11
442.5070508075689
 21
-732.801254163583
 31
4.0
  0
LINE
  5
4D7
  8
DEFAULT
 10
442.5070508075689
 20
-732.801254163583
 30
4.0
 11
439.0429491924311
 21
-730.801254163583
 31
4.0
  0
LINE
  5
4D8
  8
DEFAULT
 10
439.0429491924311
 20
-730.801254163583
 30
4.0
 11
444.0179491924312
 21
-722.184301395928
 31
4.0
  0
LINE
  5
4D9
  8
DEFAULT
 10
444.0179491924312
 20
-611.184301395928
 30
4.0
 11
404.5
 21
-588.3686027918559
 31
4.0
  0
LINE
  5
4DA
  8
DEFAULT
 10
404.5
 20
-588.3686027918559
 30
4.0
 11
404.5
 21
-634.0
 31
4.0
  0
LINE
  5
4DB
  8
DEFAULT
 10
404.5
 20
-634.0
 30
4.0
 11
414.45
 21
-634.0
 31
4.0
  0
LINE
  5
4DC
  8
DEFAULT
 10
414.45
 20
-634.0
 30
4.0
 11
414.45
 21
-638.0
 31
4.0
  0
LINE
  5
4DD
  8
DEFAULT
 10
414.45
 20
-638.0
 30
4.0
 11
404.5
 21
-638.0
 31
4.0
  0
LINE
  5
4DE
  8
DEFAULT
 10
404.5
 20
-638.0
 30
4.0
 11
404.5
 21
-683.6313972081441
 31
4.0
  0
LINE
  5
4DF
  8
DEFAULT
 10
404.5
 20
-683.6313972081441
 30
4.0
 11
444.0179491924312
 21
-660.815698604072
 31
4.0
  0
LINE
  5
4E0
  8
DEFAULT
 10
444.0179491924312
 20
-660.815698604072
 30
4.0
 11
439.0429491924311
 21
-652.198745836417
 31
4.0
  0
LINE
  5
4E1
  8
DEFAULT
 10
439.0429491924311
 20
-652.198745836417
 30
4.0
 11
442.5070508075689
 21
-650.198745836417
 31
4.0
  0
LINE
  5
4E2
  8
DEFAULT
 10
442.5070508075689
 20
-650.198745836417
 30
4.0
 11
447.4820508075688
 21
-658.815698604072
 31
4.0
  0
LINE
  5
4E3
  8
DEFAULT
 10
447.4820508075688
 20
-658.815698604072
 30
4.0
 11
487.0
 21
-636.0
 31
4.0
  0
LINE
  5
4E4
  8
DEFAULT
 10
487.0
 20
-636.0
 30
4.0
 11
447.4820508075688
 21
-613.184301395928
 31
4.0
  0
LINE
  5
4E5
  8
DEFAULT
 10
447.4820508075688
 20
-613.184301395928
 30
4.0
 11
442.5070508075689
 21
-621.801254163583
 31
4.0
  0
LINE
  5
4E6
  8
DEFAULT
 10
442.5070508075689
 20
-621.801254163583
 30
4.0
 11
439.0429491924311
 21
-619.801254163583
 31
4.0
  0
LINE
  5
4E7
  8
DEFAULT
 10
439.0429491924311
 20
-619.801254163583
 30
4.0
 11
444.0179491924312
 21
-611.184301395928
 31
4.0
  0
LINE
  5
4E8
  8
DEFAULT
 10
303.45
 20
-634.0
 30
0.0
 11
293.5
 21
-634.0
 31
0.0
  0
LINE
  5
4E9
  8
DEFAULT
 10
293.5
 20
-634.0
 30
0.0
 11
293.5
 21
-588.3686027918559
 31
0.0
  0
LINE
  5
4EA
  8
DEFAULT
 10
293.5
 20
-588.3686027918559
 30
0.0
 11
333.0179491924311
 21
-611.184301395928
 31
0.0
  0
LINE
  5
4EB
  8
DEFAULT
 10
333.0179491924311
 20
-611.184301395928
 30
0.0
 11
328.0429491924311
 21
-619.801254163583
 31
0.0
  0
LINE
  5
4EC
  8
DEFAULT
 10
328.0429491924311
 20
-619.801254163583
 30
0.0
 11
331.5070508075689
 21
-621.801254163583
 31
0.0
  0
LINE
  5
4ED
  8
DEFAULT
 10
331.5070508075689
 20
-621.801254163583
 30
0.0
 11
336.4820508075689
 21
-613.184301395928
 31
0.0
  0
LINE
  5
4EE
  8
DEFAULT
 10
336.4820508075689
 20
-613.184301395928
 30
0.0
 11
376.0
 21
-636.0
 31
0.0
  0
LINE
  5
4EF
  8
DEFAULT
 10
376.0
 20
-636.0
 30
0.0
 11
336.4820508075688
 21
-658.815698604072
 31
0.0
  0
LINE
  5
4F0
  8
DEFAULT
 10
336.4820508075688
 20
-658.815698604072
 30
0.0
 11
331.5070508075689
 21
-650.198745836417
 31
0.0
  0
LINE
  5
4F1
  8
DEFAULT
 10
331.5070508075689
 20
-650.198745836417
 30
0.0
 11
328.0429491924311
 21
-652.198745836417
 31
0.0
  0
LINE
  5
4F2
  8
DEFAULT
 10
328.0429491924311
 20
-652.198745836417
 30
0.0
 11
333.0179491924311
 21
-660.815698604072
 31
0.0
  0
LINE
  5
4F3
  8
DEFAULT
 10
333.0179491924311
 20
-660.815698604072
 30
0.0
 11
293.5
 21
-683.6313972081441
 31
0.0
  0
LINE
  5
4F4
  8
DEFAULT
 10
293.5
 20
-683.6313972081441
 30
0.0
 11
293.5
 21
-638.0
 31
0.0
  0
LINE
  5
4F5
  8
DEFAULT
 10
293.5
 20
-638.0
 30
0.0
 11
303.45
 21
-638.0
 31
0.0
  0
LINE
  5
4F6
  8
DEFAULT
 10
303.45
 20
-638.0
 30
0.0
 11
303.45
 21
-634.0
 31
0.0
  0
LINE
  5
4F7
  8
DEFAULT
 10
333.0179491924311
 20
-722.184301395928
 30
4.0
 11
293.5
 21
-699.3686027918559
 31
4.0
  0
LINE
  5
4F8
  8
DEFAULT
 10
293.5
 20
-699.3686027918559
 30
4.0
 11
293.5
 21
-745.0
 31
4.0
  0
LINE
  5
4F9
  8
DEFAULT
 10
293.5
 20
-745.0
 30
4.0
 11
303.45
 21
-745.0
 31
4.0
  0
LINE
  5
4FA
  8
DEFAULT
 10
303.45
 20
-745.0
 30
4.0
 11
303.45
 21
-749.0
 31
4.0
  0
LINE
  5
4FB
  8
DEFAULT
 10
303.45
 20
-749.0
 30
4.0
 11
293.5
 21
-749.0
 31
4.0
  0
LINE
  5
4FC
  8
DEFAULT
 10
293.5
 20
-749.0
 30
4.0
 11
293.5
 21
-794.6313972081441
 31
4.0
  0
LINE
  5
4FD
  8
DEFAULT
 10
293.5
 20
-794.6313972081441
 30
4.0
 11
333.0179491924311
 21
-771.815698604072
 31
4.0
  0
LINE
  5
4FE
  8
DEFAULT
 10
333.0179491924311
 20
-771.815698604072
 30
4.0
 11
328.0429491924311
 21
-763.198745836417
 31
4.0
  0
LINE
  5
4FF
  8
DEFAULT
 10
328.0429491924311
 20
-763.198745836417
 30
4.0
 11
331.5070508075689
 21
-761.198745836417
 31
4.0
  0
LINE
  5
500
  8
DEFAULT
 10
331.5070508075689
 20
-761.198745836417
 30
4.0
 11
336.4820508075688
 21
-769.815698604072
 31
4.0
  0
LINE
  5
501
  8
DEFAULT
 10
336.4820508075688
 20
-769.815698604072
 30
4.0
 11
376.0
 21
-747.0
 31
4.0
  0
LINE
  5
502
  8
DEFAULT
 10
376.0
 20
-747.0
 30
4.0
 11
336.4820508075689
 21
-724.184301395928
 31
4.0
  0
LINE
  5
503
  8
DEFAULT
 10
336.4820508075689
 20
-724.184301395928
 30
4.0
 11
331.5070508075689
 21
-732.801254163583
 31
4.0
  0
LINE
  5
504
  8
DEFAULT
 10
331.5070508075689
 20
-732.801254163583
 30
4.0
 11
328.0429491924311
 21
-730.801254163583
 31
4.0
  0
LINE
  5
505
  8
DEFAULT
 10
328.0429491924311
 20
-730.801254163583
 30
4.0
 11
333.0179491924311
 21
-722.184301395928
 31
4.0
  0
ENDSEC
  0
EOF
