999
"DXF R12 Output" (www.mydxf.blogspot.com)
 0 
SECTION
 2 
HEADER
 9 
$ACADVER
 1 
AC1009
 9 
$EXTMIN
 10 
 0 
 20 
 0 
 9 
$EXTMAX
 10 
 8.5 
 20 
 11 
 0 
ENDSEC
 0 
SECTION
 2 
ENTITIES
0
LINE
8
Layer 1
10
0.846666
20
488.527000
11
-0.846666
21
486.833000
0
LINE
8
Layer 1
10
0.000000
20
489.091000
11
0.000000
21
486.269000
0
LINE
8
Layer 1
10
2.257780
20
486.551000
11
1.128890
21
485.422110
0
LINE
8
Layer 1
10
1.693330
20
487.116000
11
0.564440
21
485.987110
0
LINE
8
Layer 1
10
1.128890
20
487.680000
11
0.000000
21
486.551110
0
LINE
8
DEFAULT
10
487.824000
20
332.871000
11
487.824000
21
381.544000
0
LINE
8
DEFAULT
10
487.824000
20
381.544000
11
487.824000
21
381.544000
0
LINE
8
DEFAULT
10
487.824000
20
381.544000
11
487.824000
21
332.871000
0
LINE
8
DEFAULT
10
487.824000
20
332.871000
11
487.824000
21
332.871000
0
LINE
8
DEFAULT
10
498.437000
20
332.871000
11
498.437000
21
332.871000
0
LINE
8
DEFAULT
10
498.437000
20
332.871000
11
487.824000
21
332.871000
0
LINE
8
DEFAULT
10
487.824000
20
332.871000
11
487.824000
21
332.871000
0
LINE
8
DEFAULT
10
487.824000
20
332.871000
11
498.437000
21
332.871000
0
LINE
8
DEFAULT
10
498.437000
20
328.604000
11
498.437000
21
328.604000
0
LINE
8
DEFAULT
10
498.437000
20
328.604000
11
498.437000
21
332.871000
0
LINE
8
DEFAULT
10
498.437000
20
332.871000
11
498.437000
21
332.871000
0
LINE
8
DEFAULT
10
498.437000
20
332.871000
11
498.437000
21
328.604000
0
LINE
8
DEFAULT
10
487.824000
20
328.604000
11
487.824000
21
328.604000
0
LINE
8
DEFAULT
10
487.824000
20
328.604000
11
498.437000
21
328.604000
0
LINE
8
DEFAULT
10
498.437000
20
328.604000
11
498.437000
21
328.604000
0
LINE
8
DEFAULT
10
498.437000
20
328.604000
11
487.824000
21
328.604000
0
LINE
8
DEFAULT
10
487.824000
20
279.931000
11
487.824000
21
279.931000
0
LINE
8
DEFAULT
10
487.824000
20
279.931000
11
487.824000
21
328.604000
0
LINE
8
DEFAULT
10
487.824000
20
328.604000
11
487.824000
21
328.604000
0
LINE
8
DEFAULT
10
487.824000
20
328.604000
11
487.824000
21
279.931000
0
LINE
8
DEFAULT
10
529.977000
20
304.267000
11
529.977000
21
304.267000
0
LINE
8
DEFAULT
10
529.977000
20
304.267000
11
487.824500
21
279.930300
0
LINE
8
DEFAULT
10
487.824000
20
279.931000
11
487.824000
21
279.931000
0
LINE
8
DEFAULT
10
487.824000
20
279.931000
11
529.976500
21
304.267700
0
LINE
8
DEFAULT
10
524.670000
20
313.459000
11
524.670000
21
313.459000
0
LINE
8
DEFAULT
10
524.670000
20
313.459000
11
529.976650
21
304.267590
0
LINE
8
DEFAULT
10
529.977000
20
304.267000
11
529.977000
21
304.267000
0
LINE
8
DEFAULT
10
529.977000
20
304.267000
11
524.670350
21
313.458410
0
LINE
8
DEFAULT
10
528.365000
20
315.592000
11
528.365000
21
315.592000
0
LINE
8
DEFAULT
10
528.365000
20
315.592000
11
524.669980
21
313.458660
0
LINE
8
DEFAULT
10
524.670000
20
313.459000
11
524.670000
21
313.459000
0
LINE
8
DEFAULT
10
524.670000
20
313.459000
11
528.365020
21
315.592340
0
LINE
8
DEFAULT
10
533.672000
20
306.401000
11
533.672000
21
306.401000
0
LINE
8
DEFAULT
10
533.672000
20
306.401000
11
528.365320
21
315.592410
0
LINE
8
DEFAULT
10
528.365000
20
315.592000
11
528.365000
21
315.592000
0
LINE
8
DEFAULT
10
528.365000
20
315.592000
11
533.671680
21
306.400590
0
LINE
8
DEFAULT
10
575.824000
20
330.737000
11
575.824000
21
330.737000
0
LINE
8
DEFAULT
10
575.824000
20
330.737000
11
533.671500
21
306.400300
0
LINE
8
DEFAULT
10
533.672000
20
306.401000
11
533.672000
21
306.401000
0
LINE
8
DEFAULT
10
533.672000
20
306.401000
11
575.824500
21
330.737700
0
LINE
8
DEFAULT
10
533.672000
20
355.074000
11
533.672000
21
355.074000
0
LINE
8
DEFAULT
10
533.672000
20
355.074000
11
575.824500
21
330.737300
0
LINE
8
DEFAULT
10
575.824000
20
330.737000
11
575.824000
21
330.737000
0
LINE
8
DEFAULT
10
575.824000
20
330.737000
11
533.671500
21
355.073700
0
LINE
8
DEFAULT
10
528.365000
20
345.883000
11
528.365000
21
345.883000
0
LINE
8
DEFAULT
10
528.365000
20
345.883000
11
533.671680
21
355.074410
0
LINE
8
DEFAULT
10
533.672000
20
355.074000
11
533.672000
21
355.074000
0
LINE
8
DEFAULT
10
533.672000
20
355.074000
11
528.365320
21
345.882590
0
LINE
8
DEFAULT
10
524.670000
20
348.016000
11
524.670000
21
348.016000
0
LINE
8
DEFAULT
10
524.670000
20
348.016000
11
528.365020
21
345.882660
0
LINE
8
DEFAULT
10
528.365000
20
345.883000
11
528.365000
21
345.883000
0
LINE
8
DEFAULT
10
528.365000
20
345.883000
11
524.669980
21
348.016340
0
LINE
8
DEFAULT
10
529.977000
20
357.208000
11
529.977000
21
357.208000
0
LINE
8
DEFAULT
10
529.977000
20
357.208000
11
524.670350
21
348.016590
0
LINE
8
DEFAULT
10
524.670000
20
348.016000
11
524.670000
21
348.016000
0
LINE
8
DEFAULT
10
524.670000
20
348.016000
11
529.976650
21
357.207410
0
LINE
8
DEFAULT
10
487.824000
20
381.544000
11
487.824000
21
381.544000
0
LINE
8
DEFAULT
10
487.824000
20
381.544000
11
529.976500
21
357.207300
0
LINE
8
DEFAULT
10
529.977000
20
357.208000
11
529.977000
21
357.208000
0
LINE
8
DEFAULT
10
529.977000
20
357.208000
11
487.824500
21
381.544700
0
LINE
8
DEFAULT
10
529.977000
20
357.208000
11
487.824500
21
381.544700
0
LINE
8
DEFAULT
10
487.824000
20
381.544000
11
487.824000
21
332.871000
0
LINE
8
DEFAULT
10
487.824000
20
332.871000
11
498.437000
21
332.871000
0
LINE
8
DEFAULT
10
498.437000
20
332.871000
11
498.437000
21
328.604000
0
LINE
8
DEFAULT
10
498.437000
20
328.604000
11
487.824000
21
328.604000
0
LINE
8
DEFAULT
10
487.824000
20
328.604000
11
487.824000
21
279.931000
0
LINE
8
DEFAULT
10
487.824000
20
279.931000
11
529.976500
21
304.267700
0
LINE
8
DEFAULT
10
529.977000
20
304.267000
11
524.670350
21
313.458410
0
LINE
8
DEFAULT
10
524.670000
20
313.459000
11
528.365020
21
315.592340
0
LINE
8
DEFAULT
10
528.365000
20
315.592000
11
533.671680
21
306.400590
0
LINE
8
DEFAULT
10
533.672000
20
306.401000
11
575.824500
21
330.737700
0
LINE
8
DEFAULT
10
575.824000
20
330.737000
11
533.671500
21
355.073700
0
LINE
8
DEFAULT
10
533.672000
20
355.074000
11
528.365320
21
345.882590
0
LINE
8
DEFAULT
10
528.365000
20
345.883000
11
524.669980
21
348.016340
0
LINE
8
DEFAULT
10
524.670000
20
348.016000
11
529.976650
21
357.207410
0
LINE
8
DEFAULT
10
498.437000
20
332.871000
11
487.824000
21
332.871000
0
LINE
8
DEFAULT
10
487.824000
20
332.871000
11
487.824000
21
381.544000
0
LINE
8
DEFAULT
10
487.824000
20
381.544000
11
529.976500
21
357.207300
0
LINE
8
DEFAULT
10
529.977000
20
357.208000
11
524.670350
21
348.016590
0
LINE
8
DEFAULT
10
524.670000
20
348.016000
11
528.365020
21
345.882660
0
LINE
8
DEFAULT
10
528.365000
20
345.883000
11
533.671680
21
355.074410
0
LINE
8
DEFAULT
10
533.672000
20
355.074000
11
575.824500
21
330.737300
0
LINE
8
DEFAULT
10
575.824000
20
330.737000
11
533.671500
21
306.400300
0
LINE
8
DEFAULT
10
533.672000
20
306.401000
11
528.365320
21
315.592410
0
LINE
8
DEFAULT
10
528.365000
20
315.592000
11
524.669980
21
313.458660
0
LINE
8
DEFAULT
10
524.670000
20
313.459000
11
529.976650
21
304.267590
0
LINE
8
DEFAULT
10
529.977000
20
304.267000
11
487.824500
21
279.930300
0
LINE
8
DEFAULT
10
487.824000
20
279.931000
11
487.824000
21
328.604000
0
LINE
8
DEFAULT
10
487.824000
20
328.604000
11
498.437000
21
328.604000
0
LINE
8
DEFAULT
10
498.437000
20
328.604000
11
498.437000
21
332.871000
0
LINE
8
DEFAULT
10
369.424000
20
332.871000
11
369.424000
21
381.544000
0
LINE
8
DEFAULT
10
369.424000
20
381.544000
11
369.424000
21
381.544000
0
LINE
8
DEFAULT
10
369.424000
20
381.544000
11
369.424000
21
332.871000
0
LINE
8
DEFAULT
10
369.424000
20
332.871000
11
369.424000
21
332.871000
0
LINE
8
DEFAULT
10
380.037000
20
332.871000
11
380.037000
21
332.871000
0
LINE
8
DEFAULT
10
380.037000
20
332.871000
11
369.424000
21
332.871000
0
LINE
8
DEFAULT
10
369.424000
20
332.871000
11
369.424000
21
332.871000
0
LINE
8
DEFAULT
10
369.424000
20
332.871000
11
380.037000
21
332.871000
0
LINE
8
DEFAULT
10
380.037000
20
328.604000
11
380.037000
21
328.604000
0
LINE
8
DEFAULT
10
380.037000
20
328.604000
11
380.037000
21
332.871000
0
LINE
8
DEFAULT
10
380.037000
20
332.871000
11
380.037000
21
332.871000
0
LINE
8
DEFAULT
10
380.037000
20
332.871000
11
380.037000
21
328.604000
0
LINE
8
DEFAULT
10
369.424000
20
328.604000
11
369.424000
21
328.604000
0
LINE
8
DEFAULT
10
369.424000
20
328.604000
11
380.037000
21
328.604000
0
LINE
8
DEFAULT
10
380.037000
20
328.604000
11
380.037000
21
328.604000
0
LINE
8
DEFAULT
10
380.037000
20
328.604000
11
369.424000
21
328.604000
0
LINE
8
DEFAULT
10
369.424000
20
279.931000
11
369.424000
21
279.931000
0
LINE
8
DEFAULT
10
369.424000
20
279.931000
11
369.424000
21
328.604000
0
LINE
8
DEFAULT
10
369.424000
20
328.604000
11
369.424000
21
328.604000
0
LINE
8
DEFAULT
10
369.424000
20
328.604000
11
369.424000
21
279.931000
0
LINE
8
DEFAULT
10
411.577000
20
304.267000
11
411.577000
21
304.267000
0
LINE
8
DEFAULT
10
411.577000
20
304.267000
11
369.424600
21
279.930300
0
LINE
8
DEFAULT
10
369.424000
20
279.931000
11
369.424000
21
279.931000
0
LINE
8
DEFAULT
10
369.424000
20
279.931000
11
411.576400
21
304.267700
0
LINE
8
DEFAULT
10
406.270000
20
313.459000
11
406.270000
21
313.459000
0
LINE
8
DEFAULT
10
406.270000
20
313.459000
11
411.576650
21
304.267590
0
LINE
8
DEFAULT
10
411.577000
20
304.267000
11
411.577000
21
304.267000
0
LINE
8
DEFAULT
10
411.577000
20
304.267000
11
406.270350
21
313.458410
0
LINE
8
DEFAULT
10
409.965000
20
315.592000
11
409.965000
21
315.592000
0
LINE
8
DEFAULT
10
409.965000
20
315.592000
11
406.269950
21
313.458660
0
LINE
8
DEFAULT
10
406.270000
20
313.459000
11
406.270000
21
313.459000
0
LINE
8
DEFAULT
10
406.270000
20
313.459000
11
409.965050
21
315.592340
0
LINE
8
DEFAULT
10
415.272000
20
306.401000
11
415.272000
21
306.401000
0
LINE
8
DEFAULT
10
415.272000
20
306.401000
11
409.965350
21
315.592410
0
LINE
8
DEFAULT
10
409.965000
20
315.592000
11
409.965000
21
315.592000
0
LINE
8
DEFAULT
10
409.965000
20
315.592000
11
415.271650
21
306.400590
0
LINE
8
DEFAULT
10
457.424000
20
330.737000
11
457.424000
21
330.737000
0
LINE
8
DEFAULT
10
457.424000
20
330.737000
11
415.271500
21
306.400300
0
LINE
8
DEFAULT
10
415.272000
20
306.401000
11
415.272000
21
306.401000
0
LINE
8
DEFAULT
10
415.272000
20
306.401000
11
457.424500
21
330.737700
0
LINE
8
DEFAULT
10
415.272000
20
355.074000
11
415.272000
21
355.074000
0
LINE
8
DEFAULT
10
415.272000
20
355.074000
11
457.424500
21
330.737300
0
LINE
8
DEFAULT
10
457.424000
20
330.737000
11
457.424000
21
330.737000
0
LINE
8
DEFAULT
10
457.424000
20
330.737000
11
415.271500
21
355.073700
0
LINE
8
DEFAULT
10
409.965000
20
345.883000
11
409.965000
21
345.883000
0
LINE
8
DEFAULT
10
409.965000
20
345.883000
11
415.271650
21
355.074410
0
LINE
8
DEFAULT
10
415.272000
20
355.074000
11
415.272000
21
355.074000
0
LINE
8
DEFAULT
10
415.272000
20
355.074000
11
409.965350
21
345.882590
0
LINE
8
DEFAULT
10
406.270000
20
348.016000
11
406.270000
21
348.016000
0
LINE
8
DEFAULT
10
406.270000
20
348.016000
11
409.965050
21
345.882660
0
LINE
8
DEFAULT
10
409.965000
20
345.883000
11
409.965000
21
345.883000
0
LINE
8
DEFAULT
10
409.965000
20
345.883000
11
406.269950
21
348.016340
0
LINE
8
DEFAULT
10
411.577000
20
357.208000
11
411.577000
21
357.208000
0
LINE
8
DEFAULT
10
411.577000
20
357.208000
11
406.270350
21
348.016590
0
LINE
8
DEFAULT
10
406.270000
20
348.016000
11
406.270000
21
348.016000
0
LINE
8
DEFAULT
10
406.270000
20
348.016000
11
411.576650
21
357.207410
0
LINE
8
DEFAULT
10
369.424000
20
381.544000
11
369.424000
21
381.544000
0
LINE
8
DEFAULT
10
369.424000
20
381.544000
11
411.576400
21
357.207300
0
LINE
8
DEFAULT
10
411.577000
20
357.208000
11
411.577000
21
357.208000
0
LINE
8
DEFAULT
10
411.577000
20
357.208000
11
369.424600
21
381.544700
0
LINE
8
DEFAULT
10
411.577000
20
357.208000
11
369.424600
21
381.544700
0
LINE
8
DEFAULT
10
369.424000
20
381.544000
11
369.424000
21
332.871000
0
LINE
8
DEFAULT
10
369.424000
20
332.871000
11
380.037000
21
332.871000
0
LINE
8
DEFAULT
10
380.037000
20
332.871000
11
380.037000
21
328.604000
0
LINE
8
DEFAULT
10
380.037000
20
328.604000
11
369.424000
21
328.604000
0
LINE
8
DEFAULT
10
369.424000
20
328.604000
11
369.424000
21
279.931000
0
LINE
8
DEFAULT
10
369.424000
20
279.931000
11
411.576400
21
304.267700
0
LINE
8
DEFAULT
10
411.577000
20
304.267000
11
406.270350
21
313.458410
0
LINE
8
DEFAULT
10
406.270000
20
313.459000
11
409.965050
21
315.592340
0
LINE
8
DEFAULT
10
409.965000
20
315.592000
11
415.271650
21
306.400590
0
LINE
8
DEFAULT
10
415.272000
20
306.401000
11
457.424500
21
330.737700
0
LINE
8
DEFAULT
10
457.424000
20
330.737000
11
415.271500
21
355.073700
0
LINE
8
DEFAULT
10
415.272000
20
355.074000
11
409.965350
21
345.882590
0
LINE
8
DEFAULT
10
409.965000
20
345.883000
11
406.269950
21
348.016340
0
LINE
8
DEFAULT
10
406.270000
20
348.016000
11
411.576650
21
357.207410
0
LINE
8
DEFAULT
10
380.037000
20
332.871000
11
369.424000
21
332.871000
0
LINE
8
DEFAULT
10
369.424000
20
332.871000
11
369.424000
21
381.544000
0
LINE
8
DEFAULT
10
369.424000
20
381.544000
11
411.576400
21
357.207300
0
LINE
8
DEFAULT
10
411.577000
20
357.208000
11
406.270350
21
348.016590
0
LINE
8
DEFAULT
10
406.270000
20
348.016000
11
409.965050
21
345.882660
0
LINE
8
DEFAULT
10
409.965000
20
345.883000
11
415.271650
21
355.074410
0
LINE
8
DEFAULT
10
415.272000
20
355.074000
11
457.424500
21
330.737300
0
LINE
8
DEFAULT
10
457.424000
20
330.737000
11
415.271500
21
306.400300
0
LINE
8
DEFAULT
10
415.272000
20
306.401000
11
409.965350
21
315.592410
0
LINE
8
DEFAULT
10
409.965000
20
315.592000
11
406.269950
21
313.458660
0
LINE
8
DEFAULT
10
406.270000
20
313.459000
11
411.576650
21
304.267590
0
LINE
8
DEFAULT
10
411.577000
20
304.267000
11
369.424600
21
279.930300
0
LINE
8
DEFAULT
10
369.424000
20
279.931000
11
369.424000
21
328.604000
0
LINE
8
DEFAULT
10
369.424000
20
328.604000
11
380.037000
21
328.604000
0
LINE
8
DEFAULT
10
380.037000
20
328.604000
11
380.037000
21
332.871000
0
LINE
8
DEFAULT
10
251.024000
20
332.871000
11
251.024000
21
381.544000
0
LINE
8
DEFAULT
10
251.024000
20
381.544000
11
251.024000
21
381.544000
0
LINE
8
DEFAULT
10
251.024000
20
381.544000
11
251.024000
21
332.871000
0
LINE
8
DEFAULT
10
251.024000
20
332.871000
11
251.024000
21
332.871000
0
LINE
8
DEFAULT
10
261.638000
20
332.871000
11
261.638000
21
332.871000
0
LINE
8
DEFAULT
10
261.638000
20
332.871000
11
251.024000
21
332.871000
0
LINE
8
DEFAULT
10
251.024000
20
332.871000
11
251.024000
21
332.871000
0
LINE
8
DEFAULT
10
251.024000
20
332.871000
11
261.638000
21
332.871000
0
LINE
8
DEFAULT
10
261.638000
20
328.604000
11
261.638000
21
328.604000
0
LINE
8
DEFAULT
10
261.638000
20
328.604000
11
261.638000
21
332.871000
0
LINE
8
DEFAULT
10
261.638000
20
332.871000
11
261.638000
21
332.871000
0
LINE
8
DEFAULT
10
261.638000
20
332.871000
11
261.638000
21
328.604000
0
LINE
8
DEFAULT
10
251.024000
20
328.604000
11
251.024000
21
328.604000
0
LINE
8
DEFAULT
10
251.024000
20
328.604000
11
261.638000
21
328.604000
0
LINE
8
DEFAULT
10
261.638000
20
328.604000
11
261.638000
21
328.604000
0
LINE
8
DEFAULT
10
261.638000
20
328.604000
11
251.024000
21
328.604000
0
LINE
8
DEFAULT
10
251.024000
20
279.931000
11
251.024000
21
279.931000
0
LINE
8
DEFAULT
10
251.024000
20
279.931000
11
251.024000
21
328.604000
0
LINE
8
DEFAULT
10
251.024000
20
328.604000
11
251.024000
21
328.604000
0
LINE
8
DEFAULT
10
251.024000
20
328.604000
11
251.024000
21
279.931000
0
LINE
8
DEFAULT
10
293.177000
20
304.267000
11
293.177000
21
304.267000
0
LINE
8
DEFAULT
10
293.177000
20
304.267000
11
251.024500
21
279.930300
0
LINE
8
DEFAULT
10
251.024000
20
279.931000
11
251.024000
21
279.931000
0
LINE
8
DEFAULT
10
251.024000
20
279.931000
11
293.176500
21
304.267700
0
LINE
8
DEFAULT
10
287.870000
20
313.459000
11
287.870000
21
313.459000
0
LINE
8
DEFAULT
10
287.870000
20
313.459000
11
293.176680
21
304.267590
0
LINE
8
DEFAULT
10
293.177000
20
304.267000
11
293.177000
21
304.267000
0
LINE
8
DEFAULT
10
293.177000
20
304.267000
11
287.870320
21
313.458410
0
LINE
8
DEFAULT
10
291.565000
20
315.592000
11
291.565000
21
315.592000
0
LINE
8
DEFAULT
10
291.565000
20
315.592000
11
287.869950
21
313.458660
0
LINE
8
DEFAULT
10
287.870000
20
313.459000
11
287.870000
21
313.459000
0
LINE
8
DEFAULT
10
287.870000
20
313.459000
11
291.565050
21
315.592340
0
LINE
8
DEFAULT
10
296.872000
20
306.401000
11
296.872000
21
306.401000
0
LINE
8
DEFAULT
10
296.872000
20
306.401000
11
291.565350
21
315.592410
0
LINE
8
DEFAULT
10
291.565000
20
315.592000
11
291.565000
21
315.592000
0
LINE
8
DEFAULT
10
291.565000
20
315.592000
11
296.871650
21
306.400590
0
LINE
8
DEFAULT
10
339.024000
20
330.737000
11
339.024000
21
330.737000
0
LINE
8
DEFAULT
10
339.024000
20
330.737000
11
296.871500
21
306.400300
0
LINE
8
DEFAULT
10
296.872000
20
306.401000
11
296.872000
21
306.401000
0
LINE
8
DEFAULT
10
296.872000
20
306.401000
11
339.024500
21
330.737700
0
LINE
8
DEFAULT
10
296.872000
20
355.074000
11
296.872000
21
355.074000
0
LINE
8
DEFAULT
10
296.872000
20
355.074000
11
339.024500
21
330.737300
0
LINE
8
DEFAULT
10
339.024000
20
330.737000
11
339.024000
21
330.737000
0
LINE
8
DEFAULT
10
339.024000
20
330.737000
11
296.871500
21
355.073700
0
LINE
8
DEFAULT
10
291.565000
20
345.883000
11
291.565000
21
345.883000
0
LINE
8
DEFAULT
10
291.565000
20
345.883000
11
296.871650
21
355.074410
0
LINE
8
DEFAULT
10
296.872000
20
355.074000
11
296.872000
21
355.074000
0
LINE
8
DEFAULT
10
296.872000
20
355.074000
11
291.565350
21
345.882590
0
LINE
8
DEFAULT
10
287.870000
20
348.016000
11
287.870000
21
348.016000
0
LINE
8
DEFAULT
10
287.870000
20
348.016000
11
291.565050
21
345.882660
0
LINE
8
DEFAULT
10
291.565000
20
345.883000
11
291.565000
21
345.883000
0
LINE
8
DEFAULT
10
291.565000
20
345.883000
11
287.869950
21
348.016340
0
LINE
8
DEFAULT
10
293.177000
20
357.208000
11
293.177000
21
357.208000
0
LINE
8
DEFAULT
10
293.177000
20
357.208000
11
287.870320
21
348.016590
0
LINE
8
DEFAULT
10
287.870000
20
348.016000
11
287.870000
21
348.016000
0
LINE
8
DEFAULT
10
287.870000
20
348.016000
11
293.176680
21
357.207410
0
LINE
8
DEFAULT
10
251.024000
20
381.544000
11
251.024000
21
381.544000
0
LINE
8
DEFAULT
10
251.024000
20
381.544000
11
293.176500
21
357.207300
0
LINE
8
DEFAULT
10
293.177000
20
357.208000
11
293.177000
21
357.208000
0
LINE
8
DEFAULT
10
293.177000
20
357.208000
11
251.024000
21
381.544000
0
LINE
8
DEFAULT
10
293.177000
20
357.208000
11
251.024000
21
381.544000
0
LINE
8
DEFAULT
10
251.024000
20
381.544000
11
251.024000
21
332.871000
0
LINE
8
DEFAULT
10
251.024000
20
332.871000
11
261.638000
21
332.871000
0
LINE
8
DEFAULT
10
261.638000
20
332.871000
11
261.638000
21
328.604000
0
LINE
8
DEFAULT
10
261.638000
20
328.604000
11
251.024000
21
328.604000
0
LINE
8
DEFAULT
10
251.024000
20
328.604000
11
251.024000
21
279.931000
0
LINE
8
DEFAULT
10
251.024000
20
279.931000
11
293.176500
21
304.267700
0
LINE
8
DEFAULT
10
293.177000
20
304.267000
11
287.870320
21
313.458410
0
LINE
8
DEFAULT
10
287.870000
20
313.459000
11
291.565050
21
315.592340
0
LINE
8
DEFAULT
10
291.565000
20
315.592000
11
296.871650
21
306.400590
0
LINE
8
DEFAULT
10
296.872000
20
306.401000
11
339.024500
21
330.737700
0
LINE
8
DEFAULT
10
339.024000
20
330.737000
11
296.871500
21
355.073700
0
LINE
8
DEFAULT
10
296.872000
20
355.074000
11
291.565350
21
345.882590
0
LINE
8
DEFAULT
10
291.565000
20
345.883000
11
287.869950
21
348.016340
0
LINE
8
DEFAULT
10
287.870000
20
348.016000
11
293.176680
21
357.207410
0
LINE
8
DEFAULT
10
261.638000
20
332.871000
11
251.024000
21
332.871000
0
LINE
8
DEFAULT
10
251.024000
20
332.871000
11
251.024000
21
381.544000
0
LINE
8
DEFAULT
10
251.024000
20
381.544000
11
293.176500
21
357.207300
0
LINE
8
DEFAULT
10
293.177000
20
357.208000
11
287.870320
21
348.016590
0
LINE
8
DEFAULT
10
287.870000
20
348.016000
11
291.565050
21
345.882660
0
LINE
8
DEFAULT
10
291.565000
20
345.883000
11
296.871650
21
355.074410
0
LINE
8
DEFAULT
10
296.872000
20
355.074000
11
339.024500
21
330.737300
0
LINE
8
DEFAULT
10
339.024000
20
330.737000
11
296.871500
21
306.400300
0
LINE
8
DEFAULT
10
296.872000
20
306.401000
11
291.565350
21
315.592410
0
LINE
8
DEFAULT
10
291.565000
20
315.592000
11
287.869950
21
313.458660
0
LINE
8
DEFAULT
10
287.870000
20
313.459000
11
293.176680
21
304.267590
0
LINE
8
DEFAULT
10
293.177000
20
304.267000
11
251.024500
21
279.930300
0
LINE
8
DEFAULT
10
251.024000
20
279.931000
11
251.024000
21
328.604000
0
LINE
8
DEFAULT
10
251.024000
20
328.604000
11
261.638000
21
328.604000
0
LINE
8
DEFAULT
10
261.638000
20
328.604000
11
261.638000
21
332.871000
0
LINE
8
DEFAULT
10
132.624000
20
332.871000
11
132.624000
21
381.544000
0
LINE
8
DEFAULT
10
132.624000
20
381.544000
11
132.624000
21
381.544000
0
LINE
8
DEFAULT
10
132.624000
20
381.544000
11
132.624000
21
332.871000
0
LINE
8
DEFAULT
10
132.624000
20
332.871000
11
132.624000
21
332.871000
0
LINE
8
DEFAULT
10
143.238000
20
332.871000
11
143.238000
21
332.871000
0
LINE
8
DEFAULT
10
143.238000
20
332.871000
11
132.624000
21
332.871000
0
LINE
8
DEFAULT
10
132.624000
20
332.871000
11
132.624000
21
332.871000
0
LINE
8
DEFAULT
10
132.624000
20
332.871000
11
143.238000
21
332.871000
0
LINE
8
DEFAULT
10
143.238000
20
328.604000
11
143.238000
21
328.604000
0
LINE
8
DEFAULT
10
143.238000
20
328.604000
11
143.238000
21
332.871000
0
LINE
8
DEFAULT
10
143.238000
20
332.871000
11
143.238000
21
332.871000
0
LINE
8
DEFAULT
10
143.238000
20
332.871000
11
143.238000
21
328.604000
0
LINE
8
DEFAULT
10
132.624000
20
328.604000
11
132.624000
21
328.604000
0
LINE
8
DEFAULT
10
132.624000
20
328.604000
11
143.238000
21
328.604000
0
LINE
8
DEFAULT
10
143.238000
20
328.604000
11
143.238000
21
328.604000
0
LINE
8
DEFAULT
10
143.238000
20
328.604000
11
132.624000
21
328.604000
0
LINE
8
DEFAULT
10
132.624000
20
279.931000
11
132.624000
21
279.931000
0
LINE
8
DEFAULT
10
132.624000
20
279.931000
11
132.624000
21
328.604000
0
LINE
8
DEFAULT
10
132.624000
20
328.604000
11
132.624000
21
328.604000
0
LINE
8
DEFAULT
10
132.624000
20
328.604000
11
132.624000
21
279.931000
0
LINE
8
DEFAULT
10
174.777000
20
304.267000
11
174.777000
21
304.267000
0
LINE
8
DEFAULT
10
174.777000
20
304.267000
11
132.624600
21
279.930300
0
LINE
8
DEFAULT
10
132.624000
20
279.931000
11
132.624000
21
279.931000
0
LINE
8
DEFAULT
10
132.624000
20
279.931000
11
174.776400
21
304.267700
0
LINE
8
DEFAULT
10
169.470000
20
313.459000
11
169.470000
21
313.459000
0
LINE
8
DEFAULT
10
169.470000
20
313.459000
11
174.776660
21
304.267590
0
LINE
8
DEFAULT
10
174.777000
20
304.267000
11
174.777000
21
304.267000
0
LINE
8
DEFAULT
10
174.777000
20
304.267000
11
169.470340
21
313.458410
0
LINE
8
DEFAULT
10
173.165000
20
315.592000
11
173.165000
21
315.592000
0
LINE
8
DEFAULT
10
173.165000
20
315.592000
11
169.469960
21
313.458660
0
LINE
8
DEFAULT
10
169.470000
20
313.459000
11
169.470000
21
313.459000
0
LINE
8
DEFAULT
10
169.470000
20
313.459000
11
173.165040
21
315.592340
0
LINE
8
DEFAULT
10
178.472000
20
306.401000
11
178.472000
21
306.401000
0
LINE
8
DEFAULT
10
178.472000
20
306.401000
11
173.165340
21
315.592410
0
LINE
8
DEFAULT
10
173.165000
20
315.592000
11
173.165000
21
315.592000
0
LINE
8
DEFAULT
10
173.165000
20
315.592000
11
178.471660
21
306.400590
0
LINE
8
DEFAULT
10
220.624000
20
330.737000
11
220.624000
21
330.737000
0
LINE
8
DEFAULT
10
220.624000
20
330.737000
11
178.471600
21
306.400300
0
LINE
8
DEFAULT
10
178.472000
20
306.401000
11
178.472000
21
306.401000
0
LINE
8
DEFAULT
10
178.472000
20
306.401000
11
220.624400
21
330.737700
0
LINE
8
DEFAULT
10
178.472000
20
355.074000
11
178.472000
21
355.074000
0
LINE
8
DEFAULT
10
178.472000
20
355.074000
11
220.624400
21
330.737300
0
LINE
8
DEFAULT
10
220.624000
20
330.737000
11
220.624000
21
330.737000
0
LINE
8
DEFAULT
10
220.624000
20
330.737000
11
178.472000
21
355.074000
0
LINE
8
DEFAULT
10
173.165000
20
345.883000
11
173.165000
21
345.883000
0
LINE
8
DEFAULT
10
173.165000
20
345.883000
11
178.471660
21
355.074410
0
LINE
8
DEFAULT
10
178.472000
20
355.074000
11
178.472000
21
355.074000
0
LINE
8
DEFAULT
10
178.472000
20
355.074000
11
173.165340
21
345.882590
0
LINE
8
DEFAULT
10
169.470000
20
348.016000
11
169.470000
21
348.016000
0
LINE
8
DEFAULT
10
169.470000
20
348.016000
11
173.165040
21
345.882660
0
LINE
8
DEFAULT
10
173.165000
20
345.883000
11
173.165000
21
345.883000
0
LINE
8
DEFAULT
10
173.165000
20
345.883000
11
169.469960
21
348.016340
0
LINE
8
DEFAULT
10
174.777000
20
357.208000
11
174.777000
21
357.208000
0
LINE
8
DEFAULT
10
174.777000
20
357.208000
11
169.470340
21
348.016590
0
LINE
8
DEFAULT
10
169.470000
20
348.016000
11
169.470000
21
348.016000
0
LINE
8
DEFAULT
10
169.470000
20
348.016000
11
174.776660
21
357.207410
0
LINE
8
DEFAULT
10
132.624000
20
381.544000
11
132.624000
21
381.544000
0
LINE
8
DEFAULT
10
132.624000
20
381.544000
11
174.776400
21
357.207300
0
LINE
8
DEFAULT
10
174.777000
20
357.208000
11
174.777000
21
357.208000
0
LINE
8
DEFAULT
10
174.777000
20
357.208000
11
132.624000
21
381.544000
0
LINE
8
DEFAULT
10
174.777000
20
357.208000
11
132.624000
21
381.544000
0
LINE
8
DEFAULT
10
132.624000
20
381.544000
11
132.624000
21
332.871000
0
LINE
8
DEFAULT
10
132.624000
20
332.871000
11
143.238000
21
332.871000
0
LINE
8
DEFAULT
10
143.238000
20
332.871000
11
143.238000
21
328.604000
0
LINE
8
DEFAULT
10
143.238000
20
328.604000
11
132.624000
21
328.604000
0
LINE
8
DEFAULT
10
132.624000
20
328.604000
11
132.624000
21
279.931000
0
LINE
8
DEFAULT
10
132.624000
20
279.931000
11
174.776400
21
304.267700
0
LINE
8
DEFAULT
10
174.777000
20
304.267000
11
169.470340
21
313.458410
0
LINE
8
DEFAULT
10
169.470000
20
313.459000
11
173.165040
21
315.592340
0
LINE
8
DEFAULT
10
173.165000
20
315.592000
11
178.471660
21
306.400590
0
LINE
8
DEFAULT
10
178.472000
20
306.401000
11
220.624400
21
330.737700
0
LINE
8
DEFAULT
10
220.624000
20
330.737000
11
178.472000
21
355.074000
0
LINE
8
DEFAULT
10
178.472000
20
355.074000
11
173.165340
21
345.882590
0
LINE
8
DEFAULT
10
173.165000
20
345.883000
11
169.469960
21
348.016340
0
LINE
8
DEFAULT
10
169.470000
20
348.016000
11
174.776660
21
357.207410
0
LINE
8
DEFAULT
10
143.238000
20
332.871000
11
132.624000
21
332.871000
0
LINE
8
DEFAULT
10
132.624000
20
332.871000
11
132.624000
21
381.544000
0
LINE
8
DEFAULT
10
132.624000
20
381.544000
11
174.776400
21
357.207300
0
LINE
8
DEFAULT
10
174.777000
20
357.208000
11
169.470340
21
348.016590
0
LINE
8
DEFAULT
10
169.470000
20
348.016000
11
173.165040
21
345.882660
0
LINE
8
DEFAULT
10
173.165000
20
345.883000
11
178.471660
21
355.074410
0
LINE
8
DEFAULT
10
178.472000
20
355.074000
11
220.624400
21
330.737300
0
LINE
8
DEFAULT
10
220.624000
20
330.737000
11
178.471600
21
306.400300
0
LINE
8
DEFAULT
10
178.472000
20
306.401000
11
173.165340
21
315.592410
0
LINE
8
DEFAULT
10
173.165000
20
315.592000
11
169.469960
21
313.458660
0
LINE
8
DEFAULT
10
169.470000
20
313.459000
11
174.776660
21
304.267590
0
LINE
8
DEFAULT
10
174.777000
20
304.267000
11
132.624600
21
279.930300
0
LINE
8
DEFAULT
10
132.624000
20
279.931000
11
132.624000
21
328.604000
0
LINE
8
DEFAULT
10
132.624000
20
328.604000
11
143.238000
21
328.604000
0
LINE
8
DEFAULT
10
143.238000
20
328.604000
11
143.238000
21
332.871000
0
LINE
8
DEFAULT
10
14.224400
20
332.871000
11
14.224400
21
381.544000
0
LINE
8
DEFAULT
10
14.224400
20
381.544000
11
14.224400
21
381.544000
0
LINE
8
DEFAULT
10
14.224400
20
381.544000
11
14.224400
21
332.871000
0
LINE
8
DEFAULT
10
14.224400
20
332.871000
11
14.224400
21
332.871000
0
LINE
8
DEFAULT
10
24.837800
20
332.871000
11
24.837800
21
332.871000
0
LINE
8
DEFAULT
10
24.837800
20
332.871000
11
14.224400
21
332.871000
0
LINE
8
DEFAULT
10
14.224400
20
332.871000
11
14.224400
21
332.871000
0
LINE
8
DEFAULT
10
14.224400
20
332.871000
11
24.837800
21
332.871000
0
LINE
8
DEFAULT
10
24.837800
20
328.604000
11
24.837800
21
328.604000
0
LINE
8
DEFAULT
10
24.837800
20
328.604000
11
24.837800
21
332.871000
0
LINE
8
DEFAULT
10
24.837800
20
332.871000
11
24.837800
21
332.871000
0
LINE
8
DEFAULT
10
24.837800
20
332.871000
11
24.837800
21
328.604000
0
LINE
8
DEFAULT
10
14.224400
20
328.604000
11
14.224400
21
328.604000
0
LINE
8
DEFAULT
10
14.224400
20
328.604000
11
24.837800
21
328.604000
0
LINE
8
DEFAULT
10
24.837800
20
328.604000
11
24.837800
21
328.604000
0
LINE
8
DEFAULT
10
24.837800
20
328.604000
11
14.224400
21
328.604000
0
LINE
8
DEFAULT
10
14.224400
20
279.931000
11
14.224400
21
279.931000
0
LINE
8
DEFAULT
10
14.224400
20
279.931000
11
14.224400
21
328.604000
0
LINE
8
DEFAULT
10
14.224400
20
328.604000
11
14.224400
21
328.604000
0
LINE
8
DEFAULT
10
14.224400
20
328.604000
11
14.224400
21
279.931000
0
LINE
8
DEFAULT
10
56.376900
20
304.267000
11
56.376900
21
304.267000
0
LINE
8
DEFAULT
10
56.376900
20
304.267000
11
14.224400
21
279.931000
0
LINE
8
DEFAULT
10
14.224400
20
279.931000
11
14.224400
21
279.931000
0
LINE
8
DEFAULT
10
14.224400
20
279.931000
11
56.376900
21
304.267000
0
LINE
8
DEFAULT
10
51.070200
20
313.459000
11
51.070200
21
313.459000
0
LINE
8
DEFAULT
10
51.070200
20
313.459000
11
56.376860
21
304.267590
0
LINE
8
DEFAULT
10
56.376900
20
304.267000
11
56.376900
21
304.267000
0
LINE
8
DEFAULT
10
56.376900
20
304.267000
11
51.070240
21
313.458410
0
LINE
8
DEFAULT
10
54.765300
20
315.592000
11
54.765300
21
315.592000
0
LINE
8
DEFAULT
10
54.765300
20
315.592000
11
51.070260
21
313.458660
0
LINE
8
DEFAULT
10
51.070200
20
313.459000
11
51.070200
21
313.459000
0
LINE
8
DEFAULT
10
51.070200
20
313.459000
11
54.765240
21
315.592340
0
LINE
8
DEFAULT
10
60.071900
20
306.401000
11
60.071900
21
306.401000
0
LINE
8
DEFAULT
10
60.071900
20
306.401000
11
54.765240
21
315.592410
0
LINE
8
DEFAULT
10
54.765300
20
315.592000
11
54.765300
21
315.592000
0
LINE
8
DEFAULT
10
54.765300
20
315.592000
11
60.071960
21
306.400590
0
LINE
8
DEFAULT
10
102.224000
20
330.737000
11
102.224000
21
330.737000
0
LINE
8
DEFAULT
10
102.224000
20
330.737000
11
60.071600
21
306.400300
0
LINE
8
DEFAULT
10
60.071900
20
306.401000
11
60.071900
21
306.401000
0
LINE
8
DEFAULT
10
60.071900
20
306.401000
11
102.224000
21
330.737000
0
LINE
8
DEFAULT
10
60.071900
20
355.074000
11
60.071900
21
355.074000
0
LINE
8
DEFAULT
10
60.071900
20
355.074000
11
102.224300
21
330.737300
0
LINE
8
DEFAULT
10
102.224000
20
330.737000
11
102.224000
21
330.737000
0
LINE
8
DEFAULT
10
102.224000
20
330.737000
11
60.071900
21
355.074000
0
LINE
8
DEFAULT
10
54.765300
20
345.883000
11
54.765300
21
345.883000
0
LINE
8
DEFAULT
10
54.765300
20
345.883000
11
60.071960
21
355.074410
0
LINE
8
DEFAULT
10
60.071900
20
355.074000
11
60.071900
21
355.074000
0
LINE
8
DEFAULT
10
60.071900
20
355.074000
11
54.765240
21
345.882590
0
LINE
8
DEFAULT
10
51.070200
20
348.016000
11
51.070200
21
348.016000
0
LINE
8
DEFAULT
10
51.070200
20
348.016000
11
54.765240
21
345.882660
0
LINE
8
DEFAULT
10
54.765300
20
345.883000
11
54.765300
21
345.883000
0
LINE
8
DEFAULT
10
54.765300
20
345.883000
11
51.070260
21
348.016340
0
LINE
8
DEFAULT
10
56.376900
20
357.208000
11
56.376900
21
357.208000
0
LINE
8
DEFAULT
10
56.376900
20
357.208000
11
51.070240
21
348.016590
0
LINE
8
DEFAULT
10
51.070200
20
348.016000
11
51.070200
21
348.016000
0
LINE
8
DEFAULT
10
51.070200
20
348.016000
11
56.376860
21
357.207410
0
LINE
8
DEFAULT
10
14.224400
20
381.544000
11
14.224400
21
381.544000
0
LINE
8
DEFAULT
10
14.224400
20
381.544000
11
56.376800
21
357.207300
0
LINE
8
DEFAULT
10
56.376900
20
357.208000
11
56.376900
21
357.208000
0
LINE
8
DEFAULT
10
56.376900
20
357.208000
11
14.224400
21
381.544000
0
LINE
8
DEFAULT
10
56.376900
20
357.208000
11
14.224400
21
381.544000
0
LINE
8
DEFAULT
10
14.224400
20
381.544000
11
14.224400
21
332.871000
0
LINE
8
DEFAULT
10
14.224400
20
332.871000
11
24.837800
21
332.871000
0
LINE
8
DEFAULT
10
24.837800
20
332.871000
11
24.837800
21
328.604000
0
LINE
8
DEFAULT
10
24.837800
20
328.604000
11
14.224400
21
328.604000
0
LINE
8
DEFAULT
10
14.224400
20
328.604000
11
14.224400
21
279.931000
0
LINE
8
DEFAULT
10
14.224400
20
279.931000
11
56.376900
21
304.267000
0
LINE
8
DEFAULT
10
56.376900
20
304.267000
11
51.070240
21
313.458410
0
LINE
8
DEFAULT
10
51.070200
20
313.459000
11
54.765240
21
315.592340
0
LINE
8
DEFAULT
10
54.765300
20
315.592000
11
60.071960
21
306.400590
0
LINE
8
DEFAULT
10
60.071900
20
306.401000
11
102.224000
21
330.737000
0
LINE
8
DEFAULT
10
102.224000
20
330.737000
11
60.071900
21
355.074000
0
LINE
8
DEFAULT
10
60.071900
20
355.074000
11
54.765240
21
345.882590
0
LINE
8
DEFAULT
10
54.765300
20
345.883000
11
51.070260
21
348.016340
0
LINE
8
DEFAULT
10
51.070200
20
348.016000
11
56.376860
21
357.207410
0
LINE
8
DEFAULT
10
24.837800
20
332.871000
11
14.224400
21
332.871000
0
LINE
8
DEFAULT
10
14.224400
20
332.871000
11
14.224400
21
381.544000
0
LINE
8
DEFAULT
10
14.224400
20
381.544000
11
56.376800
21
357.207300
0
LINE
8
DEFAULT
10
56.376900
20
357.208000
11
51.070240
21
348.016590
0
LINE
8
DEFAULT
10
51.070200
20
348.016000
11
54.765240
21
345.882660
0
LINE
8
DEFAULT
10
54.765300
20
345.883000
11
60.071960
21
355.074410
0
LINE
8
DEFAULT
10
60.071900
20
355.074000
11
102.224300
21
330.737300
0
LINE
8
DEFAULT
10
102.224000
20
330.737000
11
60.071600
21
306.400300
0
LINE
8
DEFAULT
10
60.071900
20
306.401000
11
54.765240
21
315.592410
0
LINE
8
DEFAULT
10
54.765300
20
315.592000
11
51.070260
21
313.458660
0
LINE
8
DEFAULT
10
51.070200
20
313.459000
11
56.376860
21
304.267590
0
LINE
8
DEFAULT
10
56.376900
20
304.267000
11
14.224400
21
279.931000
0
LINE
8
DEFAULT
10
14.224400
20
279.931000
11
14.224400
21
328.604000
0
LINE
8
DEFAULT
10
14.224400
20
328.604000
11
24.837800
21
328.604000
0
LINE
8
DEFAULT
10
24.837800
20
328.604000
11
24.837800
21
332.871000
0
LINE
8
DEFAULT
10
487.824000
20
214.471000
11
487.824000
21
263.144000
0
LINE
8
DEFAULT
10
487.824000
20
263.144000
11
487.824000
21
263.144000
0
LINE
8
DEFAULT
10
487.824000
20
263.144000
11
487.824000
21
214.471000
0
LINE
8
DEFAULT
10
487.824000
20
214.471000
11
487.824000
21
214.471000
0
LINE
8
DEFAULT
10
498.437000
20
214.471000
11
498.437000
21
214.471000
0
LINE
8
DEFAULT
10
498.437000
20
214.471000
11
487.824000
21
214.471000
0
LINE
8
DEFAULT
10
487.824000
20
214.471000
11
487.824000
21
214.471000
0
LINE
8
DEFAULT
10
487.824000
20
214.471000
11
498.437000
21
214.471000
0
LINE
8
DEFAULT
10
498.437000
20
210.204000
11
498.437000
21
210.204000
0
LINE
8
DEFAULT
10
498.437000
20
210.204000
11
498.437000
21
214.471000
0
LINE
8
DEFAULT
10
498.437000
20
214.471000
11
498.437000
21
214.471000
0
LINE
8
DEFAULT
10
498.437000
20
214.471000
11
498.437000
21
210.204000
0
LINE
8
DEFAULT
10
487.824000
20
210.204000
11
487.824000
21
210.204000
0
LINE
8
DEFAULT
10
487.824000
20
210.204000
11
498.437000
21
210.204000
0
LINE
8
DEFAULT
10
498.437000
20
210.204000
11
498.437000
21
210.204000
0
LINE
8
DEFAULT
10
498.437000
20
210.204000
11
487.824000
21
210.204000
0
LINE
8
DEFAULT
10
487.824000
20
161.531000
11
487.824000
21
161.531000
0
LINE
8
DEFAULT
10
487.824000
20
161.531000
11
487.824000
21
210.204000
0
LINE
8
DEFAULT
10
487.824000
20
210.204000
11
487.824000
21
210.204000
0
LINE
8
DEFAULT
10
487.824000
20
210.204000
11
487.824000
21
161.531000
0
LINE
8
DEFAULT
10
529.977000
20
185.868000
11
529.977000
21
185.868000
0
LINE
8
DEFAULT
10
529.977000
20
185.868000
11
487.824500
21
161.531300
0
LINE
8
DEFAULT
10
487.824000
20
161.531000
11
487.824000
21
161.531000
0
LINE
8
DEFAULT
10
487.824000
20
161.531000
11
529.976500
21
185.867700
0
LINE
8
DEFAULT
10
524.670000
20
195.059000
11
524.670000
21
195.059000
0
LINE
8
DEFAULT
10
524.670000
20
195.059000
11
529.976650
21
185.867590
0
LINE
8
DEFAULT
10
529.977000
20
185.868000
11
529.977000
21
185.868000
0
LINE
8
DEFAULT
10
529.977000
20
185.868000
11
524.670350
21
195.059410
0
LINE
8
DEFAULT
10
528.365000
20
197.192000
11
528.365000
21
197.192000
0
LINE
8
DEFAULT
10
528.365000
20
197.192000
11
524.669980
21
195.058680
0
LINE
8
DEFAULT
10
524.670000
20
195.059000
11
524.670000
21
195.059000
0
LINE
8
DEFAULT
10
524.670000
20
195.059000
11
528.365020
21
197.192320
0
LINE
8
DEFAULT
10
533.672000
20
188.001000
11
533.672000
21
188.001000
0
LINE
8
DEFAULT
10
533.672000
20
188.001000
11
528.365320
21
197.192410
0
LINE
8
DEFAULT
10
528.365000
20
197.192000
11
528.365000
21
197.192000
0
LINE
8
DEFAULT
10
528.365000
20
197.192000
11
533.671680
21
188.000590
0
LINE
8
DEFAULT
10
575.824000
20
212.338000
11
575.824000
21
212.338000
0
LINE
8
DEFAULT
10
575.824000
20
212.338000
11
533.671500
21
188.001200
0
LINE
8
DEFAULT
10
533.672000
20
188.001000
11
533.672000
21
188.001000
0
LINE
8
DEFAULT
10
533.672000
20
188.001000
11
575.824500
21
212.337800
0
LINE
8
DEFAULT
10
533.672000
20
236.674000
11
533.672000
21
236.674000
0
LINE
8
DEFAULT
10
533.672000
20
236.674000
11
575.824500
21
212.337300
0
LINE
8
DEFAULT
10
575.824000
20
212.338000
11
575.824000
21
212.338000
0
LINE
8
DEFAULT
10
575.824000
20
212.338000
11
533.671500
21
236.674700
0
LINE
8
DEFAULT
10
528.365000
20
227.483000
11
528.365000
21
227.483000
0
LINE
8
DEFAULT
10
528.365000
20
227.483000
11
533.671680
21
236.674410
0
LINE
8
DEFAULT
10
533.672000
20
236.674000
11
533.672000
21
236.674000
0
LINE
8
DEFAULT
10
533.672000
20
236.674000
11
528.365320
21
227.482590
0
LINE
8
DEFAULT
10
524.670000
20
229.616000
11
524.670000
21
229.616000
0
LINE
8
DEFAULT
10
524.670000
20
229.616000
11
528.365020
21
227.482660
0
LINE
8
DEFAULT
10
528.365000
20
227.483000
11
528.365000
21
227.483000
0
LINE
8
DEFAULT
10
528.365000
20
227.483000
11
524.669980
21
229.616340
0
LINE
8
DEFAULT
10
529.977000
20
238.808000
11
529.977000
21
238.808000
0
LINE
8
DEFAULT
10
529.977000
20
238.808000
11
524.670350
21
229.616590
0
LINE
8
DEFAULT
10
524.670000
20
229.616000
11
524.670000
21
229.616000
0
LINE
8
DEFAULT
10
524.670000
20
229.616000
11
529.976650
21
238.807410
0
LINE
8
DEFAULT
10
487.824000
20
263.144000
11
487.824000
21
263.144000
0
LINE
8
DEFAULT
10
487.824000
20
263.144000
11
529.976500
21
238.807300
0
LINE
8
DEFAULT
10
529.977000
20
238.808000
11
529.977000
21
238.808000
0
LINE
8
DEFAULT
10
529.977000
20
238.808000
11
487.824500
21
263.144700
0
LINE
8
DEFAULT
10
529.977000
20
238.808000
11
487.824500
21
263.144700
0
LINE
8
DEFAULT
10
487.824000
20
263.144000
11
487.824000
21
214.471000
0
LINE
8
DEFAULT
10
487.824000
20
214.471000
11
498.437000
21
214.471000
0
LINE
8
DEFAULT
10
498.437000
20
214.471000
11
498.437000
21
210.204000
0
LINE
8
DEFAULT
10
498.437000
20
210.204000
11
487.824000
21
210.204000
0
LINE
8
DEFAULT
10
487.824000
20
210.204000
11
487.824000
21
161.531000
0
LINE
8
DEFAULT
10
487.824000
20
161.531000
11
529.976500
21
185.867700
0
LINE
8
DEFAULT
10
529.977000
20
185.868000
11
524.670350
21
195.059410
0
LINE
8
DEFAULT
10
524.670000
20
195.059000
11
528.365020
21
197.192320
0
LINE
8
DEFAULT
10
528.365000
20
197.192000
11
533.671680
21
188.000590
0
LINE
8
DEFAULT
10
533.672000
20
188.001000
11
575.824500
21
212.337800
0
LINE
8
DEFAULT
10
575.824000
20
212.338000
11
533.671500
21
236.674700
0
LINE
8
DEFAULT
10
533.672000
20
236.674000
11
528.365320
21
227.482590
0
LINE
8
DEFAULT
10
528.365000
20
227.483000
11
524.669980
21
229.616340
0
LINE
8
DEFAULT
10
524.670000
20
229.616000
11
529.976650
21
238.807410
0
LINE
8
DEFAULT
10
498.437000
20
214.471000
11
487.824000
21
214.471000
0
LINE
8
DEFAULT
10
487.824000
20
214.471000
11
487.824000
21
263.144000
0
LINE
8
DEFAULT
10
487.824000
20
263.144000
11
529.976500
21
238.807300
0
LINE
8
DEFAULT
10
529.977000
20
238.808000
11
524.670350
21
229.616590
0
LINE
8
DEFAULT
10
524.670000
20
229.616000
11
528.365020
21
227.482660
0
LINE
8
DEFAULT
10
528.365000
20
227.483000
11
533.671680
21
236.674410
0
LINE
8
DEFAULT
10
533.672000
20
236.674000
11
575.824500
21
212.337300
0
LINE
8
DEFAULT
10
575.824000
20
212.338000
11
533.671500
21
188.001200
0
LINE
8
DEFAULT
10
533.672000
20
188.001000
11
528.365320
21
197.192410
0
LINE
8
DEFAULT
10
528.365000
20
197.192000
11
524.669980
21
195.058680
0
LINE
8
DEFAULT
10
524.670000
20
195.059000
11
529.976650
21
185.867590
0
LINE
8
DEFAULT
10
529.977000
20
185.868000
11
487.824500
21
161.531300
0
LINE
8
DEFAULT
10
487.824000
20
161.531000
11
487.824000
21
210.204000
0
LINE
8
DEFAULT
10
487.824000
20
210.204000
11
498.437000
21
210.204000
0
LINE
8
DEFAULT
10
498.437000
20
210.204000
11
498.437000
21
214.471000
0
LINE
8
DEFAULT
10
369.424000
20
214.471000
11
369.424000
21
263.144000
0
LINE
8
DEFAULT
10
369.424000
20
263.144000
11
369.424000
21
263.144000
0
LINE
8
DEFAULT
10
369.424000
20
263.144000
11
369.424000
21
214.471000
0
LINE
8
DEFAULT
10
369.424000
20
214.471000
11
369.424000
21
214.471000
0
LINE
8
DEFAULT
10
380.037000
20
214.471000
11
380.037000
21
214.471000
0
LINE
8
DEFAULT
10
380.037000
20
214.471000
11
369.424000
21
214.471000
0
LINE
8
DEFAULT
10
369.424000
20
214.471000
11
369.424000
21
214.471000
0
LINE
8
DEFAULT
10
369.424000
20
214.471000
11
380.037000
21
214.471000
0
LINE
8
DEFAULT
10
380.037000
20
210.204000
11
380.037000
21
210.204000
0
LINE
8
DEFAULT
10
380.037000
20
210.204000
11
380.037000
21
214.471000
0
LINE
8
DEFAULT
10
380.037000
20
214.471000
11
380.037000
21
214.471000
0
LINE
8
DEFAULT
10
380.037000
20
214.471000
11
380.037000
21
210.204000
0
LINE
8
DEFAULT
10
369.424000
20
210.204000
11
369.424000
21
210.204000
0
LINE
8
DEFAULT
10
369.424000
20
210.204000
11
380.037000
21
210.204000
0
LINE
8
DEFAULT
10
380.037000
20
210.204000
11
380.037000
21
210.204000
0
LINE
8
DEFAULT
10
380.037000
20
210.204000
11
369.424000
21
210.204000
0
LINE
8
DEFAULT
10
369.424000
20
161.531000
11
369.424000
21
161.531000
0
LINE
8
DEFAULT
10
369.424000
20
161.531000
11
369.424000
21
210.204000
0
LINE
8
DEFAULT
10
369.424000
20
210.204000
11
369.424000
21
210.204000
0
LINE
8
DEFAULT
10
369.424000
20
210.204000
11
369.424000
21
161.531000
0
LINE
8
DEFAULT
10
411.577000
20
185.868000
11
411.577000
21
185.868000
0
LINE
8
DEFAULT
10
411.577000
20
185.868000
11
369.424600
21
161.531300
0
LINE
8
DEFAULT
10
369.424000
20
161.531000
11
369.424000
21
161.531000
0
LINE
8
DEFAULT
10
369.424000
20
161.531000
11
411.576400
21
185.867700
0
LINE
8
DEFAULT
10
406.270000
20
195.059000
11
406.270000
21
195.059000
0
LINE
8
DEFAULT
10
406.270000
20
195.059000
11
411.576650
21
185.867590
0
LINE
8
DEFAULT
10
411.577000
20
185.868000
11
411.577000
21
185.868000
0
LINE
8
DEFAULT
10
411.577000
20
185.868000
11
406.270350
21
195.059410
0
LINE
8
DEFAULT
10
409.965000
20
197.192000
11
409.965000
21
197.192000
0
LINE
8
DEFAULT
10
409.965000
20
197.192000
11
406.269950
21
195.058680
0
LINE
8
DEFAULT
10
406.270000
20
195.059000
11
406.270000
21
195.059000
0
LINE
8
DEFAULT
10
406.270000
20
195.059000
11
409.965050
21
197.192320
0
LINE
8
DEFAULT
10
415.272000
20
188.001000
11
415.272000
21
188.001000
0
LINE
8
DEFAULT
10
415.272000
20
188.001000
11
409.965350
21
197.192410
0
LINE
8
DEFAULT
10
409.965000
20
197.192000
11
409.965000
21
197.192000
0
LINE
8
DEFAULT
10
409.965000
20
197.192000
11
415.271650
21
188.000590
0
LINE
8
DEFAULT
10
457.424000
20
212.338000
11
457.424000
21
212.338000
0
LINE
8
DEFAULT
10
457.424000
20
212.338000
11
415.271500
21
188.001200
0
LINE
8
DEFAULT
10
415.272000
20
188.001000
11
415.272000
21
188.001000
0
LINE
8
DEFAULT
10
415.272000
20
188.001000
11
457.424500
21
212.337800
0
LINE
8
DEFAULT
10
415.272000
20
236.674000
11
415.272000
21
236.674000
0
LINE
8
DEFAULT
10
415.272000
20
236.674000
11
457.424500
21
212.337300
0
LINE
8
DEFAULT
10
457.424000
20
212.338000
11
457.424000
21
212.338000
0
LINE
8
DEFAULT
10
457.424000
20
212.338000
11
415.271500
21
236.674700
0
LINE
8
DEFAULT
10
409.965000
20
227.483000
11
409.965000
21
227.483000
0
LINE
8
DEFAULT
10
409.965000
20
227.483000
11
415.271650
21
236.674410
0
LINE
8
DEFAULT
10
415.272000
20
236.674000
11
415.272000
21
236.674000
0
LINE
8
DEFAULT
10
415.272000
20
236.674000
11
409.965350
21
227.482590
0
LINE
8
DEFAULT
10
406.270000
20
229.616000
11
406.270000
21
229.616000
0
LINE
8
DEFAULT
10
406.270000
20
229.616000
11
409.965050
21
227.482660
0
LINE
8
DEFAULT
10
409.965000
20
227.483000
11
409.965000
21
227.483000
0
LINE
8
DEFAULT
10
409.965000
20
227.483000
11
406.269950
21
229.616340
0
LINE
8
DEFAULT
10
411.577000
20
238.808000
11
411.577000
21
238.808000
0
LINE
8
DEFAULT
10
411.577000
20
238.808000
11
406.270350
21
229.616590
0
LINE
8
DEFAULT
10
406.270000
20
229.616000
11
406.270000
21
229.616000
0
LINE
8
DEFAULT
10
406.270000
20
229.616000
11
411.576650
21
238.807410
0
LINE
8
DEFAULT
10
369.424000
20
263.144000
11
369.424000
21
263.144000
0
LINE
8
DEFAULT
10
369.424000
20
263.144000
11
411.576400
21
238.807300
0
LINE
8
DEFAULT
10
411.577000
20
238.808000
11
411.577000
21
238.808000
0
LINE
8
DEFAULT
10
411.577000
20
238.808000
11
369.424600
21
263.144700
0
LINE
8
DEFAULT
10
411.577000
20
238.808000
11
369.424600
21
263.144700
0
LINE
8
DEFAULT
10
369.424000
20
263.144000
11
369.424000
21
214.471000
0
LINE
8
DEFAULT
10
369.424000
20
214.471000
11
380.037000
21
214.471000
0
LINE
8
DEFAULT
10
380.037000
20
214.471000
11
380.037000
21
210.204000
0
LINE
8
DEFAULT
10
380.037000
20
210.204000
11
369.424000
21
210.204000
0
LINE
8
DEFAULT
10
369.424000
20
210.204000
11
369.424000
21
161.531000
0
LINE
8
DEFAULT
10
369.424000
20
161.531000
11
411.576400
21
185.867700
0
LINE
8
DEFAULT
10
411.577000
20
185.868000
11
406.270350
21
195.059410
0
LINE
8
DEFAULT
10
406.270000
20
195.059000
11
409.965050
21
197.192320
0
LINE
8
DEFAULT
10
409.965000
20
197.192000
11
415.271650
21
188.000590
0
LINE
8
DEFAULT
10
415.272000
20
188.001000
11
457.424500
21
212.337800
0
LINE
8
DEFAULT
10
457.424000
20
212.338000
11
415.271500
21
236.674700
0
LINE
8
DEFAULT
10
415.272000
20
236.674000
11
409.965350
21
227.482590
0
LINE
8
DEFAULT
10
409.965000
20
227.483000
11
406.269950
21
229.616340
0
LINE
8
DEFAULT
10
406.270000
20
229.616000
11
411.576650
21
238.807410
0
LINE
8
DEFAULT
10
380.037000
20
214.471000
11
369.424000
21
214.471000
0
LINE
8
DEFAULT
10
369.424000
20
214.471000
11
369.424000
21
263.144000
0
LINE
8
DEFAULT
10
369.424000
20
263.144000
11
411.576400
21
238.807300
0
LINE
8
DEFAULT
10
411.577000
20
238.808000
11
406.270350
21
229.616590
0
LINE
8
DEFAULT
10
406.270000
20
229.616000
11
409.965050
21
227.482660
0
LINE
8
DEFAULT
10
409.965000
20
227.483000
11
415.271650
21
236.674410
0
LINE
8
DEFAULT
10
415.272000
20
236.674000
11
457.424500
21
212.337300
0
LINE
8
DEFAULT
10
457.424000
20
212.338000
11
415.271500
21
188.001200
0
LINE
8
DEFAULT
10
415.272000
20
188.001000
11
409.965350
21
197.192410
0
LINE
8
DEFAULT
10
409.965000
20
197.192000
11
406.269950
21
195.058680
0
LINE
8
DEFAULT
10
406.270000
20
195.059000
11
411.576650
21
185.867590
0
LINE
8
DEFAULT
10
411.577000
20
185.868000
11
369.424600
21
161.531300
0
LINE
8
DEFAULT
10
369.424000
20
161.531000
11
369.424000
21
210.204000
0
LINE
8
DEFAULT
10
369.424000
20
210.204000
11
380.037000
21
210.204000
0
LINE
8
DEFAULT
10
380.037000
20
210.204000
11
380.037000
21
214.471000
0
LINE
8
DEFAULT
10
251.024000
20
214.471000
11
251.024000
21
263.144000
0
LINE
8
DEFAULT
10
251.024000
20
263.144000
11
251.024000
21
263.144000
0
LINE
8
DEFAULT
10
251.024000
20
263.144000
11
251.024000
21
214.471000
0
LINE
8
DEFAULT
10
251.024000
20
214.471000
11
251.024000
21
214.471000
0
LINE
8
DEFAULT
10
261.638000
20
214.471000
11
261.638000
21
214.471000
0
LINE
8
DEFAULT
10
261.638000
20
214.471000
11
251.024000
21
214.471000
0
LINE
8
DEFAULT
10
251.024000
20
214.471000
11
251.024000
21
214.471000
0
LINE
8
DEFAULT
10
251.024000
20
214.471000
11
261.638000
21
214.471000
0
LINE
8
DEFAULT
10
261.638000
20
210.204000
11
261.638000
21
210.204000
0
LINE
8
DEFAULT
10
261.638000
20
210.204000
11
261.638000
21
214.471000
0
LINE
8
DEFAULT
10
261.638000
20
214.471000
11
261.638000
21
214.471000
0
LINE
8
DEFAULT
10
261.638000
20
214.471000
11
261.638000
21
210.204000
0
LINE
8
DEFAULT
10
251.024000
20
210.204000
11
251.024000
21
210.204000
0
LINE
8
DEFAULT
10
251.024000
20
210.204000
11
261.638000
21
210.204000
0
LINE
8
DEFAULT
10
261.638000
20
210.204000
11
261.638000
21
210.204000
0
LINE
8
DEFAULT
10
261.638000
20
210.204000
11
251.024000
21
210.204000
0
LINE
8
DEFAULT
10
251.024000
20
161.531000
11
251.024000
21
161.531000
0
LINE
8
DEFAULT
10
251.024000
20
161.531000
11
251.024000
21
210.204000
0
LINE
8
DEFAULT
10
251.024000
20
210.204000
11
251.024000
21
210.204000
0
LINE
8
DEFAULT
10
251.024000
20
210.204000
11
251.024000
21
161.531000
0
LINE
8
DEFAULT
10
293.177000
20
185.868000
11
293.177000
21
185.868000
0
LINE
8
DEFAULT
10
293.177000
20
185.868000
11
251.024500
21
161.531300
0
LINE
8
DEFAULT
10
251.024000
20
161.531000
11
251.024000
21
161.531000
0
LINE
8
DEFAULT
10
251.024000
20
161.531000
11
293.176500
21
185.867700
0
LINE
8
DEFAULT
10
287.870000
20
195.059000
11
287.870000
21
195.059000
0
LINE
8
DEFAULT
10
287.870000
20
195.059000
11
293.176680
21
185.867590
0
LINE
8
DEFAULT
10
293.177000
20
185.868000
11
293.177000
21
185.868000
0
LINE
8
DEFAULT
10
293.177000
20
185.868000
11
287.870320
21
195.059410
0
LINE
8
DEFAULT
10
291.565000
20
197.192000
11
291.565000
21
197.192000
0
LINE
8
DEFAULT
10
291.565000
20
197.192000
11
287.869950
21
195.058680
0
LINE
8
DEFAULT
10
287.870000
20
195.059000
11
287.870000
21
195.059000
0
LINE
8
DEFAULT
10
287.870000
20
195.059000
11
291.565050
21
197.192320
0
LINE
8
DEFAULT
10
296.872000
20
188.001000
11
296.872000
21
188.001000
0
LINE
8
DEFAULT
10
296.872000
20
188.001000
11
291.565350
21
197.192410
0
LINE
8
DEFAULT
10
291.565000
20
197.192000
11
291.565000
21
197.192000
0
LINE
8
DEFAULT
10
291.565000
20
197.192000
11
296.871650
21
188.000590
0
LINE
8
DEFAULT
10
339.024000
20
212.338000
11
339.024000
21
212.338000
0
LINE
8
DEFAULT
10
339.024000
20
212.338000
11
296.871500
21
188.001200
0
LINE
8
DEFAULT
10
296.872000
20
188.001000
11
296.872000
21
188.001000
0
LINE
8
DEFAULT
10
296.872000
20
188.001000
11
339.024500
21
212.337800
0
LINE
8
DEFAULT
10
296.872000
20
236.674000
11
296.872000
21
236.674000
0
LINE
8
DEFAULT
10
296.872000
20
236.674000
11
339.024500
21
212.337300
0
LINE
8
DEFAULT
10
339.024000
20
212.338000
11
339.024000
21
212.338000
0
LINE
8
DEFAULT
10
339.024000
20
212.338000
11
296.871500
21
236.674700
0
LINE
8
DEFAULT
10
291.565000
20
227.483000
11
291.565000
21
227.483000
0
LINE
8
DEFAULT
10
291.565000
20
227.483000
11
296.871650
21
236.674410
0
LINE
8
DEFAULT
10
296.872000
20
236.674000
11
296.872000
21
236.674000
0
LINE
8
DEFAULT
10
296.872000
20
236.674000
11
291.565350
21
227.482590
0
LINE
8
DEFAULT
10
287.870000
20
229.616000
11
287.870000
21
229.616000
0
LINE
8
DEFAULT
10
287.870000
20
229.616000
11
291.565050
21
227.482660
0
LINE
8
DEFAULT
10
291.565000
20
227.483000
11
291.565000
21
227.483000
0
LINE
8
DEFAULT
10
291.565000
20
227.483000
11
287.869950
21
229.616340
0
LINE
8
DEFAULT
10
293.177000
20
238.808000
11
293.177000
21
238.808000
0
LINE
8
DEFAULT
10
293.177000
20
238.808000
11
287.870320
21
229.616590
0
LINE
8
DEFAULT
10
287.870000
20
229.616000
11
287.870000
21
229.616000
0
LINE
8
DEFAULT
10
287.870000
20
229.616000
11
293.176680
21
238.807410
0
LINE
8
DEFAULT
10
251.024000
20
263.144000
11
251.024000
21
263.144000
0
LINE
8
DEFAULT
10
251.024000
20
263.144000
11
293.176500
21
238.807300
0
LINE
8
DEFAULT
10
293.177000
20
238.808000
11
293.177000
21
238.808000
0
LINE
8
DEFAULT
10
293.177000
20
238.808000
11
251.024000
21
263.144000
0
LINE
8
DEFAULT
10
293.177000
20
238.808000
11
251.024000
21
263.144000
0
LINE
8
DEFAULT
10
251.024000
20
263.144000
11
251.024000
21
214.471000
0
LINE
8
DEFAULT
10
251.024000
20
214.471000
11
261.638000
21
214.471000
0
LINE
8
DEFAULT
10
261.638000
20
214.471000
11
261.638000
21
210.204000
0
LINE
8
DEFAULT
10
261.638000
20
210.204000
11
251.024000
21
210.204000
0
LINE
8
DEFAULT
10
251.024000
20
210.204000
11
251.024000
21
161.531000
0
LINE
8
DEFAULT
10
251.024000
20
161.531000
11
293.176500
21
185.867700
0
LINE
8
DEFAULT
10
293.177000
20
185.868000
11
287.870320
21
195.059410
0
LINE
8
DEFAULT
10
287.870000
20
195.059000
11
291.565050
21
197.192320
0
LINE
8
DEFAULT
10
291.565000
20
197.192000
11
296.871650
21
188.000590
0
LINE
8
DEFAULT
10
296.872000
20
188.001000
11
339.024500
21
212.337800
0
LINE
8
DEFAULT
10
339.024000
20
212.338000
11
296.871500
21
236.674700
0
LINE
8
DEFAULT
10
296.872000
20
236.674000
11
291.565350
21
227.482590
0
LINE
8
DEFAULT
10
291.565000
20
227.483000
11
287.869950
21
229.616340
0
LINE
8
DEFAULT
10
287.870000
20
229.616000
11
293.176680
21
238.807410
0
LINE
8
DEFAULT
10
261.638000
20
214.471000
11
251.024000
21
214.471000
0
LINE
8
DEFAULT
10
251.024000
20
214.471000
11
251.024000
21
263.144000
0
LINE
8
DEFAULT
10
251.024000
20
263.144000
11
293.176500
21
238.807300
0
LINE
8
DEFAULT
10
293.177000
20
238.808000
11
287.870320
21
229.616590
0
LINE
8
DEFAULT
10
287.870000
20
229.616000
11
291.565050
21
227.482660
0
LINE
8
DEFAULT
10
291.565000
20
227.483000
11
296.871650
21
236.674410
0
LINE
8
DEFAULT
10
296.872000
20
236.674000
11
339.024500
21
212.337300
0
LINE
8
DEFAULT
10
339.024000
20
212.338000
11
296.871500
21
188.001200
0
LINE
8
DEFAULT
10
296.872000
20
188.001000
11
291.565350
21
197.192410
0
LINE
8
DEFAULT
10
291.565000
20
197.192000
11
287.869950
21
195.058680
0
LINE
8
DEFAULT
10
287.870000
20
195.059000
11
293.176680
21
185.867590
0
LINE
8
DEFAULT
10
293.177000
20
185.868000
11
251.024500
21
161.531300
0
LINE
8
DEFAULT
10
251.024000
20
161.531000
11
251.024000
21
210.204000
0
LINE
8
DEFAULT
10
251.024000
20
210.204000
11
261.638000
21
210.204000
0
LINE
8
DEFAULT
10
261.638000
20
210.204000
11
261.638000
21
214.471000
0
LINE
8
DEFAULT
10
132.624000
20
214.471000
11
132.624000
21
263.144000
0
LINE
8
DEFAULT
10
132.624000
20
263.144000
11
132.624000
21
263.144000
0
LINE
8
DEFAULT
10
132.624000
20
263.144000
11
132.624000
21
214.471000
0
LINE
8
DEFAULT
10
132.624000
20
214.471000
11
132.624000
21
214.471000
0
LINE
8
DEFAULT
10
143.238000
20
214.471000
11
143.238000
21
214.471000
0
LINE
8
DEFAULT
10
143.238000
20
214.471000
11
132.624000
21
214.471000
0
LINE
8
DEFAULT
10
132.624000
20
214.471000
11
132.624000
21
214.471000
0
LINE
8
DEFAULT
10
132.624000
20
214.471000
11
143.238000
21
214.471000
0
LINE
8
DEFAULT
10
143.238000
20
210.204000
11
143.238000
21
210.204000
0
LINE
8
DEFAULT
10
143.238000
20
210.204000
11
143.238000
21
214.471000
0
LINE
8
DEFAULT
10
143.238000
20
214.471000
11
143.238000
21
214.471000
0
LINE
8
DEFAULT
10
143.238000
20
214.471000
11
143.238000
21
210.204000
0
LINE
8
DEFAULT
10
132.624000
20
210.204000
11
132.624000
21
210.204000
0
LINE
8
DEFAULT
10
132.624000
20
210.204000
11
143.238000
21
210.204000
0
LINE
8
DEFAULT
10
143.238000
20
210.204000
11
143.238000
21
210.204000
0
LINE
8
DEFAULT
10
143.238000
20
210.204000
11
132.624000
21
210.204000
0
LINE
8
DEFAULT
10
132.624000
20
161.531000
11
132.624000
21
161.531000
0
LINE
8
DEFAULT
10
132.624000
20
161.531000
11
132.624000
21
210.204000
0
LINE
8
DEFAULT
10
132.624000
20
210.204000
11
132.624000
21
210.204000
0
LINE
8
DEFAULT
10
132.624000
20
210.204000
11
132.624000
21
161.531000
0
LINE
8
DEFAULT
10
174.777000
20
185.868000
11
174.777000
21
185.868000
0
LINE
8
DEFAULT
10
174.777000
20
185.868000
11
132.624600
21
161.531300
0
LINE
8
DEFAULT
10
132.624000
20
161.531000
11
132.624000
21
161.531000
0
LINE
8
DEFAULT
10
132.624000
20
161.531000
11
174.776400
21
185.867700
0
LINE
8
DEFAULT
10
169.470000
20
195.059000
11
169.470000
21
195.059000
0
LINE
8
DEFAULT
10
169.470000
20
195.059000
11
174.776660
21
185.867590
0
LINE
8
DEFAULT
10
174.777000
20
185.868000
11
174.777000
21
185.868000
0
LINE
8
DEFAULT
10
174.777000
20
185.868000
11
169.470340
21
195.059410
0
LINE
8
DEFAULT
10
173.165000
20
197.192000
11
173.165000
21
197.192000
0
LINE
8
DEFAULT
10
173.165000
20
197.192000
11
169.469960
21
195.058680
0
LINE
8
DEFAULT
10
169.470000
20
195.059000
11
169.470000
21
195.059000
0
LINE
8
DEFAULT
10
169.470000
20
195.059000
11
173.165040
21
197.192320
0
LINE
8
DEFAULT
10
178.472000
20
188.001000
11
178.472000
21
188.001000
0
LINE
8
DEFAULT
10
178.472000
20
188.001000
11
173.165340
21
197.192410
0
LINE
8
DEFAULT
10
173.165000
20
197.192000
11
173.165000
21
197.192000
0
LINE
8
DEFAULT
10
173.165000
20
197.192000
11
178.471660
21
188.000590
0
LINE
8
DEFAULT
10
220.624000
20
212.338000
11
220.624000
21
212.338000
0
LINE
8
DEFAULT
10
220.624000
20
212.338000
11
178.472000
21
188.001000
0
LINE
8
DEFAULT
10
178.472000
20
188.001000
11
178.472000
21
188.001000
0
LINE
8
DEFAULT
10
178.472000
20
188.001000
11
220.624000
21
212.338000
0
LINE
8
DEFAULT
10
178.472000
20
236.674000
11
178.472000
21
236.674000
0
LINE
8
DEFAULT
10
178.472000
20
236.674000
11
220.624400
21
212.337300
0
LINE
8
DEFAULT
10
220.624000
20
212.338000
11
220.624000
21
212.338000
0
LINE
8
DEFAULT
10
220.624000
20
212.338000
11
178.472000
21
236.674000
0
LINE
8
DEFAULT
10
173.165000
20
227.483000
11
173.165000
21
227.483000
0
LINE
8
DEFAULT
10
173.165000
20
227.483000
11
178.471660
21
236.674410
0
LINE
8
DEFAULT
10
178.472000
20
236.674000
11
178.472000
21
236.674000
0
LINE
8
DEFAULT
10
178.472000
20
236.674000
11
173.165340
21
227.482590
0
LINE
8
DEFAULT
10
169.470000
20
229.616000
11
169.470000
21
229.616000
0
LINE
8
DEFAULT
10
169.470000
20
229.616000
11
173.165040
21
227.482660
0
LINE
8
DEFAULT
10
173.165000
20
227.483000
11
173.165000
21
227.483000
0
LINE
8
DEFAULT
10
173.165000
20
227.483000
11
169.469960
21
229.616340
0
LINE
8
DEFAULT
10
174.777000
20
238.808000
11
174.777000
21
238.808000
0
LINE
8
DEFAULT
10
174.777000
20
238.808000
11
169.470340
21
229.616590
0
LINE
8
DEFAULT
10
169.470000
20
229.616000
11
169.470000
21
229.616000
0
LINE
8
DEFAULT
10
169.470000
20
229.616000
11
174.776660
21
238.807410
0
LINE
8
DEFAULT
10
132.624000
20
263.144000
11
132.624000
21
263.144000
0
LINE
8
DEFAULT
10
132.624000
20
263.144000
11
174.776400
21
238.807300
0
LINE
8
DEFAULT
10
174.777000
20
238.808000
11
174.777000
21
238.808000
0
LINE
8
DEFAULT
10
174.777000
20
238.808000
11
132.624000
21
263.144000
0
LINE
8
DEFAULT
10
174.777000
20
238.808000
11
132.624000
21
263.144000
0
LINE
8
DEFAULT
10
132.624000
20
263.144000
11
132.624000
21
214.471000
0
LINE
8
DEFAULT
10
132.624000
20
214.471000
11
143.238000
21
214.471000
0
LINE
8
DEFAULT
10
143.238000
20
214.471000
11
143.238000
21
210.204000
0
LINE
8
DEFAULT
10
143.238000
20
210.204000
11
132.624000
21
210.204000
0
LINE
8
DEFAULT
10
132.624000
20
210.204000
11
132.624000
21
161.531000
0
LINE
8
DEFAULT
10
132.624000
20
161.531000
11
174.776400
21
185.867700
0
LINE
8
DEFAULT
10
174.777000
20
185.868000
11
169.470340
21
195.059410
0
LINE
8
DEFAULT
10
169.470000
20
195.059000
11
173.165040
21
197.192320
0
LINE
8
DEFAULT
10
173.165000
20
197.192000
11
178.471660
21
188.000590
0
LINE
8
DEFAULT
10
178.472000
20
188.001000
11
220.624000
21
212.338000
0
LINE
8
DEFAULT
10
220.624000
20
212.338000
11
178.472000
21
236.674000
0
LINE
8
DEFAULT
10
178.472000
20
236.674000
11
173.165340
21
227.482590
0
LINE
8
DEFAULT
10
173.165000
20
227.483000
11
169.469960
21
229.616340
0
LINE
8
DEFAULT
10
169.470000
20
229.616000
11
174.776660
21
238.807410
0
LINE
8
DEFAULT
10
143.238000
20
214.471000
11
132.624000
21
214.471000
0
LINE
8
DEFAULT
10
132.624000
20
214.471000
11
132.624000
21
263.144000
0
LINE
8
DEFAULT
10
132.624000
20
263.144000
11
174.776400
21
238.807300
0
LINE
8
DEFAULT
10
174.777000
20
238.808000
11
169.470340
21
229.616590
0
LINE
8
DEFAULT
10
169.470000
20
229.616000
11
173.165040
21
227.482660
0
LINE
8
DEFAULT
10
173.165000
20
227.483000
11
178.471660
21
236.674410
0
LINE
8
DEFAULT
10
178.472000
20
236.674000
11
220.624400
21
212.337300
0
LINE
8
DEFAULT
10
220.624000
20
212.338000
11
178.472000
21
188.001000
0
LINE
8
DEFAULT
10
178.472000
20
188.001000
11
173.165340
21
197.192410
0
LINE
8
DEFAULT
10
173.165000
20
197.192000
11
169.469960
21
195.058680
0
LINE
8
DEFAULT
10
169.470000
20
195.059000
11
174.776660
21
185.867590
0
LINE
8
DEFAULT
10
174.777000
20
185.868000
11
132.624600
21
161.531300
0
LINE
8
DEFAULT
10
132.624000
20
161.531000
11
132.624000
21
210.204000
0
LINE
8
DEFAULT
10
132.624000
20
210.204000
11
143.238000
21
210.204000
0
LINE
8
DEFAULT
10
143.238000
20
210.204000
11
143.238000
21
214.471000
0
LINE
8
DEFAULT
10
14.224400
20
214.471000
11
14.224400
21
263.144000
0
LINE
8
DEFAULT
10
14.224400
20
263.144000
11
14.224400
21
263.144000
0
LINE
8
DEFAULT
10
14.224400
20
263.144000
11
14.224400
21
214.471000
0
LINE
8
DEFAULT
10
14.224400
20
214.471000
11
14.224400
21
214.471000
0
LINE
8
DEFAULT
10
24.837800
20
214.471000
11
24.837800
21
214.471000
0
LINE
8
DEFAULT
10
24.837800
20
214.471000
11
14.224400
21
214.471000
0
LINE
8
DEFAULT
10
14.224400
20
214.471000
11
14.224400
21
214.471000
0
LINE
8
DEFAULT
10
14.224400
20
214.471000
11
24.837800
21
214.471000
0
LINE
8
DEFAULT
10
24.837800
20
210.204000
11
24.837800
21
210.204000
0
LINE
8
DEFAULT
10
24.837800
20
210.204000
11
24.837800
21
214.471000
0
LINE
8
DEFAULT
10
24.837800
20
214.471000
11
24.837800
21
214.471000
0
LINE
8
DEFAULT
10
24.837800
20
214.471000
11
24.837800
21
210.204000
0
LINE
8
DEFAULT
10
14.224400
20
210.204000
11
14.224400
21
210.204000
0
LINE
8
DEFAULT
10
14.224400
20
210.204000
11
24.837800
21
210.204000
0
LINE
8
DEFAULT
10
24.837800
20
210.204000
11
24.837800
21
210.204000
0
LINE
8
DEFAULT
10
24.837800
20
210.204000
11
14.224400
21
210.204000
0
LINE
8
DEFAULT
10
14.224400
20
161.531000
11
14.224400
21
161.531000
0
LINE
8
DEFAULT
10
14.224400
20
161.531000
11
14.224400
21
210.204000
0
LINE
8
DEFAULT
10
14.224400
20
210.204000
11
14.224400
21
210.204000
0
LINE
8
DEFAULT
10
14.224400
20
210.204000
11
14.224400
21
161.531000
0
LINE
8
DEFAULT
10
56.376900
20
185.868000
11
56.376900
21
185.868000
0
LINE
8
DEFAULT
10
56.376900
20
185.868000
11
14.224400
21
161.531000
0
LINE
8
DEFAULT
10
14.224400
20
161.531000
11
14.224400
21
161.531000
0
LINE
8
DEFAULT
10
14.224400
20
161.531000
11
56.376900
21
185.868000
0
LINE
8
DEFAULT
10
51.070200
20
195.059000
11
51.070200
21
195.059000
0
LINE
8
DEFAULT
10
51.070200
20
195.059000
11
56.376860
21
185.867590
0
LINE
8
DEFAULT
10
56.376900
20
185.868000
11
56.376900
21
185.868000
0
LINE
8
DEFAULT
10
56.376900
20
185.868000
11
51.070240
21
195.059410
0
LINE
8
DEFAULT
10
54.765300
20
197.192000
11
54.765300
21
197.192000
0
LINE
8
DEFAULT
10
54.765300
20
197.192000
11
51.070260
21
195.058680
0
LINE
8
DEFAULT
10
51.070200
20
195.059000
11
51.070200
21
195.059000
0
LINE
8
DEFAULT
10
51.070200
20
195.059000
11
54.765240
21
197.192320
0
LINE
8
DEFAULT
10
60.071900
20
188.001000
11
60.071900
21
188.001000
0
LINE
8
DEFAULT
10
60.071900
20
188.001000
11
54.765240
21
197.192410
0
LINE
8
DEFAULT
10
54.765300
20
197.192000
11
54.765300
21
197.192000
0
LINE
8
DEFAULT
10
54.765300
20
197.192000
11
60.071960
21
188.000590
0
LINE
8
DEFAULT
10
102.224000
20
212.338000
11
102.224000
21
212.338000
0
LINE
8
DEFAULT
10
102.224000
20
212.338000
11
60.071900
21
188.001000
0
LINE
8
DEFAULT
10
60.071900
20
188.001000
11
60.071900
21
188.001000
0
LINE
8
DEFAULT
10
60.071900
20
188.001000
11
102.224000
21
212.338000
0
LINE
8
DEFAULT
10
60.071900
20
236.674000
11
60.071900
21
236.674000
0
LINE
8
DEFAULT
10
60.071900
20
236.674000
11
102.224300
21
212.337300
0
LINE
8
DEFAULT
10
102.224000
20
212.338000
11
102.224000
21
212.338000
0
LINE
8
DEFAULT
10
102.224000
20
212.338000
11
60.071900
21
236.674000
0
LINE
8
DEFAULT
10
54.765300
20
227.483000
11
54.765300
21
227.483000
0
LINE
8
DEFAULT
10
54.765300
20
227.483000
11
60.071960
21
236.674410
0
LINE
8
DEFAULT
10
60.071900
20
236.674000
11
60.071900
21
236.674000
0
LINE
8
DEFAULT
10
60.071900
20
236.674000
11
54.765240
21
227.482590
0
LINE
8
DEFAULT
10
51.070200
20
229.616000
11
51.070200
21
229.616000
0
LINE
8
DEFAULT
10
51.070200
20
229.616000
11
54.765240
21
227.482660
0
LINE
8
DEFAULT
10
54.765300
20
227.483000
11
54.765300
21
227.483000
0
LINE
8
DEFAULT
10
54.765300
20
227.483000
11
51.070260
21
229.616340
0
LINE
8
DEFAULT
10
56.376900
20
238.808000
11
56.376900
21
238.808000
0
LINE
8
DEFAULT
10
56.376900
20
238.808000
11
51.070240
21
229.616590
0
LINE
8
DEFAULT
10
51.070200
20
229.616000
11
51.070200
21
229.616000
0
LINE
8
DEFAULT
10
51.070200
20
229.616000
11
56.376860
21
238.807410
0
LINE
8
DEFAULT
10
14.224400
20
263.144000
11
14.224400
21
263.144000
0
LINE
8
DEFAULT
10
14.224400
20
263.144000
11
56.376800
21
238.807300
0
LINE
8
DEFAULT
10
56.376900
20
238.808000
11
56.376900
21
238.808000
0
LINE
8
DEFAULT
10
56.376900
20
238.808000
11
14.224400
21
263.144000
0
LINE
8
DEFAULT
10
56.376900
20
238.808000
11
14.224400
21
263.144000
0
LINE
8
DEFAULT
10
14.224400
20
263.144000
11
14.224400
21
214.471000
0
LINE
8
DEFAULT
10
14.224400
20
214.471000
11
24.837800
21
214.471000
0
LINE
8
DEFAULT
10
24.837800
20
214.471000
11
24.837800
21
210.204000
0
LINE
8
DEFAULT
10
24.837800
20
210.204000
11
14.224400
21
210.204000
0
LINE
8
DEFAULT
10
14.224400
20
210.204000
11
14.224400
21
161.531000
0
LINE
8
DEFAULT
10
14.224400
20
161.531000
11
56.376900
21
185.868000
0
LINE
8
DEFAULT
10
56.376900
20
185.868000
11
51.070240
21
195.059410
0
LINE
8
DEFAULT
10
51.070200
20
195.059000
11
54.765240
21
197.192320
0
LINE
8
DEFAULT
10
54.765300
20
197.192000
11
60.071960
21
188.000590
0
LINE
8
DEFAULT
10
60.071900
20
188.001000
11
102.224000
21
212.338000
0
LINE
8
DEFAULT
10
102.224000
20
212.338000
11
60.071900
21
236.674000
0
LINE
8
DEFAULT
10
60.071900
20
236.674000
11
54.765240
21
227.482590
0
LINE
8
DEFAULT
10
54.765300
20
227.483000
11
51.070260
21
229.616340
0
LINE
8
DEFAULT
10
51.070200
20
229.616000
11
56.376860
21
238.807410
0
LINE
8
DEFAULT
10
24.837800
20
214.471000
11
14.224400
21
214.471000
0
LINE
8
DEFAULT
10
14.224400
20
214.471000
11
14.224400
21
263.144000
0
LINE
8
DEFAULT
10
14.224400
20
263.144000
11
56.376800
21
238.807300
0
LINE
8
DEFAULT
10
56.376900
20
238.808000
11
51.070240
21
229.616590
0
LINE
8
DEFAULT
10
51.070200
20
229.616000
11
54.765240
21
227.482660
0
LINE
8
DEFAULT
10
54.765300
20
227.483000
11
60.071960
21
236.674410
0
LINE
8
DEFAULT
10
60.071900
20
236.674000
11
102.224300
21
212.337300
0
LINE
8
DEFAULT
10
102.224000
20
212.338000
11
60.071900
21
188.001000
0
LINE
8
DEFAULT
10
60.071900
20
188.001000
11
54.765240
21
197.192410
0
LINE
8
DEFAULT
10
54.765300
20
197.192000
11
51.070260
21
195.058680
0
LINE
8
DEFAULT
10
51.070200
20
195.059000
11
56.376860
21
185.867590
0
LINE
8
DEFAULT
10
56.376900
20
185.868000
11
14.224400
21
161.531000
0
LINE
8
DEFAULT
10
14.224400
20
161.531000
11
14.224400
21
210.204000
0
LINE
8
DEFAULT
10
14.224400
20
210.204000
11
24.837800
21
210.204000
0
LINE
8
DEFAULT
10
24.837800
20
210.204000
11
24.837800
21
214.471000
0
LINE
8
DEFAULT
10
221.977000
20
446.300000
11
219.870340
21
449.948850
0
LINE
8
DEFAULT
10
219.870000
20
449.949000
11
219.870000
21
449.949000
0
LINE
8
DEFAULT
10
219.870000
20
449.949000
11
221.976660
21
446.300150
0
LINE
8
DEFAULT
10
221.977000
20
446.300000
11
221.977000
21
446.300000
0
LINE
8
DEFAULT
10
207.824000
20
438.129000
11
207.824000
21
438.129000
0
LINE
8
DEFAULT
10
207.824000
20
438.129000
11
221.976500
21
446.299920
0
LINE
8
DEFAULT
10
221.977000
20
446.300000
11
221.977000
21
446.300000
0
LINE
8
DEFAULT
10
221.977000
20
446.300000
11
207.824500
21
438.129080
0
LINE
8
DEFAULT
10
207.824000
20
454.471000
11
207.824000
21
454.471000
0
LINE
8
DEFAULT
10
207.824000
20
454.471000
11
207.824000
21
438.129000
0
LINE
8
DEFAULT
10
207.824000
20
438.129000
11
207.824000
21
438.129000
0
LINE
8
DEFAULT
10
207.824000
20
438.129000
11
207.824000
21
454.471000
0
LINE
8
DEFAULT
10
212.038000
20
454.471000
11
212.038000
21
454.471000
0
LINE
8
DEFAULT
10
212.038000
20
454.471000
11
207.824000
21
454.471000
0
LINE
8
DEFAULT
10
207.824000
20
454.471000
11
207.824000
21
454.471000
0
LINE
8
DEFAULT
10
207.824000
20
454.471000
11
212.038000
21
454.471000
0
LINE
8
DEFAULT
10
212.038000
20
458.737000
11
212.038000
21
458.737000
0
LINE
8
DEFAULT
10
212.038000
20
458.737000
11
212.038000
21
454.471000
0
LINE
8
DEFAULT
10
212.038000
20
454.471000
11
212.038000
21
454.471000
0
LINE
8
DEFAULT
10
212.038000
20
454.471000
11
212.038000
21
458.737000
0
LINE
8
DEFAULT
10
207.824000
20
458.737000
11
207.824000
21
458.737000
0
LINE
8
DEFAULT
10
207.824000
20
458.737000
11
212.038000
21
458.737000
0
LINE
8
DEFAULT
10
212.038000
20
458.737000
11
212.038000
21
458.737000
0
LINE
8
DEFAULT
10
212.038000
20
458.737000
11
207.824000
21
458.737000
0
LINE
8
DEFAULT
10
207.824000
20
475.079000
11
207.824000
21
475.079000
0
LINE
8
DEFAULT
10
207.824000
20
475.079000
11
207.824000
21
458.737000
0
LINE
8
DEFAULT
10
207.824000
20
458.737000
11
207.824000
21
458.737000
0
LINE
8
DEFAULT
10
207.824000
20
458.737000
11
207.824000
21
475.079000
0
LINE
8
DEFAULT
10
221.977000
20
466.908000
11
221.977000
21
466.908000
0
LINE
8
DEFAULT
10
221.977000
20
466.908000
11
207.824500
21
475.078920
0
LINE
8
DEFAULT
10
207.824000
20
475.079000
11
207.824000
21
475.079000
0
LINE
8
DEFAULT
10
207.824000
20
475.079000
11
221.976500
21
466.908080
0
LINE
8
DEFAULT
10
219.870000
20
463.259000
11
219.870000
21
463.259000
0
LINE
8
DEFAULT
10
219.870000
20
463.259000
11
221.976660
21
466.907850
0
LINE
8
DEFAULT
10
221.977000
20
466.908000
11
221.977000
21
466.908000
0
LINE
8
DEFAULT
10
221.977000
20
466.908000
11
219.870340
21
463.259150
0
LINE
8
DEFAULT
10
223.565000
20
461.126000
11
223.565000
21
461.126000
0
LINE
8
DEFAULT
10
223.565000
20
461.126000
11
219.869960
21
463.259340
0
LINE
8
DEFAULT
10
219.870000
20
463.259000
11
219.870000
21
463.259000
0
LINE
8
DEFAULT
10
219.870000
20
463.259000
11
223.565040
21
461.125660
0
LINE
8
DEFAULT
10
225.672000
20
464.775000
11
225.672000
21
464.775000
0
LINE
8
DEFAULT
10
225.672000
20
464.775000
11
223.565330
21
461.126150
0
LINE
8
DEFAULT
10
223.565000
20
461.126000
11
223.565000
21
461.126000
0
LINE
8
DEFAULT
10
223.565000
20
461.126000
11
225.671670
21
464.774850
0
LINE
8
DEFAULT
10
239.824000
20
456.604000
11
239.824000
21
456.604000
0
LINE
8
DEFAULT
10
239.824000
20
456.604000
11
225.672000
21
464.775000
0
LINE
8
DEFAULT
10
225.672000
20
464.775000
11
225.672000
21
464.775000
0
LINE
8
DEFAULT
10
225.672000
20
464.775000
11
239.824500
21
456.604080
0
LINE
8
DEFAULT
10
225.672000
20
448.433000
11
225.672000
21
448.433000
0
LINE
8
DEFAULT
10
225.672000
20
448.433000
11
239.824500
21
456.603920
0
LINE
8
DEFAULT
10
239.824000
20
456.604000
11
239.824000
21
456.604000
0
LINE
8
DEFAULT
10
239.824000
20
456.604000
11
225.671500
21
448.433080
0
LINE
8
DEFAULT
10
223.565000
20
452.082000
11
223.565000
21
452.082000
0
LINE
8
DEFAULT
10
223.565000
20
452.082000
11
225.671670
21
448.433150
0
LINE
8
DEFAULT
10
225.672000
20
448.433000
11
225.672000
21
448.433000
0
LINE
8
DEFAULT
10
225.672000
20
448.433000
11
223.565330
21
452.081850
0
LINE
8
DEFAULT
10
219.870000
20
449.949000
11
219.870000
21
449.949000
0
LINE
8
DEFAULT
10
219.870000
20
449.949000
11
223.565040
21
452.082340
0
LINE
8
DEFAULT
10
223.565000
20
452.082000
11
223.565000
21
452.082000
0
LINE
8
DEFAULT
10
223.565000
20
452.082000
11
219.869960
21
449.948660
0
LINE
8
DEFAULT
10
223.565000
20
452.082000
11
219.869960
21
449.948660
0
LINE
8
DEFAULT
10
219.870000
20
449.949000
11
221.976660
21
446.300150
0
LINE
8
DEFAULT
10
221.977000
20
446.300000
11
207.824500
21
438.129080
0
LINE
8
DEFAULT
10
207.824000
20
438.129000
11
207.824000
21
454.471000
0
LINE
8
DEFAULT
10
207.824000
20
454.471000
11
212.038000
21
454.471000
0
LINE
8
DEFAULT
10
212.038000
20
454.471000
11
212.038000
21
458.737000
0
LINE
8
DEFAULT
10
212.038000
20
458.737000
11
207.824000
21
458.737000
0
LINE
8
DEFAULT
10
207.824000
20
458.737000
11
207.824000
21
475.079000
0
LINE
8
DEFAULT
10
207.824000
20
475.079000
11
221.976500
21
466.908080
0
LINE
8
DEFAULT
10
221.977000
20
466.908000
11
219.870340
21
463.259150
0
LINE
8
DEFAULT
10
219.870000
20
463.259000
11
223.565040
21
461.125660
0
LINE
8
DEFAULT
10
223.565000
20
461.126000
11
225.671670
21
464.774850
0
LINE
8
DEFAULT
10
225.672000
20
464.775000
11
239.824500
21
456.604080
0
LINE
8
DEFAULT
10
239.824000
20
456.604000
11
225.671500
21
448.433080
0
LINE
8
DEFAULT
10
225.672000
20
448.433000
11
223.565330
21
452.081850
0
LINE
8
DEFAULT
10
207.824000
20
438.129000
11
221.976500
21
446.299920
0
LINE
8
DEFAULT
10
221.977000
20
446.300000
11
219.870340
21
449.948850
0
LINE
8
DEFAULT
10
219.870000
20
449.949000
11
223.565040
21
452.082340
0
LINE
8
DEFAULT
10
223.565000
20
452.082000
11
225.671670
21
448.433150
0
LINE
8
DEFAULT
10
225.672000
20
448.433000
11
239.824500
21
456.603920
0
LINE
8
DEFAULT
10
239.824000
20
456.604000
11
225.672000
21
464.775000
0
LINE
8
DEFAULT
10
225.672000
20
464.775000
11
223.565330
21
461.126150
0
LINE
8
DEFAULT
10
223.565000
20
461.126000
11
219.869960
21
463.259340
0
LINE
8
DEFAULT
10
219.870000
20
463.259000
11
221.976660
21
466.907850
0
LINE
8
DEFAULT
10
221.977000
20
466.908000
11
207.824500
21
475.078920
0
LINE
8
DEFAULT
10
207.824000
20
475.079000
11
207.824000
21
458.737000
0
LINE
8
DEFAULT
10
207.824000
20
458.737000
11
212.038000
21
458.737000
0
LINE
8
DEFAULT
10
212.038000
20
458.737000
11
212.038000
21
454.471000
0
LINE
8
DEFAULT
10
212.038000
20
454.471000
11
207.824000
21
454.471000
0
LINE
8
DEFAULT
10
207.824000
20
454.471000
11
207.824000
21
438.129000
0
LINE
8
DEFAULT
10
178.243000
20
446.300000
11
176.136340
21
449.948850
0
LINE
8
DEFAULT
10
176.137000
20
449.949000
11
176.137000
21
449.949000
0
LINE
8
DEFAULT
10
176.137000
20
449.949000
11
178.243660
21
446.300150
0
LINE
8
DEFAULT
10
178.243000
20
446.300000
11
178.243000
21
446.300000
0
LINE
8
DEFAULT
10
164.091000
20
438.129000
11
164.091000
21
438.129000
0
LINE
8
DEFAULT
10
164.091000
20
438.129000
11
178.243500
21
446.299920
0
LINE
8
DEFAULT
10
178.243000
20
446.300000
11
178.243000
21
446.300000
0
LINE
8
DEFAULT
10
178.243000
20
446.300000
11
164.090500
21
438.129080
0
LINE
8
DEFAULT
10
164.091000
20
454.471000
11
164.091000
21
454.471000
0
LINE
8
DEFAULT
10
164.091000
20
454.471000
11
164.091000
21
438.129000
0
LINE
8
DEFAULT
10
164.091000
20
438.129000
11
164.091000
21
438.129000
0
LINE
8
DEFAULT
10
164.091000
20
438.129000
11
164.091000
21
454.471000
0
LINE
8
DEFAULT
10
168.304000
20
454.471000
11
168.304000
21
454.471000
0
LINE
8
DEFAULT
10
168.304000
20
454.471000
11
164.091000
21
454.471000
0
LINE
8
DEFAULT
10
164.091000
20
454.471000
11
164.091000
21
454.471000
0
LINE
8
DEFAULT
10
164.091000
20
454.471000
11
168.304000
21
454.471000
0
LINE
8
DEFAULT
10
168.304000
20
458.737000
11
168.304000
21
458.737000
0
LINE
8
DEFAULT
10
168.304000
20
458.737000
11
168.304000
21
454.471000
0
LINE
8
DEFAULT
10
168.304000
20
454.471000
11
168.304000
21
454.471000
0
LINE
8
DEFAULT
10
168.304000
20
454.471000
11
168.304000
21
458.737000
0
LINE
8
DEFAULT
10
164.091000
20
458.737000
11
164.091000
21
458.737000
0
LINE
8
DEFAULT
10
164.091000
20
458.737000
11
168.304000
21
458.737000
0
LINE
8
DEFAULT
10
168.304000
20
458.737000
11
168.304000
21
458.737000
0
LINE
8
DEFAULT
10
168.304000
20
458.737000
11
164.091000
21
458.737000
0
LINE
8
DEFAULT
10
164.091000
20
475.079000
11
164.091000
21
475.079000
0
LINE
8
DEFAULT
10
164.091000
20
475.079000
11
164.091000
21
458.737000
0
LINE
8
DEFAULT
10
164.091000
20
458.737000
11
164.091000
21
458.737000
0
LINE
8
DEFAULT
10
164.091000
20
458.737000
11
164.091000
21
475.079000
0
LINE
8
DEFAULT
10
178.243000
20
466.908000
11
178.243000
21
466.908000
0
LINE
8
DEFAULT
10
178.243000
20
466.908000
11
164.090500
21
475.078920
0
LINE
8
DEFAULT
10
164.091000
20
475.079000
11
164.091000
21
475.079000
0
LINE
8
DEFAULT
10
164.091000
20
475.079000
11
178.243500
21
466.908080
0
LINE
8
DEFAULT
10
176.137000
20
463.259000
11
176.137000
21
463.259000
0
LINE
8
DEFAULT
10
176.137000
20
463.259000
11
178.243660
21
466.907850
0
LINE
8
DEFAULT
10
178.243000
20
466.908000
11
178.243000
21
466.908000
0
LINE
8
DEFAULT
10
178.243000
20
466.908000
11
176.136340
21
463.259150
0
LINE
8
DEFAULT
10
179.832000
20
461.126000
11
179.832000
21
461.126000
0
LINE
8
DEFAULT
10
179.832000
20
461.126000
11
176.136960
21
463.259340
0
LINE
8
DEFAULT
10
176.137000
20
463.259000
11
176.137000
21
463.259000
0
LINE
8
DEFAULT
10
176.137000
20
463.259000
11
179.832040
21
461.125660
0
LINE
8
DEFAULT
10
181.938000
20
464.775000
11
181.938000
21
464.775000
0
LINE
8
DEFAULT
10
181.938000
20
464.775000
11
179.831330
21
461.126150
0
LINE
8
DEFAULT
10
179.832000
20
461.126000
11
179.832000
21
461.126000
0
LINE
8
DEFAULT
10
179.832000
20
461.126000
11
181.938670
21
464.774850
0
LINE
8
DEFAULT
10
196.091000
20
456.604000
11
196.091000
21
456.604000
0
LINE
8
DEFAULT
10
196.091000
20
456.604000
11
181.938000
21
464.775000
0
LINE
8
DEFAULT
10
181.938000
20
464.775000
11
181.938000
21
464.775000
0
LINE
8
DEFAULT
10
181.938000
20
464.775000
11
196.090500
21
456.604080
0
LINE
8
DEFAULT
10
181.938000
20
448.433000
11
181.938000
21
448.433000
0
LINE
8
DEFAULT
10
181.938000
20
448.433000
11
196.090500
21
456.603920
0
LINE
8
DEFAULT
10
196.091000
20
456.604000
11
196.091000
21
456.604000
0
LINE
8
DEFAULT
10
196.091000
20
456.604000
11
181.938500
21
448.433080
0
LINE
8
DEFAULT
10
179.832000
20
452.082000
11
179.832000
21
452.082000
0
LINE
8
DEFAULT
10
179.832000
20
452.082000
11
181.938670
21
448.433150
0
LINE
8
DEFAULT
10
181.938000
20
448.433000
11
181.938000
21
448.433000
0
LINE
8
DEFAULT
10
181.938000
20
448.433000
11
179.831330
21
452.081850
0
LINE
8
DEFAULT
10
176.137000
20
449.949000
11
176.137000
21
449.949000
0
LINE
8
DEFAULT
10
176.137000
20
449.949000
11
179.832040
21
452.082340
0
LINE
8
DEFAULT
10
179.832000
20
452.082000
11
179.832000
21
452.082000
0
LINE
8
DEFAULT
10
179.832000
20
452.082000
11
176.136960
21
449.948660
0
LINE
8
DEFAULT
10
179.832000
20
452.082000
11
176.136960
21
449.948660
0
LINE
8
DEFAULT
10
176.137000
20
449.949000
11
178.243660
21
446.300150
0
LINE
8
DEFAULT
10
178.243000
20
446.300000
11
164.090500
21
438.129080
0
LINE
8
DEFAULT
10
164.091000
20
438.129000
11
164.091000
21
454.471000
0
LINE
8
DEFAULT
10
164.091000
20
454.471000
11
168.304000
21
454.471000
0
LINE
8
DEFAULT
10
168.304000
20
454.471000
11
168.304000
21
458.737000
0
LINE
8
DEFAULT
10
168.304000
20
458.737000
11
164.091000
21
458.737000
0
LINE
8
DEFAULT
10
164.091000
20
458.737000
11
164.091000
21
475.079000
0
LINE
8
DEFAULT
10
164.091000
20
475.079000
11
178.243500
21
466.908080
0
LINE
8
DEFAULT
10
178.243000
20
466.908000
11
176.136340
21
463.259150
0
LINE
8
DEFAULT
10
176.137000
20
463.259000
11
179.832040
21
461.125660
0
LINE
8
DEFAULT
10
179.832000
20
461.126000
11
181.938670
21
464.774850
0
LINE
8
DEFAULT
10
181.938000
20
464.775000
11
196.090500
21
456.604080
0
LINE
8
DEFAULT
10
196.091000
20
456.604000
11
181.938500
21
448.433080
0
LINE
8
DEFAULT
10
181.938000
20
448.433000
11
179.831330
21
452.081850
0
LINE
8
DEFAULT
10
164.091000
20
438.129000
11
178.243500
21
446.299920
0
LINE
8
DEFAULT
10
178.243000
20
446.300000
11
176.136340
21
449.948850
0
LINE
8
DEFAULT
10
176.137000
20
449.949000
11
179.832040
21
452.082340
0
LINE
8
DEFAULT
10
179.832000
20
452.082000
11
181.938670
21
448.433150
0
LINE
8
DEFAULT
10
181.938000
20
448.433000
11
196.090500
21
456.603920
0
LINE
8
DEFAULT
10
196.091000
20
456.604000
11
181.938000
21
464.775000
0
LINE
8
DEFAULT
10
181.938000
20
464.775000
11
179.831330
21
461.126150
0
LINE
8
DEFAULT
10
179.832000
20
461.126000
11
176.136960
21
463.259340
0
LINE
8
DEFAULT
10
176.137000
20
463.259000
11
178.243660
21
466.907850
0
LINE
8
DEFAULT
10
178.243000
20
466.908000
11
164.090500
21
475.078920
0
LINE
8
DEFAULT
10
164.091000
20
475.079000
11
164.091000
21
458.737000
0
LINE
8
DEFAULT
10
164.091000
20
458.737000
11
168.304000
21
458.737000
0
LINE
8
DEFAULT
10
168.304000
20
458.737000
11
168.304000
21
454.471000
0
LINE
8
DEFAULT
10
168.304000
20
454.471000
11
164.091000
21
454.471000
0
LINE
8
DEFAULT
10
164.091000
20
454.471000
11
164.091000
21
438.129000
0
LINE
8
DEFAULT
10
134.510000
20
446.300000
11
132.403340
21
449.948850
0
LINE
8
DEFAULT
10
132.403000
20
449.949000
11
132.403000
21
449.949000
0
LINE
8
DEFAULT
10
132.403000
20
449.949000
11
134.509660
21
446.300150
0
LINE
8
DEFAULT
10
134.510000
20
446.300000
11
134.510000
21
446.300000
0
LINE
8
DEFAULT
10
120.358000
20
438.129000
11
120.358000
21
438.129000
0
LINE
8
DEFAULT
10
120.358000
20
438.129000
11
134.510500
21
446.299920
0
LINE
8
DEFAULT
10
134.510000
20
446.300000
11
134.510000
21
446.300000
0
LINE
8
DEFAULT
10
134.510000
20
446.300000
11
120.357500
21
438.129080
0
LINE
8
DEFAULT
10
120.358000
20
454.471000
11
120.358000
21
454.471000
0
LINE
8
DEFAULT
10
120.358000
20
454.471000
11
120.358000
21
438.129000
0
LINE
8
DEFAULT
10
120.358000
20
438.129000
11
120.358000
21
438.129000
0
LINE
8
DEFAULT
10
120.358000
20
438.129000
11
120.358000
21
454.471000
0
LINE
8
DEFAULT
10
124.571000
20
454.471000
11
124.571000
21
454.471000
0
LINE
8
DEFAULT
10
124.571000
20
454.471000
11
120.358000
21
454.471000
0
LINE
8
DEFAULT
10
120.358000
20
454.471000
11
120.358000
21
454.471000
0
LINE
8
DEFAULT
10
120.358000
20
454.471000
11
124.571000
21
454.471000
0
LINE
8
DEFAULT
10
124.571000
20
458.737000
11
124.571000
21
458.737000
0
LINE
8
DEFAULT
10
124.571000
20
458.737000
11
124.571000
21
454.471000
0
LINE
8
DEFAULT
10
124.571000
20
454.471000
11
124.571000
21
454.471000
0
LINE
8
DEFAULT
10
124.571000
20
454.471000
11
124.571000
21
458.737000
0
LINE
8
DEFAULT
10
120.358000
20
458.737000
11
120.358000
21
458.737000
0
LINE
8
DEFAULT
10
120.358000
20
458.737000
11
124.571000
21
458.737000
0
LINE
8
DEFAULT
10
124.571000
20
458.737000
11
124.571000
21
458.737000
0
LINE
8
DEFAULT
10
124.571000
20
458.737000
11
120.358000
21
458.737000
0
LINE
8
DEFAULT
10
120.358000
20
475.079000
11
120.358000
21
475.079000
0
LINE
8
DEFAULT
10
120.358000
20
475.079000
11
120.358000
21
458.737000
0
LINE
8
DEFAULT
10
120.358000
20
458.737000
11
120.358000
21
458.737000
0
LINE
8
DEFAULT
10
120.358000
20
458.737000
11
120.358000
21
475.079000
0
LINE
8
DEFAULT
10
134.510000
20
466.908000
11
134.510000
21
466.908000
0
LINE
8
DEFAULT
10
134.510000
20
466.908000
11
120.357500
21
475.078920
0
LINE
8
DEFAULT
10
120.358000
20
475.079000
11
120.358000
21
475.079000
0
LINE
8
DEFAULT
10
120.358000
20
475.079000
11
134.510500
21
466.908080
0
LINE
8
DEFAULT
10
132.403000
20
463.259000
11
132.403000
21
463.259000
0
LINE
8
DEFAULT
10
132.403000
20
463.259000
11
134.509660
21
466.907850
0
LINE
8
DEFAULT
10
134.510000
20
466.908000
11
134.510000
21
466.908000
0
LINE
8
DEFAULT
10
134.510000
20
466.908000
11
132.403340
21
463.259150
0
LINE
8
DEFAULT
10
136.099000
20
461.126000
11
136.099000
21
461.126000
0
LINE
8
DEFAULT
10
136.099000
20
461.126000
11
132.403960
21
463.259340
0
LINE
8
DEFAULT
10
132.403000
20
463.259000
11
132.403000
21
463.259000
0
LINE
8
DEFAULT
10
132.403000
20
463.259000
11
136.098040
21
461.125660
0
LINE
8
DEFAULT
10
138.205000
20
464.775000
11
138.205000
21
464.775000
0
LINE
8
DEFAULT
10
138.205000
20
464.775000
11
136.098330
21
461.126150
0
LINE
8
DEFAULT
10
136.099000
20
461.126000
11
136.099000
21
461.126000
0
LINE
8
DEFAULT
10
136.099000
20
461.126000
11
138.205670
21
464.774850
0
LINE
8
DEFAULT
10
152.358000
20
456.604000
11
152.358000
21
456.604000
0
LINE
8
DEFAULT
10
152.358000
20
456.604000
11
138.205000
21
464.775000
0
LINE
8
DEFAULT
10
138.205000
20
464.775000
11
138.205000
21
464.775000
0
LINE
8
DEFAULT
10
138.205000
20
464.775000
11
152.357500
21
456.604080
0
LINE
8
DEFAULT
10
138.205000
20
448.433000
11
138.205000
21
448.433000
0
LINE
8
DEFAULT
10
138.205000
20
448.433000
11
152.357500
21
456.603920
0
LINE
8
DEFAULT
10
152.358000
20
456.604000
11
152.358000
21
456.604000
0
LINE
8
DEFAULT
10
152.358000
20
456.604000
11
138.205500
21
448.433080
0
LINE
8
DEFAULT
10
136.099000
20
452.082000
11
136.099000
21
452.082000
0
LINE
8
DEFAULT
10
136.099000
20
452.082000
11
138.205670
21
448.433150
0
LINE
8
DEFAULT
10
138.205000
20
448.433000
11
138.205000
21
448.433000
0
LINE
8
DEFAULT
10
138.205000
20
448.433000
11
136.098330
21
452.081850
0
LINE
8
DEFAULT
10
132.403000
20
449.949000
11
132.403000
21
449.949000
0
LINE
8
DEFAULT
10
132.403000
20
449.949000
11
136.098040
21
452.082340
0
LINE
8
DEFAULT
10
136.099000
20
452.082000
11
136.099000
21
452.082000
0
LINE
8
DEFAULT
10
136.099000
20
452.082000
11
132.403960
21
449.948660
0
LINE
8
DEFAULT
10
136.099000
20
452.082000
11
132.403960
21
449.948660
0
LINE
8
DEFAULT
10
132.403000
20
449.949000
11
134.509660
21
446.300150
0
LINE
8
DEFAULT
10
134.510000
20
446.300000
11
120.357500
21
438.129080
0
LINE
8
DEFAULT
10
120.358000
20
438.129000
11
120.358000
21
454.471000
0
LINE
8
DEFAULT
10
120.358000
20
454.471000
11
124.571000
21
454.471000
0
LINE
8
DEFAULT
10
124.571000
20
454.471000
11
124.571000
21
458.737000
0
LINE
8
DEFAULT
10
124.571000
20
458.737000
11
120.358000
21
458.737000
0
LINE
8
DEFAULT
10
120.358000
20
458.737000
11
120.358000
21
475.079000
0
LINE
8
DEFAULT
10
120.358000
20
475.079000
11
134.510500
21
466.908080
0
LINE
8
DEFAULT
10
134.510000
20
466.908000
11
132.403340
21
463.259150
0
LINE
8
DEFAULT
10
132.403000
20
463.259000
11
136.098040
21
461.125660
0
LINE
8
DEFAULT
10
136.099000
20
461.126000
11
138.205670
21
464.774850
0
LINE
8
DEFAULT
10
138.205000
20
464.775000
11
152.357500
21
456.604080
0
LINE
8
DEFAULT
10
152.358000
20
456.604000
11
138.205500
21
448.433080
0
LINE
8
DEFAULT
10
138.205000
20
448.433000
11
136.098330
21
452.081850
0
LINE
8
DEFAULT
10
120.358000
20
438.129000
11
134.510500
21
446.299920
0
LINE
8
DEFAULT
10
134.510000
20
446.300000
11
132.403340
21
449.948850
0
LINE
8
DEFAULT
10
132.403000
20
449.949000
11
136.098040
21
452.082340
0
LINE
8
DEFAULT
10
136.099000
20
452.082000
11
138.205670
21
448.433150
0
LINE
8
DEFAULT
10
138.205000
20
448.433000
11
152.357500
21
456.603920
0
LINE
8
DEFAULT
10
152.358000
20
456.604000
11
138.205000
21
464.775000
0
LINE
8
DEFAULT
10
138.205000
20
464.775000
11
136.098330
21
461.126150
0
LINE
8
DEFAULT
10
136.099000
20
461.126000
11
132.403960
21
463.259340
0
LINE
8
DEFAULT
10
132.403000
20
463.259000
11
134.509660
21
466.907850
0
LINE
8
DEFAULT
10
134.510000
20
466.908000
11
120.357500
21
475.078920
0
LINE
8
DEFAULT
10
120.358000
20
475.079000
11
120.358000
21
458.737000
0
LINE
8
DEFAULT
10
120.358000
20
458.737000
11
124.571000
21
458.737000
0
LINE
8
DEFAULT
10
124.571000
20
458.737000
11
124.571000
21
454.471000
0
LINE
8
DEFAULT
10
124.571000
20
454.471000
11
120.358000
21
454.471000
0
LINE
8
DEFAULT
10
120.358000
20
454.471000
11
120.358000
21
438.129000
0
LINE
8
DEFAULT
10
90.776900
20
446.300000
11
88.670240
21
449.948850
0
LINE
8
DEFAULT
10
88.670200
20
449.949000
11
88.670200
21
449.949000
0
LINE
8
DEFAULT
10
88.670200
20
449.949000
11
90.776860
21
446.300150
0
LINE
8
DEFAULT
10
90.776900
20
446.300000
11
90.776900
21
446.300000
0
LINE
8
DEFAULT
10
76.624400
20
438.129000
11
76.624400
21
438.129000
0
LINE
8
DEFAULT
10
76.624400
20
438.129000
11
90.776900
21
446.299920
0
LINE
8
DEFAULT
10
90.776900
20
446.300000
11
90.776900
21
446.300000
0
LINE
8
DEFAULT
10
90.776900
20
446.300000
11
76.624400
21
438.129080
0
LINE
8
DEFAULT
10
76.624400
20
454.471000
11
76.624400
21
454.471000
0
LINE
8
DEFAULT
10
76.624400
20
454.471000
11
76.624400
21
438.129000
0
LINE
8
DEFAULT
10
76.624400
20
438.129000
11
76.624400
21
438.129000
0
LINE
8
DEFAULT
10
76.624400
20
438.129000
11
76.624400
21
454.471000
0
LINE
8
DEFAULT
10
80.837700
20
454.471000
11
80.837700
21
454.471000
0
LINE
8
DEFAULT
10
80.837700
20
454.471000
11
76.624400
21
454.471000
0
LINE
8
DEFAULT
10
76.624400
20
454.471000
11
76.624400
21
454.471000
0
LINE
8
DEFAULT
10
76.624400
20
454.471000
11
80.837700
21
454.471000
0
LINE
8
DEFAULT
10
80.837700
20
458.737000
11
80.837700
21
458.737000
0
LINE
8
DEFAULT
10
80.837700
20
458.737000
11
80.837700
21
454.471000
0
LINE
8
DEFAULT
10
80.837700
20
454.471000
11
80.837700
21
454.471000
0
LINE
8
DEFAULT
10
80.837700
20
454.471000
11
80.837700
21
458.737000
0
LINE
8
DEFAULT
10
76.624400
20
458.737000
11
76.624400
21
458.737000
0
LINE
8
DEFAULT
10
76.624400
20
458.737000
11
80.837700
21
458.737000
0
LINE
8
DEFAULT
10
80.837700
20
458.737000
11
80.837700
21
458.737000
0
LINE
8
DEFAULT
10
80.837700
20
458.737000
11
76.624400
21
458.737000
0
LINE
8
DEFAULT
10
76.624400
20
475.079000
11
76.624400
21
475.079000
0
LINE
8
DEFAULT
10
76.624400
20
475.079000
11
76.624400
21
458.737000
0
LINE
8
DEFAULT
10
76.624400
20
458.737000
11
76.624400
21
458.737000
0
LINE
8
DEFAULT
10
76.624400
20
458.737000
11
76.624400
21
475.079000
0
LINE
8
DEFAULT
10
90.776900
20
466.908000
11
90.776900
21
466.908000
0
LINE
8
DEFAULT
10
90.776900
20
466.908000
11
76.624400
21
475.078920
0
LINE
8
DEFAULT
10
76.624400
20
475.079000
11
76.624400
21
475.079000
0
LINE
8
DEFAULT
10
76.624400
20
475.079000
11
90.776900
21
466.908080
0
LINE
8
DEFAULT
10
88.670200
20
463.259000
11
88.670200
21
463.259000
0
LINE
8
DEFAULT
10
88.670200
20
463.259000
11
90.776860
21
466.907850
0
LINE
8
DEFAULT
10
90.776900
20
466.908000
11
90.776900
21
466.908000
0
LINE
8
DEFAULT
10
90.776900
20
466.908000
11
88.670240
21
463.259150
0
LINE
8
DEFAULT
10
92.365200
20
461.126000
11
92.365200
21
461.126000
0
LINE
8
DEFAULT
10
92.365200
20
461.126000
11
88.670160
21
463.259340
0
LINE
8
DEFAULT
10
88.670200
20
463.259000
11
88.670200
21
463.259000
0
LINE
8
DEFAULT
10
88.670200
20
463.259000
11
92.365240
21
461.125660
0
LINE
8
DEFAULT
10
94.471900
20
464.775000
11
94.471900
21
464.775000
0
LINE
8
DEFAULT
10
94.471900
20
464.775000
11
92.365230
21
461.126150
0
LINE
8
DEFAULT
10
92.365200
20
461.126000
11
92.365200
21
461.126000
0
LINE
8
DEFAULT
10
92.365200
20
461.126000
11
94.471870
21
464.774850
0
LINE
8
DEFAULT
10
108.624000
20
456.604000
11
108.624000
21
456.604000
0
LINE
8
DEFAULT
10
108.624000
20
456.604000
11
94.471900
21
464.775000
0
LINE
8
DEFAULT
10
94.471900
20
464.775000
11
94.471900
21
464.775000
0
LINE
8
DEFAULT
10
94.471900
20
464.775000
11
108.624400
21
456.604080
0
LINE
8
DEFAULT
10
94.471900
20
448.433000
11
94.471900
21
448.433000
0
LINE
8
DEFAULT
10
94.471900
20
448.433000
11
108.624400
21
456.603920
0
LINE
8
DEFAULT
10
108.624000
20
456.604000
11
108.624000
21
456.604000
0
LINE
8
DEFAULT
10
108.624000
20
456.604000
11
94.471500
21
448.433080
0
LINE
8
DEFAULT
10
92.365200
20
452.082000
11
92.365200
21
452.082000
0
LINE
8
DEFAULT
10
92.365200
20
452.082000
11
94.471870
21
448.433150
0
LINE
8
DEFAULT
10
94.471900
20
448.433000
11
94.471900
21
448.433000
0
LINE
8
DEFAULT
10
94.471900
20
448.433000
11
92.365230
21
452.081850
0
LINE
8
DEFAULT
10
88.670200
20
449.949000
11
88.670200
21
449.949000
0
LINE
8
DEFAULT
10
88.670200
20
449.949000
11
92.365240
21
452.082340
0
LINE
8
DEFAULT
10
92.365200
20
452.082000
11
92.365200
21
452.082000
0
LINE
8
DEFAULT
10
92.365200
20
452.082000
11
88.670160
21
449.948660
0
LINE
8
DEFAULT
10
92.365200
20
452.082000
11
88.670160
21
449.948660
0
LINE
8
DEFAULT
10
88.670200
20
449.949000
11
90.776860
21
446.300150
0
LINE
8
DEFAULT
10
90.776900
20
446.300000
11
76.624400
21
438.129080
0
LINE
8
DEFAULT
10
76.624400
20
438.129000
11
76.624400
21
454.471000
0
LINE
8
DEFAULT
10
76.624400
20
454.471000
11
80.837700
21
454.471000
0
LINE
8
DEFAULT
10
80.837700
20
454.471000
11
80.837700
21
458.737000
0
LINE
8
DEFAULT
10
80.837700
20
458.737000
11
76.624400
21
458.737000
0
LINE
8
DEFAULT
10
76.624400
20
458.737000
11
76.624400
21
475.079000
0
LINE
8
DEFAULT
10
76.624400
20
475.079000
11
90.776900
21
466.908080
0
LINE
8
DEFAULT
10
90.776900
20
466.908000
11
88.670240
21
463.259150
0
LINE
8
DEFAULT
10
88.670200
20
463.259000
11
92.365240
21
461.125660
0
LINE
8
DEFAULT
10
92.365200
20
461.126000
11
94.471870
21
464.774850
0
LINE
8
DEFAULT
10
94.471900
20
464.775000
11
108.624400
21
456.604080
0
LINE
8
DEFAULT
10
108.624000
20
456.604000
11
94.471500
21
448.433080
0
LINE
8
DEFAULT
10
94.471900
20
448.433000
11
92.365230
21
452.081850
0
LINE
8
DEFAULT
10
76.624400
20
438.129000
11
90.776900
21
446.299920
0
LINE
8
DEFAULT
10
90.776900
20
446.300000
11
88.670240
21
449.948850
0
LINE
8
DEFAULT
10
88.670200
20
449.949000
11
92.365240
21
452.082340
0
LINE
8
DEFAULT
10
92.365200
20
452.082000
11
94.471870
21
448.433150
0
LINE
8
DEFAULT
10
94.471900
20
448.433000
11
108.624400
21
456.603920
0
LINE
8
DEFAULT
10
108.624000
20
456.604000
11
94.471900
21
464.775000
0
LINE
8
DEFAULT
10
94.471900
20
464.775000
11
92.365230
21
461.126150
0
LINE
8
DEFAULT
10
92.365200
20
461.126000
11
88.670160
21
463.259340
0
LINE
8
DEFAULT
10
88.670200
20
463.259000
11
90.776860
21
466.907850
0
LINE
8
DEFAULT
10
90.776900
20
466.908000
11
76.624400
21
475.078920
0
LINE
8
DEFAULT
10
76.624400
20
475.079000
11
76.624400
21
458.737000
0
LINE
8
DEFAULT
10
76.624400
20
458.737000
11
80.837700
21
458.737000
0
LINE
8
DEFAULT
10
80.837700
20
458.737000
11
80.837700
21
454.471000
0
LINE
8
DEFAULT
10
80.837700
20
454.471000
11
76.624400
21
454.471000
0
LINE
8
DEFAULT
10
76.624400
20
454.471000
11
76.624400
21
438.129000
0
LINE
8
DEFAULT
10
47.043600
20
446.300000
11
44.936930
21
449.948850
0
LINE
8
DEFAULT
10
44.936900
20
449.949000
11
44.936900
21
449.949000
0
LINE
8
DEFAULT
10
44.936900
20
449.949000
11
47.043570
21
446.300150
0
LINE
8
DEFAULT
10
47.043600
20
446.300000
11
47.043600
21
446.300000
0
LINE
8
DEFAULT
10
32.891100
20
438.129000
11
32.891100
21
438.129000
0
LINE
8
DEFAULT
10
32.891100
20
438.129000
11
47.043600
21
446.299920
0
LINE
8
DEFAULT
10
47.043600
20
446.300000
11
47.043600
21
446.300000
0
LINE
8
DEFAULT
10
47.043600
20
446.300000
11
32.891100
21
438.129080
0
LINE
8
DEFAULT
10
32.891100
20
454.471000
11
32.891100
21
454.471000
0
LINE
8
DEFAULT
10
32.891100
20
454.471000
11
32.891100
21
438.129000
0
LINE
8
DEFAULT
10
32.891100
20
438.129000
11
32.891100
21
438.129000
0
LINE
8
DEFAULT
10
32.891100
20
438.129000
11
32.891100
21
454.471000
0
LINE
8
DEFAULT
10
37.104400
20
454.471000
11
37.104400
21
454.471000
0
LINE
8
DEFAULT
10
37.104400
20
454.471000
11
32.891100
21
454.471000
0
LINE
8
DEFAULT
10
32.891100
20
454.471000
11
32.891100
21
454.471000
0
LINE
8
DEFAULT
10
32.891100
20
454.471000
11
37.104400
21
454.471000
0
LINE
8
DEFAULT
10
37.104400
20
458.737000
11
37.104400
21
458.737000
0
LINE
8
DEFAULT
10
37.104400
20
458.737000
11
37.104400
21
454.471000
0
LINE
8
DEFAULT
10
37.104400
20
454.471000
11
37.104400
21
454.471000
0
LINE
8
DEFAULT
10
37.104400
20
454.471000
11
37.104400
21
458.737000
0
LINE
8
DEFAULT
10
32.891100
20
458.737000
11
32.891100
21
458.737000
0
LINE
8
DEFAULT
10
32.891100
20
458.737000
11
37.104400
21
458.737000
0
LINE
8
DEFAULT
10
37.104400
20
458.737000
11
37.104400
21
458.737000
0
LINE
8
DEFAULT
10
37.104400
20
458.737000
11
32.891100
21
458.737000
0
LINE
8
DEFAULT
10
32.891100
20
475.079000
11
32.891100
21
475.079000
0
LINE
8
DEFAULT
10
32.891100
20
475.079000
11
32.891100
21
458.737000
0
LINE
8
DEFAULT
10
32.891100
20
458.737000
11
32.891100
21
458.737000
0
LINE
8
DEFAULT
10
32.891100
20
458.737000
11
32.891100
21
475.079000
0
LINE
8
DEFAULT
10
47.043600
20
466.908000
11
47.043600
21
466.908000
0
LINE
8
DEFAULT
10
47.043600
20
466.908000
11
32.891100
21
475.079000
0
LINE
8
DEFAULT
10
32.891100
20
475.079000
11
32.891100
21
475.079000
0
LINE
8
DEFAULT
10
32.891100
20
475.079000
11
47.043600
21
466.908080
0
LINE
8
DEFAULT
10
44.936900
20
463.259000
11
44.936900
21
463.259000
0
LINE
8
DEFAULT
10
44.936900
20
463.259000
11
47.043570
21
466.907850
0
LINE
8
DEFAULT
10
47.043600
20
466.908000
11
47.043600
21
466.908000
0
LINE
8
DEFAULT
10
47.043600
20
466.908000
11
44.936930
21
463.259150
0
LINE
8
DEFAULT
10
48.631900
20
461.126000
11
48.631900
21
461.126000
0
LINE
8
DEFAULT
10
48.631900
20
461.126000
11
44.936860
21
463.259340
0
LINE
8
DEFAULT
10
44.936900
20
463.259000
11
44.936900
21
463.259000
0
LINE
8
DEFAULT
10
44.936900
20
463.259000
11
48.631940
21
461.125660
0
LINE
8
DEFAULT
10
50.738600
20
464.775000
11
50.738600
21
464.775000
0
LINE
8
DEFAULT
10
50.738600
20
464.775000
11
48.631930
21
461.126150
0
LINE
8
DEFAULT
10
48.631900
20
461.126000
11
48.631900
21
461.126000
0
LINE
8
DEFAULT
10
48.631900
20
461.126000
11
50.738570
21
464.774850
0
LINE
8
DEFAULT
10
64.891100
20
456.604000
11
64.891100
21
456.604000
0
LINE
8
DEFAULT
10
64.891100
20
456.604000
11
50.738600
21
464.775000
0
LINE
8
DEFAULT
10
50.738600
20
464.775000
11
50.738600
21
464.775000
0
LINE
8
DEFAULT
10
50.738600
20
464.775000
11
64.891100
21
456.604080
0
LINE
8
DEFAULT
10
50.738600
20
448.433000
11
50.738600
21
448.433000
0
LINE
8
DEFAULT
10
50.738600
20
448.433000
11
64.891100
21
456.603920
0
LINE
8
DEFAULT
10
64.891100
20
456.604000
11
64.891100
21
456.604000
0
LINE
8
DEFAULT
10
64.891100
20
456.604000
11
50.738600
21
448.433080
0
LINE
8
DEFAULT
10
48.631900
20
452.082000
11
48.631900
21
452.082000
0
LINE
8
DEFAULT
10
48.631900
20
452.082000
11
50.738570
21
448.433150
0
LINE
8
DEFAULT
10
50.738600
20
448.433000
11
50.738600
21
448.433000
0
LINE
8
DEFAULT
10
50.738600
20
448.433000
11
48.631930
21
452.081850
0
LINE
8
DEFAULT
10
44.936900
20
449.949000
11
44.936900
21
449.949000
0
LINE
8
DEFAULT
10
44.936900
20
449.949000
11
48.631940
21
452.082340
0
LINE
8
DEFAULT
10
48.631900
20
452.082000
11
48.631900
21
452.082000
0
LINE
8
DEFAULT
10
48.631900
20
452.082000
11
44.936860
21
449.948660
0
LINE
8
DEFAULT
10
48.631900
20
452.082000
11
44.936860
21
449.948660
0
LINE
8
DEFAULT
10
44.936900
20
449.949000
11
47.043570
21
446.300150
0
LINE
8
DEFAULT
10
47.043600
20
446.300000
11
32.891100
21
438.129080
0
LINE
8
DEFAULT
10
32.891100
20
438.129000
11
32.891100
21
454.471000
0
LINE
8
DEFAULT
10
32.891100
20
454.471000
11
37.104400
21
454.471000
0
LINE
8
DEFAULT
10
37.104400
20
454.471000
11
37.104400
21
458.737000
0
LINE
8
DEFAULT
10
37.104400
20
458.737000
11
32.891100
21
458.737000
0
LINE
8
DEFAULT
10
32.891100
20
458.737000
11
32.891100
21
475.079000
0
LINE
8
DEFAULT
10
32.891100
20
475.079000
11
47.043600
21
466.908080
0
LINE
8
DEFAULT
10
47.043600
20
466.908000
11
44.936930
21
463.259150
0
LINE
8
DEFAULT
10
44.936900
20
463.259000
11
48.631940
21
461.125660
0
LINE
8
DEFAULT
10
48.631900
20
461.126000
11
50.738570
21
464.774850
0
LINE
8
DEFAULT
10
50.738600
20
464.775000
11
64.891100
21
456.604080
0
LINE
8
DEFAULT
10
64.891100
20
456.604000
11
50.738600
21
448.433080
0
LINE
8
DEFAULT
10
50.738600
20
448.433000
11
48.631930
21
452.081850
0
LINE
8
DEFAULT
10
32.891100
20
438.129000
11
47.043600
21
446.299920
0
LINE
8
DEFAULT
10
47.043600
20
446.300000
11
44.936930
21
449.948850
0
LINE
8
DEFAULT
10
44.936900
20
449.949000
11
48.631940
21
452.082340
0
LINE
8
DEFAULT
10
48.631900
20
452.082000
11
50.738570
21
448.433150
0
LINE
8
DEFAULT
10
50.738600
20
448.433000
11
64.891100
21
456.603920
0
LINE
8
DEFAULT
10
64.891100
20
456.604000
11
50.738600
21
464.775000
0
LINE
8
DEFAULT
10
50.738600
20
464.775000
11
48.631930
21
461.126150
0
LINE
8
DEFAULT
10
48.631900
20
461.126000
11
44.936860
21
463.259340
0
LINE
8
DEFAULT
10
44.936900
20
463.259000
11
47.043570
21
466.907850
0
LINE
8
DEFAULT
10
47.043600
20
466.908000
11
32.891100
21
475.079000
0
LINE
8
DEFAULT
10
32.891100
20
475.079000
11
32.891100
21
458.737000
0
LINE
8
DEFAULT
10
32.891100
20
458.737000
11
37.104400
21
458.737000
0
LINE
8
DEFAULT
10
37.104400
20
458.737000
11
37.104400
21
454.471000
0
LINE
8
DEFAULT
10
37.104400
20
454.471000
11
32.891100
21
454.471000
0
LINE
8
DEFAULT
10
32.891100
20
454.471000
11
32.891100
21
438.129000
0
LINE
8
DEFAULT
10
221.977000
20
402.566000
11
219.870340
21
406.214850
0
LINE
8
DEFAULT
10
219.870000
20
406.215000
11
219.870000
21
406.215000
0
LINE
8
DEFAULT
10
219.870000
20
406.215000
11
221.976660
21
402.566150
0
LINE
8
DEFAULT
10
221.977000
20
402.566000
11
221.977000
21
402.566000
0
LINE
8
DEFAULT
10
207.824000
20
394.396000
11
207.824000
21
394.396000
0
LINE
8
DEFAULT
10
207.824000
20
394.396000
11
221.976500
21
402.566950
0
LINE
8
DEFAULT
10
221.977000
20
402.566000
11
221.977000
21
402.566000
0
LINE
8
DEFAULT
10
221.977000
20
402.566000
11
207.824500
21
394.395050
0
LINE
8
DEFAULT
10
207.824000
20
410.737000
11
207.824000
21
410.737000
0
LINE
8
DEFAULT
10
207.824000
20
410.737000
11
207.824000
21
394.396000
0
LINE
8
DEFAULT
10
207.824000
20
394.396000
11
207.824000
21
394.396000
0
LINE
8
DEFAULT
10
207.824000
20
394.396000
11
207.824000
21
410.737000
0
LINE
8
DEFAULT
10
212.038000
20
410.737000
11
212.038000
21
410.737000
0
LINE
8
DEFAULT
10
212.038000
20
410.737000
11
207.824000
21
410.737000
0
LINE
8
DEFAULT
10
207.824000
20
410.737000
11
207.824000
21
410.737000
0
LINE
8
DEFAULT
10
207.824000
20
410.737000
11
212.038000
21
410.737000
0
LINE
8
DEFAULT
10
212.038000
20
415.004000
11
212.038000
21
415.004000
0
LINE
8
DEFAULT
10
212.038000
20
415.004000
11
212.038000
21
410.737000
0
LINE
8
DEFAULT
10
212.038000
20
410.737000
11
212.038000
21
410.737000
0
LINE
8
DEFAULT
10
212.038000
20
410.737000
11
212.038000
21
415.004000
0
LINE
8
DEFAULT
10
207.824000
20
415.004000
11
207.824000
21
415.004000
0
LINE
8
DEFAULT
10
207.824000
20
415.004000
11
212.038000
21
415.004000
0
LINE
8
DEFAULT
10
212.038000
20
415.004000
11
212.038000
21
415.004000
0
LINE
8
DEFAULT
10
212.038000
20
415.004000
11
207.824000
21
415.004000
0
LINE
8
DEFAULT
10
207.824000
20
431.346000
11
207.824000
21
431.346000
0
LINE
8
DEFAULT
10
207.824000
20
431.346000
11
207.824000
21
415.004000
0
LINE
8
DEFAULT
10
207.824000
20
415.004000
11
207.824000
21
415.004000
0
LINE
8
DEFAULT
10
207.824000
20
415.004000
11
207.824000
21
431.346000
0
LINE
8
DEFAULT
10
221.977000
20
423.175000
11
221.977000
21
423.175000
0
LINE
8
DEFAULT
10
221.977000
20
423.175000
11
207.824500
21
431.345920
0
LINE
8
DEFAULT
10
207.824000
20
431.346000
11
207.824000
21
431.346000
0
LINE
8
DEFAULT
10
207.824000
20
431.346000
11
221.976500
21
423.175080
0
LINE
8
DEFAULT
10
219.870000
20
419.526000
11
219.870000
21
419.526000
0
LINE
8
DEFAULT
10
219.870000
20
419.526000
11
221.976660
21
423.174850
0
LINE
8
DEFAULT
10
221.977000
20
423.175000
11
221.977000
21
423.175000
0
LINE
8
DEFAULT
10
221.977000
20
423.175000
11
219.870340
21
419.526150
0
LINE
8
DEFAULT
10
223.565000
20
417.393000
11
223.565000
21
417.393000
0
LINE
8
DEFAULT
10
223.565000
20
417.393000
11
219.869960
21
419.526340
0
LINE
8
DEFAULT
10
219.870000
20
419.526000
11
219.870000
21
419.526000
0
LINE
8
DEFAULT
10
219.870000
20
419.526000
11
223.565040
21
417.392660
0
LINE
8
DEFAULT
10
225.672000
20
421.042000
11
225.672000
21
421.042000
0
LINE
8
DEFAULT
10
225.672000
20
421.042000
11
223.565330
21
417.393150
0
LINE
8
DEFAULT
10
223.565000
20
417.393000
11
223.565000
21
417.393000
0
LINE
8
DEFAULT
10
223.565000
20
417.393000
11
225.671670
21
421.041850
0
LINE
8
DEFAULT
10
239.824000
20
412.871000
11
239.824000
21
412.871000
0
LINE
8
DEFAULT
10
239.824000
20
412.871000
11
225.671500
21
421.041920
0
LINE
8
DEFAULT
10
225.672000
20
421.042000
11
225.672000
21
421.042000
0
LINE
8
DEFAULT
10
225.672000
20
421.042000
11
239.824500
21
412.871080
0
LINE
8
DEFAULT
10
225.672000
20
404.700000
11
225.672000
21
404.700000
0
LINE
8
DEFAULT
10
225.672000
20
404.700000
11
239.824500
21
412.870950
0
LINE
8
DEFAULT
10
239.824000
20
412.871000
11
239.824000
21
412.871000
0
LINE
8
DEFAULT
10
239.824000
20
412.871000
11
225.671500
21
404.700050
0
LINE
8
DEFAULT
10
223.565000
20
408.349000
11
223.565000
21
408.349000
0
LINE
8
DEFAULT
10
223.565000
20
408.349000
11
225.671670
21
404.700150
0
LINE
8
DEFAULT
10
225.672000
20
404.700000
11
225.672000
21
404.700000
0
LINE
8
DEFAULT
10
225.672000
20
404.700000
11
223.565330
21
408.348850
0
LINE
8
DEFAULT
10
219.870000
20
406.215000
11
219.870000
21
406.215000
0
LINE
8
DEFAULT
10
219.870000
20
406.215000
11
223.565040
21
408.348320
0
LINE
8
DEFAULT
10
223.565000
20
408.349000
11
223.565000
21
408.349000
0
LINE
8
DEFAULT
10
223.565000
20
408.349000
11
219.869960
21
406.215680
0
LINE
8
DEFAULT
10
223.565000
20
408.349000
11
219.869960
21
406.215680
0
LINE
8
DEFAULT
10
219.870000
20
406.215000
11
221.976660
21
402.566150
0
LINE
8
DEFAULT
10
221.977000
20
402.566000
11
207.824500
21
394.395050
0
LINE
8
DEFAULT
10
207.824000
20
394.396000
11
207.824000
21
410.737000
0
LINE
8
DEFAULT
10
207.824000
20
410.737000
11
212.038000
21
410.737000
0
LINE
8
DEFAULT
10
212.038000
20
410.737000
11
212.038000
21
415.004000
0
LINE
8
DEFAULT
10
212.038000
20
415.004000
11
207.824000
21
415.004000
0
LINE
8
DEFAULT
10
207.824000
20
415.004000
11
207.824000
21
431.346000
0
LINE
8
DEFAULT
10
207.824000
20
431.346000
11
221.976500
21
423.175080
0
LINE
8
DEFAULT
10
221.977000
20
423.175000
11
219.870340
21
419.526150
0
LINE
8
DEFAULT
10
219.870000
20
419.526000
11
223.565040
21
417.392660
0
LINE
8
DEFAULT
10
223.565000
20
417.393000
11
225.671670
21
421.041850
0
LINE
8
DEFAULT
10
225.672000
20
421.042000
11
239.824500
21
412.871080
0
LINE
8
DEFAULT
10
239.824000
20
412.871000
11
225.671500
21
404.700050
0
LINE
8
DEFAULT
10
225.672000
20
404.700000
11
223.565330
21
408.348850
0
LINE
8
DEFAULT
10
207.824000
20
394.396000
11
221.976500
21
402.566950
0
LINE
8
DEFAULT
10
221.977000
20
402.566000
11
219.870340
21
406.214850
0
LINE
8
DEFAULT
10
219.870000
20
406.215000
11
223.565040
21
408.348320
0
LINE
8
DEFAULT
10
223.565000
20
408.349000
11
225.671670
21
404.700150
0
LINE
8
DEFAULT
10
225.672000
20
404.700000
11
239.824500
21
412.870950
0
LINE
8
DEFAULT
10
239.824000
20
412.871000
11
225.671500
21
421.041920
0
LINE
8
DEFAULT
10
225.672000
20
421.042000
11
223.565330
21
417.393150
0
LINE
8
DEFAULT
10
223.565000
20
417.393000
11
219.869960
21
419.526340
0
LINE
8
DEFAULT
10
219.870000
20
419.526000
11
221.976660
21
423.174850
0
LINE
8
DEFAULT
10
221.977000
20
423.175000
11
207.824500
21
431.345920
0
LINE
8
DEFAULT
10
207.824000
20
431.346000
11
207.824000
21
415.004000
0
LINE
8
DEFAULT
10
207.824000
20
415.004000
11
212.038000
21
415.004000
0
LINE
8
DEFAULT
10
212.038000
20
415.004000
11
212.038000
21
410.737000
0
LINE
8
DEFAULT
10
212.038000
20
410.737000
11
207.824000
21
410.737000
0
LINE
8
DEFAULT
10
207.824000
20
410.737000
11
207.824000
21
394.396000
0
LINE
8
DEFAULT
10
178.243000
20
402.566000
11
176.136340
21
406.214850
0
LINE
8
DEFAULT
10
176.137000
20
406.215000
11
176.137000
21
406.215000
0
LINE
8
DEFAULT
10
176.137000
20
406.215000
11
178.243660
21
402.566150
0
LINE
8
DEFAULT
10
178.243000
20
402.566000
11
178.243000
21
402.566000
0
LINE
8
DEFAULT
10
164.091000
20
394.396000
11
164.091000
21
394.396000
0
LINE
8
DEFAULT
10
164.091000
20
394.396000
11
178.243500
21
402.566950
0
LINE
8
DEFAULT
10
178.243000
20
402.566000
11
178.243000
21
402.566000
0
LINE
8
DEFAULT
10
178.243000
20
402.566000
11
164.090500
21
394.395050
0
LINE
8
DEFAULT
10
164.091000
20
410.737000
11
164.091000
21
410.737000
0
LINE
8
DEFAULT
10
164.091000
20
410.737000
11
164.091000
21
394.396000
0
LINE
8
DEFAULT
10
164.091000
20
394.396000
11
164.091000
21
394.396000
0
LINE
8
DEFAULT
10
164.091000
20
394.396000
11
164.091000
21
410.737000
0
LINE
8
DEFAULT
10
168.304000
20
410.737000
11
168.304000
21
410.737000
0
LINE
8
DEFAULT
10
168.304000
20
410.737000
11
164.091000
21
410.737000
0
LINE
8
DEFAULT
10
164.091000
20
410.737000
11
164.091000
21
410.737000
0
LINE
8
DEFAULT
10
164.091000
20
410.737000
11
168.304000
21
410.737000
0
LINE
8
DEFAULT
10
168.304000
20
415.004000
11
168.304000
21
415.004000
0
LINE
8
DEFAULT
10
168.304000
20
415.004000
11
168.304000
21
410.737000
0
LINE
8
DEFAULT
10
168.304000
20
410.737000
11
168.304000
21
410.737000
0
LINE
8
DEFAULT
10
168.304000
20
410.737000
11
168.304000
21
415.004000
0
LINE
8
DEFAULT
10
164.091000
20
415.004000
11
164.091000
21
415.004000
0
LINE
8
DEFAULT
10
164.091000
20
415.004000
11
168.304000
21
415.004000
0
LINE
8
DEFAULT
10
168.304000
20
415.004000
11
168.304000
21
415.004000
0
LINE
8
DEFAULT
10
168.304000
20
415.004000
11
164.091000
21
415.004000
0
LINE
8
DEFAULT
10
164.091000
20
431.346000
11
164.091000
21
431.346000
0
LINE
8
DEFAULT
10
164.091000
20
431.346000
11
164.091000
21
415.004000
0
LINE
8
DEFAULT
10
164.091000
20
415.004000
11
164.091000
21
415.004000
0
LINE
8
DEFAULT
10
164.091000
20
415.004000
11
164.091000
21
431.346000
0
LINE
8
DEFAULT
10
178.243000
20
423.175000
11
178.243000
21
423.175000
0
LINE
8
DEFAULT
10
178.243000
20
423.175000
11
164.090500
21
431.345920
0
LINE
8
DEFAULT
10
164.091000
20
431.346000
11
164.091000
21
431.346000
0
LINE
8
DEFAULT
10
164.091000
20
431.346000
11
178.243500
21
423.175080
0
LINE
8
DEFAULT
10
176.137000
20
419.526000
11
176.137000
21
419.526000
0
LINE
8
DEFAULT
10
176.137000
20
419.526000
11
178.243660
21
423.174850
0
LINE
8
DEFAULT
10
178.243000
20
423.175000
11
178.243000
21
423.175000
0
LINE
8
DEFAULT
10
178.243000
20
423.175000
11
176.136340
21
419.526150
0
LINE
8
DEFAULT
10
179.832000
20
417.393000
11
179.832000
21
417.393000
0
LINE
8
DEFAULT
10
179.832000
20
417.393000
11
176.136960
21
419.526340
0
LINE
8
DEFAULT
10
176.137000
20
419.526000
11
176.137000
21
419.526000
0
LINE
8
DEFAULT
10
176.137000
20
419.526000
11
179.832040
21
417.392660
0
LINE
8
DEFAULT
10
181.938000
20
421.042000
11
181.938000
21
421.042000
0
LINE
8
DEFAULT
10
181.938000
20
421.042000
11
179.831330
21
417.393150
0
LINE
8
DEFAULT
10
179.832000
20
417.393000
11
179.832000
21
417.393000
0
LINE
8
DEFAULT
10
179.832000
20
417.393000
11
181.938670
21
421.041850
0
LINE
8
DEFAULT
10
196.091000
20
412.871000
11
196.091000
21
412.871000
0
LINE
8
DEFAULT
10
196.091000
20
412.871000
11
181.938500
21
421.041920
0
LINE
8
DEFAULT
10
181.938000
20
421.042000
11
181.938000
21
421.042000
0
LINE
8
DEFAULT
10
181.938000
20
421.042000
11
196.090500
21
412.871080
0
LINE
8
DEFAULT
10
181.938000
20
404.700000
11
181.938000
21
404.700000
0
LINE
8
DEFAULT
10
181.938000
20
404.700000
11
196.090500
21
412.870950
0
LINE
8
DEFAULT
10
196.091000
20
412.871000
11
196.091000
21
412.871000
0
LINE
8
DEFAULT
10
196.091000
20
412.871000
11
181.938500
21
404.700050
0
LINE
8
DEFAULT
10
179.832000
20
408.349000
11
179.832000
21
408.349000
0
LINE
8
DEFAULT
10
179.832000
20
408.349000
11
181.938670
21
404.700150
0
LINE
8
DEFAULT
10
181.938000
20
404.700000
11
181.938000
21
404.700000
0
LINE
8
DEFAULT
10
181.938000
20
404.700000
11
179.831330
21
408.348850
0
LINE
8
DEFAULT
10
176.137000
20
406.215000
11
176.137000
21
406.215000
0
LINE
8
DEFAULT
10
176.137000
20
406.215000
11
179.832040
21
408.348320
0
LINE
8
DEFAULT
10
179.832000
20
408.349000
11
179.832000
21
408.349000
0
LINE
8
DEFAULT
10
179.832000
20
408.349000
11
176.136960
21
406.215680
0
LINE
8
DEFAULT
10
179.832000
20
408.349000
11
176.136960
21
406.215680
0
LINE
8
DEFAULT
10
176.137000
20
406.215000
11
178.243660
21
402.566150
0
LINE
8
DEFAULT
10
178.243000
20
402.566000
11
164.090500
21
394.395050
0
LINE
8
DEFAULT
10
164.091000
20
394.396000
11
164.091000
21
410.737000
0
LINE
8
DEFAULT
10
164.091000
20
410.737000
11
168.304000
21
410.737000
0
LINE
8
DEFAULT
10
168.304000
20
410.737000
11
168.304000
21
415.004000
0
LINE
8
DEFAULT
10
168.304000
20
415.004000
11
164.091000
21
415.004000
0
LINE
8
DEFAULT
10
164.091000
20
415.004000
11
164.091000
21
431.346000
0
LINE
8
DEFAULT
10
164.091000
20
431.346000
11
178.243500
21
423.175080
0
LINE
8
DEFAULT
10
178.243000
20
423.175000
11
176.136340
21
419.526150
0
LINE
8
DEFAULT
10
176.137000
20
419.526000
11
179.832040
21
417.392660
0
LINE
8
DEFAULT
10
179.832000
20
417.393000
11
181.938670
21
421.041850
0
LINE
8
DEFAULT
10
181.938000
20
421.042000
11
196.090500
21
412.871080
0
LINE
8
DEFAULT
10
196.091000
20
412.871000
11
181.938500
21
404.700050
0
LINE
8
DEFAULT
10
181.938000
20
404.700000
11
179.831330
21
408.348850
0
LINE
8
DEFAULT
10
164.091000
20
394.396000
11
178.243500
21
402.566950
0
LINE
8
DEFAULT
10
178.243000
20
402.566000
11
176.136340
21
406.214850
0
LINE
8
DEFAULT
10
176.137000
20
406.215000
11
179.832040
21
408.348320
0
LINE
8
DEFAULT
10
179.832000
20
408.349000
11
181.938670
21
404.700150
0
LINE
8
DEFAULT
10
181.938000
20
404.700000
11
196.090500
21
412.870950
0
LINE
8
DEFAULT
10
196.091000
20
412.871000
11
181.938500
21
421.041920
0
LINE
8
DEFAULT
10
181.938000
20
421.042000
11
179.831330
21
417.393150
0
LINE
8
DEFAULT
10
179.832000
20
417.393000
11
176.136960
21
419.526340
0
LINE
8
DEFAULT
10
176.137000
20
419.526000
11
178.243660
21
423.174850
0
LINE
8
DEFAULT
10
178.243000
20
423.175000
11
164.090500
21
431.345920
0
LINE
8
DEFAULT
10
164.091000
20
431.346000
11
164.091000
21
415.004000
0
LINE
8
DEFAULT
10
164.091000
20
415.004000
11
168.304000
21
415.004000
0
LINE
8
DEFAULT
10
168.304000
20
415.004000
11
168.304000
21
410.737000
0
LINE
8
DEFAULT
10
168.304000
20
410.737000
11
164.091000
21
410.737000
0
LINE
8
DEFAULT
10
164.091000
20
410.737000
11
164.091000
21
394.396000
0
LINE
8
DEFAULT
10
134.510000
20
402.566000
11
132.403340
21
406.214850
0
LINE
8
DEFAULT
10
132.403000
20
406.215000
11
132.403000
21
406.215000
0
LINE
8
DEFAULT
10
132.403000
20
406.215000
11
134.509660
21
402.566150
0
LINE
8
DEFAULT
10
134.510000
20
402.566000
11
134.510000
21
402.566000
0
LINE
8
DEFAULT
10
120.358000
20
394.396000
11
120.358000
21
394.396000
0
LINE
8
DEFAULT
10
120.358000
20
394.396000
11
134.510500
21
402.566950
0
LINE
8
DEFAULT
10
134.510000
20
402.566000
11
134.510000
21
402.566000
0
LINE
8
DEFAULT
10
134.510000
20
402.566000
11
120.357500
21
394.395050
0
LINE
8
DEFAULT
10
120.358000
20
410.737000
11
120.358000
21
410.737000
0
LINE
8
DEFAULT
10
120.358000
20
410.737000
11
120.358000
21
394.396000
0
LINE
8
DEFAULT
10
120.358000
20
394.396000
11
120.358000
21
394.396000
0
LINE
8
DEFAULT
10
120.358000
20
394.396000
11
120.358000
21
410.737000
0
LINE
8
DEFAULT
10
124.571000
20
410.737000
11
124.571000
21
410.737000
0
LINE
8
DEFAULT
10
124.571000
20
410.737000
11
120.358000
21
410.737000
0
LINE
8
DEFAULT
10
120.358000
20
410.737000
11
120.358000
21
410.737000
0
LINE
8
DEFAULT
10
120.358000
20
410.737000
11
124.571000
21
410.737000
0
LINE
8
DEFAULT
10
124.571000
20
415.004000
11
124.571000
21
415.004000
0
LINE
8
DEFAULT
10
124.571000
20
415.004000
11
124.571000
21
410.737000
0
LINE
8
DEFAULT
10
124.571000
20
410.737000
11
124.571000
21
410.737000
0
LINE
8
DEFAULT
10
124.571000
20
410.737000
11
124.571000
21
415.004000
0
LINE
8
DEFAULT
10
120.358000
20
415.004000
11
120.358000
21
415.004000
0
LINE
8
DEFAULT
10
120.358000
20
415.004000
11
124.571000
21
415.004000
0
LINE
8
DEFAULT
10
124.571000
20
415.004000
11
124.571000
21
415.004000
0
LINE
8
DEFAULT
10
124.571000
20
415.004000
11
120.358000
21
415.004000
0
LINE
8
DEFAULT
10
120.358000
20
431.346000
11
120.358000
21
431.346000
0
LINE
8
DEFAULT
10
120.358000
20
431.346000
11
120.358000
21
415.004000
0
LINE
8
DEFAULT
10
120.358000
20
415.004000
11
120.358000
21
415.004000
0
LINE
8
DEFAULT
10
120.358000
20
415.004000
11
120.358000
21
431.346000
0
LINE
8
DEFAULT
10
134.510000
20
423.175000
11
134.510000
21
423.175000
0
LINE
8
DEFAULT
10
134.510000
20
423.175000
11
120.357500
21
431.345920
0
LINE
8
DEFAULT
10
120.358000
20
431.346000
11
120.358000
21
431.346000
0
LINE
8
DEFAULT
10
120.358000
20
431.346000
11
134.510500
21
423.175080
0
LINE
8
DEFAULT
10
132.403000
20
419.526000
11
132.403000
21
419.526000
0
LINE
8
DEFAULT
10
132.403000
20
419.526000
11
134.509660
21
423.174850
0
LINE
8
DEFAULT
10
134.510000
20
423.175000
11
134.510000
21
423.175000
0
LINE
8
DEFAULT
10
134.510000
20
423.175000
11
132.403340
21
419.526150
0
LINE
8
DEFAULT
10
136.099000
20
417.393000
11
136.099000
21
417.393000
0
LINE
8
DEFAULT
10
136.099000
20
417.393000
11
132.403960
21
419.526340
0
LINE
8
DEFAULT
10
132.403000
20
419.526000
11
132.403000
21
419.526000
0
LINE
8
DEFAULT
10
132.403000
20
419.526000
11
136.098040
21
417.392660
0
LINE
8
DEFAULT
10
138.205000
20
421.042000
11
138.205000
21
421.042000
0
LINE
8
DEFAULT
10
138.205000
20
421.042000
11
136.098330
21
417.393150
0
LINE
8
DEFAULT
10
136.099000
20
417.393000
11
136.099000
21
417.393000
0
LINE
8
DEFAULT
10
136.099000
20
417.393000
11
138.205670
21
421.041850
0
LINE
8
DEFAULT
10
152.358000
20
412.871000
11
152.358000
21
412.871000
0
LINE
8
DEFAULT
10
152.358000
20
412.871000
11
138.205500
21
421.041920
0
LINE
8
DEFAULT
10
138.205000
20
421.042000
11
138.205000
21
421.042000
0
LINE
8
DEFAULT
10
138.205000
20
421.042000
11
152.357500
21
412.871080
0
LINE
8
DEFAULT
10
138.205000
20
404.700000
11
138.205000
21
404.700000
0
LINE
8
DEFAULT
10
138.205000
20
404.700000
11
152.357500
21
412.870950
0
LINE
8
DEFAULT
10
152.358000
20
412.871000
11
152.358000
21
412.871000
0
LINE
8
DEFAULT
10
152.358000
20
412.871000
11
138.205500
21
404.700050
0
LINE
8
DEFAULT
10
136.099000
20
408.349000
11
136.099000
21
408.349000
0
LINE
8
DEFAULT
10
136.099000
20
408.349000
11
138.205670
21
404.700150
0
LINE
8
DEFAULT
10
138.205000
20
404.700000
11
138.205000
21
404.700000
0
LINE
8
DEFAULT
10
138.205000
20
404.700000
11
136.098330
21
408.348850
0
LINE
8
DEFAULT
10
132.403000
20
406.215000
11
132.403000
21
406.215000
0
LINE
8
DEFAULT
10
132.403000
20
406.215000
11
136.098040
21
408.348320
0
LINE
8
DEFAULT
10
136.099000
20
408.349000
11
136.099000
21
408.349000
0
LINE
8
DEFAULT
10
136.099000
20
408.349000
11
132.403960
21
406.215680
0
LINE
8
DEFAULT
10
136.099000
20
408.349000
11
132.403960
21
406.215680
0
LINE
8
DEFAULT
10
132.403000
20
406.215000
11
134.509660
21
402.566150
0
LINE
8
DEFAULT
10
134.510000
20
402.566000
11
120.357500
21
394.395050
0
LINE
8
DEFAULT
10
120.358000
20
394.396000
11
120.358000
21
410.737000
0
LINE
8
DEFAULT
10
120.358000
20
410.737000
11
124.571000
21
410.737000
0
LINE
8
DEFAULT
10
124.571000
20
410.737000
11
124.571000
21
415.004000
0
LINE
8
DEFAULT
10
124.571000
20
415.004000
11
120.358000
21
415.004000
0
LINE
8
DEFAULT
10
120.358000
20
415.004000
11
120.358000
21
431.346000
0
LINE
8
DEFAULT
10
120.358000
20
431.346000
11
134.510500
21
423.175080
0
LINE
8
DEFAULT
10
134.510000
20
423.175000
11
132.403340
21
419.526150
0
LINE
8
DEFAULT
10
132.403000
20
419.526000
11
136.098040
21
417.392660
0
LINE
8
DEFAULT
10
136.099000
20
417.393000
11
138.205670
21
421.041850
0
LINE
8
DEFAULT
10
138.205000
20
421.042000
11
152.357500
21
412.871080
0
LINE
8
DEFAULT
10
152.358000
20
412.871000
11
138.205500
21
404.700050
0
LINE
8
DEFAULT
10
138.205000
20
404.700000
11
136.098330
21
408.348850
0
LINE
8
DEFAULT
10
120.358000
20
394.396000
11
134.510500
21
402.566950
0
LINE
8
DEFAULT
10
134.510000
20
402.566000
11
132.403340
21
406.214850
0
LINE
8
DEFAULT
10
132.403000
20
406.215000
11
136.098040
21
408.348320
0
LINE
8
DEFAULT
10
136.099000
20
408.349000
11
138.205670
21
404.700150
0
LINE
8
DEFAULT
10
138.205000
20
404.700000
11
152.357500
21
412.870950
0
LINE
8
DEFAULT
10
152.358000
20
412.871000
11
138.205500
21
421.041920
0
LINE
8
DEFAULT
10
138.205000
20
421.042000
11
136.098330
21
417.393150
0
LINE
8
DEFAULT
10
136.099000
20
417.393000
11
132.403960
21
419.526340
0
LINE
8
DEFAULT
10
132.403000
20
419.526000
11
134.509660
21
423.174850
0
LINE
8
DEFAULT
10
134.510000
20
423.175000
11
120.357500
21
431.345920
0
LINE
8
DEFAULT
10
120.358000
20
431.346000
11
120.358000
21
415.004000
0
LINE
8
DEFAULT
10
120.358000
20
415.004000
11
124.571000
21
415.004000
0
LINE
8
DEFAULT
10
124.571000
20
415.004000
11
124.571000
21
410.737000
0
LINE
8
DEFAULT
10
124.571000
20
410.737000
11
120.358000
21
410.737000
0
LINE
8
DEFAULT
10
120.358000
20
410.737000
11
120.358000
21
394.396000
0
LINE
8
DEFAULT
10
90.776900
20
402.566000
11
88.670240
21
406.214850
0
LINE
8
DEFAULT
10
88.670200
20
406.215000
11
88.670200
21
406.215000
0
LINE
8
DEFAULT
10
88.670200
20
406.215000
11
90.776860
21
402.566150
0
LINE
8
DEFAULT
10
90.776900
20
402.566000
11
90.776900
21
402.566000
0
LINE
8
DEFAULT
10
76.624400
20
394.396000
11
76.624400
21
394.396000
0
LINE
8
DEFAULT
10
76.624400
20
394.396000
11
90.776900
21
402.566950
0
LINE
8
DEFAULT
10
90.776900
20
402.566000
11
90.776900
21
402.566000
0
LINE
8
DEFAULT
10
90.776900
20
402.566000
11
76.624400
21
394.395050
0
LINE
8
DEFAULT
10
76.624400
20
410.737000
11
76.624400
21
410.737000
0
LINE
8
DEFAULT
10
76.624400
20
410.737000
11
76.624400
21
394.396000
0
LINE
8
DEFAULT
10
76.624400
20
394.396000
11
76.624400
21
394.396000
0
LINE
8
DEFAULT
10
76.624400
20
394.396000
11
76.624400
21
410.737000
0
LINE
8
DEFAULT
10
80.837700
20
410.737000
11
80.837700
21
410.737000
0
LINE
8
DEFAULT
10
80.837700
20
410.737000
11
76.624400
21
410.737000
0
LINE
8
DEFAULT
10
76.624400
20
410.737000
11
76.624400
21
410.737000
0
LINE
8
DEFAULT
10
76.624400
20
410.737000
11
80.837700
21
410.737000
0
LINE
8
DEFAULT
10
80.837700
20
415.004000
11
80.837700
21
415.004000
0
LINE
8
DEFAULT
10
80.837700
20
415.004000
11
80.837700
21
410.737000
0
LINE
8
DEFAULT
10
80.837700
20
410.737000
11
80.837700
21
410.737000
0
LINE
8
DEFAULT
10
80.837700
20
410.737000
11
80.837700
21
415.004000
0
LINE
8
DEFAULT
10
76.624400
20
415.004000
11
76.624400
21
415.004000
0
LINE
8
DEFAULT
10
76.624400
20
415.004000
11
80.837700
21
415.004000
0
LINE
8
DEFAULT
10
80.837700
20
415.004000
11
80.837700
21
415.004000
0
LINE
8
DEFAULT
10
80.837700
20
415.004000
11
76.624400
21
415.004000
0
LINE
8
DEFAULT
10
76.624400
20
431.346000
11
76.624400
21
431.346000
0
LINE
8
DEFAULT
10
76.624400
20
431.346000
11
76.624400
21
415.004000
0
LINE
8
DEFAULT
10
76.624400
20
415.004000
11
76.624400
21
415.004000
0
LINE
8
DEFAULT
10
76.624400
20
415.004000
11
76.624400
21
431.346000
0
LINE
8
DEFAULT
10
90.776900
20
423.175000
11
90.776900
21
423.175000
0
LINE
8
DEFAULT
10
90.776900
20
423.175000
11
76.624400
21
431.345920
0
LINE
8
DEFAULT
10
76.624400
20
431.346000
11
76.624400
21
431.346000
0
LINE
8
DEFAULT
10
76.624400
20
431.346000
11
90.776900
21
423.175080
0
LINE
8
DEFAULT
10
88.670200
20
419.526000
11
88.670200
21
419.526000
0
LINE
8
DEFAULT
10
88.670200
20
419.526000
11
90.776860
21
423.174850
0
LINE
8
DEFAULT
10
90.776900
20
423.175000
11
90.776900
21
423.175000
0
LINE
8
DEFAULT
10
90.776900
20
423.175000
11
88.670240
21
419.526150
0
LINE
8
DEFAULT
10
92.365200
20
417.393000
11
92.365200
21
417.393000
0
LINE
8
DEFAULT
10
92.365200
20
417.393000
11
88.670160
21
419.526340
0
LINE
8
DEFAULT
10
88.670200
20
419.526000
11
88.670200
21
419.526000
0
LINE
8
DEFAULT
10
88.670200
20
419.526000
11
92.365240
21
417.392660
0
LINE
8
DEFAULT
10
94.471900
20
421.042000
11
94.471900
21
421.042000
0
LINE
8
DEFAULT
10
94.471900
20
421.042000
11
92.365230
21
417.393150
0
LINE
8
DEFAULT
10
92.365200
20
417.393000
11
92.365200
21
417.393000
0
LINE
8
DEFAULT
10
92.365200
20
417.393000
11
94.471870
21
421.041850
0
LINE
8
DEFAULT
10
108.624000
20
412.871000
11
108.624000
21
412.871000
0
LINE
8
DEFAULT
10
108.624000
20
412.871000
11
94.471500
21
421.041920
0
LINE
8
DEFAULT
10
94.471900
20
421.042000
11
94.471900
21
421.042000
0
LINE
8
DEFAULT
10
94.471900
20
421.042000
11
108.624400
21
412.871080
0
LINE
8
DEFAULT
10
94.471900
20
404.700000
11
94.471900
21
404.700000
0
LINE
8
DEFAULT
10
94.471900
20
404.700000
11
108.624400
21
412.870950
0
LINE
8
DEFAULT
10
108.624000
20
412.871000
11
108.624000
21
412.871000
0
LINE
8
DEFAULT
10
108.624000
20
412.871000
11
94.471500
21
404.700050
0
LINE
8
DEFAULT
10
92.365200
20
408.349000
11
92.365200
21
408.349000
0
LINE
8
DEFAULT
10
92.365200
20
408.349000
11
94.471870
21
404.700150
0
LINE
8
DEFAULT
10
94.471900
20
404.700000
11
94.471900
21
404.700000
0
LINE
8
DEFAULT
10
94.471900
20
404.700000
11
92.365230
21
408.348850
0
LINE
8
DEFAULT
10
88.670200
20
406.215000
11
88.670200
21
406.215000
0
LINE
8
DEFAULT
10
88.670200
20
406.215000
11
92.365240
21
408.348320
0
LINE
8
DEFAULT
10
92.365200
20
408.349000
11
92.365200
21
408.349000
0
LINE
8
DEFAULT
10
92.365200
20
408.349000
11
88.670160
21
406.215680
0
LINE
8
DEFAULT
10
92.365200
20
408.349000
11
88.670160
21
406.215680
0
LINE
8
DEFAULT
10
88.670200
20
406.215000
11
90.776860
21
402.566150
0
LINE
8
DEFAULT
10
90.776900
20
402.566000
11
76.624400
21
394.395050
0
LINE
8
DEFAULT
10
76.624400
20
394.396000
11
76.624400
21
410.737000
0
LINE
8
DEFAULT
10
76.624400
20
410.737000
11
80.837700
21
410.737000
0
LINE
8
DEFAULT
10
80.837700
20
410.737000
11
80.837700
21
415.004000
0
LINE
8
DEFAULT
10
80.837700
20
415.004000
11
76.624400
21
415.004000
0
LINE
8
DEFAULT
10
76.624400
20
415.004000
11
76.624400
21
431.346000
0
LINE
8
DEFAULT
10
76.624400
20
431.346000
11
90.776900
21
423.175080
0
LINE
8
DEFAULT
10
90.776900
20
423.175000
11
88.670240
21
419.526150
0
LINE
8
DEFAULT
10
88.670200
20
419.526000
11
92.365240
21
417.392660
0
LINE
8
DEFAULT
10
92.365200
20
417.393000
11
94.471870
21
421.041850
0
LINE
8
DEFAULT
10
94.471900
20
421.042000
11
108.624400
21
412.871080
0
LINE
8
DEFAULT
10
108.624000
20
412.871000
11
94.471500
21
404.700050
0
LINE
8
DEFAULT
10
94.471900
20
404.700000
11
92.365230
21
408.348850
0
LINE
8
DEFAULT
10
76.624400
20
394.396000
11
90.776900
21
402.566950
0
LINE
8
DEFAULT
10
90.776900
20
402.566000
11
88.670240
21
406.214850
0
LINE
8
DEFAULT
10
88.670200
20
406.215000
11
92.365240
21
408.348320
0
LINE
8
DEFAULT
10
92.365200
20
408.349000
11
94.471870
21
404.700150
0
LINE
8
DEFAULT
10
94.471900
20
404.700000
11
108.624400
21
412.870950
0
LINE
8
DEFAULT
10
108.624000
20
412.871000
11
94.471500
21
421.041920
0
LINE
8
DEFAULT
10
94.471900
20
421.042000
11
92.365230
21
417.393150
0
LINE
8
DEFAULT
10
92.365200
20
417.393000
11
88.670160
21
419.526340
0
LINE
8
DEFAULT
10
88.670200
20
419.526000
11
90.776860
21
423.174850
0
LINE
8
DEFAULT
10
90.776900
20
423.175000
11
76.624400
21
431.345920
0
LINE
8
DEFAULT
10
76.624400
20
431.346000
11
76.624400
21
415.004000
0
LINE
8
DEFAULT
10
76.624400
20
415.004000
11
80.837700
21
415.004000
0
LINE
8
DEFAULT
10
80.837700
20
415.004000
11
80.837700
21
410.737000
0
LINE
8
DEFAULT
10
80.837700
20
410.737000
11
76.624400
21
410.737000
0
LINE
8
DEFAULT
10
76.624400
20
410.737000
11
76.624400
21
394.396000
0
LINE
8
DEFAULT
10
47.043600
20
402.566000
11
44.936930
21
406.214850
0
LINE
8
DEFAULT
10
44.936900
20
406.215000
11
44.936900
21
406.215000
0
LINE
8
DEFAULT
10
44.936900
20
406.215000
11
47.043570
21
402.566150
0
LINE
8
DEFAULT
10
47.043600
20
402.566000
11
47.043600
21
402.566000
0
LINE
8
DEFAULT
10
32.891100
20
394.396000
11
32.891100
21
394.396000
0
LINE
8
DEFAULT
10
32.891100
20
394.396000
11
47.043600
21
402.566950
0
LINE
8
DEFAULT
10
47.043600
20
402.566000
11
47.043600
21
402.566000
0
LINE
8
DEFAULT
10
47.043600
20
402.566000
11
32.891100
21
394.395050
0
LINE
8
DEFAULT
10
32.891100
20
410.737000
11
32.891100
21
410.737000
0
LINE
8
DEFAULT
10
32.891100
20
410.737000
11
32.891100
21
394.396000
0
LINE
8
DEFAULT
10
32.891100
20
394.396000
11
32.891100
21
394.396000
0
LINE
8
DEFAULT
10
32.891100
20
394.396000
11
32.891100
21
410.737000
0
LINE
8
DEFAULT
10
37.104400
20
410.737000
11
37.104400
21
410.737000
0
LINE
8
DEFAULT
10
37.104400
20
410.737000
11
32.891100
21
410.737000
0
LINE
8
DEFAULT
10
32.891100
20
410.737000
11
32.891100
21
410.737000
0
LINE
8
DEFAULT
10
32.891100
20
410.737000
11
37.104400
21
410.737000
0
LINE
8
DEFAULT
10
37.104400
20
415.004000
11
37.104400
21
415.004000
0
LINE
8
DEFAULT
10
37.104400
20
415.004000
11
37.104400
21
410.737000
0
LINE
8
DEFAULT
10
37.104400
20
410.737000
11
37.104400
21
410.737000
0
LINE
8
DEFAULT
10
37.104400
20
410.737000
11
37.104400
21
415.004000
0
LINE
8
DEFAULT
10
32.891100
20
415.004000
11
32.891100
21
415.004000
0
LINE
8
DEFAULT
10
32.891100
20
415.004000
11
37.104400
21
415.004000
0
LINE
8
DEFAULT
10
37.104400
20
415.004000
11
37.104400
21
415.004000
0
LINE
8
DEFAULT
10
37.104400
20
415.004000
11
32.891100
21
415.004000
0
LINE
8
DEFAULT
10
32.891100
20
431.346000
11
32.891100
21
431.346000
0
LINE
8
DEFAULT
10
32.891100
20
431.346000
11
32.891100
21
415.004000
0
LINE
8
DEFAULT
10
32.891100
20
415.004000
11
32.891100
21
415.004000
0
LINE
8
DEFAULT
10
32.891100
20
415.004000
11
32.891100
21
431.346000
0
LINE
8
DEFAULT
10
47.043600
20
423.175000
11
47.043600
21
423.175000
0
LINE
8
DEFAULT
10
47.043600
20
423.175000
11
32.891100
21
431.346000
0
LINE
8
DEFAULT
10
32.891100
20
431.346000
11
32.891100
21
431.346000
0
LINE
8
DEFAULT
10
32.891100
20
431.346000
11
47.043600
21
423.175080
0
LINE
8
DEFAULT
10
44.936900
20
419.526000
11
44.936900
21
419.526000
0
LINE
8
DEFAULT
10
44.936900
20
419.526000
11
47.043570
21
423.174850
0
LINE
8
DEFAULT
10
47.043600
20
423.175000
11
47.043600
21
423.175000
0
LINE
8
DEFAULT
10
47.043600
20
423.175000
11
44.936930
21
419.526150
0
LINE
8
DEFAULT
10
48.631900
20
417.393000
11
48.631900
21
417.393000
0
LINE
8
DEFAULT
10
48.631900
20
417.393000
11
44.936860
21
419.526340
0
LINE
8
DEFAULT
10
44.936900
20
419.526000
11
44.936900
21
419.526000
0
LINE
8
DEFAULT
10
44.936900
20
419.526000
11
48.631940
21
417.392660
0
LINE
8
DEFAULT
10
50.738600
20
421.042000
11
50.738600
21
421.042000
0
LINE
8
DEFAULT
10
50.738600
20
421.042000
11
48.631930
21
417.393150
0
LINE
8
DEFAULT
10
48.631900
20
417.393000
11
48.631900
21
417.393000
0
LINE
8
DEFAULT
10
48.631900
20
417.393000
11
50.738570
21
421.041850
0
LINE
8
DEFAULT
10
64.891100
20
412.871000
11
64.891100
21
412.871000
0
LINE
8
DEFAULT
10
64.891100
20
412.871000
11
50.738600
21
421.041920
0
LINE
8
DEFAULT
10
50.738600
20
421.042000
11
50.738600
21
421.042000
0
LINE
8
DEFAULT
10
50.738600
20
421.042000
11
64.891100
21
412.871080
0
LINE
8
DEFAULT
10
50.738600
20
404.700000
11
50.738600
21
404.700000
0
LINE
8
DEFAULT
10
50.738600
20
404.700000
11
64.891100
21
412.870950
0
LINE
8
DEFAULT
10
64.891100
20
412.871000
11
64.891100
21
412.871000
0
LINE
8
DEFAULT
10
64.891100
20
412.871000
11
50.738600
21
404.700050
0
LINE
8
DEFAULT
10
48.631900
20
408.349000
11
48.631900
21
408.349000
0
LINE
8
DEFAULT
10
48.631900
20
408.349000
11
50.738570
21
404.700150
0
LINE
8
DEFAULT
10
50.738600
20
404.700000
11
50.738600
21
404.700000
0
LINE
8
DEFAULT
10
50.738600
20
404.700000
11
48.631930
21
408.348850
0
LINE
8
DEFAULT
10
44.936900
20
406.215000
11
44.936900
21
406.215000
0
LINE
8
DEFAULT
10
44.936900
20
406.215000
11
48.631940
21
408.348320
0
LINE
8
DEFAULT
10
48.631900
20
408.349000
11
48.631900
21
408.349000
0
LINE
8
DEFAULT
10
48.631900
20
408.349000
11
44.936860
21
406.215680
0
LINE
8
DEFAULT
10
48.631900
20
408.349000
11
44.936860
21
406.215680
0
LINE
8
DEFAULT
10
44.936900
20
406.215000
11
47.043570
21
402.566150
0
LINE
8
DEFAULT
10
47.043600
20
402.566000
11
32.891100
21
394.395050
0
LINE
8
DEFAULT
10
32.891100
20
394.396000
11
32.891100
21
410.737000
0
LINE
8
DEFAULT
10
32.891100
20
410.737000
11
37.104400
21
410.737000
0
LINE
8
DEFAULT
10
37.104400
20
410.737000
11
37.104400
21
415.004000
0
LINE
8
DEFAULT
10
37.104400
20
415.004000
11
32.891100
21
415.004000
0
LINE
8
DEFAULT
10
32.891100
20
415.004000
11
32.891100
21
431.346000
0
LINE
8
DEFAULT
10
32.891100
20
431.346000
11
47.043600
21
423.175080
0
LINE
8
DEFAULT
10
47.043600
20
423.175000
11
44.936930
21
419.526150
0
LINE
8
DEFAULT
10
44.936900
20
419.526000
11
48.631940
21
417.392660
0
LINE
8
DEFAULT
10
48.631900
20
417.393000
11
50.738570
21
421.041850
0
LINE
8
DEFAULT
10
50.738600
20
421.042000
11
64.891100
21
412.871080
0
LINE
8
DEFAULT
10
64.891100
20
412.871000
11
50.738600
21
404.700050
0
LINE
8
DEFAULT
10
50.738600
20
404.700000
11
48.631930
21
408.348850
0
LINE
8
DEFAULT
10
32.891100
20
394.396000
11
47.043600
21
402.566950
0
LINE
8
DEFAULT
10
47.043600
20
402.566000
11
44.936930
21
406.214850
0
LINE
8
DEFAULT
10
44.936900
20
406.215000
11
48.631940
21
408.348320
0
LINE
8
DEFAULT
10
48.631900
20
408.349000
11
50.738570
21
404.700150
0
LINE
8
DEFAULT
10
50.738600
20
404.700000
11
64.891100
21
412.870950
0
LINE
8
DEFAULT
10
64.891100
20
412.871000
11
50.738600
21
421.041920
0
LINE
8
DEFAULT
10
50.738600
20
421.042000
11
48.631930
21
417.393150
0
LINE
8
DEFAULT
10
48.631900
20
417.393000
11
44.936860
21
419.526340
0
LINE
8
DEFAULT
10
44.936900
20
419.526000
11
47.043570
21
423.174850
0
LINE
8
DEFAULT
10
47.043600
20
423.175000
11
32.891100
21
431.346000
0
LINE
8
DEFAULT
10
32.891100
20
431.346000
11
32.891100
21
415.004000
0
LINE
8
DEFAULT
10
32.891100
20
415.004000
11
37.104400
21
415.004000
0
LINE
8
DEFAULT
10
37.104400
20
415.004000
11
37.104400
21
410.737000
0
LINE
8
DEFAULT
10
37.104400
20
410.737000
11
32.891100
21
410.737000
0
LINE
8
DEFAULT
10
32.891100
20
410.737000
11
32.891100
21
394.396000
 0 
ENDSEC
 0 
EOF